<?xml version="1.0" encoding="utf-8"?>
<!-- Generator: Adobe Illustrator 17.0.2, SVG Export Plug-In . SVG Version: 6.00 Build 0)  -->
<!DOCTYPE svg PUBLIC "-//W3C//DTD SVG 1.1//EN" "http://www.w3.org/Graphics/SVG/1.1/DTD/svg11.dtd">
<svg version="1.1" id="Layer_1" xmlns="http://www.w3.org/2000/svg" xmlns:xlink="http://www.w3.org/1999/xlink" x="0px" y="0px"
	 width="114.998px" height="114.998px" viewBox="0 0 114.998 114.998" enable-background="new 0 0 114.998 114.998"
	 xml:space="preserve">
<g>
	<path fill="#E23120" d="M46.127,39.081c-0.065-0.062-0.134-0.074-0.171-0.074c-0.031,0-0.064,0.008-0.094,0.019
		c-0.091,0.04-0.153,0.129-0.153,0.225v37.846c0,0.097,0.061,0.188,0.151,0.222c0.029,0.015,0.058,0.02,0.095,0.02
		c0.037,0,0.11-0.009,0.171-0.07c0.094-0.096,0.199-0.177,0.313-0.247l31.028-18.764c0.017-0.052,0.017-0.113,0-0.165L46.44,39.326
		C46.326,39.259,46.221,39.174,46.127,39.081z"/>
	<path fill="#E23120" d="M56.977,9.039c-26.606,0-48.173,21.567-48.173,48.171c0,26.605,21.567,48.172,48.173,48.172
		c26.604,0,48.171-21.567,48.171-48.172C105.148,30.606,83.581,9.039,56.977,9.039z M78.578,59.514L47.296,78.436
		c-0.366,0.364-0.85,0.556-1.34,0.556c-0.246,0-0.491-0.044-0.727-0.144c-0.711-0.292-1.168-0.982-1.168-1.75V39.251
		c0-0.766,0.458-1.457,1.168-1.749c0.236-0.099,0.481-0.147,0.727-0.147c0.492,0,0.975,0.193,1.34,0.556l31.282,18.922
		C79.32,57.572,79.32,58.773,78.578,59.514z"/>
</g>
</svg>
