<svg version="1.1" class="Layer_1" xmlns="http://www.w3.org/2000/svg" xmlns:xlink="http://www.w3.org/1999/xlink" x="0px" y="0px"
	 width="114.998px" height="114.998px" viewBox="0 0 114.998 114.998" enable-background="new 0 0 114.998 114.998"
	 xml:space="preserve">
<path d="M57.499,8.412c-27.399,0-49.61,22.211-49.61,49.61c0,27.398,22.211,49.609,49.609,49.609
	c27.4,0,49.609-22.211,49.609-49.609C107.108,30.623,84.899,8.412,57.499,8.412z M62.601,50.196
	c0.008,0.324,0.008,0.666,0.018,1.016h8.607c0.303,0,0.598,0.133,0.807,0.367c0.207,0.236,0.303,0.543,0.268,0.859l-1.16,9.779
	c-0.061,0.551-0.529,0.963-1.074,0.963h-7.439v24.985c0,0.603-0.484,1.094-1.082,1.094H50.243c-0.6,0-1.082-0.491-1.082-1.094V63.18
	H43.79c-0.598,0-1.082-0.49-1.082-1.094v-9.78c0-0.604,0.484-1.095,1.082-1.095h5.387c0.242-16.447,4.191-19.255,12.809-19.255
	c2.529,0,5.654,0.298,10.469,0.989c0.579,0.079,0.987,0.612,0.927,1.198L72.3,43.871c-0.035,0.307-0.191,0.578-0.441,0.762
	c-0.242,0.184-0.555,0.244-0.85,0.184c-4.434-0.919-6.816-0.91-7.699,0C62.523,45.629,62.558,47.642,62.601,50.196z"/>
</svg>
