<svg version="1.2" baseProfile="tiny" class="Layer_1" xmlns="http://www.w3.org/2000/svg" xmlns:xlink="http://www.w3.org/1999/xlink"
	 x="0px" y="0px" width="114.998px" height="114.998px" viewBox="0 0 114.998 114.998" xml:space="preserve">
<path d="M57.5,8.762c-27.205,0-49.26,22.055-49.26,49.259c0,27.205,22.055,49.26,49.26,49.26c27.204,0,49.258-22.055,49.258-49.26
	C106.758,30.817,84.704,8.762,57.5,8.762z M66.475,45.143l11.546-6.688c0.693-0.399,1.479-0.609,2.267-0.609
	c1.609,0,3.113,0.866,3.919,2.261c0.608,1.04,0.771,2.259,0.458,3.43c-0.311,1.172-1.063,2.15-2.113,2.757l-11.543,6.685
	c-0.673,0.396-1.459,0.608-2.267,0.608c-1.609,0-3.11-0.865-3.918-2.258c-0.604-1.05-0.766-2.272-0.453-3.441
	C64.673,46.731,65.424,45.753,66.475,45.143z M49.981,76.293c-0.128,0.326-3.285,8.092-12.83,8.092
	c-0.706,0-1.444-0.046-2.188-0.136c-1.198-0.141-2.274-0.745-3.022-1.704c-0.744-0.946-1.075-2.131-0.932-3.33
	c0.266-2.271,2.198-3.987,4.491-3.987l0.25,0.008L36,75.259c0.422,0.05,0.797,0.073,1.156,0.073c3.335,0,4.309-2.127,4.407-2.371
	l1.514-3.808L30.665,38.119c-0.449-1.115-0.439-2.343,0.033-3.454c0.482-1.122,1.365-1.981,2.49-2.43
	c0.545-0.214,1.104-0.321,1.673-0.321c1.87,0,3.522,1.12,4.207,2.854l8.868,22.165l8.721-21.916c0.69-1.73,2.343-2.849,4.21-2.849
	c0.573,0,1.131,0.105,1.659,0.316c1.129,0.446,2.014,1.306,2.493,2.42c0.48,1.111,0.495,2.343,0.047,3.465L49.981,76.293z
	 M84.203,76.534c-0.808,1.389-2.308,2.252-3.915,2.252c-0.788,0-1.565-0.208-2.256-0.603l-11.559-6.692
	c-1.05-0.608-1.798-1.585-2.107-2.749c-0.308-1.175-0.144-2.39,0.453-3.431c0.81-1.397,2.31-2.264,3.92-2.264
	c0.801,0,1.584,0.211,2.27,0.608l11.551,6.688c1.045,0.603,1.795,1.581,2.105,2.75C84.977,74.263,84.813,75.487,84.203,76.534z
	 M89.853,61.385c-0.839,0.859-1.975,1.342-3.191,1.354l-13.354,0.126h-0.026c-2.476,0-4.507-2.014-4.525-4.486
	c-0.013-1.207,0.448-2.348,1.298-3.213c0.849-0.863,1.979-1.343,3.188-1.354l13.335-0.124c2.509,0,4.55,2.014,4.569,4.488
	C91.159,59.386,90.698,60.526,89.853,61.385z"/>
</svg>
