<?xml version="1.0" encoding="utf-8"?>
<!-- Generator: Adobe Illustrator 17.0.2, SVG Export Plug-In . SVG Version: 6.00 Build 0)  -->
<!DOCTYPE svg PUBLIC "-//W3C//DTD SVG 1.1//EN" "http://www.w3.org/Graphics/SVG/1.1/DTD/svg11.dtd">
<svg version="1.1" id="Layer_1" xmlns="http://www.w3.org/2000/svg" xmlns:xlink="http://www.w3.org/1999/xlink" x="0px" y="0px"
	 width="114.998px" height="114.998px" viewBox="0 0 114.998 114.998" enable-background="new 0 0 114.998 114.998"
	 xml:space="preserve">
<g>
	<path fill="#E23120" d="M70.948,33.63H40.276c-3.101,0-5.812,1.069-8.056,3.177c-2.178,2.042-3.236,4.637-3.236,7.937v14.722
		c0,2.805,2.064,6.769,3.555,8.552c1.842,2.209,3.622,3.633,6.805,3.914l0.928,0.082l-0.119,6.767
		c1.845-1.494,6.062-4.951,9.044-7.4l0.277-0.228h21.475c3.308,0,6.495-1.283,8.527-3.433c1.717-1.815,3.763-4.72,3.763-8.254
		V44.744C83.238,38.616,77.725,33.63,70.948,33.63z M40.075,57.061c-2.611,0-4.735-2.126-4.735-4.739
		c0-2.61,2.124-4.734,4.735-4.734c2.61,0,4.734,2.124,4.734,4.734C44.809,54.935,42.686,57.061,40.075,57.061z M55.028,57.061
		c-2.612,0-4.736-2.126-4.736-4.739c0-2.61,2.125-4.734,4.736-4.734c2.613,0,4.74,2.124,4.74,4.734
		C59.768,54.935,57.641,57.061,55.028,57.061z M69.978,57.061c-2.609,0-4.732-2.126-4.732-4.739c0-2.61,2.123-4.734,4.732-4.734
		c2.615,0,4.742,2.124,4.742,4.734C74.72,54.935,72.593,57.061,69.978,57.061z"/>
	<path fill="#E23120" d="M40.075,49.587c-1.508,0-2.735,1.227-2.735,2.734c0,1.51,1.227,2.739,2.735,2.739
		c1.507,0,2.734-1.229,2.734-2.739C42.809,50.814,41.582,49.587,40.075,49.587z"/>
	<path fill="#E23120" d="M56.386,8.519c-26.893,0-48.693,21.8-48.693,48.691c0,26.892,21.8,48.692,48.693,48.692
		c26.891,0,48.691-21.8,48.691-48.692C105.077,30.319,83.277,8.519,56.386,8.519z M85.238,59.466c0,4.192-2.344,7.55-4.31,9.628
		c-2.402,2.541-6.134,4.059-9.98,4.059H50.189c-6.328,5.199-8.633,7.092-9.582,7.78c-0.176,0.303-0.555,0.897-1.265,0.897
		c-0.315,0-0.617-0.129-0.851-0.361c-0.373-0.377-0.371-0.799-0.37-0.957l0.118-6.703c-3.509-0.571-5.554-2.492-7.236-4.509
		c-1.668-1.996-4.02-6.368-4.02-9.834V44.744c0-3.829,1.301-6.99,3.868-9.395c2.627-2.467,5.798-3.718,9.424-3.718h30.672
		c7.88,0,14.29,5.883,14.29,13.113V59.466z"/>
	<path fill="#E23120" d="M55.028,49.587c-1.509,0-2.736,1.227-2.736,2.734c0,1.51,1.228,2.739,2.736,2.739
		c1.511,0,2.74-1.229,2.74-2.739C57.768,50.814,56.539,49.587,55.028,49.587z"/>
	<path fill="#E23120" d="M69.978,49.587c-1.507,0-2.732,1.227-2.732,2.734c0,1.51,1.226,2.739,2.732,2.739
		c1.512,0,2.742-1.229,2.742-2.739C72.72,50.814,71.489,49.587,69.978,49.587z"/>
</g>
</svg>
