<?xml version="1.0" encoding="utf-8"?>
<!-- Generator: Adobe Illustrator 17.0.2, SVG Export Plug-In . SVG Version: 6.00 Build 0)  -->
<!DOCTYPE svg PUBLIC "-//W3C//DTD SVG 1.1//EN" "http://www.w3.org/Graphics/SVG/1.1/DTD/svg11.dtd">
<svg version="1.1" id="Layer_1" xmlns="http://www.w3.org/2000/svg" xmlns:xlink="http://www.w3.org/1999/xlink" x="0px" y="0px"
	 width="114.998px" height="114.998px" viewBox="0 0 114.998 114.998" enable-background="new 0 0 114.998 114.998"
	 xml:space="preserve">
<path fill="#E23120" d="M105.797,34.179v1.191c-0.631,0.536-1.261,1.072-1.998,1.697c-0.235,0.716-1.052,1.111-1.738,1.524
	c-0.469,0.277-0.699,0.556-0.747,1.034c-0.082,0.81-0.139,1.625-0.189,2.44c-0.015,0.317,1.096,1.507,1.401,1.493
	c0.133-0.006,0.269-0.136,0.646-0.344c-0.359-0.16-0.577-0.258-0.793-0.354c0.078-0.081,0.154-0.159,0.233-0.235
	c0.185,0.203,0.478,0.382,0.529,0.616c0.184,0.868-0.874,0.605-1.032,1.217c-0.126-0.188-0.205-0.308-0.177-0.262
	c-0.467,0.351-0.869,0.701-1.319,0.972c-0.352,0.212-0.758,0.33-1.147,0.47c-1.288,0.48-2.426,1.119-2.705,2.661
	c0.878,0.462,0.44,2.821-0.774,3.982c0.053-0.781-0.616-0.444-0.95-0.669c0.406,0.85,1.452,1.39,1.092,2.566
	c-0.298,0.958-0.558,1.927-0.857,2.971c-0.743-0.819,0.243-1.857-0.577-2.74v0.66c-0.301-0.259-0.596-0.518-0.897-0.777
	c-0.045-0.73-0.091-1.462-0.135-2.194c-0.076,0.011-0.145,0.02-0.221,0.029c-0.156,0.757-0.254,1.507,0.374,2.154
	c0.157,0.454,0.329,0.906,0.471,1.366c0.089,0.304,0.104,0.632,0.206,0.929c0.117,0.341,0.256,0.683,0.452,0.98
	c0.141,0.214,0.45,0.324,0.582,0.544c0.274,0.436,0.47,0.922,0.713,1.38c0.598,1.123,0.264,1.861-0.945,2.092
	c-0.044,0.008-0.076,0.051-0.114,0.075c-0.041,0.259-0.086,0.511-0.13,0.784c0.248-0.02,0.444-0.034,0.64-0.047
	c0.04,0.082,0.081,0.16,0.124,0.243c-0.463,0.313-0.899,0.674-1.389,0.925c-0.832,0.424-1.496,0.941-1.498,1.988
	c-0.844,0.19-1.71,0.426-1.851,1.366c-0.183,1.268-1.125,1.906-1.867,2.712c-0.768,0.826-1.442,1.692-1.686,2.831
	c-0.307,1.446,0.1,2.77,0.614,4.114c0.506,1.325,1.595,2.22,2.139,3.582c0.766,1.897,1.841,3.592,1.677,5.804
	c-0.057,0.814-0.248,1.402-0.716,1.964c-0.229,0.281-0.525,0.504-0.794,0.755c0.142-0.231,0.263-0.483,0.432-0.693
	c0.194-0.241,0.43-0.446,0.65-0.669c-0.042-0.054-0.083-0.105-0.124-0.161c-0.401,0.154-0.801,0.306-1.339,0.514
	c0.138-1.657-1.914-1.496-2.126-2.878c-0.003-0.02-0.043-0.049-0.058-0.044c-0.71,0.229-0.71-0.451-0.981-0.791
	c-1.019-1.315-1.654-2.743-1.425-4.489c0.039-0.278-0.172-0.682-0.399-0.885c-0.529-0.478-1.164-0.838-1.697-1.311
	c-0.737-0.645-1.203-0.678-1.896-0.027c-0.562,0.529-1.583,0.737-1.888,0.353c-0.594-0.75-1.388-1.016-2.267-0.96
	c-0.933,0.054-1.86,0.234-2.752,0.355c-0.125-0.266-0.259-0.542-0.46-0.971c-0.161,0.417-0.246,0.638-0.328,0.85
	c-1.095,0.302-2.487-0.24-3.085,1.279c0.215-0.147,0.432-0.292,0.65-0.439c0.066,0.044,0.134,0.087,0.204,0.129
	c-0.172,0.413-0.344,0.824-0.547,1.313c0.377,0.167,0.842,0.372,1.435,0.636c-0.946,0.746-1.456-0.031-2.052-0.366
	c-0.211,0.375-0.411,0.727-0.612,1.08c-0.052-0.022-0.11-0.047-0.163-0.071v-0.56c-0.211,0.107-0.377,0.16-0.507,0.256
	c-0.673,0.498-1.24,0.348-1.585-0.433c-0.208-0.473-1.204-0.899-1.709-0.685c0.28,0.096,0.525,0.183,0.772,0.266
	c-0.019,0.06-0.037,0.118-0.053,0.176c-1.112-0.114-2.222-0.333-3.328-0.313c-0.816,0.016-1.846,0.085-2.401,0.576
	c-1.549,1.366-3.28,2.389-5.053,3.369c-0.723,0.401-0.986,0.922-0.962,1.718c0.03,1.15,0.008,2.304,0.008,3.578
	c-0.958-0.352-1.965-0.644-2.903-1.089c-1.019-0.484-1.588-1.344-1.557-2.558c0.008-0.205-0.136-0.439-0.255-0.622
	c-0.64-0.963-1.53-1.721-1.83-2.956c-0.35-1.413-1.369-2.303-2.767-2.694c-1.008-0.279-1.41-0.094-1.913,0.835
	c-0.198,0.372-0.438,0.725-0.66,1.091c-0.677-0.355-1.233-0.656-1.796-0.942c-0.806-0.415-1.3-1.064-1.324-1.984
	c-0.02-1.007-0.363-1.764-1.277-2.228c-0.229-0.116-0.463-0.33-0.574-0.562c-0.737-1.523-2.022-1.913-3.562-1.996
	c-1.067-0.056-1.059-0.165-1.316,0.964c-0.447-0.051-0.899-0.102-1.351-0.149c-2.844-0.304-5.539-1.007-7.912-2.754
	c-0.959-0.71-2.036-1.251-3.044-1.9c-0.187-0.12-0.284-0.378-0.496-0.672c-1.205-0.187-2.579-0.379-3.939-0.627
	c-0.2-0.04-0.518-0.386-0.494-0.543c0.273-1.727-1.185-2.404-1.993-3.462c-0.288-0.382-0.697-0.692-1.099-0.953
	c-0.596-0.397-1.207-0.795-1.862-1.055c-0.429-0.166-0.591-0.385-0.425-0.746c0.434-0.924,0.054-1.679-0.379-2.446
	c-0.248-0.425-0.5-0.853-0.697-1.304c-0.287-0.648-0.506-1.317,0.051-1.683c-0.244-0.788-0.642-1.471-0.618-2.138
	c0.035-1.019-0.243-1.981-0.671-2.76c-0.557-1.013-0.651-1.899-0.328-2.946c0.201-0.652,0.156-1.288-0.504-1.699v-0.149
	c0.254-0.42,0.509-0.839,0.762-1.259c0.548-0.907,0.854-1.824,0.668-2.953c-0.112-0.656,0.015-1.509,0.365-2.056
	c1.186-1.848,2.016-3.839,2.657-5.927c0.194-0.631,0.319-1.283,0.5-1.921c0.177-0.616,0.354-1.208,0.271-1.884
	c-0.115-0.911-0.108-1.839-0.157-2.953c0.736,0.45,1.264,0.796,1.81,1.1c0.518,0.288,1.057,0.525,1.555-0.154
	c0.034,0.353,0.059,0.61,0.084,0.871c0.259-0.759,0.354-1.5-0.039-2.217h0.289c1.569,0.422,3.218,0.607,4.7,1.266
	c12.91,5.756,24.589,4.841,37.197,4.696c0.634-0.006,1.201,0.02,1.085-0.882c0.576,0.097,0.559,0.128,0.722,0.746
	c0.075,0.286,0.261,0.706,0.476,0.766c0.573,0.154,1.127,0.613,1.797,0.218c0.153-0.091,0.474,0.049,0.69,0.143
	c0.624,0.271,1.223,0.605,1.857,0.853c0.254,0.1,0.617,0.152,0.846,0.042c0.935-0.473,1.742,0.232,2.688,0.232
	c-1.536,0.695-2.823,1.616-3.692,3.295c0.689-0.266,1.264-0.487,1.957-0.754c-0.103,0.366-0.162,0.578-0.228,0.812
	c0.31,0.012,0.631,0.13,0.821,0.02c0.897-0.518,1.784-1.064,2.618-1.674c0.458-0.337,0.814-0.805,1.531-0.707
	c-0.359,0.459-0.664,0.85-0.889,1.138c0.52,0.234,1.114,0.317,1.375,0.661c0.372,0.493,0.739,0.497,1.195,0.354
	c0.418-0.129,0.818-0.317,1.227-0.462c0.542-0.193,1.083-0.37,1.647-0.56c0.187,1.534,1.061,0.293,1.521,0.556
	c0.123,0.427,0.249,0.848,0.333,1.134c-1.63,0.341-3.269,0.687-4.816,1.011c-0.468,1.005-0.881,1.893-1.293,2.781
	c0.052,0.032,0.108,0.059,0.163,0.088c0.332-0.476,0.665-0.951,1.086-1.552c-0.263,1.362-0.544,2.543-0.71,3.741
	c-0.213,1.54-0.228,3.078,0.656,4.456c0.516,0.801,0.828,0.807,1.421,0.056c0.771-0.97,0.84-2.693,0.171-3.789
	c-0.122-0.194-0.262-0.444-0.243-0.654c0.075-0.812,0.14-1.636,0.344-2.421c0.152-0.574,0.518-1.09,0.789-1.636
	c0.081,0.037,0.164,0.071,0.248,0.107c-0.038,0.312-0.078,0.624-0.136,1.091c0.194-0.181,0.277-0.221,0.291-0.279
	c0.132-0.583,0.242-1.17,0.382-1.752c0.026-0.107,0.134-0.206,0.229-0.284c0.572-0.466,2.826,0.424,2.932,1.174
	c0.071,0.487,0.159,0.996,0.096,1.476c-0.053,0.402-0.328,0.774-0.472,1.167c-0.095,0.255-0.138,0.529-0.2,0.797
	c0.092,0.034,0.189,0.069,0.286,0.105c0.181-0.239,0.386-0.469,0.547-0.726c0.447-0.714,0.864-0.772,1.189-0.008
	c0.358,0.845,0.494,1.79,0.713,2.696c0.02,0.074-0.033,0.183-0.08,0.259c-0.432,0.701-0.869,1.399-1.44,2.313
	c0.907,0.151,1.654,0.529,2.164,0.319c1.762-0.739,3.337-1.829,4.683-3.233c0.512-0.535,0.982-1.049,0.306-1.789
	c-0.053-0.057-0.027-0.188-0.053-0.402c0.572-0.119,1.134-0.226,1.69-0.349c0.781-0.174,1.592-0.261,2.317-0.573
	c0.806-0.349,0.843-0.849,0.386-1.616c-0.096-0.166-0.121-0.487-0.028-0.641c0.369-0.598,0.77-1.185,1.223-1.719
	c0.236-0.283,0.573-0.556,0.915-0.651c1.52-0.42,3.06-0.771,4.589-1.164c0.196-0.051,0.395-0.167,0.545-0.305
	c0.281-0.259,0.524-0.558,0.784-0.839c0.185-0.15,0.18-0.454,0.315-0.674c0.321-0.538,0.31-1.086,0.264-1.684
	c-0.094-1.221,0.365-2.306,0.966-3.598c0.181,0.333,0.284,0.527,0.382,0.706c0.157-0.079,0.256-0.112,0.329-0.168
	c0.999-0.714,1.511-0.522,1.865,0.703c0.2,0.69,0.389,1.38,0.601,2.067c0.05,0.152,0.176,0.407,0.253,0.406
	c0.639-0.033,0.676,0.489,0.775,0.809C105.302,34.076,105.552,34.127,105.797,34.179"/>
</svg>
