<?xml version="1.0" encoding="utf-8"?>
<!-- Generator: Adobe Illustrator 17.0.2, SVG Export Plug-In . SVG Version: 6.00 Build 0)  -->
<!DOCTYPE svg PUBLIC "-//W3C//DTD SVG 1.1//EN" "http://www.w3.org/Graphics/SVG/1.1/DTD/svg11.dtd">
<svg version="1.1" id="Layer_1" xmlns="http://www.w3.org/2000/svg" xmlns:xlink="http://www.w3.org/1999/xlink" x="0px" y="0px"
	 width="114.998px" height="114.998px" viewBox="0 0 114.998 114.998" enable-background="new 0 0 114.998 114.998"
	 xml:space="preserve">
<g>
	<path fill-rule="evenodd" clip-rule="evenodd" fill="#B3B3B3" d="M55.965,51.899c0-2.872,1.691-5.373,4.116-6.531
		c-1.288-0.454-2.671-0.703-4.116-0.703c-6.84,0-12.402,5.559-12.402,12.402c0,6.841,5.562,12.399,12.402,12.399
		c6.84,0,12.402-5.558,12.402-12.399V56.96c-1.323,1.345-3.143,2.173-5.168,2.173C59.206,59.133,55.965,55.886,55.965,51.899z"/>
	<path fill-rule="evenodd" clip-rule="evenodd" fill="#B3B3B3" d="M55.984,24C35.564,24,16.82,40.244,9.133,50.016
		c-1.735,2.234-2.686,4.652-2.749,7.051c0.063,2.397,1.014,4.815,2.749,7.048c7.687,9.772,26.413,26.019,46.833,26.019
		c20.417,0,39.145-16.247,46.833-26.019c1.754-2.233,2.705-4.652,2.768-7.048c-0.063-2.4-1.014-4.818-2.768-7.051
		C95.11,40.244,76.382,24,55.984,24z M55.965,77.732c-11.407,0-20.665-9.259-20.665-20.665c0-11.409,9.259-20.668,20.665-20.668
		c11.407,0,20.665,9.259,20.665,20.668C76.631,68.474,67.372,77.732,55.965,77.732z"/>
</g>
</svg>
