<?xml version="1.0" encoding="utf-8"?>
<!-- Generator: Adobe Illustrator 17.0.0, SVG Export Plug-In . SVG Version: 6.00 Build 0)  -->
<svg version="1.2" baseProfile="tiny" id="Layer_1" xmlns="http://www.w3.org/2000/svg" xmlns:xlink="http://www.w3.org/1999/xlink"
	 x="0px" y="0px" width="114.998px" height="114.998px" viewBox="0 0 114.998 114.998" xml:space="preserve">
<path d="M100.946,59.902c-0.49-5.02-3.141-8.875-7.467-10.856c-3.511-1.609-7.765-1.761-10.855-0.519
	c-2.029-2.956-5.409-4.733-9.068-4.679c-2.034-8.587-9.763-14.999-18.968-14.999c-5.647,0-11.048,2.489-14.725,6.724
	c-1.704-0.721-3.545-1.098-5.396-1.098c-7.643,0-13.861,6.217-13.861,13.86c0,1.979,0.422,3.932,1.23,5.71
	c-1.819,2.431-2.809,5.376-2.809,8.411c0,7.748,6.304,14.052,14.055,14.052c3.736,0,7.266-1.478,9.866-4.05
	c2.579,3.823,6.903,6.18,11.639,6.18c2.271,0,4.45-0.566,6.389-1.565c2.281,5.426,7.647,9.074,13.67,9.073
	c0.168,0,0.338-0.002,0.508-0.008c4.182-0.143,8.124-2.074,10.809-5.237c1.241,0.432,2.555,0.635,3.87,0.589
	c2.851-0.097,5.494-1.298,7.441-3.384c1.947-2.085,2.966-4.801,2.869-7.651c-0.048-1.43-0.382-2.831-0.974-4.112
	C100.533,64.334,101.16,62.084,100.946,59.902z M61.473,72.519c-0.476,0.121-0.857,0.426-1.087,0.822
	c-1.686,1.121-3.691,1.768-5.8,1.768c-4.247-0.002-8.055-2.537-9.699-6.46c-0.251-0.598-0.809-1.011-1.454-1.075
	c-0.059-0.006-0.116-0.007-0.175-0.007c-0.583,0-1.133,0.288-1.464,0.778c-1.957,2.9-5.213,4.633-8.712,4.633
	c-5.803,0-10.523-4.719-10.523-10.519c0-2.576,0.955-5.065,2.689-7.011c0.505-0.566,0.592-1.391,0.217-2.05
	c-0.869-1.526-1.328-3.276-1.328-5.061c0-5.696,4.634-10.328,10.329-10.328c1.752,0,3.492,0.453,5.03,1.311
	c0.774,0.432,1.749,0.222,2.278-0.49c3.04-4.097,7.711-6.447,12.813-6.447c8.802,0,15.963,7.156,15.963,15.954
	c0,1.517-0.217,3.035-0.647,4.514c-0.136,0.466-0.074,0.967,0.172,1.386c0.245,0.419,0.652,0.718,1.126,0.827
	c2.77,0.64,4.705,3.075,4.705,5.92c0,3.355-2.73,6.085-6.084,6.085c-0.917,0-1.817-0.21-2.672-0.625
	c-0.467-0.229-1.013-0.238-1.487-0.027c-0.476,0.211-0.835,0.62-0.981,1.119C64.105,69.514,62.965,71.225,61.473,72.519z
	 M95.726,65.054c-0.484,0.582-0.544,1.409-0.147,2.055c0.636,1.034,0.995,2.233,1.036,3.468c0.066,1.906-0.617,3.725-1.92,5.12
	c-1.304,1.396-3.072,2.2-4.98,2.265c-1.211,0.039-2.426-0.231-3.51-0.789c-0.79-0.406-1.757-0.162-2.261,0.567
	c-2.052,2.972-5.299,4.747-8.909,4.869c-5.005,0.166-9.465-2.968-11.061-7.597c1.449-1.302,2.638-2.899,3.449-4.719
	c0.783,0.205,1.584,0.307,2.398,0.307c5.302,0,9.616-4.314,9.616-9.617c0-3.889-2.288-7.294-5.739-8.799
	c0.254-1.271,0.383-2.559,0.383-3.848c0-0.319-0.008-0.636-0.024-0.951c2.696,0.123,5.128,1.742,6.276,4.239
	c0.22,0.477,0.639,0.832,1.146,0.968c0.507,0.137,1.047,0.041,1.476-0.263c1.744-1.229,5.701-1.606,9.052-0.071
	c2.217,1.015,4.957,3.226,5.422,7.988C97.641,62.394,96.453,64.18,95.726,65.054z"/>
</svg>
