<?xml version="1.0" encoding="utf-8"?>
<!-- Generator: Adobe Illustrator 17.0.0, SVG Export Plug-In . SVG Version: 6.00 Build 0)  -->
<svg version="1.2" baseProfile="tiny" id="Layer_1" xmlns="http://www.w3.org/2000/svg" xmlns:xlink="http://www.w3.org/1999/xlink"
	 x="0px" y="0px" width="114.998px" height="114.998px" viewBox="0 0 114.998 114.998" xml:space="preserve">
<g>
	<path d="M30.563,89.341c2.566,0,4.991-1.015,6.778-2.782c1.772,2.626,4.743,4.246,7.996,4.246c3.825,0,7.286-2.303,8.818-5.733
		c0.538,0.14,1.089,0.211,1.648,0.211c3.196,0,5.87-2.283,6.476-5.305c2.631,0.79,5.398,1.214,8.234,1.214
		c3.328,0,6.615-0.576,9.771-1.712c0.983-0.354,1.967-0.77,2.924-1.237c1.182-0.578,1.837-1.87,1.605-3.165
		c-0.235-1.296-1.298-2.28-2.608-2.41c-9.765-0.973-18.222-7.564-21.543-16.791c-3.316-9.212-1.014-19.659,5.864-26.633
		c0.548-0.535,0.89-1.281,0.89-2.108c0-1.57-1.228-2.853-2.777-2.939c-0.055-0.003-0.112-0.005-0.168-0.005
		c-0.084,0-0.167,0.004-0.251,0.011c-0.174,0.015-0.345,0.044-0.508,0.089c-1.011,0.247-2.01,0.547-2.972,0.893
		C47.45,29.968,39.83,43.557,42.053,57.02c-2.633,0.671-5.034,2.13-6.832,4.201c-1.172-0.496-2.435-0.754-3.708-0.754
		c-5.25,0-9.521,4.271-9.521,9.521c0,1.36,0.291,2.701,0.845,3.923c-1.249,1.67-1.929,3.693-1.929,5.778
		C20.908,85.011,25.239,89.341,30.563,89.341z M61.736,27.954c0.906-0.326,1.819-0.597,2.734-0.818
		c-7.494,7.569-10.425,19.048-6.578,29.737c3.847,10.689,13.422,17.667,24.02,18.723c-0.845,0.415-1.721,0.787-2.627,1.113
		c-2.9,1.043-5.861,1.538-8.774,1.538c-2.872,0-5.694-0.487-8.36-1.4c-0.536-1.878-1.876-3.427-3.686-4.216
		c0.176-0.873,0.263-1.758,0.263-2.643c0-7.381-6.007-13.385-13.392-13.385c-0.124,0-0.248,0.006-0.373,0.01
		C42.918,44.488,49.759,32.265,61.736,27.954z M25.329,73.467c-0.597-1.048-0.912-2.251-0.912-3.477
		c0-3.912,3.183-7.095,7.094-7.095c1.205,0,2.4,0.312,3.456,0.902c0.531,0.296,1.202,0.152,1.565-0.337
		c2.088-2.815,5.296-4.429,8.802-4.429c6.047,0,10.966,4.916,10.966,10.959c0,1.043-0.149,2.085-0.445,3.1
		c-0.093,0.32-0.051,0.665,0.118,0.953c0.169,0.288,0.448,0.493,0.774,0.569c1.903,0.44,3.232,2.112,3.232,4.067
		c0.002,2.302-1.874,4.177-4.178,4.177c-0.63,0-1.248-0.144-1.835-0.43c-0.321-0.156-0.696-0.163-1.022-0.018
		c-0.327,0.145-0.573,0.427-0.673,0.769c-0.895,3.063-3.746,5.202-6.936,5.202c-2.918,0-5.534-1.741-6.663-4.436
		c-0.172-0.411-0.556-0.694-1-0.738c-0.039-0.004-0.079-0.006-0.12-0.006c-0.4,0-0.778,0.198-1.005,0.535
		c-1.344,1.993-3.582,3.182-5.986,3.182c-3.985,0-7.229-3.241-7.229-7.225c0-1.77,0.657-3.48,1.849-4.816
		C25.527,74.486,25.587,73.919,25.329,73.467z"/>
	<circle cx="75.821" cy="43.893" r="2.339"/>
	<circle cx="87.213" cy="29.522" r="2.339"/>
	<circle cx="97.363" cy="37.86" r="1.744"/>
	<circle cx="89.549" cy="56.603" r="2.339"/>
</g>
</svg>
