<?xml version="1.0" encoding="utf-8"?>
<!-- Generator: Adobe Illustrator 17.0.0, SVG Export Plug-In . SVG Version: 6.00 Build 0)  -->
<svg version="1.2" baseProfile="tiny" id="Layer_1" xmlns="http://www.w3.org/2000/svg" xmlns:xlink="http://www.w3.org/1999/xlink"
	 x="0px" y="0px" width="114.998px" height="114.998px" viewBox="0 0 114.998 114.998" xml:space="preserve">
<g>
	<circle cx="45.467" cy="83.346" r="2.339"/>
	<circle cx="39.577" cy="74.665" r="2.339"/>
	<circle cx="52.483" cy="72.482" r="2.339"/>
	<circle cx="50.145" cy="92.879" r="2.339"/>
	<circle cx="57.781" cy="83.346" r="2.339"/>
	<circle cx="71.959" cy="83.346" r="2.339"/>
	<circle cx="76.636" cy="72.482" r="2.339"/>
	<path d="M84.474,43.115c0.254-1.271,0.383-2.559,0.383-3.848c0-10.745-8.745-19.486-19.495-19.486
		c-5.647,0-11.048,2.489-14.726,6.724c-1.703-0.721-3.544-1.098-5.396-1.098c-7.642,0-13.861,6.218-13.861,13.86
		c0,1.98,0.423,3.932,1.231,5.711c-1.82,2.431-2.809,5.375-2.809,8.411c0,7.748,6.304,14.052,14.055,14.052
		c3.736,0,7.266-1.478,9.866-4.05c2.578,3.823,6.903,6.18,11.639,6.18c5.567,0,10.607-3.352,12.836-8.346
		c0.783,0.204,1.584,0.306,2.398,0.306c5.304,0,9.618-4.314,9.618-9.617C90.213,48.024,87.925,44.62,84.474,43.115z M80.597,57.998
		c-0.918,0-1.817-0.21-2.672-0.626c-0.467-0.228-1.013-0.237-1.487-0.026c-0.476,0.211-0.835,0.62-0.981,1.119
		c-1.302,4.459-5.454,7.573-10.095,7.573c-4.249,0-8.057-2.535-9.701-6.458c-0.251-0.599-0.809-1.012-1.454-1.076
		c-0.059-0.006-0.116-0.008-0.175-0.008c-0.583,0-1.133,0.289-1.464,0.778c-1.958,2.9-5.213,4.633-8.712,4.633
		c-5.804,0-10.523-4.719-10.523-10.52c0-2.576,0.956-5.065,2.689-7.011c0.505-0.566,0.592-1.391,0.217-2.05
		c-0.869-1.525-1.329-3.276-1.329-5.061c0-5.695,4.634-10.328,10.329-10.328c1.753,0,3.493,0.454,5.031,1.312
		c0.774,0.432,1.749,0.222,2.277-0.49c3.041-4.098,7.711-6.448,12.814-6.448c8.802,0,15.963,7.156,15.963,15.954
		c0,1.517-0.217,3.035-0.647,4.513c-0.136,0.466-0.074,0.968,0.172,1.387c0.245,0.419,0.652,0.718,1.126,0.827
		c2.77,0.64,4.705,3.075,4.705,5.92C86.681,55.269,83.951,57.998,80.597,57.998z"/>
	<circle cx="64.421" cy="92.879" r="2.339"/>
	<circle cx="66.759" cy="75.682" r="2.338"/>
</g>
</svg>
