<?xml version="1.0" encoding="utf-8"?>
<!-- Generator: Adobe Illustrator 17.0.0, SVG Export Plug-In . SVG Version: 6.00 Build 0)  -->
<svg version="1.2" baseProfile="tiny" id="Layer_1" xmlns="http://www.w3.org/2000/svg" xmlns:xlink="http://www.w3.org/1999/xlink"
	 x="0px" y="0px" width="114.998px" height="114.998px" viewBox="0 0 114.998 114.998" xml:space="preserve">
<g>
	<path d="M81.894,56.182H33.099c-0.695,0-1.26,0.564-1.26,1.263c0,0.694,0.564,1.259,1.26,1.259h48.795
		c0.695,0,1.262-0.564,1.262-1.259C83.156,56.747,82.59,56.182,81.894,56.182z"/>
	<path d="M81.894,76.249H33.099c-0.695,0-1.26,0.562-1.26,1.259c0,0.696,0.564,1.261,1.26,1.261h48.795
		c0.695,0,1.262-0.565,1.262-1.261C83.156,76.811,82.59,76.249,81.894,76.249z"/>
	<path d="M81.894,36.12H33.099c-0.695,0-1.26,0.565-1.26,1.263c0,0.695,0.564,1.26,1.26,1.26h48.795c0.695,0,1.262-0.564,1.262-1.26
		C83.156,36.685,82.59,36.12,81.894,36.12z"/>
	<path d="M57.498,1.725c-30.725,0-55.719,24.996-55.719,55.72c0,30.722,24.994,55.717,55.719,55.717
		c30.727,0,55.721-24.995,55.721-55.717C113.219,26.721,88.224,1.725,57.498,1.725z M57.498,110.641
		C28.166,110.641,4.3,86.776,4.3,57.445c0-29.333,23.866-53.198,53.198-53.198c29.333,0,53.199,23.865,53.199,53.198
		C110.697,86.776,86.831,110.641,57.498,110.641z"/>
</g>
</svg>
