<?xml version="1.0" encoding="utf-8"?>
<!-- Generator: Adobe Illustrator 17.0.0, SVG Export Plug-In . SVG Version: 6.00 Build 0)  -->
<svg version="1.2" baseProfile="tiny" id="Layer_1" xmlns="http://www.w3.org/2000/svg" xmlns:xlink="http://www.w3.org/1999/xlink"
	 x="0px" y="0px" width="114.998px" height="114.998px" viewBox="0 0 114.998 114.998" xml:space="preserve">
<g>
	<path d="M72.144,25.159H42.851c-2.318,0-4.205,1.887-4.205,4.206v57.642c0,2.319,1.887,4.209,4.205,4.209h29.293
		c2.318,0,4.207-1.89,4.207-4.209V29.365C76.351,27.046,74.462,25.159,72.144,25.159z M73.829,87.007
		c0,0.929-0.756,1.687-1.686,1.687H42.851c-0.93,0-1.683-0.758-1.683-1.687V76.355h32.661V87.007z M73.829,73.835H41.168V35.01
		h32.661V73.835z M73.83,32.487H41.168v-3.122c0-0.929,0.753-1.686,1.683-1.686h29.293c0.93,0,1.686,0.757,1.686,1.686V32.487z"/>
	<path d="M57.499,1.726C26.774,1.726,1.78,26.721,1.78,57.443c0,30.725,24.994,55.719,55.719,55.719
		c30.723,0,55.718-24.994,55.718-55.719C113.217,26.721,88.222,1.726,57.499,1.726z M57.499,110.641
		c-29.334,0-53.197-23.865-53.197-53.198c0-29.331,23.863-53.196,53.197-53.196c29.333,0,53.196,23.865,53.196,53.196
		C110.696,86.775,86.832,110.641,57.499,110.641z"/>
	<path d="M57.499,86.179c2.196,0,3.982-1.786,3.982-3.984c0-2.195-1.786-3.98-3.982-3.98c-2.197,0-3.984,1.785-3.984,3.98
		C53.515,84.393,55.302,86.179,57.499,86.179z M57.499,80.735c0.805,0,1.461,0.655,1.461,1.459c0,0.808-0.656,1.463-1.461,1.463
		c-0.807,0-1.464-0.655-1.464-1.463C56.035,81.391,56.693,80.735,57.499,80.735z"/>
</g>
</svg>
