<?xml version="1.0" encoding="utf-8"?>
<!-- Generator: Adobe Illustrator 17.0.0, SVG Export Plug-In . SVG Version: 6.00 Build 0)  -->
<svg version="1.2" baseProfile="tiny" id="Layer_1" xmlns="http://www.w3.org/2000/svg" xmlns:xlink="http://www.w3.org/1999/xlink"
	 x="0px" y="0px" width="114.998px" height="114.998px" viewBox="0 0 114.998 114.998" xml:space="preserve">
<g>
	<path d="M71.156,64.998H43.202c-0.696,0-1.26,0.565-1.26,1.262c0,0.695,0.563,1.259,1.26,1.259h27.953
		c0.696,0,1.261-0.564,1.261-1.259C72.416,65.564,71.852,64.998,71.156,64.998z"/>
	<path d="M43.202,76.517c-0.696,0-1.26,0.564-1.26,1.26s0.563,1.262,1.26,1.262h27.953c0.696,0,1.261-0.565,1.261-1.262
		c0-0.696-0.564-1.26-1.26-1.26H43.202z"/>
	<path d="M81.257,53.058c-0.696,0-1.26,0.562-1.26,1.26v31.491c0,1.181-0.961,2.143-2.141,2.143H36.193
		c-1.18,0-2.139-0.961-2.139-2.143V32.294c0-1.179,0.959-2.137,2.139-2.137H75.51c0.695,0,1.26-0.564,1.26-1.262
		c0-0.695-0.564-1.26-1.26-1.26H36.193c-2.569,0-4.66,2.09-4.66,4.658v53.515c0,2.571,2.091,4.662,4.66,4.662h41.664
		c2.57,0,4.66-2.091,4.66-4.662V54.317C82.517,53.62,81.952,53.058,81.257,53.058z"/>
	<path d="M88.701,24.596c-0.596-0.358-1.372-0.169-1.73,0.427L74.185,46.147l-8.676-8.881c-0.486-0.5-1.285-0.508-1.781-0.022
		c-0.499,0.486-0.508,1.285-0.021,1.783l9.812,10.047c0.239,0.245,0.564,0.378,0.902,0.378c0.048,0,0.096-0.001,0.142-0.007
		c0.389-0.045,0.734-0.267,0.936-0.601L89.127,26.33C89.488,25.733,89.296,24.955,88.701,24.596z"/>
	<path d="M71.156,53.483H43.202c-0.696,0-1.26,0.565-1.26,1.26s0.563,1.262,1.26,1.262h27.953c0.696,0,1.261-0.566,1.261-1.262
		C72.416,54.049,71.852,53.483,71.156,53.483z"/>
	<path d="M57.498,1.726C26.775,1.726,1.78,26.719,1.78,57.443c0,30.723,24.995,55.718,55.718,55.718
		c30.724,0,55.719-24.995,55.719-55.718C113.217,26.719,88.222,1.726,57.498,1.726z M57.498,110.64
		c-29.332,0-53.196-23.865-53.196-53.197c0-29.331,23.864-53.2,53.196-53.2c29.333,0,53.198,23.869,53.198,53.2
		C110.697,86.774,86.831,110.64,57.498,110.64z"/>
	<path d="M58.866,41.967H43.202c-0.696,0-1.26,0.565-1.26,1.262c0,0.694,0.563,1.26,1.26,1.26h15.663
		c0.696,0,1.261-0.566,1.261-1.26C60.126,42.531,59.562,41.967,58.866,41.967z"/>
</g>
</svg>
