<?xml version="1.0" encoding="utf-8"?>
<!-- Generator: Adobe Illustrator 17.0.0, SVG Export Plug-In . SVG Version: 6.00 Build 0)  -->
<svg version="1.2" baseProfile="tiny" id="Layer_1" xmlns="http://www.w3.org/2000/svg" xmlns:xlink="http://www.w3.org/1999/xlink"
	 x="0px" y="0px" width="114.998px" height="114.998px" viewBox="0 0 114.998 114.998" xml:space="preserve">
<g>
	<path d="M72.466,41.804L56.64,56.519c-0.436,0.405-0.527,1.059-0.225,1.569l7.758,13.019c0.234,0.395,0.654,0.616,1.085,0.616
		c0.219,0,0.44-0.059,0.644-0.178c0.598-0.357,0.793-1.13,0.438-1.729l-7.236-12.144l15.08-14.022
		c0.51-0.475,0.539-1.271,0.065-1.782C73.775,41.358,72.975,41.329,72.466,41.804z"/>
	<path d="M57.499,24.415c-18.213,0-33.029,14.816-33.029,33.027c0,18.213,14.816,33.029,33.029,33.029
		c18.211,0,33.027-14.816,33.027-33.029C90.527,39.232,75.71,24.415,57.499,24.415z M57.499,87.951
		c-16.822,0-30.508-13.687-30.508-30.509s13.686-30.507,30.508-30.507c16.82,0,30.506,13.684,30.506,30.507
		S74.32,87.951,57.499,87.951z"/>
	<path d="M57.499,1.726C26.774,1.726,1.78,26.719,1.78,57.443c0,30.723,24.994,55.718,55.719,55.718
		c30.723,0,55.718-24.995,55.718-55.718C113.217,26.719,88.222,1.726,57.499,1.726z M57.499,110.64
		c-29.332,0-53.197-23.865-53.197-53.197c0-29.331,23.865-53.2,53.197-53.2c29.332,0,53.195,23.869,53.195,53.2
		C110.695,86.774,86.831,110.64,57.499,110.64z"/>
</g>
</svg>
