<?xml version="1.0" encoding="utf-8"?>
<!-- Generator: Adobe Illustrator 17.0.0, SVG Export Plug-In . SVG Version: 6.00 Build 0)  -->
<svg version="1.2" baseProfile="tiny" id="Layer_1" xmlns="http://www.w3.org/2000/svg" xmlns:xlink="http://www.w3.org/1999/xlink"
	 x="0px" y="0px" width="114.998px" height="114.998px" viewBox="0 0 114.998 114.998" xml:space="preserve">
<g>
	<path d="M57.499,1.726c-30.725,0-55.717,24.995-55.717,55.719c0,30.722,24.992,55.715,55.717,55.715
		c30.724,0,55.717-24.994,55.717-55.715C113.216,26.721,88.222,1.726,57.499,1.726z M57.499,110.64
		c-29.332,0-53.195-23.863-53.195-53.195c0-29.333,23.863-53.198,53.195-53.198c29.333,0,53.197,23.865,53.197,53.198
		C110.696,86.777,86.832,110.64,57.499,110.64z"/>
	<path d="M84.367,48.22H33.531c-1.563,0-2.834,1.271-2.834,2.836v36.028c0,1.564,1.271,2.834,2.834,2.834h50.836
		c1.564,0,2.835-1.27,2.835-2.834V51.055C87.202,49.491,85.931,48.22,84.367,48.22z M84.366,50.742c0.173,0,0.314,0.14,0.314,0.313
		v7.363h-4.121c-0.021-0.121-0.042-0.245-0.101-0.359l-3.727-7.317H84.366z M73.904,50.742l3.908,7.676h-9.711l-3.908-7.676H73.904z
		 M61.396,50.742c0.015,0.046,0.015,0.094,0.039,0.14l3.836,7.536h-9.45l-3.906-7.676H61.396z M49.16,50.742
		c0.023,0.106,0.035,0.213,0.087,0.317l3.745,7.359h-9.159l-3.91-7.676H49.16z M33.216,51.055c0-0.174,0.142-0.313,0.314-0.313
		h3.802c-0.021,0.229-0.004,0.464,0.11,0.687l3.561,6.989h-7.787C33.216,58.418,33.216,51.055,33.216,51.055z M84.682,87.084
		L84.682,87.084c-0.001,0.173-0.143,0.314-0.315,0.314H33.531c-0.173,0-0.314-0.142-0.314-0.314V60.939h51.465V87.084z"/>
	<path d="M32.639,46.762l49.681-10.77c0.742-0.159,1.377-0.598,1.788-1.235c0.411-0.637,0.548-1.396,0.388-2.136l-1.414-6.52
		c-0.321-1.495-1.874-2.497-3.373-2.172L30.027,34.698c-0.736,0.16-1.37,0.594-1.779,1.23c-0.413,0.637-0.551,1.397-0.391,2.141
		l1.416,6.525c0.281,1.293,1.444,2.232,2.767,2.232C32.24,46.826,32.441,46.804,32.639,46.762z M76.135,27.368
		c0.005-0.027-0.004-0.052,0-0.078l4.178-0.905c0.124,0,0.269,0.082,0.304,0.246l1.414,6.524c0.023,0.104-0.01,0.185-0.041,0.234
		c-0.034,0.05-0.092,0.111-0.201,0.137l-7.237,1.567L76.135,27.368z M64.551,29.8l8.908-1.929l-1.602,7.809l-8.862,1.92L64.551,29.8
		z M52.892,32.326l8.973-1.946l-1.558,7.801l-8.974,1.947L52.892,32.326z M40.931,35.156c0.016-0.08,0-0.16,0-0.238l9.272-2.009
		l-1.56,7.804l-9.223,1.998L40.931,35.156z M31.736,44.059l-1.414-6.521c-0.025-0.115,0.016-0.2,0.043-0.243
		c0.031-0.047,0.09-0.107,0.191-0.132l7.737-1.675l-1.56,7.806l-4.627,1.003C31.963,44.328,31.777,44.249,31.736,44.059z"/>
</g>
</svg>
