<?xml version="1.0" encoding="utf-8"?>
<!-- Generator: Adobe Illustrator 17.0.0, SVG Export Plug-In . SVG Version: 6.00 Build 0)  -->
<svg version="1.2" baseProfile="tiny" id="Layer_1" xmlns="http://www.w3.org/2000/svg" xmlns:xlink="http://www.w3.org/1999/xlink"
	 x="0px" y="0px" width="114.998px" height="114.998px" viewBox="0 0 114.998 114.998" xml:space="preserve">
<g>
	<path d="M76.88,47.787c0-11.882-9.665-21.548-21.548-21.548c-11.882,0-21.55,9.666-21.55,21.548
		c0,11.882,9.668,21.549,21.55,21.549c2.683,0,5.239-0.516,7.61-1.415l11.545,23.665c0.219,0.449,0.668,0.707,1.135,0.707
		c0.184,0,0.373-0.04,0.551-0.126c0.625-0.306,0.887-1.06,0.58-1.687L65.247,66.899C72.149,63.301,76.88,56.091,76.88,47.787z
		 M55.332,66.814c-10.493,0-19.028-8.536-19.028-19.027c0-10.492,8.535-19.027,19.028-19.027c10.491,0,19.026,8.535,19.026,19.027
		C74.358,58.278,65.823,66.814,55.332,66.814z"/>
	<path d="M57.499,1.725c-30.723,0-55.719,24.996-55.719,55.72c0,30.722,24.996,55.717,55.719,55.717
		c30.725,0,55.719-24.995,55.719-55.717C113.218,26.721,88.223,1.725,57.499,1.725z M57.499,110.641
		C28.165,110.641,4.3,86.776,4.3,57.445c0-29.333,23.865-53.198,53.199-53.198c29.332,0,53.197,23.865,53.197,53.198
		C110.696,86.776,86.831,110.641,57.499,110.641z"/>
</g>
</svg>
