<?xml version="1.0" encoding="utf-8"?>
<!-- Generator: Adobe Illustrator 17.0.0, SVG Export Plug-In . SVG Version: 6.00 Build 0)  -->
<svg version="1.2" baseProfile="tiny" id="Layer_1" xmlns="http://www.w3.org/2000/svg" xmlns:xlink="http://www.w3.org/1999/xlink"
	 x="0px" y="0px" width="114.998px" height="114.998px" viewBox="0 0 114.998 114.998" xml:space="preserve">
<g>
	<path d="M57.499,2.965c-30.725,0-55.717,24.438-55.717,54.479c0,30.039,24.992,54.479,55.717,54.479
		c30.723,0,55.717-24.44,55.717-54.479C113.216,27.403,88.221,2.965,57.499,2.965z M57.499,109.457
		c-29.363,0-53.253-23.334-53.253-52.014c0-28.68,23.889-52.013,53.253-52.013c29.361,0,53.252,23.334,53.252,52.014
		S86.86,109.457,57.499,109.457z"/>
	<path d="M69.664,49.607c0.212,0,0.422-0.054,0.615-0.166l12.612-7.304c0.588-0.341,0.791-1.094,0.448-1.682
		c-0.341-0.592-1.094-0.792-1.686-0.45l-12.609,7.301c-0.59,0.342-0.79,1.098-0.448,1.686
		C68.824,49.386,69.238,49.607,69.664,49.607z"/>
	<path d="M61.514,33.722c-0.627-0.246-1.35,0.058-1.602,0.689l-12.957,32.57L33.814,34.134c-0.253-0.634-0.978-0.938-1.604-0.685
		c-0.631,0.251-0.937,0.969-0.685,1.601l13.892,34.724c0.063,0.155,0.164,0.281,0.271,0.396l-2.261,5.684
		c-0.021,0.058-2.231,5.749-9.915,4.813c-0.688-0.077-1.291,0.402-1.37,1.078c-0.083,0.675,0.4,1.29,1.076,1.369
		c0.684,0.084,1.332,0.12,1.949,0.12c8.039,0,10.543-6.448,10.559-6.494l16.479-41.417C62.458,34.692,62.149,33.974,61.514,33.722z"
		/>
	<path d="M89.19,57.135h-0.012L74.61,57.273c-0.682,0.005-1.227,0.562-1.221,1.244c0.006,0.676,0.558,1.221,1.234,1.221h0.01
		l14.568-0.137c0.682-0.006,1.227-0.563,1.219-1.244C90.417,57.68,89.865,57.135,89.19,57.135z"/>
	<path d="M82.89,74.822l-12.61-7.3c-0.594-0.344-1.341-0.14-1.685,0.448c-0.341,0.59-0.142,1.345,0.448,1.685l12.611,7.302
		c0.197,0.113,0.408,0.166,0.616,0.166c0.427,0,0.839-0.221,1.068-0.614C83.682,75.919,83.48,75.163,82.89,74.822z"/>
</g>
</svg>
