<?xml version="1.0" encoding="utf-8"?>
<!-- Generator: Adobe Illustrator 17.0.0, SVG Export Plug-In . SVG Version: 6.00 Build 0)  -->
<svg version="1.2" baseProfile="tiny" id="Layer_1" xmlns="http://www.w3.org/2000/svg" xmlns:xlink="http://www.w3.org/1999/xlink"
	 x="0px" y="0px" width="114.998px" height="114.998px" viewBox="0 0 114.998 114.998" xml:space="preserve">
<g>
	<path d="M47.587,49.267h-7.498c-0.695,0-1.26,0.564-1.26,1.261v23.739c0,0.977,0.562,1.536,1.543,1.536h6.934
		c0.985,0,1.551-0.571,1.551-1.566l0.002-23.529c0-0.068-0.004-0.14-0.012-0.241C48.813,49.795,48.26,49.267,47.587,49.267z
		 M46.335,73.282H41.35V51.789h4.986L46.335,73.282z"/>
	<path d="M57.499,1.726c-30.723,0-55.717,24.994-55.717,55.718c0,30.722,24.994,55.717,55.717,55.717
		c30.723,0,55.717-24.995,55.717-55.717C113.216,26.72,88.222,1.726,57.499,1.726z M57.499,110.639
		c-29.332,0-53.196-23.863-53.196-53.195c0-29.333,23.864-53.197,53.196-53.197c29.334,0,53.195,23.864,53.195,53.197
		C110.694,86.776,86.833,110.639,57.499,110.639z"/>
	<path d="M80.726,29.24H34.273c-2.745,0-4.978,2.233-4.978,4.978V80.67c0,2.745,2.232,4.978,4.978,4.978h46.453
		c2.744,0,4.978-2.233,4.978-4.978V34.217C85.704,31.472,83.471,29.24,80.726,29.24z M83.182,80.669
		c0,1.356-1.104,2.457-2.456,2.457H34.273c-1.357,0-2.456-1.102-2.456-2.457V34.217c0-1.355,1.1-2.456,2.456-2.456h46.453
		c1.353,0,2.456,1.102,2.456,2.456V80.669z"/>
	<path d="M43.836,37.322l-0.185,0.002c-3.012,0.097-5.439,2.61-5.411,5.56c-0.032,1.457,0.548,2.903,1.593,3.971
		c1.061,1.089,2.488,1.684,4.018,1.684c0.086,0,0.17-0.003,0.258-0.004c3.002-0.134,5.349-2.606,5.343-5.629
		C49.445,39.829,46.927,37.322,43.836,37.322z M43.998,46.015l-0.147,0.003c-0.845,0-1.631-0.329-2.215-0.926
		c-0.574-0.585-0.893-1.37-0.875-2.191c-0.016-1.605,1.346-3.005,2.973-3.056l0.103-0.002c1.702,0,3.091,1.377,3.095,3.068
		C46.932,44.58,45.645,45.944,43.998,46.015z"/>
	<path d="M75.624,53.866c-0.978-2.334-2.673-3.898-5.037-4.651c-1.418-0.452-2.953-0.627-4.621-0.545
		c-1.055,0.05-2.056,0.254-2.978,0.599c-0.844,0.317-1.605,0.729-2.283,1.232c-0.015-0.683-0.572-1.232-1.26-1.232h-7.237
		c-0.696,0-1.261,0.565-1.261,1.261v23.323l0.001,0.141c0.001,0.085,0.002,0.17-0.001,0.258c-0.02,0.556,0.209,0.913,0.402,1.114
		c0.197,0.202,0.547,0.442,1.108,0.442h0.005c1.398-0.005,2.795-0.005,4.192-0.005h2.799c0.081,0,0.163-0.004,0.319-0.017
		c0.668-0.037,1.191-0.588,1.191-1.258l0.008-3.08c0.01-3.271,0.018-6.542,0.035-9.815c0.004-0.663,0.11-1.324,0.317-1.968
		c0.291-0.908,0.75-1.428,1.487-1.685c0.604-0.212,1.271-0.261,1.939-0.161c0.786,0.117,1.271,0.506,1.57,1.257
		c0.264,0.666,0.395,1.428,0.398,2.329c0.016,3.244,0.015,6.488,0.015,9.732l-0.001,3.081c0.003,1.022,0.57,1.585,1.599,1.585h6.87
		c0.988,0,1.557-0.567,1.557-1.557V61.75c0.002-1.249-0.009-2.58-0.168-3.921C76.399,56.245,76.093,54.986,75.624,53.866z
		 M74.237,73.282h-4.982l0.002-2.145c0-3.248,0-6.496-0.015-9.744c-0.006-1.221-0.194-2.285-0.579-3.25
		c-0.635-1.591-1.859-2.566-3.539-2.817c-1.097-0.164-2.16-0.07-3.148,0.274c-1.49,0.523-2.518,1.631-3.053,3.294
		c-0.285,0.891-0.434,1.809-0.438,2.728c-0.018,3.273-0.025,6.548-0.035,9.82l-0.004,1.84h-1.792c-1.062,0-2.124,0-3.188,0.002
		V51.791h4.717v1.984c0,0.553,0.363,1.043,0.893,1.205c0.529,0.161,1.102-0.039,1.412-0.498l0.189-0.285
		c0.107-0.162,0.207-0.312,0.314-0.458c0.717-0.959,1.659-1.65,2.884-2.109c0.686-0.258,1.41-0.403,2.214-0.444
		c1.353-0.066,2.605,0.072,3.732,0.432c1.652,0.524,2.789,1.579,3.477,3.223c0.381,0.909,0.625,1.924,0.789,3.289
		c0.143,1.199,0.154,2.444,0.152,3.618L74.237,73.282z"/>
</g>
</svg>
