<?xml version="1.0" encoding="utf-8"?>
<!-- Generator: Adobe Illustrator 17.0.2, SVG Export Plug-In . SVG Version: 6.00 Build 0)  -->
<!DOCTYPE svg PUBLIC "-//W3C//DTD SVG 1.1//EN" "http://www.w3.org/Graphics/SVG/1.1/DTD/svg11.dtd">
<svg version="1.1" id="Layer_1" xmlns="http://www.w3.org/2000/svg" xmlns:xlink="http://www.w3.org/1999/xlink" x="0px" y="0px"
	 width="114.998px" height="114.998px" viewBox="0 0 114.998 114.998" enable-background="new 0 0 114.998 114.998"
	 xml:space="preserve">
<g>
	<path d="M79.107,34.781L57.536,56.352L35.965,34.781c-0.492-0.492-1.29-0.493-1.784,0.001c-0.491,0.491-0.491,1.29,0.001,1.783
		l21.571,21.571l-21.57,21.57c-0.493,0.493-0.491,1.29,0.001,1.783c0.492,0.492,1.288,0.494,1.782,0l21.57-21.57l21.572,21.572
		c0.491,0.491,1.29,0.492,1.782,0c0.493-0.493,0.494-1.291,0.001-1.783L59.319,58.136l21.572-21.572
		c0.492-0.492,0.493-1.29,0.001-1.783S79.6,34.288,79.107,34.781z"/>
	<path d="M18.1,18.046C-3.625,39.771-3.624,75.118,18.1,96.843s57.072,21.725,78.796,0.001
		c21.726-21.726,21.725-57.073,0.001-78.798S39.825-3.679,18.1,18.046z M95.114,95.06c-20.742,20.742-54.489,20.742-75.231,0
		c-20.741-20.741-20.742-54.488,0-75.23s54.49-20.742,75.231-0.001S115.856,74.318,95.114,95.06z"/>
</g>
</svg>
