<?xml version="1.0" encoding="utf-8"?>
<!-- Generator: Adobe Illustrator 17.0.0, SVG Export Plug-In . SVG Version: 6.00 Build 0)  -->
<svg version="1.2" baseProfile="tiny" id="Layer_1" xmlns="http://www.w3.org/2000/svg" xmlns:xlink="http://www.w3.org/1999/xlink"
	 x="0px" y="0px" width="114.998px" height="114.998px" viewBox="0 0 114.998 114.998" xml:space="preserve">
<g>
	<path d="M59.534,24.351c-1.018-1.017-2.674-1.02-3.692,0l-30.31,30.307c-0.492,0.492-0.492,1.29,0,1.781
		c0.494,0.493,1.291,0.493,1.783,0l5.363-5.338v34.846c0,1.188,0.965,2.156,2.154,2.156h45.71c1.189,0,2.155-0.968,2.155-2.156
		v-34.87l5.361,5.362c0.246,0.247,0.568,0.37,0.893,0.37c0.322,0,0.645-0.123,0.891-0.37c0.492-0.491,0.492-1.289,0-1.781
		L59.534,24.351z M80.177,85.582H35.2V48.589l22.551-22.457l22.426,22.424V85.582z"/>
	<path d="M57.689,1.725c-30.725,0-55.719,24.996-55.719,55.72c0,30.722,24.994,55.717,55.719,55.717
		c30.723,0,55.718-24.995,55.718-55.717C113.406,26.721,88.411,1.725,57.689,1.725z M57.689,110.641
		c-29.332,0-53.197-23.865-53.197-53.196c0-29.333,23.865-53.198,53.197-53.198c29.332,0,53.195,23.865,53.195,53.198
		C110.884,86.776,87.021,110.641,57.689,110.641z"/>
</g>
</svg>
