<svg version="1.2" baseProfile="tiny" class="Layer_1" xmlns="http://www.w3.org/2000/svg" xmlns:xlink="http://www.w3.org/1999/xlink"
	 x="0px" y="0px" width="114.998px" height="114.998px" viewBox="0 0 114.998 114.998" xml:space="preserve">
<path d="M57.5,8.763c-27.205,0-49.26,22.054-49.26,49.259s22.055,49.259,49.26,49.259c27.205,0,49.258-22.054,49.258-49.259
	S84.705,8.763,57.5,8.763z M82.59,64.359H63.838v18.753c0,3.5-2.838,6.337-6.338,6.337s-6.336-2.837-6.336-6.337V64.359H32.41
	c-3.5,0-6.338-2.837-6.338-6.337c0-3.501,2.838-6.337,6.338-6.337h18.754V32.932c0-3.5,2.836-6.337,6.336-6.337
	s6.338,2.837,6.338,6.337v18.753H82.59c3.5,0,6.336,2.836,6.336,6.337C88.925,61.522,86.09,64.359,82.59,64.359z"/>
</svg>
