<svg version="1.2" baseProfile="tiny" class="Layer_1" xmlns="http://www.w3.org/2000/svg" xmlns:xlink="http://www.w3.org/1999/xlink"
	 x="0px" y="0px" width="114.998px" height="114.998px" viewBox="0 0 114.998 114.998" xml:space="preserve">
<g>
	<path d="M56.319,43.509c0.126,0.646,0.591,1.037,1.249,1.086c1.037,0.075,1.682-0.594,1.697-1.822
		c0.019-1.641,0.004-3.282,0.004-4.924c0-1.597,0.009-3.193-0.002-4.791c-0.006-0.886-0.346-1.371-1.046-1.575
		c-1.177-0.341-1.991,0.319-1.997,1.653c-0.01,3.172-0.006,6.344,0.001,9.517C56.226,42.937,56.263,43.227,56.319,43.509z"/>
	<path d="M75.797,74.323c1.688,0,3.377-0.009,5.064,0.007c0.535,0.005,0.785-0.203,0.774-0.743c-0.034-1.887,0.007-3.777-0.106-5.66
		c-0.15-2.454-1.704-4.146-4.07-4.612c-3.614-0.711-6.76,1.702-6.855,5.383c-0.084,3.241-0.051,6.487,0.016,9.729
		c0.027,1.428,0.539,2.744,1.566,3.791c1.51,1.538,3.385,1.71,5.368,1.34c1.813-0.338,3.132-1.385,3.587-3.164
		c0.342-1.333,0.356-2.753,0.475-4.139c0.039-0.468-0.34-0.559-0.733-0.559c-0.956,0.004-1.911,0.02-2.866-0.005
		c-0.613-0.015-0.812,0.251-0.802,0.846c0.015,0.729-0.028,1.465-0.104,2.192c-0.064,0.648-0.439,0.921-1.09,0.896
		c-0.584-0.022-0.936-0.358-0.965-1.134c-0.047-1.352-0.013-2.706-0.013-4.168C75.043,74.323,75.797,74.323,75.797,74.323z
		 M75.085,68.144c0.044-0.572,0.474-0.802,1.034-0.797c0.542,0.004,0.916,0.255,0.978,0.788c0.092,0.78,0.11,1.569,0.163,2.397
		h-2.191C75.068,69.716,75.023,68.927,75.085,68.144z"/>
	<path d="M45.466,60.744c-0.032-0.976-0.028-1.954-0.002-2.93c0.017-0.57-0.208-0.801-0.777-0.801
		c-3.775,0.011-7.549,0.009-11.324,0.002c-0.575-0.002-0.782,0.263-0.768,0.818c0.021,0.954,0.029,1.91-0.004,2.863
		c-0.021,0.645,0.247,0.866,0.873,0.845c1.037-0.033,2.075-0.009,3.196-0.009v7.515c0,4.396-0.001,8.793,0.001,13.188
		c0,0.949,0.064,1.007,1.031,1.009c0.889,0.002,1.777,0.001,2.664,0c1.001-0.001,1.059-0.058,1.059-1.048V61.533
		c1.134,0,2.174-0.021,3.213,0.009C45.218,61.559,45.486,61.367,45.466,60.744z"/>
	<path d="M68.267,65.733c-0.508-1.484-1.781-2.385-3.322-2.239c-0.889,0.084-1.744,0.5-2.688,0.791v-0.52
		c0-1.976-0.015-3.952,0.009-5.927c0.008-0.605-0.223-0.847-0.82-0.832c-0.908,0.022-1.82,0.016-2.729,0.002
		C58.17,57,57.914,57.2,57.914,57.79c0.012,8.235,0.011,16.473,0.002,24.709c0,0.548,0.232,0.761,0.759,0.753
		c0.821-0.014,1.644-0.011,2.464-0.001c0.559,0.007,1.143,0.088,1.211-0.732c0.226,0.143,0.389,0.261,0.562,0.354
		c1.918,1.039,4.857,0.922,5.623-2.108c0.119-0.469,0.199-0.962,0.201-1.443c0.016-3.752,0.031-7.504-0.016-11.256
		C68.71,67.285,68.523,66.476,68.267,65.733z M64.328,78.516c-0.033,0.897-0.225,1.161-0.841,1.157
		c-0.751-0.006-1.224-0.475-1.224-1.228c-0.002-1.688,0-3.375,0-5.062c0-1.688,0.025-3.376-0.013-5.062
		c-0.015-0.67,0.356-0.923,0.888-1.038c0.574-0.125,0.949,0.17,1.085,0.721c0.079,0.317,0.104,0.658,0.106,0.985
		c0.007,3.064,0.005,6.13,0.005,9.193C64.334,78.292,64.332,78.403,64.328,78.516z"/>
	<path d="M57.5,8.763c-27.205,0-49.26,22.054-49.26,49.258c0,27.204,22.055,49.259,49.26,49.259
		c27.204,0,49.258-22.055,49.258-49.259C106.758,30.817,84.704,8.763,57.5,8.763z M65.814,28.735h3.389V42.27
		c0,0.223-0.047,0.459,0.015,0.662c0.13,0.422,0.218,1.049,0.507,1.177c0.352,0.157,0.947-0.013,1.34-0.221
		c0.805-0.424,1.199-1.06,1.182-2.09c-0.073-4.086-0.03-8.176-0.03-12.265v-0.815h3.403v18.591h-3.378v-2.052
		c-0.347,0.339-0.554,0.546-0.765,0.748c-0.818,0.778-1.74,1.377-2.875,1.569c-1.289,0.219-2.307-0.41-2.629-1.678
		c-0.141-0.553-0.186-1.142-0.188-1.714c-0.014-4.954-0.008-9.908-0.008-14.862C65.777,29.145,65.798,28.969,65.814,28.735z
		 M56.983,28.249c2.382-0.302,4.373,0.649,5.288,2.594c0.24,0.51,0.424,1.101,0.43,1.656c0.037,3.621,0.066,7.244,0,10.864
		c-0.047,2.5-1.935,4.279-4.445,4.418c-1.836,0.101-3.438-0.327-4.588-1.875c-0.574-0.771-0.891-1.649-0.908-2.598
		c-0.035-1.82-0.01-3.642-0.01-5.464h-0.027c0-1.666-0.048-3.335,0.012-4.999C52.826,30.196,54.353,28.582,56.983,28.249z
		 M43.328,22.047c0.164,0.007,0.394,0.354,0.455,0.58c0.764,2.963,1.502,5.932,2.251,8.897c0.052,0.209,0.122,0.412,0.351,0.643
		c0.078-0.226,0.178-0.447,0.234-0.68c0.711-2.953,1.427-5.904,2.116-8.862c0.102-0.44,0.257-0.632,0.741-0.614
		c1.062,0.038,2.125,0.011,3.287,0.011c-0.08,0.343-0.125,0.614-0.205,0.875c-1.354,4.407-2.719,8.811-4.062,13.222
		c-0.133,0.438-0.2,0.912-0.203,1.369c-0.018,2.999-0.01,5.998-0.01,8.996v0.826h-3.859c-0.014-0.246-0.035-0.502-0.035-0.759
		c-0.003-2.844,0.01-5.687-0.012-8.529c-0.004-0.5-0.082-1.019-0.227-1.499c-1.379-4.584-2.781-9.163-4.174-13.744
		c-0.064-0.209-0.11-0.423-0.195-0.759C41.027,22.019,42.178,21.995,43.328,22.047z M85.367,82.654
		c-0.436,3.647-3.872,6.614-7.535,6.716c-6.861,0.189-13.723,0.345-20.521,0.513c-6.93-0.17-13.793-0.321-20.652-0.515
		c-3.891-0.11-7.461-3.523-7.613-7.408c-0.207-5.257-0.335-10.521-0.356-15.782c-0.012-2.636,0.143-5.291,0.483-7.904
		c0.46-3.54,3.679-6.417,7.261-6.614c3.637-0.201,7.279-0.336,10.922-0.367c6.598-0.058,13.195-0.057,19.793,0
		c3.619,0.031,7.24,0.156,10.854,0.362c4.139,0.236,7.416,3.715,7.521,7.843c0.126,4.886,0.316,9.768,0.324,14.651
		C85.854,76.984,85.701,79.84,85.367,82.654z"/>
	<path d="M55.371,80.22c0-5.196,0.002-10.392,0-15.588c-0.002-0.853-0.109-0.958-0.956-0.963c-0.8-0.003-1.6-0.002-2.399,0
		c-0.889,0.004-0.987,0.101-0.987,0.996c-0.002,4.264-0.015,8.527,0.013,12.791c0.004,0.606-0.162,1.054-0.672,1.325
		c-0.373,0.196-0.795,0.295-1.195,0.438c-0.092-0.37-0.197-0.738-0.271-1.112c-0.033-0.171-0.006-0.354-0.006-0.531
		c0-4.352-0.012-8.705,0.01-13.057c0.004-0.647-0.24-0.875-0.86-0.855c-0.821,0.025-1.643,0.004-2.464,0.006
		c-0.912,0.004-0.99,0.081-0.99,0.985c0,4.95-0.005,9.901,0.006,14.854c0.002,0.552,0.045,1.112,0.145,1.653
		c0.316,1.724,1.662,2.685,3.359,2.24c0.998-0.261,1.918-0.831,2.912-1.281c-0.002-0.017,0.017,0.089,0.021,0.196
		c0.047,0.879,0.094,0.927,0.986,0.93c0.842,0.002,1.688-0.02,2.53,0.007c0.606,0.02,0.841-0.244,0.824-0.835
		C55.353,81.685,55.371,80.952,55.371,80.22z"/>
</g>
</svg>
