<svg version="1.2" baseProfile="tiny" class="Layer_1" xmlns="http://www.w3.org/2000/svg" xmlns:xlink="http://www.w3.org/1999/xlink"
	 x="0px" y="0px" width="114.998px" height="114.998px" viewBox="0 0 114.998 114.998" xml:space="preserve">
<g>
	<path d="M77.49,70.422L77.49,70.422c-0.053-0.829-0.071-1.618-0.163-2.398c-0.062-0.533-0.436-0.784-0.978-0.788
		c-0.561-0.005-0.99,0.225-1.034,0.797c-0.062,0.782-0.017,1.571-0.017,2.389H77.49z"/>
	<path d="M64.454,67.892c-0.136-0.551-0.511-0.846-1.085-0.721c-0.531,0.115-0.902,0.368-0.888,1.038
		c0.038,1.687,0.013,3.374,0.013,5.062c0,1.688-0.002,3.375,0,5.062c0,0.753,0.473,1.222,1.224,1.228
		c0.616,0.004,0.808-0.26,0.841-1.157c0.004-0.113,0.006-0.224,0.006-0.334c0-3.063,0.002-6.129-0.004-9.193
		C64.559,68.55,64.533,68.209,64.454,67.892z"/>
	<path d="M78.232,51.542c-3.613-0.206-7.234-0.331-10.854-0.362c-6.598-0.057-13.195-0.058-19.793,0
		c-3.643,0.031-7.285,0.166-10.922,0.367c-3.582,0.197-6.801,3.074-7.261,6.614c-0.341,2.613-0.495,5.268-0.483,7.904
		c0.021,5.261,0.149,10.525,0.356,15.782c0.152,3.885,3.723,7.298,7.613,7.408c6.859,0.193,13.723,0.345,20.652,0.515
		c6.799-0.168,13.66-0.323,20.521-0.513c3.663-0.102,7.1-3.068,7.535-6.716c0.334-2.814,0.487-5.67,0.48-8.506
		c-0.008-4.884-0.198-9.766-0.324-14.651C85.648,55.257,82.371,51.779,78.232,51.542z M41.646,61.421v20.665
		c0,0.99-0.058,1.047-1.059,1.048c-0.887,0.001-1.775,0.002-2.664,0c-0.967-0.002-1.031-0.06-1.031-1.009
		c-0.002-4.396-0.001-8.792-0.001-13.188v-7.515c-1.121,0-2.159-0.024-3.196,0.009c-0.626,0.021-0.895-0.2-0.873-0.845
		c0.033-0.953,0.025-1.909,0.004-2.863c-0.015-0.556,0.192-0.82,0.768-0.818c3.775,0.007,7.549,0.009,11.324-0.002
		c0.569,0,0.794,0.23,0.777,0.801c-0.026,0.976-0.03,1.954,0.002,2.93c0.02,0.623-0.248,0.815-0.838,0.798
		C43.82,61.4,42.78,61.421,41.646,61.421z M54.782,83.141c-0.843-0.026-1.688-0.005-2.53-0.007c-0.893-0.003-0.94-0.051-0.986-0.93
		c-0.005-0.107-0.023-0.213-0.021-0.196c-0.994,0.45-1.914,1.021-2.912,1.281c-1.697,0.444-3.044-0.517-3.359-2.24
		c-0.1-0.541-0.143-1.102-0.145-1.653c-0.011-4.952-0.006-9.903-0.006-14.854c0-0.904,0.078-0.981,0.99-0.985
		c0.82-0.002,1.643,0.019,2.464-0.006c0.62-0.02,0.864,0.208,0.86,0.855c-0.021,4.352-0.01,8.705-0.01,13.057
		c0,0.178-0.027,0.36,0.006,0.531c0.074,0.374,0.18,0.742,0.271,1.112c0.4-0.143,0.822-0.241,1.195-0.438
		c0.51-0.271,0.676-0.719,0.672-1.325c-0.027-4.264-0.015-8.527-0.013-12.791c0-0.896,0.099-0.992,0.987-0.996
		c0.8-0.002,1.6-0.003,2.399,0c0.847,0.005,0.954,0.11,0.956,0.963c0.002,5.196,0,10.392,0,15.588c0,0.732-0.018,1.466,0.005,2.198
		C55.623,82.897,55.389,83.16,54.782,83.141z M68.967,79.209c-0.002,0.481-0.082,0.975-0.201,1.443
		c-0.766,3.03-3.705,3.147-5.623,2.108c-0.174-0.093-0.336-0.211-0.562-0.354c-0.068,0.82-0.652,0.739-1.211,0.732
		c-0.82-0.01-1.643-0.013-2.464,0.001c-0.526,0.008-0.759-0.205-0.759-0.753c0.009-8.236,0.01-16.474-0.002-24.709
		c0-0.59,0.256-0.79,0.803-0.782c0.908,0.014,1.82,0.021,2.729-0.002c0.598-0.015,0.828,0.227,0.82,0.832
		c-0.023,1.975-0.009,3.951-0.009,5.927v0.52c0.944-0.291,1.8-0.707,2.689-0.791c1.541-0.146,2.814,0.755,3.322,2.239
		c0.256,0.743,0.442,1.552,0.453,2.332C68.998,71.705,68.982,75.457,68.967,79.209z M75.285,78.379
		c0.028,0.775,0.381,1.111,0.965,1.134c0.65,0.025,1.025-0.247,1.09-0.896c0.076-0.728,0.119-1.463,0.104-2.192
		c-0.011-0.595,0.188-0.86,0.802-0.846c0.955,0.024,1.91,0.009,2.866,0.005c0.394,0,0.772,0.091,0.733,0.559
		c-0.118,1.386-0.133,2.806-0.475,4.139c-0.455,1.779-1.773,2.826-3.587,3.164c-1.983,0.37-3.858,0.198-5.368-1.34
		c-1.027-1.047-1.539-2.363-1.566-3.791c-0.066-3.242-0.1-6.488-0.016-9.729c0.096-3.681,3.241-6.094,6.855-5.383
		c2.366,0.466,3.92,2.158,4.07,4.612c0.113,1.883,0.072,3.773,0.106,5.66c0.011,0.54-0.239,0.748-0.774,0.743
		c-1.688-0.016-3.377-0.007-5.064-0.007h-0.755C75.272,75.673,75.238,77.028,75.285,78.379z"/>
	<path d="M69.433,28.623h-3.389c-0.016,0.234-0.037,0.41-0.037,0.585c0,4.954-0.006,9.908,0.008,14.863
		c0.003,0.573,0.047,1.162,0.188,1.714c0.322,1.268,1.34,1.896,2.629,1.678c1.135-0.192,2.057-0.791,2.875-1.569
		c0.211-0.202,0.418-0.409,0.765-0.748v2.052h3.378V28.607h-3.403v0.815c0,4.089-0.043,8.179,0.03,12.265
		c0.018,1.03-0.377,1.666-1.182,2.09c-0.392,0.208-0.988,0.378-1.34,0.221c-0.289-0.128-0.377-0.755-0.507-1.177
		c-0.062-0.203-0.015-0.439-0.015-0.662V28.623z"/>
	<path d="M49.707,21.898c-0.484-0.018-0.639,0.174-0.741,0.614c-0.689,2.958-1.405,5.909-2.116,8.862
		c-0.057,0.233-0.156,0.453-0.234,0.68c-0.229-0.23-0.299-0.434-0.351-0.643c-0.749-2.966-1.487-5.934-2.251-8.897
		c-0.061-0.226-0.291-0.573-0.455-0.58c-1.149-0.052-2.301-0.027-3.547-0.027c0.085,0.336,0.131,0.55,0.195,0.759
		c1.393,4.581,2.795,9.16,4.174,13.744c0.145,0.48,0.223,0.999,0.227,1.499c0.021,2.843,0.009,5.686,0.012,8.529
		c0,0.257,0.021,0.513,0.035,0.759h3.859v-0.826c0-2.998-0.008-5.997,0.01-8.996c0.003-0.457,0.07-0.931,0.203-1.369
		c1.344-4.41,2.709-8.815,4.062-13.222c0.08-0.261,0.125-0.532,0.205-0.875C51.832,21.909,50.769,21.936,49.707,21.898z"/>
	<path d="M52.99,43.197c0.017,0.949,0.334,1.827,0.908,2.598c1.15,1.548,2.752,1.977,4.588,1.875
		c2.51-0.139,4.398-1.918,4.445-4.418c0.066-3.62,0.037-7.243,0-10.864c-0.006-0.556-0.189-1.146-0.43-1.656
		c-0.915-1.944-2.906-2.896-5.288-2.594c-2.63,0.333-4.157,1.947-4.249,4.597c-0.059,1.663-0.011,3.332-0.011,4.998h0.027
		C52.98,39.554,52.955,41.376,52.99,43.197z M58.452,31.37c0.7,0.204,1.04,0.689,1.046,1.575c0.011,1.598,0.002,3.194,0.002,4.791
		c0,1.642,0.016,3.283-0.004,4.924c-0.016,1.228-0.66,1.897-1.697,1.822c-0.658-0.049-1.123-0.441-1.249-1.086
		c-0.056-0.281-0.093-0.571-0.094-0.856c-0.007-3.173-0.011-6.345-0.001-9.517C56.461,31.69,57.275,31.03,58.452,31.37z"/>
</g>
</svg>
