<?xml version="1.0" encoding="utf-8"?>
<!-- Generator: Adobe Illustrator 17.0.0, SVG Export Plug-In . SVG Version: 6.00 Build 0)  -->
<svg version="1.2" baseProfile="tiny" id="Layer_1" xmlns="http://www.w3.org/2000/svg" xmlns:xlink="http://www.w3.org/1999/xlink"
	 x="0px" y="0px" width="114.998px" height="114.998px" viewBox="0 0 114.998 114.998" xml:space="preserve">
<g>
	<path d="M74.867,81.844c-0.341-0.532-0.923-0.849-1.554-0.849c-0.355,0-0.7,0.101-0.998,0.294
		c-0.856,0.551-1.105,1.696-0.554,2.553l7.293,11.336c0.342,0.532,0.923,0.849,1.556,0.849c0.355,0,0.7-0.101,0.997-0.294
		c0.857-0.552,1.105-1.697,0.554-2.554L74.867,81.844z"/>
	<path d="M97.958,35.403c-0.319-0.615-0.948-0.997-1.641-0.997c-0.294,0-0.587,0.07-0.849,0.206l-12.636,6.544
		c-0.903,0.47-1.258,1.587-0.79,2.492c0.32,0.615,0.95,0.997,1.643,0.997c0.292,0,0.585-0.072,0.847-0.208l12.636-6.544
		C98.071,37.424,98.426,36.307,97.958,35.403z"/>
	<path d="M81.508,19.204c-0.3-0.192-0.645-0.294-0.999-0.294c-0.633,0-1.214,0.318-1.556,0.849l-7.295,11.336
		c-0.551,0.857-0.302,2.002,0.553,2.553c0.299,0.193,0.644,0.294,0.999,0.294c0.631,0,1.213-0.317,1.554-0.849l7.297-11.336
		c0.267-0.414,0.357-0.909,0.252-1.391C82.209,19.885,81.923,19.471,81.508,19.204z"/>
	<path d="M37.395,57.499c0,11.906,9.687,21.592,21.593,21.592s21.593-9.687,21.593-21.592c0-11.907-9.687-21.594-21.593-21.594
		S37.395,45.592,37.395,57.499z M58.988,39.6c9.869,0,17.898,8.029,17.898,17.898c0,9.869-8.029,17.897-17.898,17.897
		s-17.897-8.029-17.897-17.897C41.091,47.629,49.119,39.6,58.988,39.6z"/>
	<path d="M60.777,28.198V15.109c0-1.019-0.829-1.848-1.848-1.848c-1.019,0-1.848,0.829-1.848,1.848v13.089
		c0,1.019,0.829,1.848,1.848,1.848C59.948,30.046,60.777,29.217,60.777,28.198z"/>
	<path d="M95.529,80.282c0.263,0.136,0.556,0.208,0.849,0.208c0.695,0,1.324-0.383,1.644-0.999c0.468-0.904,0.113-2.021-0.792-2.49
		l-12.64-6.545c-0.263-0.136-0.556-0.208-0.849-0.208c-0.693,0-1.322,0.383-1.642,1c-0.227,0.438-0.269,0.938-0.12,1.408
		c0.149,0.47,0.472,0.854,0.911,1.081L95.529,80.282z"/>
	<path d="M57.199,86.797v13.091c0,1.019,0.829,1.848,1.848,1.848c1.018,0,1.847-0.829,1.848-1.847V86.797
		c0-1.019-0.829-1.848-1.848-1.848C58.028,84.949,57.199,85.778,57.199,86.797z"/>
	<path d="M22.447,34.714c-0.263-0.136-0.556-0.208-0.849-0.208c-0.695,0-1.323,0.383-1.642,0.999
		c-0.226,0.439-0.269,0.939-0.12,1.409c0.149,0.47,0.473,0.854,0.911,1.081l12.636,6.544c0.262,0.135,0.556,0.207,0.849,0.207
		c0.694,0,1.323-0.381,1.642-0.998c0.468-0.904,0.113-2.021-0.791-2.49L22.447,34.714z"/>
	<path d="M36.466,95.792c0.3,0.191,0.645,0.293,0.999,0.293c0.631,0,1.213-0.316,1.555-0.847l7.296-11.337
		c0.55-0.856,0.302-2.002-0.554-2.553c-0.3-0.192-0.645-0.294-1-0.294c-0.632,0-1.212,0.317-1.555,0.848l-7.295,11.336
		C35.361,94.094,35.609,95.239,36.466,95.792z"/>
	<path d="M102.13,55.59H87.535c-1.019,0-1.848,0.829-1.848,1.848c0,1.019,0.829,1.848,1.848,1.848h14.595
		c1.018,0,1.848-0.829,1.848-1.848C103.978,56.419,103.148,55.59,102.13,55.59z"/>
	<path d="M13.998,57.556c0,1.019,0.83,1.848,1.848,1.848h14.592c1.02,0,1.848-0.829,1.848-1.848s-0.829-1.848-1.848-1.848H15.846
		C14.828,55.708,13.998,56.537,13.998,57.556z"/>
	<path d="M35.936,71.35c-0.319-0.617-0.948-0.999-1.642-0.999c-0.294,0-0.587,0.071-0.849,0.207l-12.64,6.545
		c-0.904,0.468-1.259,1.585-0.791,2.49c0.319,0.617,0.948,0.999,1.642,0.999c0.295,0,0.588-0.071,0.848-0.207l12.641-6.545
		C36.049,73.371,36.404,72.254,35.936,71.35z"/>
	<path d="M38.918,19.816c-0.342-0.53-0.924-0.847-1.555-0.847c-0.355,0-0.7,0.101-0.999,0.294c-0.857,0.553-1.104,1.699-0.553,2.554
		l7.298,11.338c0.341,0.53,0.923,0.847,1.555,0.847c0.356,0,0.701-0.102,0.999-0.296c0.415-0.267,0.702-0.68,0.805-1.162
		c0.105-0.482,0.015-0.976-0.252-1.391L38.918,19.816z"/>
</g>
</svg>
