<?xml version="1.0" encoding="utf-8"?>
<!-- Generator: Adobe Illustrator 17.0.0, SVG Export Plug-In . SVG Version: 6.00 Build 0)  -->
<svg version="1.2" baseProfile="tiny" id="Layer_1" xmlns="http://www.w3.org/2000/svg" xmlns:xlink="http://www.w3.org/1999/xlink"
	 x="0px" y="0px" width="114.998px" height="114.998px" viewBox="0 0 114.998 114.998" xml:space="preserve">
<g>
	<path d="M53.58,90.818V80.654c0-0.975-0.79-1.766-1.766-1.766s-1.766,0.791-1.766,1.766v10.164c0,0.975,0.791,1.766,1.766,1.766
		C52.79,92.584,53.58,91.793,53.58,90.818z"/>
	<path d="M45.387,84.718V74.554c0-0.974-0.79-1.766-1.766-1.766s-1.766,0.792-1.766,1.766v10.164c0,0.975,0.791,1.766,1.766,1.766
		S45.387,85.693,45.387,84.718z"/>
	<path d="M84.474,45.747c0.255-1.271,0.383-2.559,0.383-3.848c0-10.745-8.745-19.486-19.495-19.486
		c-5.647,0-11.048,2.489-14.725,6.724c-1.704-0.721-3.544-1.098-5.396-1.098c-7.643,0-13.861,6.218-13.861,13.86
		c0,1.98,0.423,3.932,1.23,5.711c-1.819,2.431-2.809,5.375-2.809,8.411c0,7.748,6.305,14.052,14.055,14.052
		c3.736,0,7.266-1.478,9.867-4.05c2.578,3.823,6.903,6.18,11.639,6.18c5.568,0,10.607-3.352,12.837-8.346
		c0.783,0.205,1.584,0.307,2.399,0.307c5.302,0,9.615-4.314,9.615-9.617C90.213,50.657,87.925,47.252,84.474,45.747z M80.598,60.631
		c-0.918,0-1.817-0.21-2.672-0.625c-0.468-0.229-1.013-0.237-1.487-0.027c-0.476,0.211-0.834,0.62-0.98,1.119
		c-1.302,4.459-5.454,7.573-10.096,7.573c-4.249,0-8.056-2.535-9.7-6.458c-0.251-0.598-0.809-1.011-1.455-1.075
		c-0.058-0.006-0.116-0.008-0.174-0.008c-0.583,0-1.133,0.289-1.464,0.778c-1.958,2.9-5.214,4.633-8.713,4.633
		c-5.803,0-10.523-4.719-10.523-10.52c0-2.576,0.956-5.065,2.69-7.011c0.504-0.566,0.592-1.391,0.217-2.049
		c-0.869-1.526-1.328-3.276-1.328-5.061c0-5.695,4.634-10.327,10.329-10.327c1.753,0,3.492,0.454,5.03,1.312
		c0.774,0.432,1.749,0.222,2.278-0.49c3.041-4.097,7.711-6.448,12.813-6.448c8.802,0,15.963,7.156,15.963,15.953
		c0,1.517-0.218,3.035-0.648,4.514c-0.136,0.466-0.073,0.968,0.172,1.387s0.653,0.718,1.126,0.827c2.77,0.64,4.705,3.075,4.705,5.92
		C86.681,57.902,83.952,60.631,80.598,60.631z"/>
	<path d="M61.773,85.736V75.572c0-0.975-0.791-1.766-1.766-1.766c-0.976,0-1.766,0.791-1.766,1.766v10.164
		c0,0.976,0.791,1.766,1.766,1.766C60.983,87.502,61.773,86.712,61.773,85.736z"/>
	<path d="M69.965,88.317V78.153c0.001-0.975-0.79-1.766-1.766-1.766s-1.766,0.791-1.766,1.766v10.164
		c0,0.975,0.791,1.766,1.766,1.766C69.175,90.083,69.965,89.292,69.965,88.317z"/>
	<path d="M78.158,84.718V74.554c0-0.974-0.79-1.766-1.766-1.766s-1.766,0.792-1.766,1.766v10.164c0,0.975,0.791,1.766,1.766,1.766
		C77.368,86.484,78.158,85.693,78.158,84.718z"/>
</g>
</svg>
