<?xml version="1.0" encoding="utf-8"?>
<!-- Generator: Adobe Illustrator 17.0.0, SVG Export Plug-In . SVG Version: 6.00 Build 0)  -->
<svg version="1.2" baseProfile="tiny" id="Layer_1" xmlns="http://www.w3.org/2000/svg" xmlns:xlink="http://www.w3.org/1999/xlink"
	 x="0px" y="0px" width="114.998px" height="114.998px" viewBox="0 0 114.998 114.998" xml:space="preserve">
<g>
	<path d="M57.307,31.943c0-1.57-1.228-2.853-2.777-2.939c-0.055-0.002-0.111-0.005-0.168-0.005c-0.084,0-0.167,0.004-0.251,0.012
		c-0.174,0.014-0.345,0.044-0.508,0.088c-1.011,0.247-2.01,0.547-2.972,0.893c-14.97,5.389-22.765,21.95-17.377,36.919
		c4.108,11.417,15.019,19.088,27.147,19.088c3.327,0,6.615-0.576,9.771-1.712c0.983-0.354,1.967-0.77,2.924-1.237
		c1.182-0.578,1.837-1.87,1.605-3.165c-0.232-1.296-1.296-2.28-2.605-2.41c-9.765-0.973-18.222-7.564-21.543-16.791
		c-3.316-9.211-1.014-19.659,5.864-26.633C56.965,33.516,57.307,32.77,57.307,31.943z M47.783,61.68
		c3.847,10.69,13.422,17.667,24.02,18.723c-0.846,0.415-1.722,0.787-2.628,1.113c-2.9,1.043-5.861,1.538-8.774,1.538
		c-10.616,0-20.576-6.577-24.378-17.141c-4.845-13.464,2.14-28.306,15.604-33.152c0.906-0.326,1.819-0.597,2.734-0.818
		C46.867,39.512,43.936,50.991,47.783,61.68z"/>
	<circle cx="65.712" cy="48.7" r="2.339"/>
	<circle cx="87.253" cy="42.667" r="1.744"/>
	<circle cx="79.439" cy="61.41" r="2.339"/>
	<circle cx="77.104" cy="34.329" r="2.339"/>
</g>
</svg>
