<?xml version="1.0" encoding="utf-8"?>
<!-- Generator: Adobe Illustrator 17.0.2, SVG Export Plug-In . SVG Version: 6.00 Build 0)  -->
<!DOCTYPE svg PUBLIC "-//W3C//DTD SVG 1.1//EN" "http://www.w3.org/Graphics/SVG/1.1/DTD/svg11.dtd">
<svg version="1.1" id="Layer_1" xmlns="http://www.w3.org/2000/svg" xmlns:xlink="http://www.w3.org/1999/xlink" x="0px" y="0px"
	 width="236px" height="66px" viewBox="-61.001 20.999 236 66" enable-background="new -61.001 20.999 236 66" xml:space="preserve"
	>
<g>
	<path fill="#FFFFFF" d="M69.348,48.241c0.465,0,0.9,0.027,1.338,0.08v-2.722c-0.617-0.026-1.285-0.107-1.928-0.107
		c-2.976,0-4.441,1.695-4.441,4.033v1.026h-2.184v2.439h2.184v10.834h3.647V52.99h2.513v-2.439h-2.513v-0.797
		C67.964,48.653,68.374,48.241,69.348,48.241z"/>
	<path fill="#FFFFFF" d="M47.142,61.743c-1.436,0-2.775-0.641-2.797-2.235H40.88c0.151,3.519,3.155,4.674,6.237,4.674
		c3.025,0,6.058-1.129,6.058-4.621c0-2.464-2.08-3.235-4.209-3.722c-2.081-0.486-4.132-0.667-4.132-1.977
		c0-1.076,1.201-1.231,2.024-1.231c1.312,0,2.385,0.385,2.494,1.797h3.464c-0.283-3.262-2.95-4.235-5.855-4.235
		c-2.852,0-5.774,0.872-5.774,4.262c0,2.336,2.105,3.08,4.207,3.539c2.621,0.567,4.132,0.952,4.132,2.054
		C49.526,61.332,48.195,61.743,47.142,61.743z"/>
	<path fill="#FFFFFF" d="M55.46,46.573v3.978h-2.205v2.439h2.205v7.829c0,2.648,1.952,3.16,4.186,3.16
		c0.717,0,1.516-0.027,2.128-0.128V61c-0.383,0.075-0.743,0.103-1.128,0.103c-1.229,0-1.541-0.306-1.541-1.542V52.99h2.669v-2.439
		h-2.669v-3.978H55.46z"/>
	<path fill="#FFFFFF" d="M33.74,50.194c-4.03,0-6.78,3.026-6.78,7.004c0,4.113,2.595,6.985,6.78,6.985
		c3.001,0,5.182-1.332,6.21-4.466h-3.209c-0.23,0.819-1.41,1.716-2.872,1.716c-2.033,0-3.161-1.048-3.263-3.357h9.579
		C40.441,53.989,38.258,50.194,33.74,50.194z M30.605,55.765c0.054-1.026,0.719-2.823,3.027-2.823c1.774,0,2.573,0.973,2.905,2.823
		H30.605z"/>
	<polygon fill="#FFFFFF" points="21.104,59.534 21.051,59.534 18.793,50.551 15.249,50.551 13.045,59.562 12.991,59.562 
		10.553,50.551 6.703,50.551 10.91,63.824 14.687,63.824 16.943,54.914 16.997,54.914 19.355,63.824 23.104,63.824 27.291,50.551 
		23.543,50.551 	"/>
	<path fill="#FFFFFF" d="M-1.359,56.325c0-14.161-11.48-25.639-25.64-25.639c-14.159,0-25.642,11.478-25.642,25.639
		c0,14.161,11.483,25.642,25.642,25.642C-12.839,81.967-1.359,70.486-1.359,56.325z M-28.18,71.724c0,0,2.889-2.441,2.405-5.06
		l-1.508-9.877c-1.567,1.627-3.225,3.18-4.932,5.106c0.097,1.236,0.049,2.489-0.517,3.595c-1.433,2.822-6.528,6.966-6.528,6.966
		l-0.865-0.944c0,0,1.629-1.616,2.048-2.689c0.191-0.48,0.237-1.018,0.273-1.474c0.139-1.999-1.535-10.675-2.882-17.659
		c-0.416-2.152-0.611-2.677-1.924-2.595c-0.636,0.041-2.013,0.584-2.013,0.584l-0.365-1.114l10.003-4.16l2.613,16.487l4.684-4.658
		l-0.771-4.915c-0.121-0.812-0.43-1.695-1.481-1.85c-0.939-0.127-2.596,0.655-2.596,0.655l-0.429-1.061l10.042-4.551l2.655,16.077
		c0,0,3.393-3.484,3.633-3.753c0.621-0.684,0.547-2.037,0.029-4.944c-0.257-1.442-0.485-2.844-1.39-3.129
		c-1.012-0.315-2.722,0.456-2.722,0.456l-0.364-1.022l9.135-4.042c0,0,1.373,5.72,1.224,5.72c0.403,2.93-0.069,3.58-0.738,4.573
		c-0.68,1.023-2.446,2.731-2.446,2.731c-2.005,2.014-6.023,6.023-6.023,6.023s0.055,3.13-0.648,4.506
		c-1.471,2.917-6.704,6.996-6.704,6.996L-28.18,71.724z"/>
	<rect x="91.896" y="45.492" fill="#FFFFFF" width="3.642" height="18.332"/>
	<rect x="119.528" y="45.492" fill="#FFFFFF" width="3.648" height="18.332"/>
	<path fill="#FFFFFF" d="M128.983,56.173c-2.26,0.309-4.518,1.025-4.518,4.031c0,2.722,2,3.979,4.518,3.979
		c1.615,0,3.31-0.433,4.466-1.641c0.026,0.438,0.129,0.87,0.256,1.283h3.693c-0.33-0.54-0.459-1.75-0.459-2.952v-6.904
		c0-3.187-3.179-3.775-5.828-3.775c-2.978,0-6.031,1.027-6.236,4.437h3.645c0.126-1.432,1.024-2,2.41-2
		c1.291,0,2.363,0.231,2.363,1.798C133.293,55.915,131.213,55.84,128.983,56.173z M133.293,58.692c0,0.796-0.102,3.052-2.951,3.052
		c-1.183,0-2.235-0.331-2.235-1.695c0-1.332,1.026-1.716,2.159-1.951c1.129-0.203,2.413-0.23,3.027-0.77V58.692z"/>
	<path fill="#FFFFFF" d="M138.744,45.492v18.332h3.463v-1.695h0.05c0.796,1.465,2.417,2.054,4.362,2.054
		c2.65,0,5.499-2.129,5.499-7.006c0-4.855-2.849-6.983-5.499-6.983c-1.638,0-3.282,0.615-4.179,1.978h-0.055v-6.68H138.744z
		 M145.365,52.942c2.153,0,3.107,2.027,3.107,4.256c0,2.21-0.954,4.235-3.107,4.235c-2.157,0-3.108-2.025-3.108-4.235
		C142.257,54.969,143.208,52.942,145.365,52.942z"/>
	<path fill="#FFFFFF" d="M160.64,55.839c-2.074-0.486-4.127-0.667-4.127-1.977c0-1.076,1.204-1.231,2.028-1.231
		c1.308,0,2.385,0.385,2.486,1.797h3.465c-0.278-3.262-2.951-4.235-5.85-4.235c-2.853,0-5.777,0.872-5.777,4.262
		c0,2.336,2.106,3.08,4.21,3.539c2.618,0.567,4.134,0.952,4.134,2.054c0,1.284-1.337,1.695-2.385,1.695
		c-1.44,0-2.775-0.641-2.803-2.235h-3.465c0.155,3.519,3.159,4.674,6.241,4.674c3.027,0,6.058-1.129,6.058-4.621
		C164.855,57.097,162.775,56.326,160.64,55.839z"/>
	<path fill="#FFFFFF" d="M84.013,50.194c-4.031,0-6.781,3.026-6.781,7.004c0,4.113,2.594,6.985,6.781,6.985
		c2.999,0,5.182-1.332,6.209-4.466h-3.21c-0.23,0.819-1.41,1.716-2.87,1.716c-2.033,0-3.161-1.048-3.264-3.357h9.579
		C90.714,53.989,88.529,50.194,84.013,50.194z M80.878,55.765c0.055-1.026,0.718-2.823,3.028-2.823c1.776,0,2.573,0.973,2.906,2.823
		H80.878z"/>
	<rect x="72.172" y="45.493" fill="#FFFFFF" width="3.648" height="3.005"/>
	<rect x="72.172" y="50.551" fill="#FFFFFF" width="3.648" height="13.273"/>
	<path fill="#FFFFFF" d="M110.371,63.824V45.492h-3.642v6.679h-0.053c-0.824-1.309-2.363-1.978-3.926-1.978
		c-3.901,0-5.882,3.31-5.882,6.877c0,3.674,1.953,7.113,5.958,7.113c1.694,0,3.182-0.616,4.03-2.054h0.049v1.695H110.371z
		 M103.725,61.433c-2.258,0-3.211-2.181-3.211-4.256c0-2.182,0.824-4.236,3.211-4.236c2.362,0,3.131,2.054,3.131,4.209
		C106.856,59.332,106.135,61.433,103.725,61.433z"/>
</g>
</svg>
