<?xml version="1.0" encoding="utf-8"?>
<!-- Generator: Adobe Illustrator 17.0.0, SVG Export Plug-In . SVG Version: 6.00 Build 0)  -->
<svg version="1.2" baseProfile="tiny" id="Layer_1" xmlns="http://www.w3.org/2000/svg" xmlns:xlink="http://www.w3.org/1999/xlink"
	 x="0px" y="0px" width="114.998px" height="114.998px" viewBox="0 0 114.998 114.998" xml:space="preserve">
<g>
	<path d="M57.499,1.728c-30.723,0-55.717,24.994-55.717,55.716s24.994,55.716,55.717,55.716c30.723,0,55.717-24.994,55.717-55.716
		S88.221,1.728,57.499,1.728z M57.499,110.638c-29.331,0-53.195-23.862-53.195-53.194c0-29.331,23.864-53.194,53.195-53.194
		c29.333,0,53.197,23.863,53.197,53.194C110.696,86.776,86.832,110.638,57.499,110.638z"/>
	<path d="M86.161,33.951H28.685c-2.364,0-4.289,1.924-4.289,4.288v3.767l30.808,26.967c0.596,0.597,1.391,0.926,2.238,0.926
		c0.848,0,1.643-0.33,2.172-0.87L90.448,42.04v-3.8C90.448,35.875,88.526,33.951,86.161,33.951z M87.929,40.896h-0.002L57.889,67.19
		c-0.243,0.246-0.596,0.3-0.963-0.058L26.918,40.86v-2.622c0-0.974,0.793-1.768,1.768-1.768h57.476c0.976,0,1.767,0.794,1.767,1.768
		V40.896z"/>
	<path d="M57.442,72.769c-1.611,0-3.127-0.628-4.337-1.832L24.396,46.316v30.849c0,2.364,1.925,4.288,4.289,4.288h57.476
		c2.365,0,4.287-1.924,4.287-4.288V46.351l-28.74,24.652C60.565,72.141,59.05,72.769,57.442,72.769z M87.927,51.833v25.332
		c0,0.973-0.791,1.77-1.767,1.77H28.685c-0.975,0-1.768-0.796-1.768-1.77V51.798l24.478,20.99c1.615,1.611,3.762,2.5,6.047,2.5
		c2.28,0,4.428-0.889,5.977-2.434L87.927,51.833z"/>
</g>
</svg>
