<?xml version="1.0" encoding="utf-8"?>
<!-- Generator: Adobe Illustrator 18.1.0, SVG Export Plug-In . SVG Version: 6.00 Build 0)  -->
<!DOCTYPE svg PUBLIC "-//W3C//DTD SVG 1.1//EN" "http://www.w3.org/Graphics/SVG/1.1/DTD/svg11.dtd">
<svg version="1.1" id="Layer_1" xmlns="http://www.w3.org/2000/svg" xmlns:xlink="http://www.w3.org/1999/xlink" x="0px" y="0px"
	 viewBox="-248 339 115 115" enable-background="new -248 339 115 115" xml:space="preserve">
<g>
	<path fill="#FFFFFF" d="M-191.3,379.6c3.8,0,6.9-3.1,6.9-6.9c0-3.8-3.1-6.9-6.9-6.9s-6.9,3.1-6.9,6.9
		C-198.3,376.5-195.1,379.6-191.3,379.6z M-191.3,368.2c2.4,0,4.4,2,4.4,4.4s-2,4.4-4.4,4.4c-2.4,0-4.4-2-4.4-4.4
		S-193.8,368.2-191.3,368.2z"/>
	<path fill="#FFFFFF" d="M-190.5,340.7c-30.7,0-55.7,25-55.7,55.7c0,30.7,25,55.7,55.7,55.7s55.7-25,55.7-55.7
		C-134.8,365.7-159.8,340.7-190.5,340.7z M-190.5,449.6c-29.3,0-53.2-23.9-53.2-53.2c0-29.3,23.9-53.2,53.2-53.2
		c29.3,0,53.2,23.9,53.2,53.2C-137.3,425.8-161.2,449.6-190.5,449.6z"/>
	<path fill="#FFFFFF" d="M-210.8,408.5c5.2,1.8,12.1,2.8,19.4,2.8c14.4,0,28.9-3.8,28.9-12.2c0-11.4-7.2-21.6-18.3-25.8
		c-0.7-0.2-1.4,0.1-1.6,0.7c-0.2,0.7,0.1,1.4,0.7,1.6c10.1,3.8,16.7,13,16.7,23.4c0,6.3-13.6,9.7-26.4,9.7
		c-12.8,0-26.4-3.4-26.4-9.7c0-10.3,6.8-19.8,16.9-23.5c0.7-0.2,1-1,0.8-1.6c-0.2-0.7-1-1-1.6-0.8c-11.1,4.1-18.6,14.5-18.6,25.9
		C-220.3,401.8-218.6,405.7-210.8,408.5z"/>
	<path fill="#FFFFFF" d="M-163,410c-0.1,0.1-6.9,7.2-28.5,7.2c-21.1,0-28.5-6.5-28.6-6.6c-0.5-0.5-1.3-0.4-1.8,0.1
		c-0.5,0.5-0.5,1.3,0.1,1.8c0.3,0.3,8,7.3,30.3,7.3c23,0,30.1-7.7,30.4-8c0.5-0.5,0.4-1.3-0.1-1.8C-161.7,409.4-162.5,409.5-163,410
		z"/>
</g>
</svg>
