<?xml version="1.0" encoding="utf-8"?>
<!-- Generator: Adobe Illustrator 18.1.0, SVG Export Plug-In . SVG Version: 6.00 Build 0)  -->
<!DOCTYPE svg PUBLIC "-//W3C//DTD SVG 1.1//EN" "http://www.w3.org/Graphics/SVG/1.1/DTD/svg11.dtd">
<svg version="1.1" id="Layer_1" xmlns="http://www.w3.org/2000/svg" xmlns:xlink="http://www.w3.org/1999/xlink" x="0px" y="0px"
	 viewBox="-248 339 115 115" enable-background="new -248 339 115 115" xml:space="preserve">
<g>
	<path fill="#FFFFFF" d="M-171.5,373.8h-9.6v-4.1c0-5.2-4.2-9.4-9.4-9.4c-5.2,0-9.4,4.2-9.4,9.4v4.1h-9.6c-2.3,0-4.2,1.9-4.2,4.1
		l-2,46.2c0,2.3,1.9,4.2,4.2,4.2h42c2.3,0,4.2-1.9,4.2-4.3l-2-46.1C-167.3,375.7-169.2,373.8-171.5,373.8z M-197.3,369.7
		c0-3.8,3.1-6.8,6.8-6.8c3.8,0,6.8,3.1,6.8,6.8v4.1h-13.7V369.7z M-169.5,425.9h-42c-0.9,0-1.7-0.8-1.7-1.6l2-46.2
		c0-0.9,0.8-1.7,1.7-1.7h9.6v4.5c0,0.7,0.6,1.3,1.3,1.3c0.7,0,1.3-0.6,1.3-1.3v-4.5h13.7v4.5c0,0.7,0.6,1.3,1.3,1.3
		c0.7,0,1.3-0.6,1.3-1.3v-4.5h9.6c0.9,0,1.7,0.7,1.7,1.7l2,46.1C-167.8,425.1-168.6,425.9-169.5,425.9z"/>
	<path fill="#FFFFFF" d="M-190.5,340.7c-30.7,0-55.7,25-55.7,55.7c0,30.7,25,55.7,55.7,55.7s55.7-25,55.7-55.7
		C-134.8,365.7-159.8,340.7-190.5,340.7z M-190.5,449.6c-29.3,0-53.2-23.9-53.2-53.2c0-29.3,23.9-53.2,53.2-53.2
		s53.2,23.9,53.2,53.2C-137.3,425.8-161.2,449.6-190.5,449.6z"/>
</g>
</svg>
