<?xml version="1.0" encoding="utf-8"?>
<!-- Generator: Adobe Illustrator 17.0.0, SVG Export Plug-In . SVG Version: 6.00 Build 0)  -->
<svg version="1.2" baseProfile="tiny" id="Layer_1" xmlns="http://www.w3.org/2000/svg" xmlns:xlink="http://www.w3.org/1999/xlink"
	 x="0px" y="0px" width="114.998px" height="114.998px" viewBox="0 0 114.998 114.998" xml:space="preserve">
<g>
	<path d="M76.702,24.289c-0.039-0.002-0.077-0.002-0.116-0.002c-0.056,0-0.111,0.002-0.166,0.004
		c-0.383,0.024-0.742,0.137-1.059,0.316c-0.254,0.144-0.484,0.333-0.68,0.566c-0.039,0.044-0.072,0.09-0.107,0.137L56.887,49.098
		c-0.416,0.558-0.578,1.266-0.447,1.95c0.072,0.367,0.229,0.705,0.447,0.999c-1.576,0.273-3.017,1.237-3.893,2.662
		c-0.939,1.528-1.073,3.306-0.55,4.835c-0.185-0.043-0.373-0.077-0.563-0.077c-0.225,0-0.451,0.032-0.672,0.093
		c-0.666,0.188-1.225,0.645-1.539,1.263l-13.466,26.42c-0.586,1.148-0.192,2.554,0.901,3.235c0.408,0.251,0.859,0.373,1.308,0.373
		c0.761,0,1.509-0.35,1.993-1.001l17.705-23.811c0.416-0.559,0.576-1.267,0.445-1.952c-0.078-0.408-0.267-0.778-0.525-1.093
		c1.638-0.234,3.145-1.221,4.05-2.693c0.778-1.265,1.05-2.744,0.761-4.163c-0.037-0.185-0.108-0.354-0.162-0.53
		c0.145,0.027,0.291,0.061,0.438,0.061c0.226,0,0.451-0.031,0.672-0.092c0.667-0.188,1.224-0.645,1.539-1.263l13.42-26.328
		c0.203-0.359,0.319-0.775,0.319-1.218C79.068,25.434,78.019,24.347,76.702,24.289z M38.415,88.369l13.466-26.42l4.239,2.608
		L38.415,88.369z M59.967,59.001c-0.594,0.966-1.621,1.567-2.682,1.567c-0.496,0-0.977-0.136-1.393-0.392
		c-1.338-0.823-1.69-2.693-0.785-4.167c0.595-0.967,1.623-1.567,2.686-1.567c0.494,0,0.975,0.135,1.389,0.39
		c0.637,0.391,1.072,1.03,1.229,1.798C60.572,57.431,60.415,58.273,59.967,59.001z M63.118,53.187l-4.24-2.608l17.706-23.812
		L63.118,53.187z"/>
	<path d="M61.939,88.009c-0.604-0.476-1.271-0.794-3.163-1.24c-1.191-0.284-2.462-0.572-2.462-1.588
		c0-0.904,1.016-1.335,1.986-1.335c1.461,0,1.842,0.794,2.034,1.176c0.302,0.62,0.509,1.032,1.127,1.032
		c0.683,0,1.05-0.634,1.05-1.064c0-0.603-0.668-2.781-4.068-2.781c-2.685,0-4.274,1.273-4.274,3.18c0,1.112,0.54,1.844,1.113,2.305
		c0.507,0.395,1.063,0.666,2.731,1.063c1.414,0.318,2.719,0.62,2.719,1.859c0,1.161-1.224,1.668-2.321,1.668
		c-1.589,0-2.065-0.969-2.256-1.429c-0.35-0.811-0.524-1.24-1.16-1.24c-0.683,0-1.048,0.54-1.048,1.001
		c0,0.652,0.603,3.353,4.544,3.353c2.955,0,4.497-1.621,4.497-3.608C62.988,89.788,62.812,88.693,61.939,88.009z"/>
	<path d="M53.518,31.431c0.381,0,0.652-0.19,0.795-0.333c0.286-0.285,0.271-0.683,0.271-1.463v-6.181l4.321,6.564
		c0.748,1.142,0.984,1.412,1.701,1.412c1.509,0,1.367-1.588,1.367-2.335v-7.61c0-0.78,0-1.193-0.287-1.478
		c-0.207-0.207-0.508-0.334-0.795-0.334c-0.381,0-0.636,0.19-0.793,0.349c-0.271,0.286-0.271,0.859-0.271,0.985h0.001v6.754
		l-4.418-6.704c-0.207-0.303-0.525-0.795-0.636-0.922c-0.239-0.286-0.508-0.461-0.969-0.461c-0.477,0-0.763,0.206-0.906,0.334
		c-0.461,0.397-0.461,0.746-0.461,1.938v7.689c0,0.765,0.016,1.161,0.285,1.463C52.93,31.321,53.233,31.431,53.518,31.431z"/>
	<path d="M36.706,52.472c0-0.492-0.414-1.033-1.08-1.033c-0.239,0-0.478,0.079-0.684,0.238c-0.285,0.224-0.38,0.62-0.525,1.335
		l-1.508,6.642l-1.668-6.212c-0.24-0.86-0.334-1.208-0.621-1.558c-0.174-0.221-0.636-0.445-1.082-0.445
		c-0.523,0-0.951,0.286-1.078,0.445c-0.286,0.334-0.414,0.763-0.621,1.558l-1.668,6.212l-1.51-6.642
		c-0.191-0.888-0.334-1.573-1.224-1.573c-0.634,0-1.065,0.541-1.065,1.017c0,0.334,0.145,0.953,0.176,1.048l1.892,7.66
		c0.286,1.208,0.492,2.034,1.604,2.034c1.114,0,1.335-0.81,1.637-1.971l1.857-6.832l1.846,6.832c0.316,1.145,0.54,1.971,1.65,1.971
		c1.113,0,1.304-0.826,1.606-2.034l1.892-7.66C36.563,53.377,36.706,52.79,36.706,52.472z"/>
	<path d="M57.499,1.727c-30.724,0-55.717,24.994-55.717,55.716c0,30.723,24.993,55.717,55.717,55.717
		c30.723,0,55.717-24.994,55.717-55.717C113.216,26.721,88.223,1.727,57.499,1.727z M57.499,110.679
		c-29.354,0-53.235-23.882-53.235-53.236c0-29.354,23.881-53.235,53.235-53.235s53.235,23.88,53.235,53.235
		C110.734,86.798,86.853,110.679,57.499,110.679z"/>
	<path d="M92.493,61.324c-0.269-0.127-0.492-0.096-1.047-0.096h-4.975V57.97h4.4c0.605,0,0.939-0.032,1.177-0.27
		c0.16-0.159,0.271-0.398,0.271-0.636c0-0.302-0.16-0.508-0.285-0.635c-0.224-0.222-0.541-0.239-1.162-0.239h-4.401v-2.782h4.799
		c0.637,0,0.971,0,1.208-0.239c0.175-0.173,0.269-0.413,0.269-0.651c0-0.316-0.158-0.539-0.269-0.65
		c-0.237-0.238-0.557-0.238-1.208-0.238h-5.164c-0.97,0-1.256,0-1.59,0.35c-0.333,0.349-0.333,0.539-0.333,1.588v7.518
		c0,0.953,0,1.27,0.333,1.588c0.366,0.333,0.557,0.333,1.59,0.333h5.34c0.541,0,0.905,0,1.159-0.189
		c0.191-0.144,0.349-0.413,0.349-0.716C92.954,61.753,92.747,61.435,92.493,61.324z"/>
</g>
</svg>
