<?xml version="1.0" encoding="utf-8"?>
<!-- Generator: Adobe Illustrator 17.0.0, SVG Export Plug-In . SVG Version: 6.00 Build 0)  -->
<svg version="1.2" baseProfile="tiny" id="Layer_1" xmlns="http://www.w3.org/2000/svg" xmlns:xlink="http://www.w3.org/1999/xlink"
	 x="0px" y="0px" width="114.998px" height="114.998px" viewBox="0 0 114.998 114.998" xml:space="preserve">
<g>
	<path d="M64.707,38.444c0-3.844-3.127-6.973-6.971-6.973c-3.846,0-6.975,3.129-6.975,6.973c0,3.843,3.129,6.973,6.975,6.973
		C61.58,45.417,64.707,42.287,64.707,38.444z M53.283,38.444c0-2.456,1.998-4.452,4.453-4.452c2.453,0,4.45,1.996,4.45,4.452
		c0,2.453-1.997,4.452-4.45,4.452C55.282,42.896,53.283,40.897,53.283,38.444z"/>
	<path d="M57.498,68.333c1.609,0,5.484-6.604,8.45-12.146c2.487-4.644,6.661-13.124,6.661-17.708
		c0-8.204-6.673-14.874-14.874-14.874c-8.2,0-14.872,6.67-14.872,14.874C42.864,44.615,54.491,68.333,57.498,68.333z M57.736,26.125
		c6.812,0,12.353,5.541,12.353,12.354c0,6.392-9.703,22.955-12.576,26.788C54.731,61.424,45.385,44.9,45.385,38.478
		C45.385,31.666,50.924,26.125,57.736,26.125z"/>
	<path d="M92.128,76.125L75.153,71.43l17.025-5.491c0.527-0.17,0.881-0.662,0.873-1.214c-0.008-0.554-0.373-1.038-0.904-1.194
		l-20.132-5.918c-0.671-0.198-1.368,0.187-1.566,0.855c-0.197,0.668,0.188,1.368,0.854,1.565l16.206,4.764l-30.013,9.677
		l-29.939-9.653l16.47-4.659c0.668-0.188,1.059-0.885,0.868-1.556c-0.188-0.666-0.87-1.062-1.556-0.868l-20.478,5.79
		c-0.534,0.151-0.906,0.633-0.918,1.191c-0.01,0.554,0.346,1.049,0.874,1.22l17.027,5.491l-16.976,4.697
		c-0.537,0.147-0.912,0.63-0.926,1.188c-0.011,0.557,0.345,1.057,0.874,1.228L57.111,89.6c0.126,0.042,0.257,0.06,0.387,0.06
		c0.132,0,0.262-0.018,0.388-0.06l34.293-11.059c0.529-0.171,0.885-0.671,0.873-1.228C93.04,76.755,92.665,76.273,92.128,76.125z
		 M57.498,87.075L27.6,77.435l16.611-4.596l12.899,4.159c0.126,0.041,0.257,0.061,0.387,0.061c0.132,0,0.262-0.02,0.388-0.061
		l12.977-4.186c0.066,0.035,0.124,0.082,0.199,0.103l16.338,4.52L57.498,87.075z"/>
	<path d="M57.498,1.725c-30.723,0-55.719,24.996-55.719,55.72c0,30.722,24.996,55.717,55.719,55.717
		c30.723,0,55.72-24.995,55.72-55.717C113.218,26.721,88.221,1.725,57.498,1.725z M57.498,110.641
		c-29.332,0-53.197-23.865-53.197-53.196c0-29.333,23.865-53.198,53.197-53.198c29.334,0,53.199,23.865,53.199,53.198
		C110.698,86.776,86.832,110.641,57.498,110.641z"/>
</g>
</svg>
