<?xml version="1.0" encoding="utf-8"?>
<!-- Generator: Adobe Illustrator 18.1.0, SVG Export Plug-In . SVG Version: 6.00 Build 0)  -->
<!DOCTYPE svg PUBLIC "-//W3C//DTD SVG 1.1//EN" "http://www.w3.org/Graphics/SVG/1.1/DTD/svg11.dtd">
<svg version="1.1" id="Layer_1" xmlns="http://www.w3.org/2000/svg" xmlns:xlink="http://www.w3.org/1999/xlink" x="0px" y="0px"
	 viewBox="-248 339 115 115" enable-background="new -248 339 115 115" xml:space="preserve">
<g>
	<path fill="#FFFFFF" d="M-186.4,401.1c0.6,0,1.9-0.3,5.3-3.2v16.2c0,0.4,0,1.9,1.3,1.9c1.4,0,1.4-1.3,1.4-2.1v-18.6
		c0-0.6,0-2.1-1.2-2.1c-0.6,0-0.8,0.4-1.2,1c-1.6,2.6-4.5,4.1-5.2,4.4c-1.2,0.5-1.3,0.9-1.3,1.3
		C-187.4,400.7-186.8,401.1-186.4,401.1z"/>
	<path fill="#FFFFFF" d="M-198.6,415.9c4.8,0,7.2-3.4,7.2-7c0-4.2-3-5.1-4.3-5.4c1.1-0.6,3.2-1.8,3.2-4.6c0-3.1-2.4-5.7-6.4-5.7
		c-5.1,0-6.7,4.1-6.7,5.2c0,0.3,0.2,1.2,1.2,1.2c0.8,0,0.9-0.3,1.5-1.7c0.6-1.3,1.8-2.7,3.9-2.7c2.6,0,3.8,2,3.8,3.7
		c0,1.3-0.7,2.7-2.2,3.3c-1,0.4-1.6,0.4-2.5,0.4c-0.3,0-1.5,0.1-1.5,1.2c0,0.5,0.3,1.1,1.2,1.1c0.2,0,1.5-0.2,1.8-0.2
		c3,0,4.2,2.3,4.2,4.3c0,2.4-1.8,4.8-4.8,4.8c-3,0-4.1-2.4-4.6-3.7c-0.2-0.7-0.5-1.3-1.2-1.3c-0.8,0-1.2,0.6-1.2,1.1
		c0,1.1,0.8,2.8,2,4.1C-203.2,415.1-201.7,415.9-198.6,415.9z"/>
	<path fill="#FFFFFF" d="M-163.2,368.4h-8.9v-5.9c0-0.7-0.6-1.3-1.3-1.3c-0.7,0-1.3,0.6-1.3,1.3v5.9h-31.8v-5.9
		c0-0.7-0.6-1.3-1.3-1.3c-0.7,0-1.3,0.6-1.3,1.3v5.9h-8.9c-2,0-3.5,1.6-3.5,3.5v51.8c0,2,1.6,3.5,3.5,3.5h54.5c2,0,3.5-1.6,3.5-3.5
		V372C-159.7,370-161.3,368.4-163.2,368.4z M-162.2,423.8c0,0.6-0.5,1-1,1h-54.5c-0.6,0-1-0.5-1-1v-39h56.6V423.8z M-162.2,382.3
		h-56.6V372c0-0.6,0.5-1,1-1h8.9v4c0,0.7,0.6,1.3,1.3,1.3c0.7,0,1.3-0.6,1.3-1.3v-4h31.8v4c0,0.7,0.6,1.3,1.3,1.3
		c0.7,0,1.3-0.6,1.3-1.3v-4h8.9c0.6,0,1,0.5,1,1C-162.2,372-162.2,382.3-162.2,382.3z"/>
	<path fill="#FFFFFF" d="M-190.5,340.7c-30.7,0-55.7,25-55.7,55.7c0,30.7,25,55.7,55.7,55.7s55.7-25,55.7-55.7
		C-134.8,365.7-159.8,340.7-190.5,340.7z M-190.5,449.6c-29.3,0-53.2-23.9-53.2-53.2c0-29.3,23.9-53.2,53.2-53.2
		s53.2,23.9,53.2,53.2C-137.3,425.8-161.2,449.6-190.5,449.6z"/>
</g>
</svg>
