<?xml version="1.0" encoding="utf-8"?>
<!-- Generator: Adobe Illustrator 17.0.0, SVG Export Plug-In . SVG Version: 6.00 Build 0)  -->
<svg version="1.2" baseProfile="tiny" id="Layer_1" xmlns="http://www.w3.org/2000/svg" xmlns:xlink="http://www.w3.org/1999/xlink"
	 x="0px" y="0px" width="114.998px" height="114.998px" viewBox="0 0 114.998 114.998" xml:space="preserve">
<g>
	<path d="M42.695,71.622h-4.682c-0.693,0-1.258,0.564-1.258,1.26v4.68c0,0.697,0.564,1.264,1.258,1.264h4.682
		c0.693,0,1.262-0.566,1.262-1.264v-4.68C43.956,72.186,43.388,71.622,42.695,71.622z"/>
	<path d="M42.695,57.525h-4.682c-0.693,0-1.258,0.565-1.258,1.263v4.677c0,0.696,0.564,1.261,1.258,1.261h4.682
		c0.693,0,1.262-0.564,1.262-1.261v-4.677C43.956,58.09,43.388,57.525,42.695,57.525z"/>
	<path d="M59.838,71.622h-4.68c-0.696,0-1.261,0.564-1.261,1.26v4.68c0,0.697,0.564,1.264,1.261,1.264h4.68
		c0.695,0,1.259-0.566,1.259-1.264v-4.68C61.097,72.186,60.533,71.622,59.838,71.622z"/>
	<path d="M42.695,43.429h-4.682c-0.693,0-1.258,0.565-1.258,1.261v4.679c0,0.697,0.564,1.26,1.258,1.26h4.682
		c0.693,0,1.262-0.562,1.262-1.26V44.69C43.956,43.995,43.388,43.429,42.695,43.429z"/>
	<path d="M59.838,57.525h-4.68c-0.696,0-1.261,0.565-1.261,1.263v4.677c0,0.696,0.564,1.261,1.261,1.261h4.68
		c0.695,0,1.259-0.564,1.259-1.261v-4.677C61.097,58.09,60.533,57.525,59.838,57.525z"/>
	<path d="M76.981,71.622h-4.68c-0.695,0-1.259,0.564-1.259,1.26v4.68c0,0.697,0.563,1.264,1.259,1.264h4.68
		c0.694,0,1.261-0.566,1.261-1.264v-4.68C78.241,72.186,77.675,71.622,76.981,71.622z"/>
	<path d="M84.759,29.439H75.9v-5.855c0-0.695-0.563-1.26-1.261-1.26c-0.694,0-1.259,0.565-1.259,1.26v5.855H41.615v-5.855
		c0-0.695-0.565-1.26-1.26-1.26c-0.696,0-1.261,0.565-1.261,1.26v5.855h-8.856c-1.956,0-3.546,1.591-3.546,3.544v51.852
		c0,1.955,1.59,3.547,3.546,3.547h54.521c1.954,0,3.544-1.592,3.544-3.547V32.983C88.303,31.03,86.713,29.439,84.759,29.439z
		 M85.782,84.835c0,0.565-0.459,1.025-1.023,1.025h-54.52c-0.565,0-1.024-0.46-1.024-1.025V32.983c0-0.565,0.459-1.021,1.024-1.021
		h8.856v4.01c0,0.695,0.564,1.26,1.261,1.26c0.695,0,1.26-0.564,1.26-1.26v-4.01H73.38v4.01c0,0.695,0.564,1.26,1.259,1.26
		c0.697,0,1.261-0.564,1.261-1.26v-4.01h8.859c0.564,0,1.023,0.456,1.023,1.021V84.835z"/>
	<path d="M59.838,43.429h-4.68c-0.696,0-1.261,0.565-1.261,1.261v4.679c0,0.697,0.564,1.26,1.261,1.26h4.68
		c0.695,0,1.259-0.562,1.259-1.26V44.69C61.097,43.995,60.533,43.429,59.838,43.429z"/>
	<path d="M57.499,1.725c-30.725,0-55.719,24.996-55.719,55.72c0,30.722,24.993,55.717,55.719,55.717
		c30.723,0,55.718-24.995,55.718-55.717C113.217,26.721,88.222,1.725,57.499,1.725z M57.499,110.641
		c-29.332,0-53.197-23.865-53.197-53.196c0-29.333,23.865-53.198,53.197-53.198c29.332,0,53.196,23.865,53.196,53.198
		C110.696,86.776,86.831,110.641,57.499,110.641z"/>
	<path d="M76.981,43.429h-4.68c-0.695,0-1.259,0.565-1.259,1.261v4.679c0,0.697,0.563,1.26,1.259,1.26h4.68
		c0.694,0,1.261-0.562,1.261-1.26V44.69C78.241,43.995,77.675,43.429,76.981,43.429z"/>
	<path d="M76.981,57.525h-4.68c-0.695,0-1.259,0.565-1.259,1.263v4.677c0,0.696,0.563,1.261,1.259,1.261h4.68
		c0.694,0,1.261-0.564,1.261-1.261v-4.677C78.241,58.09,77.675,57.525,76.981,57.525z"/>
</g>
</svg>
