<?xml version="1.0" encoding="utf-8"?>
<!-- Generator: Adobe Illustrator 17.0.0, SVG Export Plug-In . SVG Version: 6.00 Build 0)  -->
<svg version="1.2" baseProfile="tiny" id="Layer_1" xmlns="http://www.w3.org/2000/svg" xmlns:xlink="http://www.w3.org/1999/xlink"
	 x="0px" y="0px" width="114.998px" height="114.998px" viewBox="0 0 114.998 114.998" xml:space="preserve">
<g>
	<path d="M81.968,49.158l-1.211-2.879c3.938-8.911,3.672-9.17,2.985-9.845l-5.043-4.924c-0.235-0.231-0.638-0.384-0.97-0.384
		c-0.791,0-3.782,1.178-8.895,3.499l-2.975-1.199c-3.631-9.012-4.025-9.01-4.952-9.01h-7.122c-0.951,0-1.354,0-4.728,9.034
		l-2.962,1.206c-3.689-1.56-8.061-3.316-9.043-3.316c-0.329,0-0.734,0.148-0.971,0.381l-5.033,4.93
		c-0.693,0.673-0.986,0.96,3.16,9.699l-1.211,2.871c-9.213,3.561-9.213,3.925-9.213,4.874v6.982c0,0.984,0,1.363,9.24,4.666
		l1.209,2.868c-3.928,8.893-3.666,9.152-2.984,9.835l5.049,4.942c0.236,0.23,0.633,0.377,0.961,0.377
		c0.781,0,3.772-1.179,8.893-3.502l2.977,1.205c3.635,9.001,4.027,9.001,4.955,9.001h7.127c0.949,0,1.353,0,4.725-9.036l2.979-1.202
		c3.685,1.561,8.051,3.321,9.025,3.321c0.33,0,0.734-0.15,0.971-0.38l5.043-4.935c0.689-0.675,0.982-0.961-3.168-9.694l1.209-2.872
		c9.215-3.563,9.213-3.932,9.213-4.886v-6.976C91.208,52.83,91.208,52.453,81.968,49.158z M80.586,63.513
		c-0.318,0.123-0.574,0.37-0.707,0.687l-1.637,3.884c-0.14,0.334-0.133,0.709,0.023,1.034c1.412,2.956,2.979,6.457,3.441,7.789
		l-4.111,4.022c-1.336-0.403-4.973-1.858-8.176-3.223c-0.309-0.132-0.656-0.136-0.967-0.009l-3.979,1.606
		c-0.328,0.133-0.584,0.398-0.709,0.729c-1.146,3.089-2.576,6.669-3.205,7.912h-5.842c-0.66-1.225-2.203-4.815-3.453-7.917
		c-0.127-0.315-0.377-0.57-0.695-0.698l-3.975-1.609c-0.32-0.129-0.682-0.123-0.996,0.023c-3.096,1.412-6.758,2.98-7.99,3.399
		l-4.123-4.035c0.434-1.346,1.926-4.932,3.273-7.976c0.142-0.317,0.145-0.681,0.01-0.999l-1.637-3.88
		c-0.135-0.328-0.404-0.58-0.737-0.697c-3.155-1.124-6.81-2.524-8.089-3.146v-5.661c1.259-0.644,4.861-2.123,8.098-3.37
		c0.32-0.123,0.574-0.37,0.709-0.685l1.639-3.885c0.139-0.331,0.131-0.708-0.023-1.031c-1.41-2.962-2.975-6.464-3.438-7.796
		l4.107-4.022c1.336,0.402,4.982,1.856,8.193,3.222c0.311,0.13,0.658,0.133,0.969,0.007l3.961-1.613
		c0.326-0.133,0.582-0.397,0.704-0.727c1.15-3.089,2.579-6.67,3.21-7.914h5.839c0.657,1.229,2.2,4.822,3.446,7.926
		c0.129,0.319,0.381,0.57,0.697,0.701l3.973,1.604c0.32,0.129,0.68,0.122,0.997-0.023c3.095-1.412,6.759-2.981,7.993-3.395
		l4.125,4.026c-0.433,1.344-1.926,4.935-3.274,7.98c-0.142,0.315-0.144,0.677-0.01,1l1.638,3.893
		c0.137,0.325,0.405,0.581,0.74,0.698c3.152,1.12,6.806,2.515,8.086,3.134v5.657h0.002C87.431,60.781,83.826,62.265,80.586,63.513z"
		/>
	<path d="M57.499,1.725c-30.723,0-55.719,24.996-55.719,55.72c0,30.722,24.996,55.717,55.719,55.717
		c30.725,0,55.719-24.995,55.719-55.717C113.218,26.721,88.223,1.725,57.499,1.725z M57.499,110.641
		c-29.332,0-53.197-23.865-53.197-53.196c0-29.333,23.865-53.198,53.197-53.198c29.332,0,53.197,23.865,53.197,53.198
		C110.696,86.776,86.831,110.641,57.499,110.641z"/>
	<path d="M57.499,43.789c-7.685,0-13.938,6.124-13.938,13.653c0,7.535,6.252,13.664,13.938,13.664
		c7.684,0,13.932-6.129,13.932-13.664C71.43,49.913,65.182,43.789,57.499,43.789z M57.499,68.585
		c-6.295,0-11.416-4.998-11.416-11.143c0-6.138,5.121-11.133,11.416-11.133c6.291,0,11.411,4.995,11.411,11.133
		C68.91,63.587,63.79,68.585,57.499,68.585z"/>
</g>
</svg>
