<?xml version="1.0" encoding="utf-8"?>
<!-- Generator: Adobe Illustrator 18.0.0, SVG Export Plug-In . SVG Version: 6.00 Build 0)  -->
<!DOCTYPE svg PUBLIC "-//W3C//DTD SVG 1.1//EN" "http://www.w3.org/Graphics/SVG/1.1/DTD/svg11.dtd">
<svg version="1.1" id="L1" xmlns="http://www.w3.org/2000/svg" xmlns:xlink="http://www.w3.org/1999/xlink" x="0px" y="0px"
	 viewBox="0 0 1920 4290.6" style="enable-background:new 0 0 1920 4290.6;" xml:space="preserve">
<style type="text/css">
	.Anchors_Stores{fill:#EC1C24;fill-opacity:0.5;}
	.Blocks{fill:#212121;}
	.Floor{fill:#757576;}
	.Parking_Pavement{fill:#58595B;fill-opacity:0.78;}
	.Units{fill:none;stroke:#EF4438;}
	.Amenities{fill:#B72025;}
	.st0{opacity:0.78;}
	.st1{fill:#58595B;}
	.st2{opacity:0.5;}
	.st3{fill:#EC1C24;}
</style>
<g id="Parking_x5F_Pavement">
	<g class="st0">
		<polygon class="st1" points="498.5,3162.1 195.8,3162.1 195.8,4290.6 760.7,4290.6 760.7,3424.4 		"/>
		<polygon class="st1" points="1292.3,0 1198.1,0 1059.3,0 581.9,0 293.3,288.6 658.3,653.5 1083.7,228.1 1417.6,561.9 
			1390.1,589.5 1674.1,873.5 1701.7,846 1920,627.7 		"/>
		<polygon class="st1" points="238.3,332.5 0,570.7 335.5,906.2 304.5,937.2 409.9,1042.5 440.8,1011.6 679.1,773.3 573.8,667.9 		
			"/>
		<polygon class="st1" points="1742.7,1807.8 1580.9,1646 1274,1646 1274,2828.8 1505.6,3060.4 1742.7,3060.4 		"/>
	</g>
</g>
<g id="Floor">
	<g>
		<polygon class="Floor" points="1372.9,1370.8 1399.9,1397.8 1723.1,1074.6 1297,629.8 1321.4,605.4 1106.7,390.6 744.6,742.1 
			817.9,818.8 624.8,1013.4 571.7,988.8 545.9,963.8 536.9,972.8 526.3,962.2 520.5,968.1 495,942.6 342.3,1086 313.7,1088 
			310.2,1098.5 285.8,1095.7 257.2,1202 234.2,1816.1 277.4,1848.2 260,2048.5 208.4,2335 199.3,2335 184.6,2359.4 184.6,2481.3 
			184.6,3064.1 760.7,3064.1 868.3,3171.7 868.3,3428.5 1141.5,3428.5 1141.5,3750.1 1245.4,3750.1 1245.4,3879.1 1829.2,3879.1 
			1829.2,3141.4 1467.2,3141.4 1179.3,2853.5 1179.3,2102.7 1179.3,1606.7 1179.3,1561.5 		"/>
	</g>
</g>
<g id="Blocks">
	<g>
		<rect x="859.8" y="3502.5" class="Blocks" width="211.3" height="386"/>
		<polygon class="Blocks" points="1493.7,3159.7 1493.7,3176.1 1472.9,3176.1 1473.3,3174.8 1442.5,3144.1 1400.9,3144.1 
			1325.7,3068.9 1311.1,3083.6 1302.8,3075.3 1277.8,3100.3 1262,3116.1 1262,3164.4 1273.7,3176.1 1273.7,3187.3 1208.4,3252.6 
			1221.4,3239.6 1203.4,3221.6 1156.7,3228 1151.6,3223 1134,3240.6 1095.4,3199.4 1123.4,3171.4 1123.4,3138.2 1038.9,3053.7 
			913.6,3178.9 1002.5,3178.9 1002.5,3190.7 1037.9,3190.7 1037.3,3229 1065.7,3229 1070.4,3224.4 1070.4,3292.2 1055.4,3292.2 
			1043.8,3292.2 887,3292.2 887,3408.3 1055.4,3408.3 1163.3,3408.3 1163.3,3725.3 1273.7,3725.3 1273.7,3857.1 1809,3857.1 
			1809,3285.7 1809,3159.7 		"/>
		
			<rect x="1154.1" y="3151.6" transform="matrix(-0.7071 -0.7071 0.7071 -0.7071 -256.1249 6225.1636)" class="Blocks" width="14.1" height="28"/>
		<polygon class="Blocks" points="909.4,3165.4 1032.4,3042.4 954.4,2962.9 896.6,2962.9 896.6,2811.5 872.8,2787.7 721.7,2787.7 
			721.7,2821.4 684.5,2821.4 684.5,2859.5 670.7,2859.5 670.7,3004.8 687.9,3004.8 687.9,3043.2 770.3,3043.2 822.2,3095.1 
			876.8,3040.6 902.5,3066.4 856.5,3112.4 		"/>
		<polygon class="Blocks" points="1243.6,2984.5 1210.5,3017.6 1194.5,3001.6 1218.7,2977.4 1196.7,2955.5 1182,2940.7 1158,2964.6 
			1132.7,2939.3 1127.7,2934.3 1152.5,2909.4 1135.1,2892.1 1135.1,2881.9 1135.1,2859.5 1135.1,2654.6 1112.9,2654.6 
			1112.9,2605.9 1124,2605.9 1124,2584 1124,2566.2 1088.5,2566.2 1088.5,2500.8 1124,2500.8 1124,2480.4 1124,2308.6 
			1107.4,2308.6 1107.4,2291 1095.4,2291 1095.4,2270.9 1085.2,2270.9 1085.2,2247.1 1005.2,2247.1 983.7,2247.1 921,2309.9 
			921,2348.9 921,2392 921,2392 921,2435.1 921,2480.4 921,2584 921,2622.1 945.5,2652.5 945.5,2859.5 945.5,2890.7 985.2,2930.4 
			1024.4,2969.6 1063.4,3008.6 1103.5,3048.7 1141.4,3086.6 1155.8,3100.9 1175.5,3100.9 1193.7,3082.7 1228,3082.7 1269.3,3041.4 
			1258.9,3030.9 1274.4,3015.4 		"/>
		
			<rect x="1119.5" y="3092.5" transform="matrix(-0.7071 0.7071 -0.7071 -0.7071 4119.7666 4506.5425)" class="Blocks" width="14.1" height="28"/>
		
			<rect x="1074.7" y="3061.6" transform="matrix(-0.7071 -0.7071 0.7071 -0.7071 -311.3438 6008.3984)" class="Blocks" width="28" height="14.1"/>
		
			<rect x="1008.4" y="2995.3" transform="matrix(-0.7071 -0.7071 0.7071 -0.7071 -377.6421 5848.3389)" class="Blocks" width="28" height="14.1"/>
		
			<rect x="968.5" y="2955.4" transform="matrix(-0.7071 -0.7071 0.7071 -0.7071 -417.5361 5752.0273)" class="Blocks" width="28" height="14.1"/>
		<rect x="921" y="2873.7" class="Blocks" width="12.8" height="25.9"/>
		<rect x="203.8" y="2476.2" class="Blocks" width="441.5" height="566.5"/>
		<rect x="889.8" y="2678.1" class="Blocks" width="11.2" height="35.8"/>
		<rect x="889.8" y="2501.3" class="Blocks" width="11.2" height="35.8"/>
		<rect x="889.8" y="2429.1" class="Blocks" width="11.2" height="35.8"/>
		<rect x="889.8" y="2292.3" class="Blocks" width="11.2" height="35.8"/>
		<rect x="889.8" y="2030.6" class="Blocks" width="11.2" height="35.8"/>
		<rect x="889.8" y="1946.9" class="Blocks" width="11.2" height="35.8"/>
		<polygon class="Blocks" points="871,2594.9 871,2537.2 871,2481.3 758.3,2481.3 758.3,2537.2 758.3,2548.7 724.8,2548.7 
			724.8,2525.1 672.5,2525.1 672.5,2671.1 871,2671.1 		"/>
		<polygon class="Blocks" points="871,2425.2 871,2425 871,2396.4 871,2367.6 871,2338.8 871,2299.9 852.9,2281.7 787.6,2281.7 
			787.6,2300.8 771.7,2300.8 771.7,2338.8 771.7,2367.6 771.7,2396.4 771.7,2425 771.7,2425.2 771.7,2465 871,2465 		"/>
		<polygon class="Blocks" points="462.2,2331.8 462.2,2451.4 585.3,2451.4 681.6,2451.4 681.6,2489.5 740.8,2489.5 740.8,2465 
			755.5,2465 755.5,2247.1 681.6,2247.1 585.3,2247.1 537.1,2247.1 479.7,2289 		"/>
		<path class="Blocks" d="M325.2,1599.9l-53.7-3.8v13.6h21.3l-8.7,105h15.7l-11.5,87l29.3,2.6v-9.7l148.7,13.3l7.8-30.1l20.6-11.2
			l2.7-66.8l0.1-1.2l12.9-80.9h-10.1c-2.7-8.2-5-16.6-6.8-25.4c-6.7-33.1-4.8-72.7,19.7-134.7l6.6,0.3l0.1-5.2l1.3-49.9l0.6-4.8
			l7.2-57.7l0.6-4.9l-16.7-54.1l0.4-4.4l7.1-71.2l0.8-7.6l-4.2-0.4c-1.7-5.1-2.7-10.6-2.7-16.3c0-10,2.9-19.2,7.7-27.1
			c6.2-10,15.6-17.7,26.9-21.7l-99.9-99.9l-81.9,81.6l-6.6,68l-0.7,1.7l-27.8,64.5l-1.4,12.4l-6.9,61.3l-1.1,9.6l-50.6,15.3
			l-0.9,28.7l-1.7,54.7l-3.8,124.3l63.1,6.3L325.2,1599.9z"/>
		<path class="Blocks" d="M404,2301.1c7.1-35.1,13.5-69.8,19.3-103.5c6.7-39.5,12.5-77.6,17.5-113.7c4.6-33.4,8.6-65,11.9-94.2
			c2-17.3,3.7-33.7,5.3-49.1c-4.4-2.7-8.3-6.1-11.5-10.2c-5.9-7.5-9.5-16.9-9.5-27.2c0-11.8,4.7-22.4,12.2-30.3v-25.8l-122.6-11
			c-1.5,20.6-3.7,47.8-6.8,80.4c-2.1,22.1-4.7,46.7-7.7,73.2c-3.3,29.2-7.3,60.8-11.9,94.2c-5,36.1-10.8,74.2-17.5,113.7
			c-5.2,30.3-10.9,61.4-17.1,92.9c-7.3,36.7-15.5,74.1-24.5,111.4h140.6C389.8,2368.2,397.2,2334.4,404,2301.1z"/>
		<polygon class="Blocks" points="1054.3,2202 1124,2202 1124,2078.4 1124,2026.9 1124,1990.3 1087.3,1990.3 1087.3,1923.6 
			1124,1923.6 1124,1913.7 1124,1899.5 1059.3,1899.5 1059.3,1857.2 1103.5,1857.2 1103.5,1843.6 1064,1843.6 1064,1799.6 
			1138.8,1799.6 1138.8,1685.3 1094.1,1685.3 1094.1,1628.8 1156.3,1628.8 1156.3,1584.4 946.1,1584.4 946.1,1628.8 946.1,1685.3 
			946.1,1715.4 946.1,1799.6 918.3,1828.4 918.3,1857.2 918.3,1913.7 918.3,2026.9 918.3,2140.8 979.6,2202 		"/>
		<rect x="889.8" y="1816.1" class="Blocks" width="11.2" height="35.8"/>
		<rect x="912.8" y="1731.4" class="Blocks" width="19.9" height="26.9"/>
		
			<rect x="901.1" y="1778.4" transform="matrix(0.7071 0.7071 -0.7071 0.7071 1533.8986 -119.3458)" class="Blocks" width="19.9" height="26.9"/>
		<rect x="916" y="1615.5" class="Blocks" width="11.6" height="34.5"/>
		<rect x="916" y="1570.5" class="Blocks" width="11.6" height="34.5"/>
		<rect x="916" y="1539.9" class="Blocks" width="11.6" height="24.8"/>
		
			<rect x="972.4" y="1425.4" transform="matrix(0.7071 -0.7071 0.7071 0.7071 -722.2839 1118.6304)" class="Blocks" width="33.5" height="11.6"/>
		
			<rect x="1024.8" y="1370.1" transform="matrix(0.7071 -0.7071 0.7071 0.7071 -667.8829 1139.4581)" class="Blocks" width="33.5" height="11.6"/>
		
			<rect x="1094.1" y="1300.8" transform="matrix(-0.7071 -0.7071 0.7071 -0.7071 945.9414 3026.9558)" class="Blocks" width="11.6" height="33.5"/>
		
			<rect x="962" y="1065.9" transform="matrix(0.7071 -0.7071 0.7071 0.7071 -482.0534 1001.4424)" class="Blocks" width="11.6" height="33.5"/>
		<polygon class="Blocks" points="493.6,2063.3 489.1,2121.6 483.5,2155 530.6,2202 579.7,2202 633.4,2202 755.5,2202 755.5,2062.3 
			721,2062.3 721,1989.8 633.4,1989.8 504.1,1989.8 		"/>
		<path class="Blocks" d="M509.6,1936l-3.8,41.2h243.1V1949l-43.4-43.4v-35.4h-31.9v-13h0.7v-47.5v-56.1v-57.9v-36.9v-88.3h-42.5
			l-17.8,18.2l-45.7,46.7c-1,13.3-3.6,30.5-7.6,51.1c-3.2,16.8-7.5,35.9-12.6,56.9c-4.2,17.1-8.9,35.4-14.3,54.9
			c-5.1,18.6-10.7,38.1-16.8,58.7l-1.8,19.2c5.8,7.4,9.3,16.7,9.3,26.9C524.4,1916.3,518.7,1928,509.6,1936z"/>
		<polygon class="Blocks" points="871.4,2121.6 871.4,2083.8 871.4,2055.3 871.4,2026.9 871.4,1997.4 871.4,1968.5 871.4,1938.5 
			871.4,1912.3 871.4,1868.9 714.7,1868.9 714.7,1879.6 731.1,1896 721.3,1905.7 754.1,1938.5 759.3,1943.7 759.3,1968.5 
			759.3,1989.8 769.4,1989.8 769.4,1997.4 769.2,2026.9 769.1,2044.2 768.9,2083.8 768.7,2121.6 768.4,2183.6 804,2183.6 
			804,2166.2 848.2,2166.2 871.4,2143 		"/>
		<polygon class="Blocks" points="871.4,1799.6 899.5,1771.5 899.5,1722.6 899.5,1685.3 899.5,1628.8 899.5,1599.9 884.3,1584.6 
			834,1584.6 826.7,1591.9 798.4,1591.9 759.7,1570.5 685.4,1570.5 685.4,1685.3 685.4,1705.6 724.1,1705.6 724.1,1771.8 
			685.4,1771.8 685.4,1799.6 685.4,1809.7 714.7,1809.7 714.7,1857.2 871.4,1857.2 		"/>
		<polygon class="Blocks" points="1222.8,1370.8 1185.6,1333.7 1118.8,1333.7 1101.7,1350.8 1076.6,1375.9 1022.3,1430.2 
			1002.9,1449.6 983.7,1468.8 946.1,1506.4 946.1,1533.8 946.1,1570.5 1048.8,1570.5 1134.9,1570.5 1134.9,1561.5 1134.9,1542.7 
			1145,1532.6 1119.4,1507 1163.5,1462.9 1187.5,1486.9 1205.2,1469.3 1179,1443.1 1186.5,1435.6 1212.5,1461.6 1221,1453.1 
			1229,1461.1 1261.8,1428.3 1249.6,1416.1 1258.9,1406.9 		"/>
		<polygon class="Blocks" points="682.5,1086 717,1066.2 764.3,1039.1 764.5,1038.8 794.8,988.8 823.7,941.3 824.1,939.9 855,845.3 
			838.2,828.4 774.2,892.4 734.8,931.7 694.4,972.2 657.2,1009.4 630.3,1036.3 559,1009 544.2,994.2 535.2,1003.2 521.5,989.6 
			517.1,994 496.3,973.3 454.3,1011 585.1,1141.9 		"/>
		
			<rect x="670.2" y="1103.1" transform="matrix(0.8734 -0.4869 0.4869 0.8734 -453.0275 474.8522)" class="Blocks" width="33.5" height="11.6"/>
		
			<rect x="619" y="1126.3" transform="matrix(0.4869 0.8734 -0.8734 0.4869 1318.9286 40.721)" class="Blocks" width="11.6" height="33.5"/>
		
			<rect x="733.5" y="1069" transform="matrix(0.8734 -0.4869 0.4869 0.8734 -428.3989 501.3408)" class="Blocks" width="33.5" height="11.6"/>
		<path class="Blocks" d="M820.3,1030.8c5.2-2.8,27.5-2.4,38.4,2.1c10.8,4.5,26.2,4.5,13.3-23.5c-12.9-28-19.9-35.8-34.9-37.2
			c-15-1.4-18,9.9-38.4,40.5c-8.4,12.6-4.2,21.3,2.1,24.1C807.1,1039.5,815.1,1033.6,820.3,1030.8z"/>
		<polygon class="Blocks" points="579,1354 581.1,1402 583.5,1459.8 583.9,1468.8 628,1512.9 662,1512.9 662,1468.3 662,1410.7 
			662,1336.6 662,1308.4 576.6,1308.4 577.3,1314.3 		"/>
		<path class="Blocks" d="M584,1230.2c-5.2,1.9-10.7,3-16.5,3.2l7.7,63.6h123.7h102.3l28.8-27.1l6.1,6.1l40.3-40.3l52.8-52.8
			l-0.3-0.3l48.3-48.3l-29.5-29.5l-22.1-22.1l-18.7-18.7l-73.2-4.5l-34.7,18.3l-52.7,27.9l-52.7,27.8l-63.8,33.7l-12.5,6.6
			c0.4,2.6,0.7,5.2,0.7,7.9c0,9.8-2.8,18.9-7.5,26.8C604.3,1218.3,595,1226.1,584,1230.2z"/>
		<polygon class="Blocks" points="993.1,1150.2 944.8,1198.6 938.5,1192.4 913.5,1217.4 937.3,1241.2 891,1287.5 899.4,1295.9 
			858.7,1336.6 844.1,1322 810.6,1322 759,1322 759,1350.8 703.5,1350.8 703.5,1308.4 671.1,1308.4 671.1,1425.5 671.1,1512.9 
			671.1,1522.1 703.5,1522.1 823.5,1522.1 823.5,1535.4 900.9,1535.4 900.9,1468.8 900.9,1433.9 952.5,1433.9 954.3,1432.2 
			995,1391.5 1073,1313.4 1086.4,1300 1086.4,1243.5 1038.8,1195.9 		"/>
		<polygon class="Blocks" points="868.1,795.1 919.8,851.6 882.4,915.9 903.2,927.4 882.4,965.1 921,1023.1 968.3,1050.6 
			1005.6,1087.9 1073.7,1019.7 1090.2,1037.7 1021.2,1106.7 1105.1,1190.6 1133,1190.6 1183.7,1139.9 1258.2,1221.5 1236.5,1243.2 
			1213.9,1265.8 1213.9,1300.1 1242.9,1329.2 1288.5,1374.8 1296.3,1367 1323.5,1394.1 1346.9,1370.7 1320.3,1344 1347.5,1316.8 
			1400.8,1370.1 1694.1,1076.7 1266.7,630.8 1291.3,606.2 1104.7,419.6 778.4,745.9 847.8,815.4 		"/>
	</g>
</g>
<g id="Units_2_">
	<g>
		<path class="Units" d="M1005.6,1088.6l-37.9-37.9l46.3-97l60.5,66.1L1005.6,1088.6z M968.9,1050.5l36.6,36.6l67.4-67.4l-58.7-64.1
			L968.9,1050.5z"/>
		<path class="Units" d="M968.5,1051.3l-48.3-28l53.2-114l41.3,45.1L968.5,1051.3z M921.7,1022.9l46.4,26.9l45.4-95.1l-39.7-43.4
			L921.7,1022.9z"/>
		<path class="Units" d="M1282.7,1290.1l-47-47l22.5-22.5l44.9,49.1L1282.7,1290.1z M1237.3,1243.2l45.4,45.4l18.9-18.9l-43.4-47.5
			L1237.3,1243.2z"/>
		<path class="Units" d="M921,1024.2l-39.3-59.1l20.6-37.5l-20.8-11.5l38.1-65.4l54.5,59.6L921,1024.2z M883.1,965l37.8,57
			l52.1-111.6l-53-58l-36.7,63.2l20.7,11.5L883.1,965z"/>
		<path class="Units" d="M1323.5,1394.9l-27.2-27.2l-7.8,7.8l-46.4-46.4l60.2-60.2l24.3,26.6l21.6,21.3l-27.2,27.2l26.6,26.6
			L1323.5,1394.9z M1296.3,1366.2l27.2,27.2l22.7-22.7l-26.6-26.6l27.2-27.2l-20.8-20.6l-23.6-25.8l-18.9,18.9l5.9,5.9l-0.8,0.8
			l-5.9-5.9l-39,39l44.8,44.8L1296.3,1366.2z"/>
		<path class="Units" d="M1242.9,1329.9l-29.6-29.6v-34.7l23.2-23.2l47,47L1242.9,1329.9z M1214.4,1299.9l28.5,28.5l39-39
			l-45.4-45.4l-22.1,22.1V1299.9z"/>
		<path class="Units" d="M1133.2,1191.2h-28.4l-84.4-84.4l69.8-69.8l94.2,103L1133.2,1191.2z M1105.3,1190.1h27.5l50.1-50.1
			l-92.8-101.4l-68.2,68.2L1105.3,1190.1z"/>
		<path class="Units" d="M1400.8,1370.8l-53.7-53.7l-21.2-20.9L868.1,795.9l-20.3,20.3l-70.2-70.2l327.1-327.1l187.4,187.4
			l-24.6,24.6l427.4,445.9L1400.8,1370.8z M868.1,794.3l458.6,501.2l21.2,20.9l52.9,52.9l292.6-292.6l-427.4-445.9l24.6-24.6
			l-185.8-185.8L779.2,745.9l68.7,68.7L868.1,794.3z"/>
		<path class="Units" d="M1071.6,3889H859.2v-387.1h212.4V3889z M860.3,3888h210.2V3503H860.3V3888z"/>
		<path class="Units" d="M1071.6,3889H859.2v-387.1h212.4V3889z M860.3,3888h210.2V3503H860.3V3888z"/>
		<path class="Units" d="M1809.6,3857.7h-536.4v-131.8h-110.3v-428.4l110.3-110.3v-11.6h11.6l32-32h126.1l31.2,31.2l-0.3,0.8h20.6
			v109.6h315.3V3857.7z M1274.2,3856.6h534.3v-570.4h-315.3v-109.6h-21.1l0.6-1.6l-30.4-30.4h-125.2l-32,32h-10.9v10.9l-110.3,110.3
			v426.9h110.3V3856.6z"/>
		<path class="Units" d="M1809.6,3857.7h-536.4v-131.8h-110.3v-428.4l110.3-110.3v-11.6h11.6l32-32h126.1l31.2,31.2l-0.3,0.8h20.6
			v109.6h315.3V3857.7z M1274.2,3856.6h534.3v-570.4h-315.3v-109.6h-21.1l0.6-1.6l-30.4-30.4h-125.2l-32,32h-10.9v10.9l-110.3,110.3
			v426.9h110.3V3856.6z"/>
		<path class="Units" d="M1809.6,3857.7h-536.4v-131.8h-110.3v-428.4l110.3-110.3v-11.6h11.6l32-32h126.1l31.2,31.2l-0.3,0.8h20.6
			v109.6h315.3V3857.7z M1274.2,3856.6h534.3v-570.4h-315.3v-109.6h-21.1l0.6-1.6l-30.4-30.4h-125.2l-32,32h-10.9v10.9l-110.3,110.3
			v426.9h110.3V3856.6z"/>
		<path class="Units" d="M1809.6,3286.2h-316.4v-127.1h316.4V3286.2z M1494.3,3285.1h314.2v-124.9h-314.2V3285.1z"/>
		<path class="Units" d="M1809.6,3286.2h-316.4v-127.1h316.4V3286.2z M1494.3,3285.1h314.2v-124.9h-314.2V3285.1z"/>
		<path class="Units" d="M1402.2,3144.6h-63l-32.8-32.8h-17.9l-11.5-11.5l25.8-25.8l8.3,8.3l14.6-14.6L1402.2,3144.6z
			 M1339.6,3143.5h59.9l-73.8-73.8l-14.6,14.6l-8.3-8.3l-24.2,24.2l10.4,10.4h17.9L1339.6,3143.5z"/>
		<path class="Units" d="M1402.2,3144.6h-63l-32.8-32.8h-17.9l-11.5-11.5l25.8-25.8l8.3,8.3l14.6-14.6L1402.2,3144.6z
			 M1339.6,3143.5h59.9l-73.8-73.8l-14.6,14.6l-8.3-8.3l-24.2,24.2l10.4,10.4h17.9L1339.6,3143.5z"/>
		<path class="Units" d="M1285.1,3176.6h-11.7l-12-12v-48.8l16.3-16.3l11.2,11.2h17.9l33.9,33.9h-23.6L1285.1,3176.6z
			 M1273.9,3175.5h10.8l32-32h21.4l-31.7-31.7h-17.9l-10.8-10.8l-15.2,15.2v47.9L1273.9,3175.5z"/>
		<path class="Units" d="M1285.1,3176.6h-11.7l-12-12v-48.8l16.3-16.3l11.2,11.2h17.9l33.9,33.9h-23.6L1285.1,3176.6z
			 M1273.9,3175.5h10.8l32-32h21.4l-31.7-31.7h-17.9l-10.8-10.8l-15.2,15.2v47.9L1273.9,3175.5z"/>
		<path class="Units" d="M1055.9,3408.9H886.4v-117.2h183.4v-67.5l25.6-25.6l39.4,42l-78.8,78.8V3408.9z M887.5,3407.8h167.3V3319
			l78.4-78.4l-37.9-40.4l-24.5,24.5v68.1H887.5V3407.8z"/>
		<path class="Units" d="M1055.9,3408.9H886.4v-117.2h183.4v-67.5l25.6-25.6l39.4,42l-78.8,78.8V3408.9z M887.5,3407.8h167.3V3319
			l78.4-78.4l-37.9-40.4l-24.5,24.5v68.1H887.5V3407.8z"/>
		<path class="Units" d="M1163.9,3408.9h-109.1V3319l96.8-96.8l5.2,5.2l46.7-6.5l18.6,18.6l-58.3,58.3V3408.9z M1055.9,3407.8h106.9
			v-110.4l57.8-57.8l-17.4-17.4l-46.7,6.5l-4.9-4.9l-95.7,95.7V3407.8z"/>
		<path class="Units" d="M1163.9,3408.9h-109.1V3319l96.8-96.8l5.2,5.2l46.7-6.5l18.6,18.6l-58.3,58.3V3408.9z M1055.9,3407.8h106.9
			v-110.4l57.8-57.8l-17.4-17.4l-46.7,6.5l-4.9-4.9l-95.7,95.7V3407.8z"/>
		<path class="Units" d="M1156.3,3181.3l-10.8-10.8l20.5-20.5l10.8,10.8L1156.3,3181.3z M1147.1,3170.5l9.2,9.2l19-19l-9.2-9.2
			L1147.1,3170.5z"/>
		<path class="Units" d="M1156.3,3181.3l-10.8-10.8l20.5-20.5l10.8,10.8L1156.3,3181.3z M1147.1,3170.5l9.2,9.2l19-19l-9.2-9.2
			L1147.1,3170.5z"/>
		<polygon class="Units" points="1065.9,3229.6 1036.8,3229.6 1037.3,3191.3 1002,3191.3 1002,3179.5 912.3,3179.5 1038.9,3052.9 
			1123.9,3138 1123.9,3171.6 1095.8,3199.7 1095,3199 1122.8,3171.1 1122.8,3138.4 1038.9,3054.5 915,3178.4 1003.1,3178.4 
			1003.1,3190.2 1038.4,3190.2 1037.9,3228.5 1065.5,3228.5 1070,3224 1070.8,3224.8 		"/>
		<polygon class="Units" points="1065.9,3229.6 1036.8,3229.6 1037.3,3191.3 1002,3191.3 1002,3179.5 912.3,3179.5 1038.9,3052.9 
			1123.9,3138 1123.9,3171.6 1095.8,3199.7 1095,3199 1122.8,3171.1 1122.8,3138.4 1038.9,3054.5 915,3178.4 1003.1,3178.4 
			1003.1,3190.2 1038.4,3190.2 1037.9,3228.5 1065.5,3228.5 1070,3224 1070.8,3224.8 		"/>
		<path class="Units" d="M909.4,3166.1l-53.7-53.7l46-46l-25.8-25.8l78.5-78.4l78.7,80.3L909.4,3166.1z M857.3,3112.4l52.2,52.2
			l122.2-122.2l-77.2-78.7l-76.9,76.9l25.8,25.8L857.3,3112.4z"/>
		<path class="Units" d="M909.4,3166.1l-53.7-53.7l46-46l-25.8-25.8l78.5-78.4l78.7,80.3L909.4,3166.1z M857.3,3112.4l52.2,52.2
			l122.2-122.2l-77.2-78.7l-76.9,76.9l25.8,25.8L857.3,3112.4z"/>
		<path class="Units" d="M1175.7,3101.5h-20.1l-14.9-14.9l102.9-102.9l31.6,31.6l-15.6,15.6l10.5,10.5l-41.9,41.9H1194
			L1175.7,3101.5z M1156,3100.4h19.2l18.2-18.2h34.3l40.8-40.8l-10.5-10.5l15.6-15.6l-30.1-30.1l-101.4,101.4L1156,3100.4z"/>
		<path class="Units" d="M1175.7,3101.5h-20.1l-14.9-14.9l102.9-102.9l31.6,31.6l-15.6,15.6l10.5,10.5l-41.9,41.9H1194
			L1175.7,3101.5z M1156,3100.4h19.2l18.2-18.2h34.3l40.8-40.8l-10.5-10.5l15.6-15.6l-30.1-30.1l-101.4,101.4L1156,3100.4z"/>
		<path class="Units" d="M1141.4,3087.4l-38.7-38.7l94-94l22.7,22.7l-24.2,24.2l16,16L1141.4,3087.4z M1104.3,3048.7l37.2,37.2
			l68.3-68.3l-16-16l24.2-24.2l-21.2-21.2L1104.3,3048.7z"/>
		<path class="Units" d="M1141.4,3087.4l-38.7-38.7l94-94l22.7,22.7l-24.2,24.2l16,16L1141.4,3087.4z M1104.3,3048.7l37.2,37.2
			l68.3-68.3l-16-16l24.2-24.2l-21.2-21.2L1104.3,3048.7z"/>
		<path class="Units" d="M1103.5,3049.5l-40.9-40.9l70.1-70.1l25.4,25.4l23.9-23.9l15.5,15.5L1103.5,3049.5z M1064.1,3008.6
			l39.4,39.4l92.5-92.5l-14-14l-23.9,23.9l-25.4-25.4L1064.1,3008.6z"/>
		<path class="Units" d="M1103.5,3049.5l-40.9-40.9l70.1-70.1l25.4,25.4l23.9-23.9l15.5,15.5L1103.5,3049.5z M1064.1,3008.6
			l39.4,39.4l92.5-92.5l-14-14l-23.9,23.9l-25.4-25.4L1064.1,3008.6z"/>
		<path class="Units" d="M1063.4,3009.3l-39.7-39.7l88.3-88.3h23.8v10.5l17.6,17.6l-24.8,24.8l5,5L1063.4,3009.3z M1025.2,2969.6
			l38.2,38.2l68.5-68.5l-5-5l24.8-24.8l-17.2-17.2v-9.9h-22.2L1025.2,2969.6z"/>
		<path class="Units" d="M1063.4,3009.3l-39.7-39.7l88.3-88.3h23.8v10.5l17.6,17.6l-24.8,24.8l5,5L1063.4,3009.3z M1025.2,2969.6
			l38.2,38.2l68.5-68.5l-5-5l24.8-24.8l-17.2-17.2v-9.9h-22.2L1025.2,2969.6z"/>
		<path class="Units" d="M1131.4,3122.2l-20.5-20.5l10.8-10.8l20.5,20.5L1131.4,3122.2z M1112.4,3101.6l19,19l9.2-9.2l-19-19
			L1112.4,3101.6z"/>
		<path class="Units" d="M1131.4,3122.2l-20.5-20.5l10.8-10.8l20.5,20.5L1131.4,3122.2z M1112.4,3101.6l19,19l9.2-9.2l-19-19
			L1112.4,3101.6z"/>
		<path class="Units" d="M1093.6,3084.3l-20.5-20.5l10.8-10.8l20.5,20.5L1093.6,3084.3z M1074.6,3063.8l19,19l9.2-9.2l-19-19
			L1074.6,3063.8z"/>
		<path class="Units" d="M1093.6,3084.3l-20.5-20.5l10.8-10.8l20.5,20.5L1093.6,3084.3z M1074.6,3063.8l19,19l9.2-9.2l-19-19
			L1074.6,3063.8z"/>
		<path class="Units" d="M1027.3,3018l-20.5-20.5l10.8-10.8l20.5,20.5L1027.3,3018z M1008.3,2997.5l19,19l9.2-9.2l-19-19
			L1008.3,2997.5z"/>
		<path class="Units" d="M1027.3,3018l-20.5-20.5l10.8-10.8l20.5,20.5L1027.3,3018z M1008.3,2997.5l19,19l9.2-9.2l-19-19
			L1008.3,2997.5z"/>
		<path class="Units" d="M987.4,2978.1l-20.5-20.5l10.8-10.8l20.5,20.5L987.4,2978.1z M968.4,2957.6l19,19l9.2-9.2l-19-19
			L968.4,2957.6z"/>
		<path class="Units" d="M987.4,2978.1l-20.5-20.5l10.8-10.8l20.5,20.5L987.4,2978.1z M968.4,2957.6l19,19l9.2-9.2l-19-19
			L968.4,2957.6z"/>
		<path class="Units" d="M1024.4,2970.4l-40-40l71.4-71.4h79.9v23.5h-23.3L1024.4,2970.4z M985.9,2930.4l38.5,38.5l87.5-87.5h22.7
			V2860h-78.3L985.9,2930.4z"/>
		<path class="Units" d="M1024.4,2970.4l-40-40l71.4-71.4h79.9v23.5h-23.3L1024.4,2970.4z M985.9,2930.4l38.5,38.5l87.5-87.5h22.7
			V2860h-78.3L985.9,2930.4z"/>
		<path class="Units" d="M985.2,2931.1L945,2891v-32h112.4L985.2,2931.1z M946.1,2890.5l39.1,39.1l69.6-69.6H946.1V2890.5z"/>
		<path class="Units" d="M985.2,2931.1L945,2891v-32h112.4L985.2,2931.1z M946.1,2890.5l39.1,39.1l69.6-69.6H946.1V2890.5z"/>
		<path class="Units" d="M934.3,2900.2h-13.9v-27h13.9V2900.2z M921.5,2899.1h11.7v-24.8h-11.7V2899.1z"/>
		<path class="Units" d="M934.3,2900.2h-13.9v-27h13.9V2900.2z M921.5,2899.1h11.7v-24.8h-11.7V2899.1z"/>
		<path class="Units" d="M822.2,3095.9l-52.1-52.1h-82.7v-38.4h-17.3v-146.4H684v-38.1h37.1v-33.7h151.9l24.1,24.1v151.1h58.6
			L822.2,3095.9z M688.5,3042.7h82.1l51.7,51.7l130.9-130.9h-57v-151.7l-23.5-23.5H722.2v33.7h-37.1v38.1h-13.9v144.2h17.3V3042.7z"
			/>
		<path class="Units" d="M822.2,3095.9l-52.1-52.1h-82.7v-38.4h-17.3v-146.4H684v-38.1h37.1v-33.7h151.9l24.1,24.1v151.1h58.6
			L822.2,3095.9z M688.5,3042.7h82.1l51.7,51.7l130.9-130.9h-57v-151.7l-23.5-23.5H722.2v33.7h-37.1v38.1h-13.9v144.2h17.3V3042.7z"
			/>
		<path class="Units" d="M645.8,3043.3H203.3v-567.6h442.6V3043.3z M204.4,3042.2h440.4v-565.4H204.4V3042.2z"/>
		<path class="Units" d="M645.8,3043.3H203.3v-567.6h442.6V3043.3z M204.4,3042.2h440.4v-565.4H204.4V3042.2z"/>
		<path class="Units" d="M901.6,2714.5h-12.3v-36.9h12.3V2714.5z M890.4,2713.4h10.2v-34.7h-10.2V2713.4z"/>
		<path class="Units" d="M901.6,2714.5h-12.3v-36.9h12.3V2714.5z M890.4,2713.4h10.2v-34.7h-10.2V2713.4z"/>
		<path class="Units" d="M901.6,2537.7h-12.3v-36.9h12.3V2537.7z M890.4,2536.6h10.2v-34.7h-10.2V2536.6z"/>
		<path class="Units" d="M901.6,2537.7h-12.3v-36.9h12.3V2537.7z M890.4,2536.6h10.2v-34.7h-10.2V2536.6z"/>
		<path class="Units" d="M901.6,2465.5h-12.3v-36.9h12.3V2465.5z M890.4,2464.4h10.2v-34.7h-10.2V2464.4z"/>
		<path class="Units" d="M901.6,2465.5h-12.3v-36.9h12.3V2465.5z M890.4,2464.4h10.2v-34.7h-10.2V2464.4z"/>
		<path class="Units" d="M901.6,2328.7h-12.3v-36.9h12.3V2328.7z M890.4,2327.6h10.2v-34.7h-10.2V2327.6z"/>
		<path class="Units" d="M901.6,2328.7h-12.3v-36.9h12.3V2328.7z M890.4,2327.6h10.2v-34.7h-10.2V2327.6z"/>
		<path class="Units" d="M901.6,2066.9h-12.3V2030h12.3V2066.9z M890.4,2065.8h10.2v-34.7h-10.2V2065.8z"/>
		<path class="Units" d="M901.6,2066.9h-12.3V2030h12.3V2066.9z M890.4,2065.8h10.2v-34.7h-10.2V2065.8z"/>
		<path class="Units" d="M901.6,1983.2h-12.3v-36.9h12.3V1983.2z M890.4,1982.2h10.2v-34.7h-10.2V1982.2z"/>
		<path class="Units" d="M901.6,1983.2h-12.3v-36.9h12.3V1983.2z M890.4,1982.2h10.2v-34.7h-10.2V1982.2z"/>
		<polygon class="Units" points="1135.7,2859.5 1134.6,2859.5 1134.6,2655.1 1112.4,2655.1 1112.4,2605.4 1123.5,2605.4 
			1123.5,2584.5 921.5,2584.5 921.5,2622 946.1,2652.3 946.1,2859.5 945,2859.5 945,2652.7 920.4,2622.3 920.4,2583.4 
			1124.6,2583.4 1124.6,2606.5 1113.5,2606.5 1113.5,2654 1135.7,2654 		"/>
		<polygon class="Units" points="1135.7,2859.5 1134.6,2859.5 1134.6,2655.1 1112.4,2655.1 1112.4,2605.4 1123.5,2605.4 
			1123.5,2584.5 921.5,2584.5 921.5,2622 946.1,2652.3 946.1,2859.5 945,2859.5 945,2652.7 920.4,2622.3 920.4,2583.4 
			1124.6,2583.4 1124.6,2606.5 1113.5,2606.5 1113.5,2654 1135.7,2654 		"/>
		<path class="Units" d="M1124.6,2584.5H920.4v-104.7h204.2v21.5H1089v64.3h35.6V2584.5z M921.5,2583.4h202v-16.7h-35.6v-66.5h35.6
			v-19.3h-202V2583.4z"/>
		<path class="Units" d="M1124.6,2584.5H920.4v-104.7h204.2v21.5H1089v64.3h35.6V2584.5z M921.5,2583.4h202v-16.7h-35.6v-66.5h35.6
			v-19.3h-202V2583.4z"/>
		<path class="Units" d="M871.5,2595.5h-91.3v-58.9h91.3V2595.5z M781.3,2594.4h89.1v-56.7h-89.1V2594.4z"/>
		<path class="Units" d="M871.5,2595.5h-91.3v-58.9h91.3V2595.5z M781.3,2594.4h89.1v-56.7h-89.1V2594.4z"/>
		<path class="Units" d="M871.5,2671.6H671.9v-147h53.4v23.5h32.4v-11.5h23.6v57.8h90.2V2671.6z M673,2670.5h197.4v-75h-90.2v-57.8
			h-21.4v11.5h-34.6v-23.5H673V2670.5z"/>
		<path class="Units" d="M871.5,2671.6H671.9v-147h53.4v23.5h32.4v-11.5h23.6v57.8h90.2V2671.6z M673,2670.5h197.4v-75h-90.2v-57.8
			h-21.4v11.5h-34.6v-23.5H673V2670.5z"/>
		<path class="Units" d="M871.5,2537.7H757.7v-57h113.8V2537.7z M758.8,2536.6h111.6v-54.8H758.8V2536.6z"/>
		<path class="Units" d="M871.5,2537.7H757.7v-57h113.8V2537.7z M758.8,2536.6h111.6v-54.8H758.8V2536.6z"/>
		<path class="Units" d="M871.5,2465.5H771.2v-41.1h100.3V2465.5z M772.3,2464.4h98.2v-38.9h-98.2V2464.4z"/>
		<path class="Units" d="M871.5,2465.5H771.2v-41.1h100.3V2465.5z M772.3,2464.4h98.2v-38.9h-98.2V2464.4z"/>
		<path class="Units" d="M871.5,2425.7H771.2v-29.9h100.3V2425.7z M772.3,2424.6h98.2v-27.7h-98.2V2424.6z"/>
		<path class="Units" d="M871.5,2425.7H771.2v-29.9h100.3V2425.7z M772.3,2424.6h98.2v-27.7h-98.2V2424.6z"/>
		<path class="Units" d="M871.5,2396.9H771.2V2367h100.3V2396.9z M772.3,2395.8h98.2v-27.7h-98.2V2395.8z"/>
		<path class="Units" d="M871.5,2396.9H771.2V2367h100.3V2396.9z M772.3,2395.8h98.2v-27.7h-98.2V2395.8z"/>
		<path class="Units" d="M871.5,2368.1H771.2v-29.9h100.3V2368.1z M772.3,2367h98.2v-27.7h-98.2V2367z"/>
		<path class="Units" d="M871.5,2368.1H771.2v-29.9h100.3V2368.1z M772.3,2367h98.2v-27.7h-98.2V2367z"/>
		<path class="Units" d="M871.5,2339.3H771.2v-39.1H787v-19.1h66.1l18.5,18.5V2339.3z M772.3,2338.2h98.2v-38.1l-17.8-17.8h-64.5
			v19.1h-15.8V2338.2z"/>
		<path class="Units" d="M871.5,2339.3H771.2v-39.1H787v-19.1h66.1l18.5,18.5V2339.3z M772.3,2338.2h98.2v-38.1l-17.8-17.8h-64.5
			v19.1h-15.8V2338.2z"/>
		<path class="Units" d="M871.5,2339.3H771.2v-39.1H787v-19.1h66.1l18.5,18.5V2339.3z M772.3,2338.2h98.2v-38.1l-17.8-17.8h-64.5
			v19.1h-15.8V2338.2z"/>
		<path class="Units" d="M1005.7,2480.9h-85.3v-46.4h85.3V2480.9z M921.5,2479.9h83.1v-44.2h-83.1V2479.9z"/>
		<path class="Units" d="M1005.7,2480.9h-85.3v-46.4h85.3V2480.9z M921.5,2479.9h83.1v-44.2h-83.1V2479.9z"/>
		<path class="Units" d="M1005.7,2435.6h-85.3v-44.1h85.3V2435.6z M921.5,2434.5h83.1v-42h-83.1V2434.5z"/>
		<path class="Units" d="M1005.7,2435.6h-85.3v-44.1h85.3V2435.6z M921.5,2434.5h83.1v-42h-83.1V2434.5z"/>
		<path class="Units" d="M1005.7,2392.5h-85.3v-44.1h85.3V2392.5z M921.5,2391.4h83.1v-42h-83.1V2391.4z"/>
		<path class="Units" d="M1005.7,2392.5h-85.3v-44.1h85.3V2392.5z M921.5,2391.4h83.1v-42h-83.1V2391.4z"/>
		<path class="Units" d="M1005.7,2349.5h-85.3v-40.1h85.3V2349.5z M921.5,2348.4h83.1v-37.9h-83.1V2348.4z"/>
		<path class="Units" d="M1005.7,2349.5h-85.3v-40.1h85.3V2349.5z M921.5,2348.4h83.1v-37.9h-83.1V2348.4z"/>
		<path class="Units" d="M1005.7,2310.4h-86.1l63.9-63.9h22.2V2310.4z M922.3,2309.4h82.4v-61.7H984L922.3,2309.4z"/>
		<path class="Units" d="M1005.7,2310.4h-86.1l63.9-63.9h22.2V2310.4z M922.3,2309.4h82.4v-61.7H984L922.3,2309.4z"/>
		<path class="Units" d="M1005.7,2310.4h-86.1l63.9-63.9h22.2V2310.4z M922.3,2309.4h82.4v-61.7H984L922.3,2309.4z"/>
		<path class="Units" d="M1124.6,2480.9h-120v-234.4h81.1v23.8h10.2v20.1h12v17.5h16.6V2480.9z M1005.7,2479.9h117.8v-170.7h-16.6
			v-17.5h-12v-20.1h-10.2v-23.8h-78.9V2479.9z"/>
		<path class="Units" d="M1124.6,2480.9h-120v-234.4h81.1v23.8h10.2v20.1h12v17.5h16.6V2480.9z M1005.7,2479.9h117.8v-170.7h-16.6
			v-17.5h-12v-20.1h-10.2v-23.8h-78.9V2479.9z"/>
		<path class="Units" d="M1124.6,2480.9h-120v-234.4h81.1v23.8h10.2v20.1h12v17.5h16.6V2480.9z M1005.7,2479.9h117.8v-170.7h-16.6
			v-17.5h-12v-20.1h-10.2v-23.8h-78.9V2479.9z"/>
		<path class="Units" d="M741.4,2490H681v-243.4h75v218.9h-14.6V2490z M682.1,2488.9h58.2v-24.5h14.6v-216.8h-72.8V2488.9z"/>
		<path class="Units" d="M741.4,2490H681v-243.4h75v218.9h-14.6V2490z M682.1,2488.9h58.2v-24.5h14.6v-216.8h-72.8V2488.9z"/>
		<path class="Units" d="M741.4,2490H681v-243.4h75v218.9h-14.6V2490z M682.1,2488.9h58.2v-24.5h14.6v-216.8h-72.8V2488.9z"/>
		<path class="Units" d="M682.1,2451.9h-97.3v-205.4h97.3V2451.9z M585.9,2450.9H681v-203.2h-95.2V2450.9z"/>
		<path class="Units" d="M682.1,2451.9h-97.3v-205.4h97.3V2451.9z M585.9,2450.9H681v-203.2h-95.2V2450.9z"/>
		<path class="Units" d="M585.9,2451.9H461.7l0-120.4l17.5-43l57.7-42h49V2451.9z M462.8,2450.9h122v-203.2h-47.5l-57.1,41.6
			l-17.3,42.6V2450.9z"/>
		<path class="Units" d="M585.9,2451.9H461.7l0-120.4l17.5-43l57.7-42h49V2451.9z M462.8,2450.9h122v-203.2h-47.5l-57.1,41.6
			l-17.3,42.6V2450.9z"/>
		<path class="Units" d="M585.9,2451.9H461.7l0-120.4l17.5-43l57.7-42h49V2451.9z M462.8,2450.9h122v-203.2h-47.5l-57.1,41.6
			l-17.3,42.6V2450.9z"/>
		<path class="Units" d="M494.1,1592.9l-116.8-11v-16l-48.7-3.8l-63.6-6.3l3.8-125.4l251.7,22l-0.2,6.2l-6.8-0.4
			c-27.3,69.1-24.8,107.9-19.5,134L494.1,1592.9z M378.4,1580.9l114.4,10.8c-5.2-26.3-7.4-65.3,19.9-134.3l0.1-0.4l6.5,0.3l0.1-4.1
			l-249.5-21.8l-3.7,123.3l62.6,6.2l49.7,3.9V1580.9z"/>
		<path class="Units" d="M337.2,1717.6l-37.5-2.5l-16.2,0l8.7-105h-21.2v-14.7l53.8,3.8l3.5-38.4l50.2,3.9v16l115.5,10.9l0.1,0.4
			c1.6,8,3.8,16.2,6.7,24.9H511l-13,81.5l-0.1,1.7l-158.3-16.2L337.2,1717.6z M284.6,1714.1h15.1l36.5,2.4l2.4-33.5l158.2,16.2
			l0-0.7l12.8-80.3h-9.9l-0.1-0.4c-2.9-8.8-5.1-17-6.7-25l-115.7-10.9v-16l-48.1-3.8l-3.5,38.4l-53.7-3.8v12.5h21.3L284.6,1714.1z"
			/>
		<path class="Units" d="M466.7,1808.5l-148.6-13.3v9.7l-30.5-2.7l11.6-88.1l36.9,2.4l2.4-33.5l159.3,16.3l-2.8,67.6l-20.6,11.2
			L466.7,1808.5z M317,1794l148.8,13.3l7.8-29.9l20.5-11.1l2.7-65.9l-157.2-16.1l-2.4,33.5l-37-2.4l-11.4,86l28.2,2.5V1794z"/>
		<path class="Units" d="M520.4,1453.4l-251.7-22l1.7-55.8l251.9,22l-0.7,5.4L520.4,1453.4z M269.9,1430.4l249.5,21.8l1.2-49.3
			l0.5-4.3l-249.7-21.8L269.9,1430.4z"/>
		<path class="Units" d="M513.7,1277.7l-183.9-16.1l1.5-13.1l28-64.9l158,13.8l0.1,0.3c0.9,2.8,2.1,5.5,3.4,7.9l0.1,0.1
			L513.7,1277.7z M331,1260.7l181.7,15.9l7-70.5c-1.3-2.4-2.3-4.9-3.3-7.6L360,1184.8l-27.7,64.1L331,1260.7z"/>
		<path class="Units" d="M517.7,1198.6l-96.5-8.4l3.2-45.6l98.5,9.5l-0.5,0.7c-5,8.1-7.6,17.4-7.6,26.8c0,5.4,0.9,10.9,2.6,16.2
			L517.7,1198.6z M422.4,1189.2l93.8,8.2c-1.6-5.1-2.4-10.4-2.4-15.7c0-9.4,2.5-18.5,7.4-26.7l-95.7-9.2L422.4,1189.2z"/>
		<path class="Units" d="M422.3,1190.2l-63.5-5.5l1-2.3l6.6-68.1l82.5-82.1L549.9,1133l-0.8,0.3c-11,3.9-20.5,11.5-26.6,21.5
			l-0.2,0.3l-96.9-9.3L422.3,1190.2z M360.4,1183.7l60.9,5.3l3.1-44.5l97.3,9.4c6.1-9.8,15.4-17.4,26.2-21.4l-98.9-98.9l-81.4,81.1
			l-6.6,67.9L360.4,1183.7z"/>
		<path class="Units" d="M522.2,1398.7l-251.8-22l0.9-29.7l50.6-15.4l1.1-9.8l206.5,18L522.2,1398.7z M271.5,1375.7l249.8,21.8
			l7-56.6L324,1323.1l-1.1,9.4l-50.5,15.3L271.5,1375.7z"/>
		<path class="Units" d="M529.4,1341l-206.5-18l7-62.4l183.9,16.1l-0.5,4.8l16.7,54.1L529.4,1341z M324.1,1322l204.4,17.8l0.5-4.2
			l-16.7-54l0.4-3.9l-181.7-15.9L324.1,1322z"/>
		<path class="Units" d="M520.7,1207.8l-0.8-1.6c-1.3-2.5-2.5-5.2-3.4-8.1l-0.3-0.8l5.6,0.5L520.7,1207.8z M517.7,1198.6
			c0.7,1.9,1.4,3.7,2.3,5.5l0.5-5.2L517.7,1198.6z"/>
		<path class="Units" d="M494.1,1592.9l-116.8-11v-16l-48.7-3.8l-63.6-6.3l3.8-125.4l251.7,22l-0.2,6.2l-6.8-0.4
			c-27.3,69.1-24.8,107.9-19.5,134L494.1,1592.9z M378.4,1580.9l114.4,10.8c-5.2-26.3-7.4-65.3,19.9-134.3l0.1-0.4l6.5,0.3l0.1-4.1
			l-249.5-21.8l-3.7,123.3l62.6,6.2l49.7,3.9V1580.9z"/>
		<path class="Units" d="M337.2,1717.6l-37.5-2.5l-16.2,0l8.7-105h-21.2v-14.7l53.8,3.8l3.5-38.4l50.2,3.9v16l115.5,10.9l0.1,0.4
			c1.6,8,3.8,16.2,6.7,24.9H511l-13,81.5l-0.1,1.7l-158.3-16.2L337.2,1717.6z M284.6,1714.1h15.1l36.5,2.4l2.4-33.5l158.2,16.2
			l0-0.7l12.8-80.3h-9.9l-0.1-0.4c-2.9-8.8-5.1-17-6.7-25l-115.7-10.9v-16l-48.1-3.8l-3.5,38.4l-53.7-3.8v12.5h21.3L284.6,1714.1z"
			/>
		<path class="Units" d="M466.7,1808.5l-148.6-13.3v9.7l-30.5-2.7l11.6-88.1l36.9,2.4l2.4-33.5l159.3,16.3l-2.8,67.6l-20.6,11.2
			L466.7,1808.5z M317,1794l148.8,13.3l7.8-29.9l20.5-11.1l2.7-65.9l-157.2-16.1l-2.4,33.5l-37-2.4l-11.4,86l28.2,2.5V1794z"/>
		<path class="Units" d="M520.4,1453.4l-251.7-22l1.7-55.8l251.9,22l-0.7,5.4L520.4,1453.4z M269.9,1430.4l249.5,21.8l1.2-49.3
			l0.5-4.3l-249.7-21.8L269.9,1430.4z"/>
		<path class="Units" d="M513.7,1277.7l-183.9-16.1l1.5-13.1l28-64.9l158,13.8l0.1,0.3c0.9,2.8,2.1,5.5,3.4,7.9l0.1,0.1
			L513.7,1277.7z M331,1260.7l181.7,15.9l7-70.5c-1.3-2.4-2.3-4.9-3.3-7.6L360,1184.8l-27.7,64.1L331,1260.7z"/>
		<path class="Units" d="M517.7,1198.6l-96.5-8.4l3.2-45.6l98.5,9.5l-0.5,0.7c-5,8.1-7.6,17.4-7.6,26.8c0,5.4,0.9,10.9,2.6,16.2
			L517.7,1198.6z M422.4,1189.2l93.8,8.2c-1.6-5.1-2.4-10.4-2.4-15.7c0-9.4,2.5-18.5,7.4-26.7l-95.7-9.2L422.4,1189.2z"/>
		<path class="Units" d="M422.3,1190.2l-63.5-5.5l1-2.3l6.6-68.1l82.5-82.1L549.9,1133l-0.8,0.3c-11,3.9-20.5,11.5-26.6,21.5
			l-0.2,0.3l-96.9-9.3L422.3,1190.2z M360.4,1183.7l60.9,5.3l3.1-44.5l97.3,9.4c6.1-9.8,15.4-17.4,26.2-21.4l-98.9-98.9l-81.4,81.1
			l-6.6,67.9L360.4,1183.7z"/>
		<path class="Units" d="M522.2,1398.7l-251.8-22l0.9-29.7l50.6-15.4l1.1-9.8l206.5,18L522.2,1398.7z M271.5,1375.7l249.8,21.8
			l7-56.6L324,1323.1l-1.1,9.4l-50.5,15.3L271.5,1375.7z"/>
		<path class="Units" d="M529.4,1341l-206.5-18l7-62.4l183.9,16.1l-0.5,4.8l16.7,54.1L529.4,1341z M324.1,1322l204.4,17.8l0.5-4.2
			l-16.7-54l0.4-3.9l-181.7-15.9L324.1,1322z"/>
		<path class="Units" d="M520.7,1207.8l-0.8-1.6c-1.3-2.5-2.5-5.2-3.4-8.1l-0.3-0.8l5.6,0.5L520.7,1207.8z M517.7,1198.6
			c0.7,1.9,1.4,3.7,2.3,5.5l0.5-5.2L517.7,1198.6z"/>
		<path class="Units" d="M494.1,1592.9l-116.8-11v-16l-48.7-3.8l-63.6-6.3l3.8-125.4l251.7,22l-0.2,6.2l-6.8-0.4
			c-27.3,69.1-24.8,107.9-19.5,134L494.1,1592.9z M378.4,1580.9l114.4,10.8c-5.2-26.3-7.4-65.3,19.9-134.3l0.1-0.4l6.5,0.3l0.1-4.1
			l-249.5-21.8l-3.7,123.3l62.6,6.2l49.7,3.9V1580.9z"/>
		<path class="Units" d="M337.2,1717.6l-37.5-2.5l-16.2,0l8.7-105h-21.2v-14.7l53.8,3.8l3.5-38.4l50.2,3.9v16l115.5,10.9l0.1,0.4
			c1.6,8,3.8,16.2,6.7,24.9H511l-13,81.5l-0.1,1.7l-158.3-16.2L337.2,1717.6z M284.6,1714.1h15.1l36.5,2.4l2.4-33.5l158.2,16.2
			l0-0.7l12.8-80.3h-9.9l-0.1-0.4c-2.9-8.8-5.1-17-6.7-25l-115.7-10.9v-16l-48.1-3.8l-3.5,38.4l-53.7-3.8v12.5h21.3L284.6,1714.1z"
			/>
		<path class="Units" d="M466.7,1808.5l-148.6-13.3v9.7l-30.5-2.7l11.6-88.1l36.9,2.4l2.4-33.5l159.3,16.3l-2.8,67.6l-20.6,11.2
			L466.7,1808.5z M317,1794l148.8,13.3l7.8-29.9l20.5-11.1l2.7-65.9l-157.2-16.1l-2.4,33.5l-37-2.4l-11.4,86l28.2,2.5V1794z"/>
		<path class="Units" d="M520.4,1453.4l-251.7-22l1.7-55.8l251.9,22l-0.7,5.4L520.4,1453.4z M269.9,1430.4l249.5,21.8l1.2-49.3
			l0.5-4.3l-249.7-21.8L269.9,1430.4z"/>
		<path class="Units" d="M513.7,1277.7l-183.9-16.1l1.5-13.1l28-64.9l158,13.8l0.1,0.3c0.9,2.8,2.1,5.5,3.4,7.9l0.1,0.1
			L513.7,1277.7z M331,1260.7l181.7,15.9l7-70.5c-1.3-2.4-2.3-4.9-3.3-7.6L360,1184.8l-27.7,64.1L331,1260.7z"/>
		<path class="Units" d="M517.7,1198.6l-96.5-8.4l3.2-45.6l98.5,9.5l-0.5,0.7c-5,8.1-7.6,17.4-7.6,26.8c0,5.4,0.9,10.9,2.6,16.2
			L517.7,1198.6z M422.4,1189.2l93.8,8.2c-1.6-5.1-2.4-10.4-2.4-15.7c0-9.4,2.5-18.5,7.4-26.7l-95.7-9.2L422.4,1189.2z"/>
		<path class="Units" d="M422.3,1190.2l-63.5-5.5l1-2.3l6.6-68.1l82.5-82.1L549.9,1133l-0.8,0.3c-11,3.9-20.5,11.5-26.6,21.5
			l-0.2,0.3l-96.9-9.3L422.3,1190.2z M360.4,1183.7l60.9,5.3l3.1-44.5l97.3,9.4c6.1-9.8,15.4-17.4,26.2-21.4l-98.9-98.9l-81.4,81.1
			l-6.6,67.9L360.4,1183.7z"/>
		<path class="Units" d="M522.2,1398.7l-251.8-22l0.9-29.7l50.6-15.4l1.1-9.8l206.5,18L522.2,1398.7z M271.5,1375.7l249.8,21.8
			l7-56.6L324,1323.1l-1.1,9.4l-50.5,15.3L271.5,1375.7z"/>
		<path class="Units" d="M529.4,1341l-206.5-18l7-62.4l183.9,16.1l-0.5,4.8l16.7,54.1L529.4,1341z M324.1,1322l204.4,17.8l0.5-4.2
			l-16.7-54l0.4-3.9l-181.7-15.9L324.1,1322z"/>
		<path class="Units" d="M520.7,1207.8l-0.8-1.6c-1.3-2.5-2.5-5.2-3.4-8.1l-0.3-0.8l5.6,0.5L520.7,1207.8z M517.7,1198.6
			c0.7,1.9,1.4,3.7,2.3,5.5l0.5-5.2L517.7,1198.6z"/>
		<path class="Units" d="M423.7,2198.1H282l0.1-0.6c6.3-37,12.2-75.2,17.5-113.7l0.1-0.5h141.7l-0.1,0.6
			c-5.3,38.5-11.2,76.7-17.5,113.7L423.7,2198.1z M283.3,2197h139.5c6.2-36.6,12.1-74.5,17.3-112.6H300.6
			C295.3,2122.6,289.5,2160.4,283.3,2197z"/>
		<path class="Units" d="M382.1,2402.5H240.3l0.2-0.7c8.6-35.7,16.9-73.2,24.5-111.4l0.1-0.5l139.6,10.6l-0.1,0.6
			c-7,34.5-14.5,68.5-22.4,100.9L382.1,2402.5z M241.7,2401.4h139.5c7.7-32.1,15.2-65.7,22.1-99.8l-137.4-10.5
			C258.4,2328.9,250.2,2366,241.7,2401.4z"/>
		<path class="Units" d="M404.4,2301.6L264.8,2291l0.1-0.6c6-30.1,11.8-61.3,17.1-92.9l0.1-0.5h141.7l-0.1,0.6
			c-6,35.2-12.5,70-19.3,103.5L404.4,2301.6z M266.2,2290l137.4,10.5c6.7-33.1,13.1-67.6,19.1-102.4H283.1
			C277.8,2229.4,272.1,2260.3,266.2,2290z"/>
		<path class="Units" d="M441.2,2084.5H299.5l0.1-0.6c4.3-31.1,8.3-62.7,11.9-94.1l0.1-0.5h141.7l-0.1,0.6
			c-3.6,31.4-7.6,63.1-11.9,94.2L441.2,2084.5z M300.8,2083.4h139.5c4.2-30.7,8.2-62,11.8-93.1H312.5
			C309,2021.3,305,2052.7,300.8,2083.4z"/>
		<path class="Units" d="M453.1,1990.3H311.4l0.1-0.6c2.8-24.5,5.4-49.2,7.7-73.2l0-0.5h15.2v13.9h112.3l0.2,0.2
			c3.2,4,7,7.3,11.4,10l0.3,0.2l0,0.3c-1.6,16.2-3.4,32.7-5.3,49.1L453.1,1990.3z M312.6,1989.2h139.5c1.8-16.1,3.6-32.4,5.2-48.3
			c-4.3-2.7-8.1-6-11.2-9.9H333.3v-13.9h-13.1C317.9,1940.8,315.4,1965,312.6,1989.2z"/>
		<path class="Units" d="M447.6,1931H333.3v-13.9h-14.2l0.1-0.6c2.7-27.8,4.9-54.8,6.8-80.4l0-0.6l123.7,11.1v26.6l-0.2,0.2
			c-7.8,8.1-12.1,18.7-12.1,29.9c0,9.8,3.3,19.1,9.4,26.9L447.6,1931z M334.4,1929.9h110.9c-5.9-7.7-9-16.9-9-26.7
			c0-11.4,4.3-22.2,12.2-30.5v-25.1L327,1836.8c-1.8,25.2-4.1,51.9-6.7,79.2h14.1V1929.9z"/>
		<path class="Units" d="M423.7,2198.1H282l0.1-0.6c6.3-37,12.2-75.2,17.5-113.7l0.1-0.5h141.7l-0.1,0.6
			c-5.3,38.5-11.2,76.7-17.5,113.7L423.7,2198.1z M283.3,2197h139.5c6.2-36.6,12.1-74.5,17.3-112.6H300.6
			C295.3,2122.6,289.5,2160.4,283.3,2197z"/>
		<path class="Units" d="M382.1,2402.5H240.3l0.2-0.7c8.6-35.7,16.9-73.2,24.5-111.4l0.1-0.5l139.6,10.6l-0.1,0.6
			c-7,34.5-14.5,68.5-22.4,100.9L382.1,2402.5z M241.7,2401.4h139.5c7.7-32.1,15.2-65.7,22.1-99.8l-137.4-10.5
			C258.4,2328.9,250.2,2366,241.7,2401.4z"/>
		<path class="Units" d="M404.4,2301.6L264.8,2291l0.1-0.6c6-30.1,11.8-61.3,17.1-92.9l0.1-0.5h141.7l-0.1,0.6
			c-6,35.2-12.5,70-19.3,103.5L404.4,2301.6z M266.2,2290l137.4,10.5c6.7-33.1,13.1-67.6,19.1-102.4H283.1
			C277.8,2229.4,272.1,2260.3,266.2,2290z"/>
		<path class="Units" d="M441.2,2084.5H299.5l0.1-0.6c4.3-31.1,8.3-62.7,11.9-94.1l0.1-0.5h141.7l-0.1,0.6
			c-3.6,31.4-7.6,63.1-11.9,94.2L441.2,2084.5z M300.8,2083.4h139.5c4.2-30.7,8.2-62,11.8-93.1H312.5
			C309,2021.3,305,2052.7,300.8,2083.4z"/>
		<path class="Units" d="M453.1,1990.3H311.4l0.1-0.6c2.8-24.5,5.4-49.2,7.7-73.2l0-0.5h15.2v13.9h112.3l0.2,0.2
			c3.2,4,7,7.3,11.4,10l0.3,0.2l0,0.3c-1.6,16.2-3.4,32.7-5.3,49.1L453.1,1990.3z M312.6,1989.2h139.5c1.8-16.1,3.6-32.4,5.2-48.3
			c-4.3-2.7-8.1-6-11.2-9.9H333.3v-13.9h-13.1C317.9,1940.8,315.4,1965,312.6,1989.2z"/>
		<path class="Units" d="M447.6,1931H333.3v-13.9h-14.2l0.1-0.6c2.7-27.8,4.9-54.8,6.8-80.4l0-0.6l123.7,11.1v26.6l-0.2,0.2
			c-7.8,8.1-12.1,18.7-12.1,29.9c0,9.8,3.3,19.1,9.4,26.9L447.6,1931z M334.4,1929.9h110.9c-5.9-7.7-9-16.9-9-26.7
			c0-11.4,4.3-22.2,12.2-30.5v-25.1L327,1836.8c-1.8,25.2-4.1,51.9-6.7,79.2h14.1V1929.9z"/>
		<path class="Units" d="M423.7,2198.1H282l0.1-0.6c6.3-37,12.2-75.2,17.5-113.7l0.1-0.5h141.7l-0.1,0.6
			c-5.3,38.5-11.2,76.7-17.5,113.7L423.7,2198.1z M283.3,2197h139.5c6.2-36.6,12.1-74.5,17.3-112.6H300.6
			C295.3,2122.6,289.5,2160.4,283.3,2197z"/>
		<path class="Units" d="M382.1,2402.5H240.3l0.2-0.7c8.6-35.7,16.9-73.2,24.5-111.4l0.1-0.5l139.6,10.6l-0.1,0.6
			c-7,34.5-14.5,68.5-22.4,100.9L382.1,2402.5z M241.7,2401.4h139.5c7.7-32.1,15.2-65.7,22.1-99.8l-137.4-10.5
			C258.4,2328.9,250.2,2366,241.7,2401.4z"/>
		<path class="Units" d="M404.4,2301.6L264.8,2291l0.1-0.6c6-30.1,11.8-61.3,17.1-92.9l0.1-0.5h141.7l-0.1,0.6
			c-6,35.2-12.5,70-19.3,103.5L404.4,2301.6z M266.2,2290l137.4,10.5c6.7-33.1,13.1-67.6,19.1-102.4H283.1
			C277.8,2229.4,272.1,2260.3,266.2,2290z"/>
		<path class="Units" d="M441.2,2084.5H299.5l0.1-0.6c4.3-31.1,8.3-62.7,11.9-94.1l0.1-0.5h141.7l-0.1,0.6
			c-3.6,31.4-7.6,63.1-11.9,94.2L441.2,2084.5z M300.8,2083.4h139.5c4.2-30.7,8.2-62,11.8-93.1H312.5
			C309,2021.3,305,2052.7,300.8,2083.4z"/>
		<path class="Units" d="M453.1,1990.3H311.4l0.1-0.6c2.8-24.5,5.4-49.2,7.7-73.2l0-0.5h15.2v13.9h112.3l0.2,0.2
			c3.2,4,7,7.3,11.4,10l0.3,0.2l0,0.3c-1.6,16.2-3.4,32.7-5.3,49.1L453.1,1990.3z M312.6,1989.2h139.5c1.8-16.1,3.6-32.4,5.2-48.3
			c-4.3-2.7-8.1-6-11.2-9.9H333.3v-13.9h-13.1C317.9,1940.8,315.4,1965,312.6,1989.2z"/>
		<path class="Units" d="M447.6,1931H333.3v-13.9h-14.2l0.1-0.6c2.7-27.8,4.9-54.8,6.8-80.4l0-0.6l123.7,11.1v26.6l-0.2,0.2
			c-7.8,8.1-12.1,18.7-12.1,29.9c0,9.8,3.3,19.1,9.4,26.9L447.6,1931z M334.4,1929.9h110.9c-5.9-7.7-9-16.9-9-26.7
			c0-11.4,4.3-22.2,12.2-30.5v-25.1L327,1836.8c-1.8,25.2-4.1,51.9-6.7,79.2h14.1V1929.9z"/>
		<path class="Units" d="M1054.9,2202.6h-75.5l-62.4-62.4h88.7v33.7h49.2V2202.6z M979.8,2201.5h73.9v-26.5h-49.2v-33.7h-85
			L979.8,2201.5z"/>
		<path class="Units" d="M1054.9,2202.6h-75.5l-62.4-62.4h88.7v33.7h49.2V2202.6z M979.8,2201.5h73.9v-26.5h-49.2v-33.7h-85
			L979.8,2201.5z"/>
		<path class="Units" d="M1124.6,2202.6h-70.8v-27.6h-49.2v-97.1h120V2202.6z M1054.9,2201.5h68.6V2079h-117.8v94.9h49.2V2201.5z"/>
		<path class="Units" d="M1124.6,2202.6h-70.8v-27.6h-49.2v-97.1h120V2202.6z M1054.9,2201.5h68.6V2079h-117.8v94.9h49.2V2201.5z"/>
		<path class="Units" d="M1005.7,2141.3h-87.9v-114.9h206.8v52.6h-118.9V2141.3z M918.9,2140.2h85.7v-62.3h118.9v-50.4H918.9V2140.2
			z"/>
		<path class="Units" d="M1005.7,2141.3h-87.9v-114.9h206.8v52.6h-118.9V2141.3z M918.9,2140.2h85.7v-62.3h118.9v-50.4H918.9V2140.2
			z"/>
		<path class="Units" d="M1124.6,2027.4H917.8v-114.3h206.8v11h-36.7v65.6h36.7V2027.4z M918.9,2026.4h204.6v-35.5h-36.7V1923h36.7
			v-8.8H918.9V2026.4z"/>
		<path class="Units" d="M1124.6,2027.4H917.8v-114.3h206.8v11h-36.7v65.6h36.7V2027.4z M918.9,2026.4h204.6v-35.5h-36.7V1923h36.7
			v-8.8H918.9V2026.4z"/>
		<path class="Units" d="M1124.6,1914.2H917.8v-57.6h142.1v42.4h64.7V1914.2z M918.9,1913.1h204.6v-13h-64.7v-42.4H918.9V1913.1z"/>
		<path class="Units" d="M1124.6,1914.2H917.8v-57.6h142.1v42.4h64.7V1914.2z M918.9,1913.1h204.6v-13h-64.7v-42.4H918.9V1913.1z"/>
		<path class="Units" d="M1104,1857.7H917.8v-29.5l28-29.1h118.7v43.9h39.5V1857.7z M918.9,1856.6H1103v-12.5h-39.5v-43.9H946.3
			l-27.4,28.4V1856.6z"/>
		<path class="Units" d="M1104,1857.7H917.8v-29.5l28-29.1h118.7v43.9h39.5V1857.7z M918.9,1856.6H1103v-12.5h-39.5v-43.9H946.3
			l-27.4,28.4V1856.6z"/>
		<path class="Units" d="M1139.4,1800.2H945.5v-85.3h113.2v-30.1h80.6V1800.2z M946.6,1799.1h191.7v-113.2h-78.4v30.1H946.6V1799.1z
			"/>
		<path class="Units" d="M1139.4,1800.2H945.5v-85.3h113.2v-30.1h80.6V1800.2z M946.6,1799.1h191.7v-113.2h-78.4v30.1H946.6V1799.1z
			"/>
		<path class="Units" d="M1059.8,1716H945.5v-31.2h114.3V1716z M946.6,1714.9h112.2v-29H946.6V1714.9z"/>
		<path class="Units" d="M1059.8,1716H945.5v-31.2h114.3V1716z M946.6,1714.9h112.2v-29H946.6V1714.9z"/>
		<path class="Units" d="M1094.6,1685.9H945.5v-57.6h149.1V1685.9z M946.6,1684.8h146.9v-55.4H946.6V1684.8z"/>
		<path class="Units" d="M1094.6,1685.9H945.5v-57.6h149.1V1685.9z M946.6,1684.8h146.9v-55.4H946.6V1684.8z"/>
		<path class="Units" d="M1156.9,1629.4H945.5v-45.6h211.4V1629.4z M946.6,1628.3h209.2v-43.4H946.6V1628.3z"/>
		<path class="Units" d="M1156.9,1629.4H945.5v-45.6h211.4V1629.4z M946.6,1628.3h209.2v-43.4H946.6V1628.3z"/>
		<path class="Units" d="M901.6,1852.5h-12.3v-36.9h12.3V1852.5z M890.4,1851.4h10.2v-34.7h-10.2V1851.4z"/>
		<path class="Units" d="M901.6,1852.5h-12.3v-36.9h12.3V1852.5z M890.4,1851.4h10.2v-34.7h-10.2V1851.4z"/>
		<path class="Units" d="M933.3,1758.8h-21v-28h21V1758.8z M913.4,1757.8h18.8v-25.8h-18.8V1757.8z"/>
		<path class="Units" d="M933.3,1758.8h-21v-28h21V1758.8z M913.4,1757.8h18.8v-25.8h-18.8V1757.8z"/>
		<path class="Units" d="M908.5,1809.2l-14.8-14.8l19.8-19.8l14.8,14.8L908.5,1809.2z M895.2,1794.4l13.3,13.3l18.3-18.3l-13.3-13.3
			L895.2,1794.4z"/>
		<path class="Units" d="M908.5,1809.2l-14.8-14.8l19.8-19.8l14.8,14.8L908.5,1809.2z M895.2,1794.4l13.3,13.3l18.3-18.3l-13.3-13.3
			L895.2,1794.4z"/>
		<path class="Units" d="M928.1,1650.6h-12.7V1615h12.7V1650.6z M916.5,1649.5H927V1616h-10.5V1649.5z"/>
		<path class="Units" d="M928.1,1650.6h-12.7V1615h12.7V1650.6z M916.5,1649.5H927V1616h-10.5V1649.5z"/>
		<path class="Units" d="M928.1,1605.6h-12.7V1570h12.7V1605.6z M916.5,1604.5H927v-33.4h-10.5V1604.5z"/>
		<path class="Units" d="M928.1,1605.6h-12.7V1570h12.7V1605.6z M916.5,1604.5H927v-33.4h-10.5V1604.5z"/>
		<path class="Units" d="M928.1,1565.3h-12.7v-25.9h12.7V1565.3z M916.5,1564.2H927v-23.8h-10.5V1564.2z"/>
		<path class="Units" d="M928.1,1565.3h-12.7v-25.9h12.7V1565.3z M916.5,1564.2H927v-23.8h-10.5V1564.2z"/>
		<path class="Units" d="M981.4,1447.9l-9-9l24.4-24.4l9,9L981.4,1447.9z M974,1438.9l7.4,7.4l22.9-22.9l-7.4-7.4L974,1438.9z"/>
		<path class="Units" d="M981.4,1447.9l-9-9l24.4-24.4l9,9L981.4,1447.9z M974,1438.9l7.4,7.4l22.9-22.9l-7.4-7.4L974,1438.9z"/>
		<path class="Units" d="M1033.8,1392.6l-9-9l24.4-24.4l9,9L1033.8,1392.6z M1026.4,1383.7l7.4,7.4l22.9-22.9l-7.4-7.4
			L1026.4,1383.7z"/>
		<path class="Units" d="M1033.8,1392.6l-9-9l24.4-24.4l9,9L1033.8,1392.6z M1026.4,1383.7l7.4,7.4l22.9-22.9l-7.4-7.4
			L1026.4,1383.7z"/>
		<path class="Units" d="M1033.8,1392.6l-9-9l24.4-24.4l9,9L1033.8,1392.6z M1026.4,1383.7l7.4,7.4l22.9-22.9l-7.4-7.4
			L1026.4,1383.7z"/>
		<path class="Units" d="M1033.8,1392.6l-9-9l24.4-24.4l9,9L1033.8,1392.6z M1026.4,1383.7l7.4,7.4l22.9-22.9l-7.4-7.4
			L1026.4,1383.7z"/>
		<path class="Units" d="M1092.1,1334.3l-9-9l24.4-24.4l9,9L1092.1,1334.3z M1084.7,1325.3l7.4,7.4l22.9-22.9l-7.4-7.4
			L1084.7,1325.3z"/>
		<path class="Units" d="M1092.1,1334.3l-9-9l24.4-24.4l9,9L1092.1,1334.3z M1084.7,1325.3l7.4,7.4l22.9-22.9l-7.4-7.4
			L1084.7,1325.3z"/>
		<path class="Units" d="M975.5,1099.3l-24.4-24.4l9-9l24.4,24.4L975.5,1099.3z M952.6,1074.9l22.9,22.9l7.4-7.4l-22.9-22.9
			L952.6,1074.9z"/>
		<path class="Units" d="M975.5,1099.3l-24.4-24.4l9-9l24.4,24.4L975.5,1099.3z M952.6,1074.9l22.9,22.9l7.4-7.4l-22.9-22.9
			L952.6,1074.9z"/>
		<path class="Units" d="M756,2202.6H632.9v-213.4h88.6v72.5H756V2202.6z M634,2201.5h121v-138.7h-34.5v-72.5H634V2201.5z"/>
		<path class="Units" d="M756,2202.6H632.9v-213.4h88.6v72.5H756V2202.6z M634,2201.5h121v-138.7h-34.5v-72.5H634V2201.5z"/>
		<path class="Units" d="M756,2202.6H632.9v-213.4h88.6v72.5H756V2202.6z M634,2201.5h121v-138.7h-34.5v-72.5H634V2201.5z"/>
		<path class="Units" d="M634,2202.6h-54.8V2159h24.1v-38H634L634,2202.6z M580.3,2201.5h52.6l0-79.4h-28.6v38h-24.1V2201.5z"/>
		<path class="Units" d="M634,2202.6h-54.8V2159h24.1v-38H634L634,2202.6z M580.3,2201.5h52.6l0-79.4h-28.6v38h-24.1V2201.5z"/>
		<path class="Units" d="M580.3,2202.6h-49.9l-47.4-47.4l5.7-34.2h115.7v39.1h-24.1V2202.6z M530.8,2201.5h48.4V2159h24.1v-36.9
			H489.5l-5.4,32.7L530.8,2201.5z"/>
		<path class="Units" d="M580.3,2202.6h-49.9l-47.4-47.4l5.7-34.2h115.7v39.1h-24.1V2202.6z M530.8,2201.5h48.4V2159h24.1v-36.9
			H489.5l-5.4,32.7L530.8,2201.5z"/>
		<path class="Units" d="M634,2122.1H488.5l4.6-59.3H634V2122.1z M489.7,2121h143.2v-57.1H494.1L489.7,2121z"/>
		<path class="Units" d="M634,2122.1H488.5l4.6-59.3H634V2122.1z M489.7,2121h143.2v-57.1H494.1L489.7,2121z"/>
		<path class="Units" d="M634,2063.9H493l10.6-74.7H634L634,2063.9z M494.2,2062.8h138.7l0-72.5H504.5L494.2,2062.8z"/>
		<path class="Units" d="M634,2063.9H493l10.6-74.7H634L634,2063.9z M494.2,2062.8h138.7l0-72.5H504.5L494.2,2062.8z"/>
		<path class="Units" d="M749.4,1977.7H505.2l3.9-42l0.2-0.1c9.3-8.2,14.6-20,14.6-32.3c0-9.7-3.2-18.9-9.2-26.5l-0.1-0.2l1.9-20
			h157.6v13H706v35.7l43.4,43.4V1977.7z M506.4,1976.7h241.9v-27.5l-43.4-43.4v-35.1H673v-13H517.5l-1.7,18.5
			c6.1,7.8,9.2,17.2,9.2,27c0,12.6-5.4,24.6-14.8,33L506.4,1976.7z"/>
		<path class="Units" d="M749.4,1977.7H505.2l3.9-42l0.2-0.1c9.3-8.2,14.6-20,14.6-32.3c0-9.7-3.2-18.9-9.2-26.5l-0.1-0.2l1.9-20
			h157.6v13H706v35.7l43.4,43.4V1977.7z M506.4,1976.7h241.9v-27.5l-43.4-43.4v-35.1H673v-13H517.5l-1.7,18.5
			c6.1,7.8,9.2,17.2,9.2,27c0,12.6-5.4,24.6-14.8,33L506.4,1976.7z"/>
		<path class="Units" d="M749.4,1977.7H505.2l3.9-42l0.2-0.1c9.3-8.2,14.6-20,14.6-32.3c0-9.7-3.2-18.9-9.2-26.5l-0.1-0.2l1.9-20
			h157.6v13H706v35.7l43.4,43.4V1977.7z M506.4,1976.7h241.9v-27.5l-43.4-43.4v-35.1H673v-13H517.5l-1.7,18.5
			c6.1,7.8,9.2,17.2,9.2,27c0,12.6-5.4,24.6-14.8,33L506.4,1976.7z"/>
		<path class="Units" d="M674.8,1857.7H516.2l0.2-0.7c5.9-19.9,11.6-39.7,16.8-58.7l0.1-0.4l141.4,11.3V1857.7z M517.7,1856.6h156
			v-46.4L534.2,1799C529.1,1817.7,523.5,1837.1,517.7,1856.6z"/>
		<path class="Units" d="M674.8,1857.7H516.2l0.2-0.7c5.9-19.9,11.6-39.7,16.8-58.7l0.1-0.4l141.4,11.3V1857.7z M517.7,1856.6h156
			v-46.4L534.2,1799C529.1,1817.7,523.5,1837.1,517.7,1856.6z"/>
		<path class="Units" d="M674.8,1659.4h-29.2v-38.2l-32.5-32.5l18.3-18.8h43.3V1659.4z M646.7,1658.3h27v-87.2h-41.8l-17.3,17.7
			l32,32V1658.3z"/>
		<path class="Units" d="M674.8,1659.4h-29.2v-38.2l-32.5-32.5l18.3-18.8h43.3V1659.4z M646.7,1658.3h27v-87.2h-41.8l-17.3,17.7
			l32,32V1658.3z"/>
		<path class="Units" d="M674.8,1810.3l-141.7-11.4l0.2-0.6c5.3-19.2,10.1-37.7,14.3-54.9l0.1-0.5l127.1,10.2V1810.3z M534.5,1798
			l139.2,11.2v-55l-125.2-10C544.3,1761,539.6,1779.1,534.5,1798z"/>
		<path class="Units" d="M674.8,1810.3l-141.7-11.4l0.2-0.6c5.3-19.2,10.1-37.7,14.3-54.9l0.1-0.5l127.1,10.2V1810.3z M534.5,1798
			l139.2,11.2v-55l-125.2-10C544.3,1761,539.6,1779.1,534.5,1798z"/>
		<path class="Units" d="M674.8,1754.2L547.4,1744l0.2-0.6c5.1-21,9.4-40.1,12.6-56.9l0.1-0.5l114.6,9.2V1754.2z M548.7,1743l125,10
			v-56.8l-112.6-9C557.9,1703.7,553.7,1722.5,548.7,1743z"/>
		<path class="Units" d="M674.8,1754.2L547.4,1744l0.2-0.6c5.1-21,9.4-40.1,12.6-56.9l0.1-0.5l114.6,9.2V1754.2z M548.7,1743l125,10
			v-56.8l-112.6-9C557.9,1703.7,553.7,1722.5,548.7,1743z"/>
		<path class="Units" d="M674.8,1696.3l-114.8-9.2l0.1-0.6c4-20.7,6.5-37.9,7.6-51.1l0-0.2l46.2-47.3l32.8,32.8v37.5h28.1V1696.3z
			 M561.3,1686.1l112.4,9v-35.8h-28.1v-38.2l-31.7-31.7l-45.1,46.2C567.7,1648.8,565.2,1665.7,561.3,1686.1z"/>
		<path class="Units" d="M674.8,1696.3l-114.8-9.2l0.1-0.6c4-20.7,6.5-37.9,7.6-51.1l0-0.2l46.2-47.3l32.8,32.8v37.5h28.1V1696.3z
			 M561.3,1686.1l112.4,9v-35.8h-28.1v-38.2l-31.7-31.7l-45.1,46.2C567.7,1648.8,565.2,1665.7,561.3,1686.1z"/>
		<path class="Units" d="M872,2084.4H768.4l0.2-40.8h34.5v11.2H872V2084.4z M769.5,2083.3h101.4v-27.4H802v-11.2h-32.3L769.5,2083.3
			z"/>
		<path class="Units" d="M872,2084.4H768.4l0.2-40.8h34.5v11.2H872V2084.4z M769.5,2083.3h101.4v-27.4H802v-11.2h-32.3L769.5,2083.3
			z"/>
		<path class="Units" d="M872,1969H758.8V1944l-6-6H872V1969z M759.9,1967.9h111V1939H755.4l4.5,4.5V1967.9z"/>
		<path class="Units" d="M872,1969H758.8V1944l-6-6H872V1969z M759.9,1967.9h111V1939H755.4l4.5,4.5V1967.9z"/>
		<path class="Units" d="M872,1998H768.8l0-7.7h-10.1v-22.4H872V1998z M769.9,1996.9h100.9V1969h-111v20.2H770L769.9,1996.9z"/>
		<path class="Units" d="M872,1998H768.8l0-7.7h-10.1v-22.4H872V1998z M769.9,1996.9h100.9V1969h-111v20.2H770L769.9,1996.9z"/>
		<path class="Units" d="M872,2027.4H768.7l0.2-30.6H872V2027.4z M769.8,2026.4h101.1V1998h-101L769.8,2026.4z"/>
		<path class="Units" d="M872,2027.4H768.7l0.2-30.6H872V2027.4z M769.8,2026.4h101.1V1998h-101L769.8,2026.4z"/>
		<path class="Units" d="M804.5,2184.2h-36.7l0.3-63.2h36.3V2184.2z M768.9,2183.1h34.5v-61h-34.1L768.9,2183.1z"/>
		<path class="Units" d="M804.5,2184.2h-36.7l0.3-63.2h36.3V2184.2z M768.9,2183.1h34.5v-61h-34.1L768.9,2183.1z"/>
		<path class="Units" d="M872,2122.1H768.2l0.2-38.8H872V2122.1z M804.5,2121h66.4v-36.7H769.5l-0.2,36.7h34.1v-9.9h1.1V2121z"/>
		<path class="Units" d="M872,2122.1H768.2l0.2-38.8H872V2122.1z M804.5,2121h66.4v-36.7H769.5l-0.2,36.7h34.1v-9.9h1.1V2121z"/>
		<path class="Units" d="M848.5,2166.8h-45.1V2121H872v22.2L848.5,2166.8z M804.5,2165.7H848l22.9-22.9v-20.7h-66.4V2165.7z"/>
		<path class="Units" d="M848.5,2166.8h-45.1V2121H872v22.2L848.5,2166.8z M804.5,2165.7H848l22.9-22.9v-20.7h-66.4V2165.7z"/>
		<path class="Units" d="M872,2055.9h-70v-11.2h-33.4l0.1-18.4H872V2055.9z M803.1,2054.8h67.8v-27.3H769.8l-0.1,16.2h33.4V2054.8z"
			/>
		<path class="Units" d="M872,2055.9h-70v-11.2h-33.4l0.1-18.4H872V2055.9z M803.1,2054.8h67.8v-27.3H769.8l-0.1,16.2h33.4V2054.8z"
			/>
		<path class="Units" d="M900.1,1629.4H797.8v-38h28.6l7.3-7.3h50.8l15.6,15.6V1629.4z M798.9,1628.3H899v-28.2l-15-15h-49.9
			l-7.3,7.3h-28V1628.3z"/>
		<path class="Units" d="M900.1,1629.4H797.8v-38h28.6l7.3-7.3h50.8l15.6,15.6V1629.4z M798.9,1628.3H899v-28.2l-15-15h-49.9
			l-7.3,7.3h-28V1628.3z"/>
		<path class="Units" d="M871.7,1800.2H684.9v-28.9h38.7v-65.2h-38.7v-21.3H763v37.3h137.1v49.6L871.7,1800.2z M685.9,1799.1h185.3
			l27.8-27.8v-48.1H761.9v-37.3h-76v19.1h38.7v67.3h-38.7V1799.1z"/>
		<path class="Units" d="M871.7,1800.2H684.9v-28.9h38.7v-65.2h-38.7v-21.3H763v37.3h137.1v49.6L871.7,1800.2z M685.9,1799.1h185.3
			l27.8-27.8v-48.1H761.9v-37.3h-76v19.1h38.7v67.3h-38.7V1799.1z"/>
		<path class="Units" d="M900.1,1685.9H684.9V1570h75l39.1,21.6v36.7h101.2V1685.9z M685.9,1684.8H899v-55.4H797.8v-37.1l-38.3-21.2
			h-73.6V1684.8z"/>
		<path class="Units" d="M900.1,1685.9H684.9V1570h75l39.1,21.6v36.7h101.2V1685.9z M685.9,1684.8H899v-55.4H797.8v-37.1l-38.3-21.2
			h-73.6V1684.8z"/>
		<path class="Units" d="M872,1857.7H714.1v-47.5h-29.3v-11.2H872V1857.7z M715.2,1856.6h155.7v-56.4H685.9v9h29.3V1856.6z"/>
		<path class="Units" d="M872,1857.7H714.1v-47.5h-29.3v-11.2H872V1857.7z M715.2,1856.6h155.7v-56.4H685.9v9h29.3V1856.6z"/>
		<path class="Units" d="M872,1939H753.9l-33.3-33.3l10.5-10.5l16.6,16.6H872V1939z M754.3,1938h116.6v-25.1H747.2l-16.1-16.1l-9,9
			L754.3,1938z"/>
		<path class="Units" d="M872,1939H753.9l-33.3-33.3l10.5-10.5l16.6,16.6H872V1939z M754.3,1938h116.6v-25.1H747.2l-16.1-16.1l-9,9
			L754.3,1938z"/>
		<path class="Units" d="M872,1912.8H747.2l-33.1-33.1v-11.4H872V1912.8z M747.6,1911.8h123.2v-42.3H715.2v9.9L747.6,1911.8z"/>
		<path class="Units" d="M872,1912.8H747.2l-33.1-33.1v-11.4H872V1912.8z M747.6,1911.8h123.2v-42.3H715.2v9.9L747.6,1911.8z"/>
		<path class="Units" d="M900.1,1723.2H761.9v-38.4h138.2V1723.2z M763,1722.1h136v-36.2H763V1722.1z"/>
		<path class="Units" d="M900.1,1723.2H761.9v-38.4h138.2V1723.2z M763,1722.1h136v-36.2H763V1722.1z"/>
		<path class="Units" d="M1135.4,1562.9l-28.5-28.5h-20.1l-84.8-84.8l20.2-20.2l113.1,113.1V1562.9z M1087.3,1533.3h20.1l27,27
			v-17.3l-112-112l-18.7,18.7L1087.3,1533.3z"/>
		<path class="Units" d="M1049.3,1571.1H945.5v-37.8h103.8V1571.1z M946.6,1570h101.6v-35.6H946.6V1570z"/>
		<path class="Units" d="M1088.4,1534.4h-39.9l-65.6-65.6l19.9-19.9L1088.4,1534.4z M1049,1533.3h36.8l-82.9-82.9l-18.4,18.4
			L1049,1533.3z"/>
		<path class="Units" d="M1050.1,1534.4H945.5v-28.1l38.2-38.2L1050.1,1534.4z M946.6,1533.3h100.8l-63.7-63.7l-37.1,37.1V1533.3z"
			/>
		<path class="Units" d="M1135.4,1571.1h-87.2v-37.8h59.2l28,28V1571.1z M1049.3,1570h85v-8.2l-27.4-27.4h-57.6V1570z"/>
		<path class="Units" d="M1187.5,1487.7l-111.7-111.7l25.9-25.9l85.6,85.6l-7.5,7.5l26.2,26.2L1187.5,1487.7z M1077.3,1375.9
			l110.2,110.2l16.8-16.8l-26.2-26.2l7.5-7.5l-84-84L1077.3,1375.9z"/>
		<path class="Units" d="M1212.5,1462.4l-41-41l51.3-51.3l36.9,36.9l-9.2,9.2l12.2,12.2l-33.5,33.5l-8-8L1212.5,1462.4z
			 M1173,1421.4l39.5,39.5l8.5-8.5l8,8l32-32l-12.2-12.2l9.2-9.2l-35.3-35.3L1173,1421.4z"/>
		<path class="Units" d="M1172.2,1422.1l-71.3-71.3l17.7-17.7h67.2l37.7,37.7L1172.2,1422.1z M1102.4,1350.8l69.8,69.8l49.8-49.8
			l-36.6-36.6h-66.3L1102.4,1350.8z"/>
		<path class="Units" d="M1134.9,1543.5l-113.3-113.3l55-55l87.7,87.7l-44.1,44.1l25.6,25.6L1134.9,1543.5z M1023.1,1430.2
			l111.8,111.8l9.3-9.3l-25.6-25.6l44.1-44.1l-86.1-86.1L1023.1,1430.2z"/>
		<path class="Units" d="M1135.4,1562.9l-28.5-28.5h-20.1l-84.8-84.8l20.2-20.2l113.1,113.1V1562.9z M1087.3,1533.3h20.1l27,27
			v-17.3l-112-112l-18.7,18.7L1087.3,1533.3z"/>
		<path class="Units" d="M1049.3,1571.1H945.5v-37.8h103.8V1571.1z M946.6,1570h101.6v-35.6H946.6V1570z"/>
		<path class="Units" d="M1088.4,1534.4h-39.9l-65.6-65.6l19.9-19.9L1088.4,1534.4z M1049,1533.3h36.8l-82.9-82.9l-18.4,18.4
			L1049,1533.3z"/>
		<path class="Units" d="M1050.1,1534.4H945.5v-28.1l38.2-38.2L1050.1,1534.4z M946.6,1533.3h100.8l-63.7-63.7l-37.1,37.1V1533.3z"
			/>
		<path class="Units" d="M1135.4,1571.1h-87.2v-37.8h59.2l28,28V1571.1z M1049.3,1570h85v-8.2l-27.4-27.4h-57.6V1570z"/>
		<path class="Units" d="M1187.5,1487.7l-111.7-111.7l25.9-25.9l85.6,85.6l-7.5,7.5l26.2,26.2L1187.5,1487.7z M1077.3,1375.9
			l110.2,110.2l16.8-16.8l-26.2-26.2l7.5-7.5l-84-84L1077.3,1375.9z"/>
		<path class="Units" d="M1212.5,1462.4l-41-41l51.3-51.3l36.9,36.9l-9.2,9.2l12.2,12.2l-33.5,33.5l-8-8L1212.5,1462.4z
			 M1173,1421.4l39.5,39.5l8.5-8.5l8,8l32-32l-12.2-12.2l9.2-9.2l-35.3-35.3L1173,1421.4z"/>
		<path class="Units" d="M1172.2,1422.1l-71.3-71.3l17.7-17.7h67.2l37.7,37.7L1172.2,1422.1z M1102.4,1350.8l69.8,69.8l49.8-49.8
			l-36.6-36.6h-66.3L1102.4,1350.8z"/>
		<path class="Units" d="M1134.9,1543.5l-113.3-113.3l55-55l87.7,87.7l-44.1,44.1l25.6,25.6L1134.9,1543.5z M1023.1,1430.2
			l111.8,111.8l9.3-9.3l-25.6-25.6l44.1-44.1l-86.1-86.1L1023.1,1430.2z"/>
		<path class="Units" d="M1135.4,1562.9l-28.5-28.5h-20.1l-84.8-84.8l20.2-20.2l113.1,113.1V1562.9z M1087.3,1533.3h20.1l27,27
			v-17.3l-112-112l-18.7,18.7L1087.3,1533.3z"/>
		<path class="Units" d="M1049.3,1571.1H945.5v-37.8h103.8V1571.1z M946.6,1570h101.6v-35.6H946.6V1570z"/>
		<path class="Units" d="M1088.4,1534.4h-39.9l-65.6-65.6l19.9-19.9L1088.4,1534.4z M1049,1533.3h36.8l-82.9-82.9l-18.4,18.4
			L1049,1533.3z"/>
		<path class="Units" d="M1050.1,1534.4H945.5v-28.1l38.2-38.2L1050.1,1534.4z M946.6,1533.3h100.8l-63.7-63.7l-37.1,37.1V1533.3z"
			/>
		<path class="Units" d="M1135.4,1571.1h-87.2v-37.8h59.2l28,28V1571.1z M1049.3,1570h85v-8.2l-27.4-27.4h-57.6V1570z"/>
		<path class="Units" d="M1187.5,1487.7l-111.7-111.7l25.9-25.9l85.6,85.6l-7.5,7.5l26.2,26.2L1187.5,1487.7z M1077.3,1375.9
			l110.2,110.2l16.8-16.8l-26.2-26.2l7.5-7.5l-84-84L1077.3,1375.9z"/>
		<path class="Units" d="M1212.5,1462.4l-41-41l51.3-51.3l36.9,36.9l-9.2,9.2l12.2,12.2l-33.5,33.5l-8-8L1212.5,1462.4z
			 M1173,1421.4l39.5,39.5l8.5-8.5l8,8l32-32l-12.2-12.2l9.2-9.2l-35.3-35.3L1173,1421.4z"/>
		<path class="Units" d="M1172.2,1422.1l-71.3-71.3l17.7-17.7h67.2l37.7,37.7L1172.2,1422.1z M1102.4,1350.8l69.8,69.8l49.8-49.8
			l-36.6-36.6h-66.3L1102.4,1350.8z"/>
		<path class="Units" d="M1134.9,1543.5l-113.3-113.3l55-55l87.7,87.7l-44.1,44.1l25.6,25.6L1134.9,1543.5z M1023.1,1430.2
			l111.8,111.8l9.3-9.3l-25.6-25.6l44.1-44.1l-86.1-86.1L1023.1,1430.2z"/>
		<path class="Units" d="M716.9,1066.9l-60.5-57.5l38-38l70.7,67.3l-0.5,0.8L716.9,1066.9z M658,1009.4l59.1,56.2l46.6-26.8
			l-69.2-65.9L658,1009.4z"/>
		<path class="Units" d="M716.9,1066.9l-60.5-57.5l38-38l70.7,67.3l-0.5,0.8L716.9,1066.9z M658,1009.4l59.1,56.2l46.6-26.8
			l-69.2-65.9L658,1009.4z"/>
		<path class="Units" d="M682.4,1086.7l-52.9-50.3l27.7-27.7l60.7,57.7L682.4,1086.7z M631,1036.3l51.5,49l33.5-19.2l-58.8-56
			L631,1036.3z"/>
		<path class="Units" d="M682.4,1086.7l-52.9-50.3l27.7-27.7l60.7,57.7L682.4,1086.7z M631,1036.3l51.5,49l33.5-19.2l-58.8-56
			L631,1036.3z"/>
		<path class="Units" d="M585,1142.5L453.5,1011l42.9-38.4l20.7,20.7l4.4-4.4l13.7,13.7l9-9l15.1,15.1l71.3,27.3l52.8,50.3
			L585,1142.5z M455.1,1011l130.2,130.2l96.3-55.3l-51.6-49.1l-71.3-27.3L544.2,995l-9,9l-13.7-13.7l-4.4,4.4l-20.7-20.7L455.1,1011
			z"/>
		<path class="Units" d="M585,1142.5L453.5,1011l42.9-38.4l20.7,20.7l4.4-4.4l13.7,13.7l9-9l15.1,15.1l71.3,27.3l52.8,50.3
			L585,1142.5z M455.1,1011l130.2,130.2l96.3-55.3l-51.6-49.1l-71.3-27.3L544.2,995l-9,9l-13.7-13.7l-4.4,4.4l-20.7-20.7L455.1,1011
			z"/>
		<path class="Units" d="M764.6,1039.7l-70.9-67.5l41.2-41.2l60.7,57.7L764.6,1039.7z M695.2,972.2l69.1,65.8l29.8-49.1l-59.3-56.4
			L695.2,972.2z"/>
		<path class="Units" d="M764.6,1039.7l-70.9-67.5l41.2-41.2l60.7,57.7L764.6,1039.7z M695.2,972.2l69.1,65.8l29.8-49.1l-59.3-56.4
			L695.2,972.2z"/>
		<path class="Units" d="M794.9,989.6l-60.9-57.9l40.1-40.1l50.6,48.1l-0.6,1.8L794.9,989.6z M735.6,931.7l59.1,56.2l28.5-46.9
			l0.3-1l-49.3-46.9L735.6,931.7z"/>
		<path class="Units" d="M794.9,989.6l-60.9-57.9l40.1-40.1l50.6,48.1l-0.6,1.8L794.9,989.6z M735.6,931.7l59.1,56.2l28.5-46.9
			l0.3-1l-49.3-46.9L735.6,931.7z"/>
		<path class="Units" d="M824.4,940.9l-51-48.5l64.8-64.8l17.5,17.5L824.4,940.9z M775,892.4l48.9,46.5l30.6-93.5l-16.2-16.2
			L775,892.4z"/>
		<path class="Units" d="M824.4,940.9l-51-48.5l64.8-64.8l17.5,17.5L824.4,940.9z M775,892.4l48.9,46.5l30.6-93.5l-16.2-16.2
			L775,892.4z"/>
		<path class="Units" d="M675,1122.9l-6.2-11.1L699,1095l6.2,11.1L675,1122.9z M670.3,1112.2l5.1,9.2l28.3-15.8l-5.1-9.2
			L670.3,1112.2z"/>
		<path class="Units" d="M675,1122.9l-6.2-11.1L699,1095l6.2,11.1L675,1122.9z M670.3,1112.2l5.1,9.2l28.3-15.8l-5.1-9.2
			L670.3,1112.2z"/>
		<path class="Units" d="M612.8,1157l-6.2-11.1l30.2-16.8l6.2,11.1L612.8,1157z M608.1,1146.3l5.1,9.2l28.3-15.8l-5.1-9.2
			L608.1,1146.3z"/>
		<path class="Units" d="M612.8,1157l-6.2-11.1l30.2-16.8l6.2,11.1L612.8,1157z M608.1,1146.3l5.1,9.2l28.3-15.8l-5.1-9.2
			L608.1,1146.3z"/>
		<path class="Units" d="M738.2,1088.7l-6.2-11.1l30.2-16.8l6.2,11.1L738.2,1088.7z M733.6,1078.1l5.1,9.2l28.3-15.8l-5.1-9.2
			L733.6,1078.1z"/>
		<path class="Units" d="M738.2,1088.7l-6.2-11.1l30.2-16.8l6.2,11.1L738.2,1088.7z M733.6,1078.1l5.1,9.2l28.3-15.8l-5.1-9.2
			L733.6,1078.1z"/>
		<path class="Units" d="M804.4,1038c-1.4,0-2.6-0.3-3.8-0.8c-3.2-1.4-5.6-4.2-6.6-7.6c-1-3.5-1.1-9.3,4.2-17.3
			c4.2-6.3,7.6-11.8,10.7-16.6c10.8-17.2,15.3-24.3,25.7-24.3c0.8,0,1.6,0,2.4,0.1c15,1.4,22.3,9.2,35.3,37.5
			c5.1,11,6.3,18.8,3.6,23c-1.5,2.3-4.1,3.5-7.7,3.5c-2.9,0-6.4-0.8-9.9-2.3c-5.5-2.3-15.3-3.8-24.8-3.8c-6.2,0-11.1,0.6-13.1,1.7
			c-0.9,0.5-1.8,1-2.8,1.6C813.8,1035.2,808.9,1038,804.4,1038z M834.7,972.6c-9.8,0-14.2,7-24.8,23.8c-3,4.8-6.5,10.3-10.7,16.6
			c-5.1,7.7-5,13.2-4.1,16.4c0.9,3.1,3.1,5.6,6,6.9c1,0.4,2.1,0.7,3.3,0.7c4.3,0,9-2.8,12.8-5c1-0.6,2-1.1,2.9-1.6
			c2.2-1.2,7.1-1.8,13.6-1.8c7.7,0,18.4,1,25.2,3.9c3.4,1.4,6.7,2.2,9.4,2.2c3.2,0,5.5-1,6.7-3c2.5-3.8,1.2-11.4-3.6-21.9
			c-13-28.3-19.8-35.5-34.4-36.9C836.2,972.6,835.4,972.6,834.7,972.6z"/>
		<path class="Units" d="M804.4,1038c-1.4,0-2.6-0.3-3.8-0.8c-3.2-1.4-5.6-4.2-6.6-7.6c-1-3.5-1.1-9.3,4.2-17.3
			c4.2-6.3,7.6-11.8,10.7-16.6c10.8-17.2,15.3-24.3,25.7-24.3c0.8,0,1.6,0,2.4,0.1c15,1.4,22.3,9.2,35.3,37.5
			c5.1,11,6.3,18.8,3.6,23c-1.5,2.3-4.1,3.5-7.7,3.5c-2.9,0-6.4-0.8-9.9-2.3c-5.5-2.3-15.3-3.8-24.8-3.8c-6.2,0-11.1,0.6-13.1,1.7
			c-0.9,0.5-1.8,1-2.8,1.6C813.8,1035.2,808.9,1038,804.4,1038z M834.7,972.6c-9.8,0-14.2,7-24.8,23.8c-3,4.8-6.5,10.3-10.7,16.6
			c-5.1,7.7-5,13.2-4.1,16.4c0.9,3.1,3.1,5.6,6,6.9c1,0.4,2.1,0.7,3.3,0.7c4.3,0,9-2.8,12.8-5c1-0.6,2-1.1,2.9-1.6
			c2.2-1.2,7.1-1.8,13.6-1.8c7.7,0,18.4,1,25.2,3.9c3.4,1.4,6.7,2.2,9.4,2.2c3.2,0,5.5-1,6.7-3c2.5-3.8,1.2-11.4-3.6-21.9
			c-13-28.3-19.8-35.5-34.4-36.9C836.2,972.6,835.4,972.6,834.7,972.6z"/>
		<path class="Units" d="M682.8,1281.6l-73.1-73.1l0.2-0.4c4.9-8,7.4-17.2,7.4-26.5c0-2.4-0.2-4.9-0.7-7.8l-0.1-0.4l13.2-7
			l84.1,84.1L682.8,1281.6z M611,1208.3l71.8,71.8l29.5-29.5l-82.7-82.7l-11.8,6.2c0.4,2.8,0.6,5.3,0.6,7.6
			C618.4,1191,615.8,1200.2,611,1208.3z"/>
		<path class="Units" d="M662.6,1411.3l-82-8.8l-2.1-49.1l61.1,6.6l0-23.9h23V1411.3z M581.6,1401.5l79.9,8.6v-72.9h-20.8l0,24
			l-61.1-6.6L581.6,1401.5z"/>
		<path class="Units" d="M640.7,1361.1l-62.2-6.7l-1.7-40.1l-0.8-6.5h86.6v29.3h-21.9L640.7,1361.1z M579.5,1353.5l60,6.4l0-23.9
			h21.9v-27.1h-84.3l0.6,5.3L579.5,1353.5z"/>
		<path class="Units" d="M836,1276.7l-143.5-143.5l53.7-28.4l130.8,130.8L836,1276.7z M694.4,1133.5L836,1275.2l39.5-39.5
			l-129.4-129.4L694.4,1133.5z"/>
		<path class="Units" d="M649.8,1247.1h-49.7L583,1230l0.8-0.3c10.8-4,20.1-11.7,26.1-21.6l0.4-0.6L649.8,1247.1z M600.6,1246h46.6
			l-36.8-36.8c-6,9.6-15,17-25.5,21.1L600.6,1246z"/>
		<path class="Units" d="M899.3,1153.8l-22.9-22.9l49.1-49.1l22.9,22.9L899.3,1153.8z M878,1130.9l21.4,21.4l47.5-47.5l-21.4-21.4
			L878,1130.9z"/>
		<path class="Units" d="M842.8,1203l-97.5-97.5L799,1077l65.6,65.6l12.5-12.5l19.2,19.2L842.8,1203z M747.1,1105.7l95.7,95.7
			l52.1-52.1l-17.7-17.7l-12.5,12.5l-65.8-65.8L747.1,1105.7z"/>
		<path class="Units" d="M928.8,1183.3l-30.3-30.3l49.1-49.1l30.3,30.3L928.8,1183.3z M900.1,1153l28.7,28.7l47.5-47.5l-28.7-28.7
			L900.1,1153z"/>
		<path class="Units" d="M864.7,1144.2l-66.6-66.6l35.4-18.7l73.5,4.5l19.3,19.3L864.7,1144.2z M799.9,1077.8l64.8,64.8l60.1-60.1
			l-18.2-18.2l-72.8-4.4L799.9,1077.8z"/>
		<path class="Units" d="M700.2,1297.5H574.7l-7.8-64.7l0.6,0c5.6-0.2,11.1-1.2,16.3-3.1l0.3-0.1l16.5,16.5h48.2L700.2,1297.5z
			 M575.7,1296.4h121.9l-49.3-49.3h-48.2l-16.3-16.3c-5.1,1.8-10.3,2.9-15.7,3.1L575.7,1296.4z"/>
		<path class="Units" d="M954.3,1432.9l-96.4-96.4l41.5-41.5l96.4,96.4L954.3,1432.9z M859.4,1336.6l94.8,94.8l39.9-39.9l-94.8-94.8
			L859.4,1336.6z"/>
		<path class="Units" d="M952.7,1434.5h-52.1l-90.6-90.6v-22.4h34.2L955,1432.2L952.7,1434.5z M901.1,1433.4h51.2l1.2-1.2
			l-109.6-109.6h-32.7v20.8L901.1,1433.4z"/>
		<path class="Units" d="M901.4,1535.9h-78.5v-13.3H703v-96.6h-32.4v-118.3h33.5v42.5h55.1l109.6,109.6v8.4h32.7V1535.9z
			 M824,1534.8h76.3v-65.5h-32.7v-9l-108.9-108.9H703v-42.5h-31.3V1425h32.4v96.6h120V1534.8z"/>
		<path class="Units" d="M901.4,1469.3h-33.7v-9l-109.3-109.3v-29.6h52.7v21.9l90.3,90.3V1469.3z M868.8,1468.2h31.6v-34.1
			l-90.3-90.3v-21.3h-50.5v28.1l109.3,109.3V1468.2z"/>
		<path class="Units" d="M995,1392.2l-104.7-104.7l46.3-46.3l-23.9-23.9l25.8-25.8l6.3,6.3l48.4-48.4l46.5,46.5l-29,29l-9.1-9.1
			l-12.6,12.6l84.9,84.9L995,1392.2z M891.8,1287.5L995,1390.7l77.3-77.3l-84.9-84.9l14.2-14.2l9.1,9.1l27.5-27.5l-44.9-44.9
			l-48.4,48.4l-6.3-6.3l-24.2,24.2l23.9,23.9L891.8,1287.5z"/>
		<path class="Units" d="M1073,1314.2l-85.7-85.7l14.2-14.2l9.1,9.1l28.2-28.2l48.1,48.1v56.9L1073,1314.2z M988.9,1228.5l84.1,84.1
			l12.9-12.9v-56l-47.1-47.1l-28.2,28.2l-9.1-9.1L988.9,1228.5z"/>
		<path class="Units" d="M662.6,1468.9l-79.6-8.5l-2.5-59l82.1,8.8V1468.9z M584.1,1459.3l77.4,8.3v-56.5l-79.9-8.6L584.1,1459.3z"
			/>
		<path class="Units" d="M662.6,1513.4h-34.8l-44.4-44.4l-0.4-9.8l79.6,8.5V1513.4z M628.3,1512.3h33.2v-43.6l-77.4-8.3l0.3,8.1
			L628.3,1512.3z"/>
		<path class="Units" d="M704.1,1522.7h-33.5V1425h33.5V1522.7z M671.6,1521.6H703v-95.5h-31.3V1521.6z"/>
		<path class="Units" d="M876.3,1236.4l-34.2-34.2l53.6-53.6l34.2,34.2L876.3,1236.4z M843.6,1202.2l32.7,32.7l52.1-52.1l-32.7-32.7
			L843.6,1202.2z"/>
		<path class="Units" d="M682.8,1281.6l-73.1-73.1l0.2-0.4c4.9-8,7.4-17.2,7.4-26.5c0-2.4-0.2-4.9-0.7-7.8l-0.1-0.4l13.2-7
			l84.1,84.1L682.8,1281.6z M611,1208.3l71.8,71.8l29.5-29.5l-82.7-82.7l-11.8,6.2c0.4,2.8,0.6,5.3,0.6,7.6
			C618.4,1191,615.8,1200.2,611,1208.3z"/>
		<path class="Units" d="M662.6,1411.3l-82-8.8l-2.1-49.1l61.1,6.6l0-23.9h23V1411.3z M581.6,1401.5l79.9,8.6v-72.9h-20.8l0,24
			l-61.1-6.6L581.6,1401.5z"/>
		<path class="Units" d="M640.7,1361.1l-62.2-6.7l-1.7-40.1l-0.8-6.5h86.6v29.3h-21.9L640.7,1361.1z M579.5,1353.5l60,6.4l0-23.9
			h21.9v-27.1h-84.3l0.6,5.3L579.5,1353.5z"/>
		<path class="Units" d="M836,1276.7l-143.5-143.5l53.7-28.4l130.8,130.8L836,1276.7z M694.4,1133.5L836,1275.2l39.5-39.5
			l-129.4-129.4L694.4,1133.5z"/>
		<path class="Units" d="M649.8,1247.1h-49.7L583,1230l0.8-0.3c10.8-4,20.1-11.7,26.1-21.6l0.4-0.6L649.8,1247.1z M600.6,1246h46.6
			l-36.8-36.8c-6,9.6-15,17-25.5,21.1L600.6,1246z"/>
		<path class="Units" d="M899.3,1153.8l-22.9-22.9l49.1-49.1l22.9,22.9L899.3,1153.8z M878,1130.9l21.4,21.4l47.5-47.5l-21.4-21.4
			L878,1130.9z"/>
		<path class="Units" d="M842.8,1203l-97.5-97.5L799,1077l65.6,65.6l12.5-12.5l19.2,19.2L842.8,1203z M747.1,1105.7l95.7,95.7
			l52.1-52.1l-17.7-17.7l-12.5,12.5l-65.8-65.8L747.1,1105.7z"/>
		<path class="Units" d="M928.8,1183.3l-30.3-30.3l49.1-49.1l30.3,30.3L928.8,1183.3z M900.1,1153l28.7,28.7l47.5-47.5l-28.7-28.7
			L900.1,1153z"/>
		<path class="Units" d="M864.7,1144.2l-66.6-66.6l35.4-18.7l73.5,4.5l19.3,19.3L864.7,1144.2z M799.9,1077.8l64.8,64.8l60.1-60.1
			l-18.2-18.2l-72.8-4.4L799.9,1077.8z"/>
		<path class="Units" d="M700.2,1297.5H574.7l-7.8-64.7l0.6,0c5.6-0.2,11.1-1.2,16.3-3.1l0.3-0.1l16.5,16.5h48.2L700.2,1297.5z
			 M575.7,1296.4h121.9l-49.3-49.3h-48.2l-16.3-16.3c-5.1,1.8-10.3,2.9-15.7,3.1L575.7,1296.4z"/>
		<path class="Units" d="M954.3,1432.9l-96.4-96.4l41.5-41.5l96.4,96.4L954.3,1432.9z M859.4,1336.6l94.8,94.8l39.9-39.9l-94.8-94.8
			L859.4,1336.6z"/>
		<path class="Units" d="M952.7,1434.5h-52.1l-90.6-90.6v-22.4h34.2L955,1432.2L952.7,1434.5z M901.1,1433.4h51.2l1.2-1.2
			l-109.6-109.6h-32.7v20.8L901.1,1433.4z"/>
		<path class="Units" d="M901.4,1535.9h-78.5v-13.3H703v-96.6h-32.4v-118.3h33.5v42.5h55.1l109.6,109.6v8.4h32.7V1535.9z
			 M824,1534.8h76.3v-65.5h-32.7v-9l-108.9-108.9H703v-42.5h-31.3V1425h32.4v96.6h120V1534.8z"/>
		<path class="Units" d="M901.4,1469.3h-33.7v-9l-109.3-109.3v-29.6h52.7v21.9l90.3,90.3V1469.3z M868.8,1468.2h31.6v-34.1
			l-90.3-90.3v-21.3h-50.5v28.1l109.3,109.3V1468.2z"/>
		<path class="Units" d="M995,1392.2l-104.7-104.7l46.3-46.3l-23.9-23.9l25.8-25.8l6.3,6.3l48.4-48.4l46.5,46.5l-29,29l-9.1-9.1
			l-12.6,12.6l84.9,84.9L995,1392.2z M891.8,1287.5L995,1390.7l77.3-77.3l-84.9-84.9l14.2-14.2l9.1,9.1l27.5-27.5l-44.9-44.9
			l-48.4,48.4l-6.3-6.3l-24.2,24.2l23.9,23.9L891.8,1287.5z"/>
		<path class="Units" d="M1073,1314.2l-85.7-85.7l14.2-14.2l9.1,9.1l28.2-28.2l48.1,48.1v56.9L1073,1314.2z M988.9,1228.5l84.1,84.1
			l12.9-12.9v-56l-47.1-47.1l-28.2,28.2l-9.1-9.1L988.9,1228.5z"/>
		<path class="Units" d="M662.6,1468.9l-79.6-8.5l-2.5-59l82.1,8.8V1468.9z M584.1,1459.3l77.4,8.3v-56.5l-79.9-8.6L584.1,1459.3z"
			/>
		<path class="Units" d="M662.6,1513.4h-34.8l-44.4-44.4l-0.4-9.8l79.6,8.5V1513.4z M628.3,1512.3h33.2v-43.6l-77.4-8.3l0.3,8.1
			L628.3,1512.3z"/>
		<path class="Units" d="M704.1,1522.7h-33.5V1425h33.5V1522.7z M671.6,1521.6H703v-95.5h-31.3V1521.6z"/>
		<path class="Units" d="M876.3,1236.4l-34.2-34.2l53.6-53.6l34.2,34.2L876.3,1236.4z M843.6,1202.2l32.7,32.7l52.1-52.1l-32.7-32.7
			L843.6,1202.2z"/>
		<path class="Units" d="M682.8,1281.6l-73.1-73.1l0.2-0.4c4.9-8,7.4-17.2,7.4-26.5c0-2.4-0.2-4.9-0.7-7.8l-0.1-0.4l13.2-7
			l84.1,84.1L682.8,1281.6z M611,1208.3l71.8,71.8l29.5-29.5l-82.7-82.7l-11.8,6.2c0.4,2.8,0.6,5.3,0.6,7.6
			C618.4,1191,615.8,1200.2,611,1208.3z"/>
		<path class="Units" d="M662.6,1411.3l-82-8.8l-2.1-49.1l61.1,6.6l0-23.9h23V1411.3z M581.6,1401.5l79.9,8.6v-72.9h-20.8l0,24
			l-61.1-6.6L581.6,1401.5z"/>
		<path class="Units" d="M640.7,1361.1l-62.2-6.7l-1.7-40.1l-0.8-6.5h86.6v29.3h-21.9L640.7,1361.1z M579.5,1353.5l60,6.4l0-23.9
			h21.9v-27.1h-84.3l0.6,5.3L579.5,1353.5z"/>
		<path class="Units" d="M836,1276.7l-143.5-143.5l53.7-28.4l130.8,130.8L836,1276.7z M694.4,1133.5L836,1275.2l39.5-39.5
			l-129.4-129.4L694.4,1133.5z"/>
		<path class="Units" d="M649.8,1247.1h-49.7L583,1230l0.8-0.3c10.8-4,20.1-11.7,26.1-21.6l0.4-0.6L649.8,1247.1z M600.6,1246h46.6
			l-36.8-36.8c-6,9.6-15,17-25.5,21.1L600.6,1246z"/>
		<path class="Units" d="M899.3,1153.8l-22.9-22.9l49.1-49.1l22.9,22.9L899.3,1153.8z M878,1130.9l21.4,21.4l47.5-47.5l-21.4-21.4
			L878,1130.9z"/>
		<path class="Units" d="M842.8,1203l-97.5-97.5L799,1077l65.6,65.6l12.5-12.5l19.2,19.2L842.8,1203z M747.1,1105.7l95.7,95.7
			l52.1-52.1l-17.7-17.7l-12.5,12.5l-65.8-65.8L747.1,1105.7z"/>
		<path class="Units" d="M928.8,1183.3l-30.3-30.3l49.1-49.1l30.3,30.3L928.8,1183.3z M900.1,1153l28.7,28.7l47.5-47.5l-28.7-28.7
			L900.1,1153z"/>
		<path class="Units" d="M864.7,1144.2l-66.6-66.6l35.4-18.7l73.5,4.5l19.3,19.3L864.7,1144.2z M799.9,1077.8l64.8,64.8l60.1-60.1
			l-18.2-18.2l-72.8-4.4L799.9,1077.8z"/>
		<path class="Units" d="M700.2,1297.5H574.7l-7.8-64.7l0.6,0c5.6-0.2,11.1-1.2,16.3-3.1l0.3-0.1l16.5,16.5h48.2L700.2,1297.5z
			 M575.7,1296.4h121.9l-49.3-49.3h-48.2l-16.3-16.3c-5.1,1.8-10.3,2.9-15.7,3.1L575.7,1296.4z"/>
		<path class="Units" d="M954.3,1432.9l-96.4-96.4l41.5-41.5l96.4,96.4L954.3,1432.9z M859.4,1336.6l94.8,94.8l39.9-39.9l-94.8-94.8
			L859.4,1336.6z"/>
		<path class="Units" d="M952.7,1434.5h-52.1l-90.6-90.6v-22.4h34.2L955,1432.2L952.7,1434.5z M901.1,1433.4h51.2l1.2-1.2
			l-109.6-109.6h-32.7v20.8L901.1,1433.4z"/>
		<path class="Units" d="M901.4,1535.9h-78.5v-13.3H703v-96.6h-32.4v-118.3h33.5v42.5h55.1l109.6,109.6v8.4h32.7V1535.9z
			 M824,1534.8h76.3v-65.5h-32.7v-9l-108.9-108.9H703v-42.5h-31.3V1425h32.4v96.6h120V1534.8z"/>
		<path class="Units" d="M901.4,1469.3h-33.7v-9l-109.3-109.3v-29.6h52.7v21.9l90.3,90.3V1469.3z M868.8,1468.2h31.6v-34.1
			l-90.3-90.3v-21.3h-50.5v28.1l109.3,109.3V1468.2z"/>
		<path class="Units" d="M995,1392.2l-104.7-104.7l46.3-46.3l-23.9-23.9l25.8-25.8l6.3,6.3l48.4-48.4l46.5,46.5l-29,29l-9.1-9.1
			l-12.6,12.6l84.9,84.9L995,1392.2z M891.8,1287.5L995,1390.7l77.3-77.3l-84.9-84.9l14.2-14.2l9.1,9.1l27.5-27.5l-44.9-44.9
			l-48.4,48.4l-6.3-6.3l-24.2,24.2l23.9,23.9L891.8,1287.5z"/>
		<path class="Units" d="M1073,1314.2l-85.7-85.7l14.2-14.2l9.1,9.1l28.2-28.2l48.1,48.1v56.9L1073,1314.2z M988.9,1228.5l84.1,84.1
			l12.9-12.9v-56l-47.1-47.1l-28.2,28.2l-9.1-9.1L988.9,1228.5z"/>
		<path class="Units" d="M662.6,1468.9l-79.6-8.5l-2.5-59l82.1,8.8V1468.9z M584.1,1459.3l77.4,8.3v-56.5l-79.9-8.6L584.1,1459.3z"
			/>
		<path class="Units" d="M662.6,1513.4h-34.8l-44.4-44.4l-0.4-9.8l79.6,8.5V1513.4z M628.3,1512.3h33.2v-43.6l-77.4-8.3l0.3,8.1
			L628.3,1512.3z"/>
		<path class="Units" d="M704.1,1522.7h-33.5V1425h33.5V1522.7z M671.6,1521.6H703v-95.5h-31.3V1521.6z"/>
		<path class="Units" d="M876.3,1236.4l-34.2-34.2l53.6-53.6l34.2,34.2L876.3,1236.4z M843.6,1202.2l32.7,32.7l52.1-52.1l-32.7-32.7
			L843.6,1202.2z"/>
		<path class="Units" d="M801.4,1297.5H698.7l-16.7-16.7l30.3-30.3l-83.5-83.5l64.8-34.3l137.1,137.1L801.4,1297.5z M699.1,1296.4
			H801l28.2-26.6l-135.8-135.8l-62.8,33.2l83.3,83.3l-30.3,30.3L699.1,1296.4z"/>
		<path class="Units" d="M801.4,1297.5H698.7l-16.7-16.7l30.3-30.3l-83.5-83.5l64.8-34.3l137.1,137.1L801.4,1297.5z M699.1,1296.4
			H801l28.2-26.6l-135.8-135.8l-62.8,33.2l83.3,83.3l-30.3,30.3L699.1,1296.4z"/>
		<path class="Units" d="M1005.6,1088.6l-37.9-37.9l46.3-97l60.5,66.1L1005.6,1088.6z M968.9,1050.5l36.6,36.6l67.4-67.4l-58.7-64.1
			L968.9,1050.5z"/>
		<path class="Units" d="M968.5,1051.3l-48.3-28l53.2-114l41.3,45.1L968.5,1051.3z M921.7,1022.9l46.4,26.9l45.4-95.1l-39.7-43.4
			L921.7,1022.9z"/>
		<path class="Units" d="M1282.7,1290.1l-47-47l22.5-22.5l44.9,49.1L1282.7,1290.1z M1237.3,1243.2l45.4,45.4l18.9-18.9l-43.4-47.5
			L1237.3,1243.2z"/>
		<path class="Units" d="M921,1024.2l-39.3-59.1l20.6-37.5l-20.8-11.5l38.1-65.4l54.5,59.6L921,1024.2z M883.1,965l37.8,57
			l52.1-111.6l-53-58l-36.7,63.2l20.7,11.5L883.1,965z"/>
		<path class="Units" d="M1323.5,1394.9l-27.2-27.2l-7.8,7.8l-46.4-46.4l60.2-60.2l24.3,26.6l21.6,21.3l-27.2,27.2l26.6,26.6
			L1323.5,1394.9z M1296.3,1366.2l27.2,27.2l22.7-22.7l-26.6-26.6l27.2-27.2l-20.8-20.6l-23.6-25.8l-18.9,18.9l5.9,5.9l-0.8,0.8
			l-5.9-5.9l-39,39l44.8,44.8L1296.3,1366.2z"/>
		<path class="Units" d="M1242.9,1329.9l-29.6-29.6v-34.7l23.2-23.2l47,47L1242.9,1329.9z M1214.4,1299.9l28.5,28.5l39-39
			l-45.4-45.4l-22.1,22.1V1299.9z"/>
		<path class="Units" d="M1133.2,1191.2h-28.4l-84.4-84.4l69.8-69.8l94.2,103L1133.2,1191.2z M1105.3,1190.1h27.5l50.1-50.1
			l-92.8-101.4l-68.2,68.2L1105.3,1190.1z"/>
		<path class="Units" d="M1400.8,1370.8l-53.7-53.7l-21.2-20.9L868.1,795.9l-20.3,20.3l-70.2-70.2l327.1-327.1l187.4,187.4
			l-24.6,24.6l427.4,445.9L1400.8,1370.8z M868.1,794.3l458.6,501.2l21.2,20.9l52.9,52.9l292.6-292.6l-427.4-445.9l24.6-24.6
			l-185.8-185.8L779.2,745.9l68.7,68.7L868.1,794.3z"/>
		<path class="Units" d="M1005.6,1088.6l-37.9-37.9l46.3-97l60.5,66.1L1005.6,1088.6z M968.9,1050.5l36.6,36.6l67.4-67.4l-58.7-64.1
			L968.9,1050.5z"/>
		<path class="Units" d="M968.5,1051.3l-48.3-28l53.2-114l41.3,45.1L968.5,1051.3z M921.7,1022.9l46.4,26.9l45.4-95.1l-39.7-43.4
			L921.7,1022.9z"/>
		<path class="Units" d="M1282.7,1290.1l-47-47l22.5-22.5l44.9,49.1L1282.7,1290.1z M1237.3,1243.2l45.4,45.4l18.9-18.9l-43.4-47.5
			L1237.3,1243.2z"/>
		<path class="Units" d="M921,1024.2l-39.3-59.1l20.6-37.5l-20.8-11.5l38.1-65.4l54.5,59.6L921,1024.2z M883.1,965l37.8,57
			l52.1-111.6l-53-58l-36.7,63.2l20.7,11.5L883.1,965z"/>
		<path class="Units" d="M1323.5,1394.9l-27.2-27.2l-7.8,7.8l-46.4-46.4l60.2-60.2l24.3,26.6l21.6,21.3l-27.2,27.2l26.6,26.6
			L1323.5,1394.9z M1296.3,1366.2l27.2,27.2l22.7-22.7l-26.6-26.6l27.2-27.2l-20.8-20.6l-23.6-25.8l-18.9,18.9l5.9,5.9l-0.8,0.8
			l-5.9-5.9l-39,39l44.8,44.8L1296.3,1366.2z"/>
		<path class="Units" d="M1242.9,1329.9l-29.6-29.6v-34.7l23.2-23.2l47,47L1242.9,1329.9z M1214.4,1299.9l28.5,28.5l39-39
			l-45.4-45.4l-22.1,22.1V1299.9z"/>
		<path class="Units" d="M1133.2,1191.2h-28.4l-84.4-84.4l69.8-69.8l94.2,103L1133.2,1191.2z M1105.3,1190.1h27.5l50.1-50.1
			l-92.8-101.4l-68.2,68.2L1105.3,1190.1z"/>
		<path class="Units" d="M1400.8,1370.8l-53.7-53.7l-21.2-20.9L868.1,795.9l-20.3,20.3l-70.2-70.2l327.1-327.1l187.4,187.4
			l-24.6,24.6l427.4,445.9L1400.8,1370.8z M868.1,794.3l458.6,501.2l21.2,20.9l52.9,52.9l292.6-292.6l-427.4-445.9l24.6-24.6
			l-185.8-185.8L779.2,745.9l68.7,68.7L868.1,794.3z"/>
		<path class="Units" d="M1005.6,1088.6l-37.9-37.9l46.3-97l60.5,66.1L1005.6,1088.6z M968.9,1050.5l36.6,36.6l67.4-67.4l-58.7-64.1
			L968.9,1050.5z"/>
		<path class="Units" d="M968.5,1051.3l-48.3-28l53.2-114l41.3,45.1L968.5,1051.3z M921.7,1022.9l46.4,26.9l45.4-95.1l-39.7-43.4
			L921.7,1022.9z"/>
		<path class="Units" d="M1282.7,1290.1l-47-47l22.5-22.5l44.9,49.1L1282.7,1290.1z M1237.3,1243.2l45.4,45.4l18.9-18.9l-43.4-47.5
			L1237.3,1243.2z"/>
		<path class="Units" d="M921,1024.2l-39.3-59.1l20.6-37.5l-20.8-11.5l38.1-65.4l54.5,59.6L921,1024.2z M883.1,965l37.8,57
			l52.1-111.6l-53-58l-36.7,63.2l20.7,11.5L883.1,965z"/>
		<path class="Units" d="M1323.5,1394.9l-27.2-27.2l-7.8,7.8l-46.4-46.4l60.2-60.2l24.3,26.6l21.6,21.3l-27.2,27.2l26.6,26.6
			L1323.5,1394.9z M1296.3,1366.2l27.2,27.2l22.7-22.7l-26.6-26.6l27.2-27.2l-20.8-20.6l-23.6-25.8l-18.9,18.9l5.9,5.9l-0.8,0.8
			l-5.9-5.9l-39,39l44.8,44.8L1296.3,1366.2z"/>
		<path class="Units" d="M1242.9,1329.9l-29.6-29.6v-34.7l23.2-23.2l47,47L1242.9,1329.9z M1214.4,1299.9l28.5,28.5l39-39
			l-45.4-45.4l-22.1,22.1V1299.9z"/>
		<path class="Units" d="M1133.2,1191.2h-28.4l-84.4-84.4l69.8-69.8l94.2,103L1133.2,1191.2z M1105.3,1190.1h27.5l50.1-50.1
			l-92.8-101.4l-68.2,68.2L1105.3,1190.1z"/>
		<path class="Units" d="M1400.8,1370.8l-53.7-53.7l-21.2-20.9L868.1,795.9l-20.3,20.3l-70.2-70.2l327.1-327.1l187.4,187.4
			l-24.6,24.6l427.4,445.9L1400.8,1370.8z M868.1,794.3l458.6,501.2l21.2,20.9l52.9,52.9l292.6-292.6l-427.4-445.9l24.6-24.6
			l-185.8-185.8L779.2,745.9l68.7,68.7L868.1,794.3z"/>
	</g>
</g>
<g id="Amenities">
	<g>
		<polygon class="Amenities" points="1115,1194 1174.3,1251.9 1161.4,1264.8 1103.5,1206.9 		"/>
		<rect x="757.2" y="2278.5" class="Amenities" width="26.5" height="22.3"/>
		<rect x="247.4" y="2451.4" class="Amenities" width="74.6" height="23.8"/>
		<rect x="776.4" y="2680.9" class="Amenities" width="74.6" height="24.4"/>
		
			<rect x="1149.3" y="3171.2" transform="matrix(-0.7071 0.7071 -0.7071 -0.7071 4248.2075 4599.9912)" class="Amenities" width="44.1" height="17.3"/>
		<polygon class="Amenities" points="883.3,922.2 904.2,885 921,896 902.1,933.2 		"/>
		<polygon class="Amenities" points="895.7,1149.4 842.8,1202.2 876.3,1235.7 929.1,1182.8 928.8,1182.5 899.3,1153 		"/>
		<polygon class="Amenities" points="1087.1,1533.8 1048.8,1533.8 1048.8,1570.5 1134.9,1570.5 1134.9,1561.5 1107.2,1533.8 		"/>
		<polygon class="Amenities" points="572.6,1448.4 577.8,1470.3 529.7,1483.9 526,1456.2 		"/>
		<rect x="757.2" y="2184.3" class="Amenities" width="82.6" height="16.7"/>
	</g>
</g>
<g id="Anchor_x5F_Stores">
	<g class="st2">
		<g id="Macy_x27_s_13_">
			<g>
				<polygon class="st3" points="1493.7,3176.1 1472.9,3176.1 1473.3,3174.8 1442.5,3144.1 1316.9,3144.1 1284.9,3176.1 
					1273.7,3176.1 1273.7,3187.3 1163.3,3297.6 1163.3,3725.3 1273.7,3725.3 1273.7,3857.1 1809,3857.1 1809,3285.7 1493.7,3285.7 
									"/>
			</g>
			<g>
				<polygon class="st3" points="1493.7,3176.1 1472.9,3176.1 1473.3,3174.8 1442.5,3144.1 1316.9,3144.1 1284.9,3176.1 
					1273.7,3176.1 1273.7,3187.3 1163.3,3297.6 1163.3,3725.3 1273.7,3725.3 1273.7,3857.1 1809,3857.1 1809,3285.7 1493.7,3285.7 
									"/>
			</g>
			<g>
				<polygon class="st3" points="1493.7,3176.1 1472.9,3176.1 1473.3,3174.8 1442.5,3144.1 1316.9,3144.1 1284.9,3176.1 
					1273.7,3176.1 1273.7,3187.3 1163.3,3297.6 1163.3,3725.3 1273.7,3725.3 1273.7,3857.1 1809,3857.1 1809,3285.7 1493.7,3285.7 
									"/>
			</g>
		</g>
		<g>
			<rect x="1493.7" y="3159.7" class="st3" width="315.3" height="126"/>
			<rect x="1493.7" y="3159.7" class="st3" width="315.3" height="126"/>
		</g>
		<polygon class="st3" points="1266.7,630.8 1291.3,606.2 1104.7,419.6 778.4,745.9 847.8,815.4 868.1,795.1 919.8,851.6 
			919.8,851.6 973.6,910.3 973.6,910.3 1014.1,954.6 1014.1,954.6 1073.7,1019.7 1073.7,1019.7 1090.2,1037.7 1090.2,1037.7 
			1183.7,1139.9 1183.7,1139.9 1183.7,1139.9 1258.2,1221.5 1258.2,1221.5 1302.4,1269.7 1302.4,1269.7 1326.3,1295.9 
			1347.5,1316.8 1400.8,1370.1 1694.1,1076.7 		"/>
		<g>
			<rect x="203.8" y="2476.2" class="st3" width="441.5" height="566.5"/>
			<rect x="203.8" y="2476.2" class="st3" width="441.5" height="566.5"/>
		</g>
	</g>
</g>
</svg>
