<?xml version="1.0" encoding="utf-8"?>
<!-- Generator: Adobe Illustrator 18.0.0, SVG Export Plug-In . SVG Version: 6.00 Build 0)  -->
<!DOCTYPE svg PUBLIC "-//W3C//DTD SVG 1.1//EN" "http://www.w3.org/Graphics/SVG/1.1/DTD/svg11.dtd">
<svg version="1.1" id="L2" xmlns="http://www.w3.org/2000/svg" xmlns:xlink="http://www.w3.org/1999/xlink" x="0px" y="0px"
	 viewBox="0 0 1920 4290.6" style="enable-background:new 0 0 1920 4290.6;" xml:space="preserve">
<style type="text/css">
	.Anchors_Stores{fill:#EC1C24;fill-opacity:0.5;}
	.Blocks{fill:#212121;}
	.Floor{fill:#757576;}
	.Holes{fill:#616262;}
	.Units{fill:none;stroke:#EF4438;}
	.Amenities{fill:#B72025;}
	.st0{fill:#FFFFFF;stroke:#231F20;stroke-miterlimit:10;}
	.st1{opacity:0.5;}
	.st2{fill:#EC1C24;}
</style>
<g id="Floor_1_">
	<g>
		<polygon class="Floor" points="1563.5,3303 1563.5,3201.3 1527.1,3201.3 1467.2,3141.4 1179.3,2853.5 1179.3,2102.7 
			1179.3,1606.7 1179.3,1561.5 1372.9,1370.8 1399.9,1397.8 1723.1,1074.6 1297,629.8 1321.4,605.4 1106.7,390.6 744.6,742.1 
			796.5,796.3 677.4,915.4 583,821 320.8,1083.3 271.8,1083.3 271.8,1118.7 262.1,1118.7 235.6,1187 259,1195 285.8,1204.1 
			285.8,1229.9 291.7,1229.9 282.6,1316 252.6,1324.1 240.8,1327.2 217.8,1458 205.6,1461.5 198.6,1573.7 209.8,1575.5 
			211.5,1653.6 223,1653.6 223.7,1682.5 239.2,1682.5 234.2,1816.1 277.4,1848.2 260,2048.5 208.4,2335 199.3,2335 184.6,2359.4 
			158.8,2481.3 158.8,3092.4 566.6,3092.4 566.6,3147.6 611.3,3192.3 706.5,3097.1 696.6,3087.1 769.9,3087.1 868.3,3185.5 
			868.3,3471.8 1149.9,3471.8 1149.9,3785.6 1299.1,3785.6 1299.1,3840 1872.4,3840 1872.4,3303 		"/>
	</g>
</g>
<g id="Blocks_1_">
	<g>
		<g>
			<polygon class="st0" points="1541.8,3326.7 1541.8,3221.4 1513.9,3221.4 1450.8,3158.3 1430.9,3158.3 1343.9,3071.3 
				1300.5,3114.8 1300.5,3197.8 1341.2,3157.1 1378.2,3157.1 1379.3,3158.3 1342.4,3158.3 1240.4,3261.7 1169.4,3261.7 
				1153.4,3261.7 1147,3268.1 1117.8,3238.8 1127.2,3229.4 1127.2,3206.1 1127.2,3177.5 1079.3,3129.5 1050.5,3100.8 1018.3,3068.6 
				893.7,3193.3 893.7,3206.1 893.2,3206.1 893.2,3453.7 1169.4,3453.7 1169.4,3766.1 1322.8,3766.1 1322.8,3819.1 1851.5,3819.1 
				1851.5,3326.7 			"/>
			<polygon class="st0" points="981.5,2870.6 981.5,2879.1 1019,2916.6 1058.1,2955.7 1097.6,2995.2 1139.2,3036.8 1182.1,3079.7 
				1183.5,3081.1 1257.5,3081.1 1305.4,3033.3 1250.3,2979 1223.4,2952.6 1181.5,2911.3 1169.4,2899.4 1169.4,2805.2 1169.4,2603.3 
				1153.2,2603.3 1153.2,2557.8 1153.2,2518.1 1153.2,2474.6 1153.2,2430.7 1138.5,2430.7 1138.5,2408.2 1138.5,2380 1138.5,2351.7 
				1138.5,2328.7 1138.5,2255 994.7,2255 994.7,2273.3 952.3,2315.6 952.3,2328.7 952.3,2351.7 952.3,2380 952.3,2408.2 
				952.3,2474.6 952.3,2518.1 952.3,2557.8 952.3,2603.3 952.3,2614.3 981.5,2670.3 981.5,2805.2 			"/>
			<polygon class="st0" points="952.3,2998.3 852.5,2998.3 876.8,2974.1 876.8,2810.2 862.9,2796.3 651.6,2796.3 651,2796.3 
				651,2681.8 651.6,2681.8 852.4,2681.8 852.4,2533.8 852.4,2433.3 852.4,2373.7 852.4,2316.7 815.3,2279.5 783.4,2279.5 
				783.4,2303.6 770.8,2303.6 757.8,2303.6 757.8,2279.5 657.8,2279.5 494.1,2279.5 459.6,2319.8 459.6,2474.6 179.2,2474.6 
				179.2,3071.3 588.8,3071.3 588.8,3138.4 612,3161.6 676.5,3097.2 660.5,3081.1 651.6,3081.1 651.6,3066 779.5,3066 869.6,3156.1 
				989,3036.8 			"/>
			<polygon class="st0" points="1369.2,1346.9 1268.5,1246.2 1252.8,1261.9 1252.8,1288.3 1229.4,1311.7 1199.1,1342.1 
				1162.6,1342.1 1112.6,1392.1 1062.1,1442.6 1018.7,1486 981.6,1523.1 981.6,1528.4 981.6,1628.8 981.6,1684.3 981.6,1761.7 
				954.4,1802 954.4,2034.2 954.4,2131.7 954.4,2150.3 993.4,2189.3 993.4,2202.1 1138.5,2202.1 1138.5,2131.7 1138.5,2034.2 
				1153.2,2034.2 1153.2,1862.7 1167.8,1862.7 1167.8,1684.3 1167.8,1628.8 1167.8,1548.3 1218.3,1497.8 1286.6,1429.5 
				1316.9,1399.2 			"/>
			<polygon class="st0" points="770.8,2131.7 770.8,2176 822.8,2176 848.9,2149.8 848.9,2131.7 848.9,2087.4 848.9,2034.2 
				848.9,1994.6 770.8,1994.6 714.3,1994.6 492.2,1994.6 473.7,2125.8 469.9,2153 547.3,2187.8 569.6,2187.8 685.4,2187.8 
				752,2187.8 752,2176 752.7,2176 752.7,2068.6 714.3,2068.6 714.3,2034.2 770.8,2034.2 770.8,2087.4 			"/>
			<path class="st0" d="M232.1,1634.8h11.9l2.8-24.4h13.1h25.3l-4.5,41.8l-5.2,48.4l-1.2,10.9l-10.1,94.1l43.9,4.9l-6.9,70.9
				l-11.3,116h-19.5v36.8h5.6v34.3l-11.2,78.1l-3.4,23.7l5.6,5.6l-9.6,48.8l-7.8,39.8l-24.4,123.4v30.7h111.6l31.7-154.1l12.8-62.4
				l11.4-55.4l30.7-149.2l10.3-50.2c-11.7-9.6-19.2-24.2-19.2-40.5c0-6.1,1.1-11.9,3-17.4c5.4-15.2,17.5-27.2,32.9-32.3l6.5-74.2
				l4.6-52.4l33.5-381.7l4.7-53.1l6.2-70.3l2.5-28l2.4-4.6c-0.8-3.6-1.3-7.4-1.3-11.3c0-17.5,8.7-32.9,22-42.3l-9.1-21.3
				l-104.6-104.6l-91.4,91.4l35.6,3.5v24.4h23l-7.7,66.3l-44.6-3.5l-8.3,84.1l-17.5-1.8l-4.9,57.9l-43.2,10.5l-23.7,129.7l-9.8,2.8
				l-4.2,74.6l8.4,1.4L232.1,1634.8z M364.6,1347.4l-10.6,66.2l2.9-17.9L364.6,1347.4z M363.2,1338.1l43.2,4.1l50.7,4.8
				L363.2,1338.1z"/>
			<path class="st0" d="M848.9,1872.6v-77.4l27.4-27.4v-27V1648v-24.4l-29.7-29.7H767h-92.8H608l-32,32c-0.1,1.4-0.2,2.7-0.3,4.1
				c-1,19.2-3.9,38.4-8,58.1c-3.9,18.4-8.9,37.1-14.5,56.4c-3.7,12.7-7.8,25.7-12,39c-7.3,23-15,46.9-22.7,72.2
				c-1.8,6-3.6,12.1-5.4,18.3c13.9,25.1,7.7,58.6-11.2,73.9l-7,27.2h179.3h174.7V1872.6z"/>
			<path class="st0" d="M876.3,1406.7l73.4,2.8l4.9-4.9l132.5-133.8v-39.1l-91.5-90.8l-2-2l-126.9-71.1l-256,133.2
				c-4.2,18.1-26.5,32.8-35,35.6l8.8,71.8l0.4,3.4l1,46.6l0.9,44.2l0.8,35.7l0.8,36.8l20.4,20.4l20.8,20.8h55.1h191.6V1406.7z"/>
			<polygon class="st0" points="571,1134.7 598.9,1115.5 646.1,1082.9 702.2,1044.1 743.9,1015.3 764.9,1000.8 782.4,974.5 
				814.8,925.8 845.1,880.2 854,832.2 819.1,797.3 752.7,863.8 712.2,904.3 672.5,944 610.7,882.2 580.1,851.6 497.4,934.2 
				438.5,993.1 486.1,1044 			"/>
			<polygon class="st0" points="944.1,857.1 889,953.4 904.4,1003.6 976.9,1044.1 1034.2,1078.5 1089.4,1134.7 1137.3,1182.8 
				1165.9,1182.8 1207.8,1140.9 1176.8,1110.1 1393.4,1325 1373.1,1345.3 1399.6,1370.6 1693.9,1076.8 1266.7,630.1 1290.4,606.4 
				1105.2,421.2 799.8,716.3 1007.6,919.1 			"/>
		</g>
		<rect x="225.1" y="2418.7" class="st0" width="71.1" height="71.1"/>
		
			<rect x="888" y="3098.6" transform="matrix(0.7071 0.7071 -0.7071 0.7071 2489.8674 263.587)" class="st0" width="77.4" height="77.4"/>
		
			<rect x="1246.5" y="3060" transform="matrix(0.7071 0.7071 -0.7071 0.7071 2567.5173 -1.1673)" class="st0" width="77.4" height="77.4"/>
		<rect x="1089.9" y="2194.1" class="st0" width="29.9" height="85.4"/>
		<rect x="1354.7" y="1332.3" class="st0" width="38.3" height="38.3"/>
		
			<rect x="446.4" y="1018.6" transform="matrix(0.7071 -0.7071 0.7071 0.7071 -602.4958 645.3521)" class="st0" width="62.6" height="62.6"/>
	</g>
	<g>
		<g>
			<polygon class="Blocks" points="1541.8,3326.7 1541.8,3221.4 1513.9,3221.4 1450.8,3158.3 1430.9,3158.3 1343.9,3071.3 
				1300.5,3114.8 1300.5,3197.8 1341.2,3157.1 1378.2,3157.1 1379.3,3158.3 1342.4,3158.3 1240.4,3261.7 1169.4,3261.7 
				1153.4,3261.7 1147,3268.1 1117.8,3238.8 1127.2,3229.4 1127.2,3206.1 1127.2,3177.5 1079.3,3129.5 1050.5,3100.8 1018.3,3068.6 
				893.7,3193.3 893.7,3206.1 893.2,3206.1 893.2,3453.7 1169.4,3453.7 1169.4,3766.1 1322.8,3766.1 1322.8,3819.1 1851.5,3819.1 
				1851.5,3326.7 			"/>
			<polygon class="Blocks" points="981.5,2870.6 981.5,2879.1 1019,2916.6 1058.1,2955.7 1097.6,2995.2 1139.2,3036.8 
				1182.1,3079.7 1183.5,3081.1 1257.5,3081.1 1305.4,3033.3 1250.3,2979 1223.4,2952.6 1181.5,2911.3 1169.4,2899.4 1169.4,2805.2 
				1169.4,2603.3 1153.2,2603.3 1153.2,2557.8 1153.2,2518.1 1153.2,2474.6 1153.2,2430.7 1138.5,2430.7 1138.5,2408.2 1138.5,2380 
				1138.5,2351.7 1138.5,2328.7 1138.5,2255 994.7,2255 994.7,2273.3 952.3,2315.6 952.3,2328.7 952.3,2351.7 952.3,2380 
				952.3,2408.2 952.3,2474.6 952.3,2518.1 952.3,2557.8 952.3,2603.3 952.3,2614.3 981.5,2670.3 981.5,2805.2 			"/>
			<polygon class="Blocks" points="952.3,2998.3 852.5,2998.3 876.8,2974.1 876.8,2810.2 862.9,2796.3 651.6,2796.3 651,2796.3 
				651,2681.8 651.6,2681.8 852.4,2681.8 852.4,2533.8 852.4,2433.3 852.4,2373.7 852.4,2316.7 815.3,2279.5 783.4,2279.5 
				783.4,2303.6 770.8,2303.6 757.8,2303.6 757.8,2279.5 657.8,2279.5 494.1,2279.5 459.6,2319.8 459.6,2474.6 179.2,2474.6 
				179.2,3071.3 588.8,3071.3 588.8,3138.4 612,3161.6 676.5,3097.2 660.5,3081.1 651.6,3081.1 651.6,3066 779.5,3066 869.6,3156.1 
				989,3036.8 			"/>
			<polygon class="Blocks" points="1369.2,1346.9 1268.5,1246.2 1252.8,1261.9 1252.8,1288.3 1229.4,1311.7 1199.1,1342.1 
				1162.6,1342.1 1112.6,1392.1 1062.1,1442.6 1018.7,1486 981.6,1523.1 981.6,1528.4 981.6,1628.8 981.6,1684.3 981.6,1761.7 
				954.4,1802 954.4,2034.2 954.4,2131.7 954.4,2150.3 993.4,2189.3 993.4,2202.1 1138.5,2202.1 1138.5,2131.7 1138.5,2034.2 
				1153.2,2034.2 1153.2,1862.7 1167.8,1862.7 1167.8,1684.3 1167.8,1628.8 1167.8,1548.3 1218.3,1497.8 1286.6,1429.5 
				1316.9,1399.2 			"/>
			<polygon class="Blocks" points="770.8,2131.7 770.8,2176 822.8,2176 848.9,2149.8 848.9,2131.7 848.9,2087.4 848.9,2034.2 
				848.9,1994.6 770.8,1994.6 714.3,1994.6 492.2,1994.6 473.7,2125.8 469.9,2153 547.3,2187.8 569.6,2187.8 685.4,2187.8 
				752,2187.8 752,2176 752.7,2176 752.7,2068.6 714.3,2068.6 714.3,2034.2 770.8,2034.2 770.8,2087.4 			"/>
			<path class="Blocks" d="M232.1,1634.8h11.9l2.8-24.4h13.1h25.3l-4.5,41.8l-5.2,48.4l-1.2,10.9l-10.1,94.1l43.9,4.9l-6.9,70.9
				l-11.3,116h-19.5v36.8h5.6v34.3l-11.2,78.1l-3.4,23.7l5.6,5.6l-9.6,48.8l-7.8,39.8l-24.4,123.4v30.7h111.6l31.7-154.1l12.8-62.4
				l11.4-55.4l30.7-149.2l10.3-50.2c-11.7-9.6-19.2-24.2-19.2-40.5c0-6.1,1.1-11.9,3-17.4c5.4-15.2,17.5-27.2,32.9-32.3l6.5-74.2
				l4.6-52.4l33.5-381.7l4.7-53.1l6.2-70.3l2.5-28l2.4-4.6c-0.8-3.6-1.3-7.4-1.3-11.3c0-17.5,8.7-32.9,22-42.3l-9.1-21.3
				l-104.6-104.6l-91.4,91.4l35.6,3.5v24.4h23l-7.7,66.3l-44.6-3.5l-8.3,84.1l-17.5-1.8l-4.9,57.9l-43.2,10.5l-23.7,129.7l-9.8,2.8
				l-4.2,74.6l8.4,1.4L232.1,1634.8z M364.6,1347.4l-10.6,66.2l2.9-17.9L364.6,1347.4z M363.2,1338.1l43.2,4.1l50.7,4.8
				L363.2,1338.1z"/>
			<path class="Blocks" d="M848.9,1872.6v-77.4l27.4-27.4v-27V1648v-24.4l-29.7-29.7H767h-92.8H608l-32,32c-0.1,1.4-0.2,2.7-0.3,4.1
				c-1,19.2-3.9,38.4-8,58.1c-3.9,18.4-8.9,37.1-14.5,56.4c-3.7,12.7-7.8,25.7-12,39c-7.3,23-15,46.9-22.7,72.2
				c-1.8,6-3.6,12.1-5.4,18.3c13.9,25.1,7.7,58.6-11.2,73.9l-7,27.2h179.3h174.7V1872.6z"/>
			<path class="Blocks" d="M876.3,1406.7l73.4,2.8l4.9-4.9l132.5-133.8v-39.1l-91.5-90.8l-2-2l-126.9-71.1l-256,133.2
				c-4.2,18.1-26.5,32.8-35,35.6l8.8,71.8l0.4,3.4l1,46.6l0.9,44.2l0.8,35.7l0.8,36.8l20.4,20.4l20.8,20.8h55.1h191.6V1406.7z"/>
			<polygon class="Blocks" points="571,1134.7 598.9,1115.5 646.1,1082.9 702.2,1044.1 743.9,1015.3 764.9,1000.8 782.4,974.5 
				814.8,925.8 845.1,880.2 854,832.2 819.1,797.3 752.7,863.8 712.2,904.3 672.5,944 610.7,882.2 580.1,851.6 497.4,934.2 
				438.5,993.1 486.1,1044 			"/>
			<polygon class="Blocks" points="944.1,857.1 889,953.4 904.4,1003.6 976.9,1044.1 1034.2,1078.5 1089.4,1134.7 1137.3,1182.8 
				1165.9,1182.8 1207.8,1140.9 1176.8,1110.1 1393.4,1325 1373.1,1345.3 1399.6,1370.6 1693.9,1076.8 1266.7,630.1 1290.4,606.4 
				1105.2,421.2 799.8,716.3 1007.6,919.1 			"/>
		</g>
		<rect x="225.1" y="2418.7" class="Blocks" width="71.1" height="71.1"/>
		
			<rect x="888" y="3098.6" transform="matrix(0.7071 0.7071 -0.7071 0.7071 2489.8674 263.587)" class="Blocks" width="77.4" height="77.4"/>
		
			<rect x="1246.5" y="3060" transform="matrix(0.7071 0.7071 -0.7071 0.7071 2567.5173 -1.1673)" class="Blocks" width="77.4" height="77.4"/>
		<rect x="1089.9" y="2194.1" class="Blocks" width="29.9" height="85.4"/>
		<rect x="1354.7" y="1332.3" class="Blocks" width="38.3" height="38.3"/>
		
			<rect x="446.4" y="1018.6" transform="matrix(0.7071 -0.7071 0.7071 0.7071 -602.4958 645.3521)" class="Blocks" width="62.6" height="62.6"/>
	</g>
</g>
<g id="Holes">
	<g>
		<polygon class="Holes" points="1154.2,3190.5 1191.9,3228.1 1201.6,3218.4 1211.6,3228.5 1271.5,3168.6 1261.6,3158.7 
			1272,3148.3 1262.3,3138.6 1273.3,3127.7 1254.7,3109.1 1244.2,3119.6 1233.5,3108.8 1222.7,3119.6 1212.9,3109.7 1153.1,3169.5 
			1163.4,3179.7 		"/>
		<polygon class="Holes" points="1122.6,3137.1 1162.1,3097.6 1021,2956.5 981.6,2995.9 		"/>
		<polygon class="Holes" points="977.7,2917.4 970.3,2924.9 982,2936.6 973.5,2945.1 981.6,2953.3 959,2975.9 902.4,2975.9 
			902.4,2836.1 959.9,2836.1 959.9,2896.8 		"/>
		<polygon class="Holes" points="899.8,2806.8 957.6,2806.8 957.6,2720.5 944.5,2720.5 944.5,2705.6 928.7,2705.6 928.7,2691.5 
			899.8,2691.5 		"/>
		<rect x="759.3" y="2726.8" class="Holes" width="52.8" height="48.6"/>
		<polygon class="Holes" points="871.5,2517 928.7,2517 928.7,2660.1 901.6,2660.1 901.6,2646.7 886.2,2646.7 886.2,2632.9 
			871.5,2632.9 		"/>
		<rect x="871.5" y="2374.5" class="Holes" width="59.4" height="113.2"/>
		<polygon class="Holes" points="873.1,2335 930.9,2335 930.9,2288.4 944.5,2288.4 944.5,2273.5 958.1,2273.5 958.1,2259.1 
			978.5,2259.1 978.5,2205.5 958.1,2205.5 958.1,2190.4 945,2190.4 945,2177 930.9,2177 930.9,2129.2 873.1,2129.2 873.1,2175.4 
			859,2175.4 859,2189.3 846.4,2189.3 846.4,2204.5 826,2204.5 826,2259.4 845.9,2259.4 845.9,2273 858.7,2273 858.7,2286.9 
			873.4,2286.9 		"/>
		<rect x="629.1" y="2205.3" class="Holes" width="112.7" height="54.7"/>
		<rect x="476.9" y="2210.2" class="Holes" width="112.7" height="45.2"/>
		<rect x="873.9" y="1975.6" class="Holes" width="57" height="111.7"/>
		<polygon class="Holes" points="901.6,1600.1 958.6,1600.1 958.6,1745.5 944.8,1745.5 944.8,1758.3 930.1,1758.3 930.1,1772.7 
			901.6,1772.7 		"/>
		<rect x="632" y="1538.3" class="Holes" width="104.9" height="33.2"/>
		<rect x="759.1" y="1538.3" class="Holes" width="91.8" height="35"/>
		<polygon class="Holes" points="901.6,1430.9 958.6,1430.9 970.5,1419 982.9,1431.4 993.5,1420.8 1007,1434.3 995.6,1445.6 
			1007.9,1457.9 958.5,1507.4 958.5,1571.6 901.6,1571.6 		"/>
		<polygon class="Holes" points="1001.2,1388.2 1041.1,1428.1 1132.8,1336.4 1093.3,1297 		"/>
		<polygon class="Holes" points="1114.7,1277.1 1154.2,1316.6 1163.8,1307 1175.9,1319.2 1182.1,1313 1188.5,1319.4 1226.7,1281.3 
			1220.1,1274.7 1227.7,1267.1 1215.2,1254.6 1224.6,1245.2 1185.8,1206.3 1177,1215.1 1165.5,1203.6 1158.6,1210.5 1151.6,1203.6 
			1114.2,1241 1121.5,1248.3 1114.2,1255.6 1124.2,1265.6 		"/>
		<polygon class="Holes" points="1102.5,1175.3 1023.6,1096.5 1003.9,1116.2 1083.5,1195.9 		"/>
		<path class="Holes" d="M991.6,1073.6"/>
		<polygon class="Holes" points="893,1018.9 991.6,1073.6 975.4,1102.9 876.5,1048 		"/>
		<polygon class="Holes" points="873.6,936.8 911.8,870.4 894.8,860.4 856.6,927.1 		"/>
		<polygon class="Holes" points="840.4,944.9 876.5,984.7 851.4,1033.6 786.8,1009 		"/>
		<polygon class="Holes" points="759.6,1029.1 826.5,1065.5 722.7,1119.6 698.9,1073.6 		"/>
		<polygon class="Holes" points="674.3,1089.8 697.1,1131.9 614.7,1176.1 599,1141.3 		"/>
		<circle class="Holes" cx="557.6" cy="1180.6" r="26"/>
		<path class="Holes" d="M528.1,1225.4l26.7,8.2c0,0,9.4,68.5,12.4,106.2c3,37.7,1.2,112.5,1.2,112.5l-43.2-47.8v-26.5h-11.7
			L528.1,1225.4z"/>
		<polygon class="Holes" points="513.5,1448.6 548.7,1467.9 592.6,1514.5 592.6,1527.9 586,1527.9 586,1574.8 541,1619.8 
			502.5,1628.5 507,1539.2 523.2,1539.2 523.2,1516.7 513.3,1516.7 		"/>
		<path class="Holes" d="M553.6,1634.1c-1,18.8-41.5,202.6-48.5,207.1l-30.3-7.3l11.2-138.1L553.6,1634.1z"/>
		<circle class="Holes" cx="467.8" cy="1907.1" r="27.2"/>
		<polygon class="Holes" points="449.3,1969.9 472.7,1973.7 464,2031.5 438.5,2026.7 		"/>
		<polygon class="Holes" points="432.9,2051.8 460.8,2056 450,2148.1 413.7,2141.4 		"/>
		<polygon class="Holes" points="407.1,2173.2 445.8,2173.2 429.8,2292.1 383.4,2289.7 		"/>
		<polygon class="Holes" points="378.5,2318.6 427.7,2318.6 427.7,2432.3 362.8,2432.3 362.8,2375.4 		"/>
	</g>
</g>
<g id="Units_1_">
	<g>
		<polygon class="Units" points="1169.4,3333.7 1169.4,3766.1 1322.8,3766.1 1322.8,3819.1 1851.5,3819.1 1851.5,3326.7 
			1541.8,3326.7 1541.8,3221.4 1513.9,3221.4 1450.8,3158.3 1342.4,3158.3 		"/>
		<polygon class="Units" points="1345.2,3123.8 1309.5,3123.8 1300.5,3114.8 1343.9,3071.3 1430.9,3158.3 1379.3,3158.3 		"/>
		<polygon class="Units" points="1300.5,3114.8 1300.5,3197.8 1341.2,3157.1 1379.3,3157.1 1345.6,3123.4 1309.5,3123.4 		"/>
		<polyline class="Units" points="1240.4,3261.7 1169.4,3261.7 1169.4,3333.7 		"/>
		<polygon class="Units" points="1169.4,3261.7 1153.4,3261.7 1147,3268.1 1117.8,3238.8 1127.2,3229.4 1127.2,3206.1 893.2,3206.1 
			893.2,3453.7 1169.4,3453.7 		"/>
		<polygon class="Units" points="1127.2,3177.5 1079.3,3129.5 1002.7,3206.1 1127.2,3206.1 		"/>
		<polygon class="Units" points="1050.5,3100.8 1018.3,3068.6 893.7,3193.3 893.7,3206.1 972.2,3206.1 972.2,3179.1 		"/>
		<polygon class="Units" points="1050.5,3100.8 972.2,3179.1 972.2,3206.1 1002.7,3206.1 1079.3,3129.5 		"/>
		<polygon class="Units" points="1153.2,2430.7 1138.5,2430.7 1138.5,2408.2 952.3,2408.2 952.3,2474.6 1153.2,2474.6 		"/>
		<rect x="952.3" y="2557.8" class="Units" width="200.9" height="45.5"/>
		<rect x="952.3" y="2518.1" class="Units" width="200.9" height="39.8"/>
		<rect x="952.3" y="2474.6" class="Units" width="200.9" height="43.4"/>
		<rect x="952.3" y="2380" class="Units" width="186.2" height="28.2"/>
		<rect x="952.3" y="2328.7" class="Units" width="186.2" height="23"/>
		<rect x="952.3" y="2351.7" class="Units" width="186.2" height="28.2"/>
		<polygon class="Units" points="1138.5,2255 994.7,2255 994.7,2273.3 952.3,2315.6 952.3,2328.7 1138.5,2328.7 		"/>
		<polygon class="Units" points="1214.7,3014.7 1250.3,2979 1223.4,2952.6 1139.2,3036.8 1182.1,3079.7 1230.9,3030.9 		"/>
		<polygon class="Units" points="1181.5,2911.3 1097.6,2995.2 1139.2,3036.8 1223.4,2952.6 		"/>
		<polygon class="Units" points="1250.3,2979 1214.7,3014.7 1230.9,3030.9 1182.1,3079.7 1183.5,3081.1 1257.5,3081.1 
			1305.4,3033.3 		"/>
		<polygon class="Units" points="1169.4,2899.4 1169.4,2805.2 981.5,2805.2 981.5,2870.6 1065,2870.6 1113.4,2870.6 1113.4,2899.4 
			1113.4,2870.6 1065,2870.6 1019,2916.6 1058.1,2955.7 1114.5,2899.4 		"/>
		<polygon class="Units" points="981.5,2870.6 981.5,2879.1 1019,2916.6 1065,2870.6 		"/>
		<polygon class="Units" points="1169.4,2899.4 1114.5,2899.4 1058.1,2955.7 1097.6,2995.2 1181.5,2911.3 		"/>
		<polygon class="Units" points="1169.4,2603.3 1153.2,2603.3 952.3,2603.3 952.3,2614.3 981.5,2670.3 981.5,2805.2 1169.4,2805.2 
					"/>
		<polygon class="Units" points="852.4,2373.7 852.4,2316.7 815.3,2279.5 783.4,2279.5 783.4,2303.6 770.8,2303.6 770.8,2373.7 		
			"/>
		<polygon class="Units" points="702.8,2408.2 702.8,2451.4 770.8,2451.4 770.8,2433.3 770.8,2373.7 770.8,2303.6 757.8,2303.6 
			757.8,2279.5 657.8,2279.5 657.8,2408.2 		"/>
		<polygon class="Units" points="770.8,2451.4 702.8,2451.4 702.8,2496.4 651.6,2496.4 651.6,2533.8 852.4,2533.8 852.4,2433.3 
			770.8,2433.3 		"/>
		<rect x="651.6" y="2533.8" class="Units" width="200.9" height="148"/>
		<rect x="770.8" y="2373.7" class="Units" width="81.6" height="59.6"/>
		<path class="Units" d="M651,2796.3v-114.6h0.5v-148v-37.4v-21.7h-192H179.2v596.6h409.6v67.1l23.2,23.2l64.5-64.5l-16-16h-8.9
			V3066v-269.6H651z M553.2,2835h-88.9v-174.7h88.9V2835z"/>
		<polygon class="Units" points="952.3,2998.3 852.5,2998.3 876.8,2974.1 876.8,2810.2 862.9,2796.3 651.6,2796.3 651.6,3066 
			779.5,3066 869.6,3156.1 989,3036.8 		"/>
		<polygon class="Units" points="651.6,2496.4 702.8,2496.4 702.8,2451.4 702.8,2408.2 657.8,2408.2 657.8,2279.5 494.1,2279.5 
			459.6,2319.8 459.6,2474.6 651.6,2474.6 		"/>
		<rect x="464.3" y="2660.3" class="Units" width="88.9" height="174.7"/>
		
			<rect x="1236.6" y="1308.8" transform="matrix(0.7071 -0.7071 0.7071 0.7071 -600.7273 1290.9941)" class="Units" width="42.9" height="123.7"/>
		<polygon class="Units" points="1148,1528.4 1062.1,1442.6 1018.7,1486 1061.1,1528.4 		"/>
		<path class="Units" d="M981.6,1684.3h186.3v-55.4c-38.3,0-160.9,0-186.3,0V1684.3z"/>
		<polygon class="Units" points="954.4,2150.3 993.4,2189.3 993.4,2202.1 1138.5,2202.1 1138.5,2131.7 954.4,2131.7 		"/>
		<rect x="954.4" y="2034.2" class="Units" width="184.1" height="97.5"/>
		<polygon class="Units" points="981.6,1761.7 954.4,1802 954.4,2034.2 1138.5,2034.2 1153.2,2034.2 1153.2,1862.7 1167.8,1862.7 
			1167.8,1684.3 981.6,1684.3 		"/>
		<polygon class="Units" points="1018.7,1486 981.6,1523.1 981.6,1528.4 1061.1,1528.4 		"/>
		<polygon class="Units" points="1162.6,1342.1 1112.6,1392.1 1218.3,1497.8 1286.6,1429.5 1199.1,1342.1 		"/>
		<polygon class="Units" points="1369.2,1346.9 1268.5,1246.2 1252.8,1261.9 1252.8,1288.3 1229.4,1311.7 1316.9,1399.2 		"/>
		<polygon class="Units" points="1062.1,1442.6 1148,1528.4 1167.8,1548.3 1218.3,1497.8 1112.6,1392.1 		"/>
		<path class="Units" d="M1061.1,1528.4h-79.6v100.4c25.4,0,148,0,186.3,0v-80.6l-19.9-19.9H1061.1z"/>
		<rect x="770.8" y="1994.6" class="Units" width="78.1" height="39.6"/>
		<rect x="714.3" y="1994.6" class="Units" width="56.5" height="39.6"/>
		<rect x="770.8" y="2087.4" class="Units" width="78.1" height="44.3"/>
		<polygon class="Units" points="473.7,2125.8 469.9,2153 547.3,2187.8 569.6,2187.8 569.6,2125.8 		"/>
		<rect x="770.8" y="2034.2" class="Units" width="78.1" height="53.2"/>
		<polygon class="Units" points="770.8,2176 822.8,2176 848.9,2149.8 848.9,2131.7 770.8,2131.7 		"/>
		<polygon class="Units" points="714.3,2097.9 714.3,2034.2 714.3,1994.6 492.2,1994.6 473.7,2125.8 569.6,2125.8 569.6,2187.8 
			685.4,2187.8 685.4,2097.9 		"/>
		<polygon class="Units" points="752.7,2068.6 714.3,2068.6 714.3,2097.9 685.4,2097.9 685.4,2187.8 752,2187.8 752,2176 
			752.7,2176 		"/>
		<polygon class="Units" points="294.8,1485.5 341.6,1491.1 350.9,1433 292.6,1426 		"/>
		<polygon class="Units" points="286.5,1562.9 294.8,1485.5 292.6,1426 292.6,1426 291.3,1392.1 292,1376 299,1376 301.8,1335.6 
			258.6,1346 234.9,1475.8 225.1,1478.5 220.9,1553.2 229.3,1554.6 232.1,1634.8 243.9,1634.8 246.7,1610.4 259.8,1610.4 
			263.5,1560.8 		"/>
		<polygon class="Units" points="350.9,1433 356.8,1395.7 306.7,1392.1 291.3,1392.1 292.6,1426 		"/>
		<polygon class="Units" points="333.2,1560.1 319.9,1560.1 319.9,1568.5 286.5,1562.9 263.5,1560.8 259.8,1610.4 285.1,1610.4 
			333.2,1610.4 		"/>
		<polygon class="Units" points="333.2,1610.4 285.1,1610.4 280.6,1652.1 333.2,1659 		"/>
		<polygon class="Units" points="364.6,1347.4 314,1342.1 306.7,1392.1 356.8,1395.7 		"/>
		<polygon class="Units" points="292,2224.8 257.3,2224.8 249.5,2264.5 368.4,2264.5 381.2,2202.1 297.6,2202.1 		"/>
		<polygon class="Units" points="261.4,2170.4 266.9,2176 257.3,2224.8 292,2224.8 297.6,2202.1 381.2,2202.1 392.6,2146.7 
			264.8,2146.7 		"/>
		<polygon class="Units" points="368.9,1773.8 376.1,1722.2 339.3,1718.6 326.2,1731.7 319.9,1731.7 326.2,1769.4 		"/>
		<polygon class="Units" points="225.1,2387.9 225.1,2418.7 336.7,2418.7 368.4,2264.5 249.5,2264.5 		"/>
		<polygon class="Units" points="270.4,1997.4 270.4,2034.2 276,2034.2 276,2068.6 264.8,2146.7 392.6,2146.7 423.3,1997.4 
			290,1997.4 		"/>
		<polygon class="Units" points="457.1,1346.9 461.3,1292.2 412.5,1287.8 406.4,1342.2 		"/>
		<polygon class="Units" points="333.2,1659 280.6,1652.1 275.4,1700.6 333.2,1705.2 		"/>
		<polygon class="Units" points="457.1,1346.9 495,1348.9 499.6,1295.7 461.3,1292.2 		"/>
		<polygon class="Units" points="457.1,1346.9 363.2,1338.1 363.2,1317.4 340.2,1317.4 342.2,1281.4 306.7,1277.7 301.8,1335.6 
			299,1376 292,1376 291.3,1392.1 306.7,1392.1 314,1342.1 364.6,1347.4 341.6,1491.1 294.8,1485.5 286.5,1562.9 319.9,1568.5 
			319.9,1560.1 333.2,1560.1 333.2,1610.4 333.2,1610.4 333.2,1659 333.2,1659 333.2,1705.2 275.4,1700.6 274.2,1711.5 308.8,1716 
			308.8,1731.7 319.9,1731.7 326.2,1731.7 339.3,1718.6 376.1,1722.2 376.1,1722.2 461.4,1730.5 495,1348.9 457.1,1346.9 		"/>
		<path class="Units" d="M531.3,1139.3l-9.1-21.3l-104.6-104.6l-91.4,91.4l35.6,3.5v24.4h23l-7.7,66.3l-6.3,15.3l134.9,11.2l2.5-28
			l2.4-4.6c-0.8-3.6-1.3-7.4-1.3-11.3C509.4,1164.1,518.1,1148.7,531.3,1139.3z"/>
		<polygon class="Units" points="377.1,1198.9 332.5,1195.4 324.1,1279.8 412.5,1287.8 412.5,1287.8 461.3,1292.2 461.3,1292.2 
			499.6,1295.7 505.8,1225.5 370.9,1214.2 		"/>
		<polygon class="Units" points="326.2,1769.4 319.9,1731.7 308.8,1731.7 308.8,1716 274.2,1711.5 264.1,1805.6 308.1,1810.5 
			318.5,1812.6 		"/>
		<path class="Units" d="M402.3,1777.3l-33.5-3.5l0,0l-42.6-4.4l-7.7,43.2l-10.5-2.1l-6.9,70.9l116.2,7.9
			c5.4-15.2,17.5-27.2,32.9-32.3l6.5-74.2L402.3,1777.3L402.3,1777.3z"/>
		<path class="Units" d="M414.4,1906.8c0-6.1,1.1-11.9,3-17.4l-116.2-7.9l-11.3,116h133.3l10.3-50.2
			C421.9,1937.7,414.4,1923.1,414.4,1906.8z"/>
		<polygon class="Units" points="376.1,1722.2 368.9,1773.8 402.3,1777.3 405,1762.1 418.6,1762.1 422.4,1726.7 		"/>
		<polygon class="Units" points="422.4,1726.7 461.4,1730.5 456.8,1783 402.3,1777.3 405,1762.1 418.6,1762.1 		"/>
		<polygon class="Units" points="342.2,1281.4 412.5,1287.8 406.4,1342.2 363.2,1338.1 363.2,1317.4 340.2,1317.4 		"/>
		<path class="Units" d="M674.2,1648v-7.7l-98.5-10.4c-1,19.2-3.9,38.4-8,58.1l106.5,11.3V1648z"/>
		<polygon class="Units" points="876.3,1648 876.3,1623.6 846.6,1593.9 767,1593.9 767,1648 		"/>
		<path class="Units" d="M674.2,1593.9H608l-32,32c-0.1,1.4-0.2,2.7-0.3,4.1l98.5,10.4V1593.9z"/>
		<polygon class="Units" points="674.2,1648 767,1648 767,1593.9 674.2,1593.9 674.2,1640.3 		"/>
		<path class="Units" d="M674.2,1740.8v-41.4l-106.5-11.3c-3.9,18.4-8.9,37.1-14.5,56.4l121,12.8V1740.8z"/>
		<rect x="674.2" y="1872.6" class="Units" width="174.7" height="102.5"/>
		<polygon class="Units" points="674.2,1757.3 674.2,1797.5 674.2,1872.6 848.9,1872.6 848.9,1795.2 876.3,1767.8 876.3,1740.8 
			674.2,1740.8 		"/>
		<path class="Units" d="M674.2,1757.3l-121-12.8c-3.7,12.7-7.8,25.7-12,39l133,14.1V1757.3z"/>
		<polygon class="Units" points="767,1648 674.2,1648 674.2,1699.3 674.2,1740.8 876.3,1740.8 876.3,1648 		"/>
		<path class="Units" d="M674.2,1797.5l-133-14.1c-7.3,23-15,46.9-22.7,72.2l155.7,16.9V1797.5z"/>
		<path class="Units" d="M518.6,1855.7c-1.8,6-3.6,12.1-5.4,18.3c13.9,25.1,7.7,58.6-11.2,73.9l-7,27.2h179.3v-102.5L518.6,1855.7z"
			/>
		<polygon class="Units" points="684.7,1450.3 684.7,1414.8 586.9,1402.6 587.7,1438.3 658.3,1447 		"/>
		<polygon class="Units" points="1087.1,1231.7 995.6,1140.9 841.3,1292.2 954.6,1404.6 1087.1,1270.7 		"/>
		<polygon class="Units" points="684.7,1370.6 586,1358.3 586.9,1402.6 684.7,1414.8 		"/>
		<path class="Units" d="M824.9,1308.4l16.4-16.1l0,0l0,0l154.3-151.4l-2-2l-126.9-71.1l-256,133.2c-4.2,18.1-26.5,32.8-35,35.6
			l8.8,71.8h100.1H824.9z"/>
		<polygon class="Units" points="684.7,1308.4 584.6,1308.4 585,1311.7 586,1358.3 684.7,1370.6 		"/>
		<polygon class="Units" points="824.9,1308.4 684.7,1308.4 684.7,1370.6 684.7,1414.8 684.7,1450.3 684.7,1516.2 876.3,1516.2 
			876.3,1406.7 949.7,1409.5 954.6,1404.6 841.3,1292.2 		"/>
		<polygon class="Units" points="587.7,1438.3 588.5,1475.1 608.8,1495.4 658.3,1447 		"/>
		<polygon class="Units" points="658.3,1447 608.8,1495.4 629.6,1516.2 684.7,1516.2 684.7,1450.3 		"/>
		<polygon class="Units" points="438.5,993.1 486.1,1044 506.7,1023.3 598.9,1115.5 646.1,1082.9 497.4,934.2 		"/>
		<polygon class="Units" points="610.7,882.2 580.1,851.6 497.4,934.2 646.1,1082.9 702.2,1044.1 575.5,917.4 		"/>
		<polygon class="Units" points="486.1,1044 571,1134.7 598.9,1115.5 506.7,1023.3 		"/>
		<polygon class="Units" points="854,832.2 819.1,797.3 752.7,863.8 814.8,925.8 845.1,880.2 		"/>
		<polygon class="Units" points="712.2,904.3 782.4,974.5 814.8,925.8 752.7,863.8 		"/>
		<polygon class="Units" points="610.7,882.2 575.5,917.4 702.2,1044.1 743.9,1015.3 672.5,944 		"/>
		<polygon class="Units" points="672.5,944 743.9,1015.3 764.9,1000.8 782.4,974.5 712.2,904.3 		"/>
		<polygon class="Units" points="1105.2,421.2 1290.4,606.4 1266.7,630.1 1693.9,1076.8 1399.6,1370.6 1373.1,1345.3 1393.4,1325 
			995.6,930.4 1007.6,919.1 799.8,716.3 		"/>
		<polygon class="Units" points="944.1,857.1 889,953.4 904.4,1003.6 976.9,1044.1 1025.3,959.8 995.6,930.4 1007.6,919.1 		"/>
		<polygon class="Units" points="1025.3,959.8 1089.4,1023.3 1034.2,1078.5 976.9,1044.1 		"/>
		<polygon class="Units" points="1034.2,1078.5 1089.4,1134.7 1144.9,1078.5 1089.4,1023.3 		"/>
		<polygon class="Units" points="1144.9,1078.5 1207.8,1140.9 1165.9,1182.8 1137.3,1182.8 1089.4,1134.7 		"/>
	</g>
</g>
<g id="Amenities_1_">
	<g>
		<polygon class="Amenities" points="1115,1194 1174.3,1251.9 1161.4,1264.8 1103.5,1206.9 		"/>
		<polygon class="Amenities" points="391.8,1469.5 464.3,1461.8 467.8,1488.3 397.4,1498.1 		"/>
		<rect x="757.2" y="2280.9" class="Amenities" width="26.5" height="22.3"/>
		<rect x="247.4" y="2451.4" class="Amenities" width="74.6" height="23.8"/>
		<rect x="760.7" y="2680.9" class="Amenities" width="74.6" height="24.4"/>
		
			<rect x="1142.3" y="3196.4" transform="matrix(-0.7071 0.7071 -0.7071 -0.7071 4275.6963 4638.9946)" class="Amenities" width="69.5" height="17.3"/>
		<polygon class="Amenities" points="883.3,922.2 904.2,885 921,896 902.1,933.2 		"/>
		<polygon class="Amenities" points="326.2,1769.4 319.9,1731.7 308.8,1731.7 308.8,1716 274.2,1711.5 264.1,1805.6 308.1,1810.5 
			318.5,1812.6 		"/>
	</g>
</g>
<g id="Anchor_x5F_Stores_1_">
	<g class="st1">
		<polygon class="st2" points="1169.4,3333.7 1169.4,3766.1 1322.8,3766.1 1322.8,3819.1 1851.5,3819.1 1851.5,3326.7 
			1541.8,3326.7 1541.8,3221.4 1513.9,3221.4 1450.8,3158.3 1342.4,3158.3 		"/>
		<path class="st2" d="M651,2796.3v-114.6h0.5v-148v-37.4v-21.7h-192H179.2v596.6h409.6v67.1l23.2,23.2l64.5-64.5l-16-16h-8.9V3066
			v-269.6H651z M553.2,2835h-88.9v-174.7h88.9V2835z"/>
		<polygon class="st2" points="1105.2,421.2 1290.4,606.4 1266.7,630.1 1693.9,1076.8 1399.6,1370.6 1373.1,1345.3 1393.4,1325 
			995.6,930.4 1007.6,919.1 799.8,716.3 		"/>
	</g>
</g>
</svg>
