<?xml version="1.0" standalone="no"?>
<!DOCTYPE svg PUBLIC "-//W3C//DTD SVG 1.1//EN" "http://www.w3.org/Graphics/SVG/1.1/DTD/svg11.dtd">
<svg xmlns="http://www.w3.org/2000/svg">
<metadata>Generated by Fontastic.me</metadata>
<defs>
<font id="wf-icons" horiz-adv-x="512">
<font-face font-family="wf-icons" units-per-em="512" ascent="480" descent="-32"/>
<missing-glyph horiz-adv-x="512" />

<glyph unicode="&#106;" d="M395 260l-135 0 0 135c0 3-3 6-6 6-3 0-6-3-6-6l0-135-135 0c-4 0-6-3-6-6 0-3 2-6 6-6l135 0 0-135c0-4 3-6 6-6 3 0 6 2 6 6l0 135 135 0c3 0 6 3 6 6 0 3-3 6-6 6z m-139 244c-137 0-248-111-248-248 0-137 111-248 248-248 137 0 248 111 248 248 0 137-111 248-248 248z m0-485c-131 0-237 107-237 237 0 131 106 237 237 237 131 0 237-106 237-237 0-130-106-237-237-237z"/>
<glyph unicode="&#107;" d="M198 337l-65 0c-3 0-5-3-5-6l0-170c0-3 2-6 5-6l65 0c3 0 6 3 6 6l0 170c0 3-3 6-6 6z m-5-170l-54 0 0 158 54 0z m95 129l-64 0c-4 0-6-2-6-5l0-130c0-3 2-6 6-6l64 0c4 0 6 3 6 6l0 130c0 3-2 5-6 5z m-5-129l-54 0 0 118 54 0z m96 217l-65 0c-3 0-6-3-6-6l0-217c0-3 3-6 6-6l65 0c3 0 5 3 5 6l0 217c0 3-2 6-5 6z m-6-217l-54 0 0 206 54 0z m-117 337c-137 0-248-111-248-248 0-137 111-248 248-248 137 0 248 111 248 248 0 137-111 248-248 248z m0-485c-131 0-237 107-237 237 0 131 106 237 237 237 131 0 237-106 237-237 0-130-106-237-237-237z"/>
<glyph unicode="&#108;" d="M299 398c-2 2-6 2-8 0l-119-142c-2-2-2-5 0-7l119-141c1-2 3-2 4-2 2 0 3 0 4 1 2 2 3 5 1 8l-116 138 116 137c2 3 1 6-1 8z m-43 106c-137 0-248-111-248-248 0-137 111-248 248-248 137 0 248 111 248 248 0 137-111 248-248 248z m0-485c-131 0-237 107-237 237 0 131 106 237 237 237 131 0 237-106 237-237 0-130-106-237-237-237z"/>
<glyph unicode="&#109;" d="M178 305c-15 0-27-12-27-27 0-14 12-26 27-26 15 0 27 12 27 26 0 15-12 27-27 27z m0-45c-10 0-18 8-18 18 0 10 8 18 18 18 10 0 18-8 18-18 0-10-8-18-18-18z m149 45c-15 0-27-12-27-27 0-14 12-26 27-26 15 0 27 12 27 26 0 15-12 27-27 27z m0-45c-10 0-18 8-18 18 0 10 8 18 18 18 10 0 18-8 18-18 0-10-8-18-18-18z m-75 45c-14 0-26-12-26-27 0-14 12-26 26-26 15 0 27 12 27 26 0 15-12 27-27 27z m0-45c-9 0-17 8-17 18 0 10 8 18 17 18 10 0 18-8 18-18 0-10-8-18-18-18z m4 239c-137 0-248-109-248-243 0-133 111-242 248-242 137 0 248 109 248 242 0 134-111 243-248 243z m0-474c-131 0-237 104-237 231 0 128 106 232 237 232 131 0 237-104 237-232 0-127-106-231-237-231z m86 358l-175 0c-32 0-58-26-58-58l0-93c0-32 26-58 58-58l2 0 0-49 49 49 124 0c32 0 58 26 58 58l0 93c0 32-26 58-58 58z m49-151c0-27-22-49-49-49l-128 0-36-36 0 36-11 0c-27 0-49 22-49 49l0 93c0 27 22 49 49 49l175 0c27 0 49-22 49-49z"/>
<glyph unicode="&#110;" d="M314 363l55 0c6 0 11 5 11 11l0 22c0 6-5 11-11 11l-55 0c-6 0-11-5-11-11l0-22c0-6 5-11 11-11z m55 33l0-22-54 0-1 22z m-68-91c-36 0-66-30-66-66 0-37 30-66 66-66 36 0 66 29 66 66 0 36-30 66-66 66z m0-121c-30 0-55 24-55 55 0 30 25 54 55 54 30 0 55-24 55-54 0-31-25-55-55-55z m-45 320c-137 0-248-111-248-248 0-137 111-248 248-248 137 0 248 111 248 248 0 137-111 248-248 248z m0-485c-131 0-237 107-237 237 0 131 106 237 237 237 131 0 237-106 237-237 0-130-106-237-237-237z m121 335l-246 0c-17 0-30-14-30-30l0-170c0-17 13-31 30-31l246 0c17 0 30 14 30 31l0 170c0 16-13 30-30 30z m19-200c0-11-8-19-19-19l-246 0c-10 0-19 8-19 19l0 170c0 10 9 19 19 19l246 0c11 0 19-9 19-19z"/>
<glyph unicode="&#111;" d="M235 389c-3 0-5-3-5-6l3-83c0 0 0-1 0-1 0-11-8-19-19-19l-9 0 0 103c0 3-3 6-6 6-3 0-5-3-5-6l0-103-10 0c-10 0-19 8-19 19l4 84c0 3-3 6-6 6-3 0-5-3-6-6l-3-84c0 0 0 0 0 0 0 0 0 0 0 0 0-17 13-30 30-30l10 0 0-163c0-3 2-6 5-6 3 0 6 3 6 6l0 163 9 0c16 0 29 12 30 28 1 1 1 1 1 2l-4 84c0 3-3 6-6 6z m99 5l0 0c0 0-2 0-4 0-10 0-33-2-41-20-3-7-14-119-14-128 0-15 10-19 15-19l23 0 0-102c0-11 9-19 20-19l1 0c10 0 19 8 19 19l0 250c0 10-9 19-19 19z m0-277l-1 0c-5 0-9 4-9 8l0 108c0 3-2 5-5 5l-29 0c0 0-4 1-4 8 0 12 12 117 14 124 5 12 22 13 30 13 2 0 3 0 4 0 4 0 8-4 8-8l0-250 0 0c0-4-4-8-8-8z m-78 387c-137 0-248-111-248-248 0-137 111-248 248-248 137 0 248 111 248 248 0 137-111 248-248 248z m0-485c-131 0-237 107-237 237 0 131 106 237 237 237 131 0 237-106 237-237 0-130-106-237-237-237z"/>
<glyph unicode="&#112;" d="M277 180c-3 2-6 1-8-2-17-31-31-53-37-60-17 20-84 140-84 184 0 47 38 86 85 86 48 0 86-39 86-86 0-13-6-34-18-61-1-3 0-6 3-8 3-1 6 1 7 3 13 29 19 51 19 66 0 53-43 97-97 97-53 0-96-44-96-97 0-30 26-86 42-117 10-19 42-80 53-80 8 0 30 37 47 67 2 3 1 7-2 8z m-21 324c-137 0-248-111-248-248 0-137 111-248 248-248 137 0 248 111 248 248 0 137-111 248-248 248z m0-485c-131 0-237 107-237 237 0 131 106 237 237 237 131 0 237-106 237-237 0-130-106-237-237-237z m130 317c0 0 0 0 0 0-1 1-2 2-3 2-1 0-1 0-1 0-1 0-2 0-3-1-1 0-1 0-1 0-1 0-1-1-1-1l-35-46c-2-3-1-6 1-8 3-2 6-1 8 1l25 33 0-104-135 0c-3 0-6-2-6-5 0-3 3-6 6-6l140 0c4 0 6 3 6 6l0 108 23-33c2-3 6-3 8-1 3 1 3 5 2 7z m-197-34c0-24 20-44 44-44 25 0 44 20 44 44 0 24-19 44-44 44-24 0-44-20-44-44z m77 0c0-18-15-32-33-32-18 0-32 14-32 32 0 18 14 33 32 33 18 0 33-15 33-33z"/>
<glyph unicode="&#113;" d="M256 504c-137 0-248-111-248-248 0-137 111-248 248-248 137 0 248 111 248 248 0 137-111 248-248 248z m0-485c-131 0-237 107-237 237 0 131 106 237 237 237 131 0 237-106 237-237 0-130-106-237-237-237z m128 342l-256 0c-11 0-19-9-19-19l0-17 137-120c2-3 6-4 10-4 4 0 7 1 9 4l138 120 0 17c0 10-9 19-19 19z m7-31l0 0-133-117c-1-1-3-1-5 0l-133 117 0 12c0 4 3 8 8 8l256 0c4 0 7-4 7-8z m-135-142c-7 0-14 3-20 8l-127 110 0-138c0-10 8-19 19-19l256 0c10 0 19 9 19 19l0 138-128-110c-5-5-12-8-19-8z m135 93l0-113c0-4-3-7-7-7l-256 0c-5 0-8 3-8 7l0 113 109-93c7-7 17-11 27-11 10 0 19 4 26 11z"/>
<glyph unicode="&#114;" d="M190 193l-21 0c-3 0-5-2-5-5l0-21c0-3 2-6 5-6l21 0c3 0 6 3 6 6l0 21c0 3-3 5-6 5z m0 63l-21 0c-3 0-5-3-5-6l0-21c0-3 2-5 5-5l21 0c3 0 6 2 6 5l0 21c0 3-3 6-6 6z m76-63l-20 0c-4 0-6-2-6-5l0-21c0-3 2-6 6-6l20 0c4 0 6 3 6 6l0 21c0 3-2 5-6 5z m-76 126l-21 0c-3 0-5-3-5-6l0-21c0-3 2-5 5-5l21 0c3 0 6 2 6 5l0 21c0 3-3 6-6 6z m76-63l-20 0c-4 0-6-3-6-6l0-21c0-3 2-5 6-5l20 0c4 0 6 2 6 5l0 21c0 3-2 6-6 6z m77-63l-21 0c-3 0-6-2-6-5l0-21c0-3 3-6 6-6l21 0c3 0 5 3 5 6l0 21c0 3-2 5-5 5z m34 188l-39 0 0 26c0 3-3 6-6 6-3 0-5-3-5-6l0-26-142 0 0 26c0 3-2 6-5 6-3 0-6-3-6-6l0-26-39 0c-9 0-16-7-16-16l0-231c0-8 7-15 16-15l242 0c9 0 16 7 16 15l0 231c0 9-7 16-16 16z m5-247c0-2-2-4-5-4l-242 0c-3 0-5 2-5 4l0 231c0 3 2 5 5 5l39 0 0-18c0-3 3-6 6-6 3 0 5 3 5 6l0 18 142 0 0-18c0-3 2-6 5-6 3 0 6 3 6 6l0 18 39 0c3 0 5-2 5-5z m-116 185l-20 0c-4 0-6-3-6-6l0-21c0-3 2-5 6-5l20 0c4 0 6 2 6 5l0 21c0 3-2 6-6 6z m-10 185c-137 0-248-111-248-248 0-137 111-248 248-248 137 0 248 111 248 248 0 137-111 248-248 248z m0-485c-131 0-237 107-237 237 0 131 106 237 237 237 131 0 237-106 237-237 0-130-106-237-237-237z m87 300l-21 0c-3 0-6-3-6-6l0-21c0-3 3-5 6-5l21 0c3 0 5 2 5 5l0 21c0 3-2 6-5 6z m0-63l-21 0c-3 0-6-3-6-6l0-21c0-3 3-5 6-5l21 0c3 0 5 2 5 5l0 21c0 3-2 6-5 6z"/>
<glyph unicode="&#115;" d="M256 504c-137 0-248-111-248-248 0-137 111-248 248-248 137 0 248 111 248 248 0 137-111 248-248 248z m0-485c-131 0-237 107-237 237 0 131 106 237 237 237 131 0 237-106 237-237 0-130-106-237-237-237z m69 322c2 0 4 0 5 1 1 1 2 2 2 4l6 50c0 3-2 6-5 6-25 4-41 5-54 5-55 0-66-30-67-99l-28 0c-3 0-5-2-5-5l0-51c0-3 2-5 5-5l28 0 0-128c0-4 3-6 6-6l58 0c3 0 6 2 6 6l0 128 38 0c3 0 6 2 6 5l6 50c0 2 0 3-1 4-1 2-3 2-5 2l-44 0c0 2 0 4 0 5 0 14-1 24 3 28 5 5 17 5 40 0z m-54-28c0-3 0-7 0-10 0-3 2-6 5-6l44 0-4-39-40 0c-3 0-5-2-5-6l0-128-48 0 0 128c0 4-2 6-5 6l-28 0 0 39 28 0c3 0 5 3 5 6 1 79 14 93 56 93 11 0 26-1 47-4l-4-39c-10 2-17 3-23 3-10 0-17-2-22-7-7-8-7-19-6-36z"/>
<glyph unicode="&#116;" d="M256 504c-137 0-248-111-248-248 0-137 111-248 248-248 137 0 248 111 248 248 0 137-111 248-248 248z m0-485c-131 0-237 107-237 237 0 131 106 237 237 237 131 0 237-106 237-237 0-130-106-237-237-237z m80 361c-5 0-9 1-14 1-34 0-52-15-68-34-16 19-34 34-68 34-5 0-9-1-14-1-32-3-68-31-72-86l0-18c4-59 54-120 151-188 1-1 2-1 3-1 1 0 2 0 3 1 97 68 146 129 151 189l0 17c-4 55-40 83-72 86z m-82-281c-92 65-139 123-143 178l0 16c4 48 35 73 62 76 4 0 9 0 13 0 32 0 47-14 64-34 1-1 2-2 4-2 2 0 3 1 4 2 17 20 32 34 64 34 4 0 9 0 13 0 27-3 58-28 62-75l0-17c-4-55-51-113-143-178z"/>
<glyph unicode="&#117;" d="M349 314l-175 0c-10 0-18-8-18-19l0-114c0-11 8-19 18-19l175 0c10 0 19 8 19 19l0 114c0 11-9 19-19 19z m8-133c0-5-4-8-8-8l-175 0c-4 0-7 3-7 8l0 114c0 5 3 8 7 8l175 0c4 0 8-3 8-8z m-101 323c-137 0-248-111-248-248 0-137 111-248 248-248 137 0 248 111 248 248 0 137-111 248-248 248z m0-485c-131 0-237 107-237 237 0 131 106 237 237 237 131 0 237-106 237-237 0-130-106-237-237-237z m-96 298l18 7c2 1 3 2 4 4l1 1 1 0c16 3 34 1 52-5 3-1 6 1 7 3 0 2 0 3-1 4 0 2-1 3-3 3-7 3-15 5-23 6l-6 1 5 3c5 2 8 5 10 7 6 6 8 14 8 23-1 8-4 16-10 21-7 6-16 9-25 8-7-1-14-5-19-11-5-5-10-16-14-34-1-4-2-8-3-11l0-1-4-2-1 1c-3 2-6 4-10 6-15 11-26 16-33 17-2 0-5 0-8 0-14-2-25-13-26-27-2-17 10-33 27-35 2 0 4 0 7 0 2 1 4 1 6 2l7 1-5-5c-10-11-14-20-15-20 0-1 0-3 0-4 0-1 1-3 3-3 1-1 2-1 3-1 1 0 3 1 4 3 0 1 12 23 36 38l1 0 1 0c2-1 3-1 5 0z m14 33c4 18 9 31 13 35 3 4 7 7 12 7 6 1 12-1 17-5 8-7 9-20 1-29-4-5-22-12-35-17l-2-1-2 4c0 2-2 3-3 4l-1 1z m-28-22c-5-3-22-10-34-11-1 0-2 0-3 0 0 0-1 0-1 0-11 1-19 11-18 23 1 9 9 16 18 17 1 1 3 1 5 0 6 0 18-7 33-17l1-1 0-2c-1-1-1-3 0-5l1-4z"/>
<glyph unicode="&#118;" d="M265 404c-4 4-12 4-16 0l-135-135c-3-3-3-6 0-8 2-2 5-2 8 0l23 23 0-155c0-5 5-9 10-9l204 0c5 0 9 4 9 9l0 156 24-24c1-1 3-2 4-2 1 0 3 1 4 2 2 2 2 5 0 8z m92-273l-200 0 0 165 100 100 100-100z m-100 373c-137 0-248-111-248-248 0-137 111-248 248-248 137 0 248 111 248 248 0 137-111 248-248 248z m0-485c-131 0-237 107-237 237 0 131 106 237 237 237 130 0 237-106 237-237 0-130-107-237-237-237z"/>
<glyph unicode="&#119;" d="M258 297c-19 0-35-16-35-35l0-123c0-19 16-35 35-35 19 0 35 16 35 35l0 123c0 19-16 35-35 35z m24-158c0-13-11-24-24-24-13 0-24 11-24 24l0 123c0 13 11 24 24 24 13 0 24-11 24-24z m-26 365c-137 0-248-111-248-248 0-137 111-248 248-248 137 0 248 111 248 248 0 137-111 248-248 248z m0-485c-131 0-237 107-237 237 0 131 106 237 237 237 131 0 237-106 237-237 0-130-106-237-237-237z m2 312c18 0 33 15 33 34 0 18-15 33-33 33-18 0-33-15-33-33 0-19 15-34 33-34z m0 56c12 0 22-10 22-22 0-13-10-22-22-22-12 0-22 9-22 22 0 12 10 22 22 22z"/>
<glyph unicode="&#120;" d="M286 313c-4 0-5-3-6-7l-14-58-15 56c-2 5-2 8-9 8-5 0-6-3-7-8l-15-56-14 58c-1 4-2 7-6 7-3 0-5-3-5-5 0-1 1-4 1-5l16-63c2-6 2-9 7-9 5 0 6 3 8 9l16 59 16-59c2-6 3-9 7-9 5 0 6 4 8 9l16 63c0 1 1 4 1 5 0 2-2 5-5 5z m-30 189c-136 0-246-110-246-246 0-135 110-246 246-246 136 0 246 111 246 246 0 136-110 246-246 246z m0-481c-129 0-235 106-235 235 0 130 106 235 235 235 130 0 235-105 235-235 0-129-105-235-235-235z m100 349l-8 0c-1 0-1 0-1 0l0 12c0 2-2 4-4 4l-9 0 0 3c0 3-2 4-4 4l-174 0c-3 0-4-1-4-4l0-236c0 0 0 0 0 0 0 0 0 0 0 0 0 0 0-1 0-1 0 0 0 0 0 0 0 0 0 0 0 0 0 0 0-1 0-1 0 0 1 0 1 0 0 0 0 0 0 0l26-30c1-1 2-2 3-2l174 0c3 0 4 2 4 4l0 243c0 2-1 4-4 4z m-197 16l167 0 0-229-167 0z m12-245l-7 9 166 0c2 0 4 1 4 3l0 225 5 0 0-236-166 0c-1 0-1 0-2-1z m182-14l-169 0-6 7 165 0c2 0 4 2 4 4l0 225c0-1 1-1 1-1l5 0z"/>
<glyph unicode="&#121;" d="M256 502c-136 0-246-110-246-246 0-135 110-246 246-246 136 0 246 111 246 246 0 136-110 246-246 246z m0-481c-129 0-235 106-235 235 0 130 106 235 235 235 130 0 235-105 235-235 0-129-105-235-235-235z m119 355l-70 0c-6 0-11-5-11-11l0-26c0-6 5-11 11-11l3 0 0-152-10-10-85 0-9 10 0 152 3 0c6 0 11 5 11 11l0 26c0 6-5 11-11 11l-70 0c-6 0-11-5-11-11l0-26c0-6 5-11 11-11l11 0 0-162c0-3 1-6 2-8l35-40c2-2 5-4 8-4l124 0c3 0 6 2 8 4l36 38c2 2 3 5 3 8l0 164 11 0c6 0 11 5 11 11l0 26c0 6-5 11-11 11z m0-37l-22 0 0-175-36-39-124 0-34 41 0 173-22 0 0 26 70 0 0-26-14 0 0-168 16-16 93 0 17 16 0 168-14 0 0 26 70 0z"/>
<glyph unicode="&#122;" d="M303 207c-9-4-18-8-25-12-20-11-31-17-49 5 0 1 0 1-1 1-23 23-53 19-73 16-6-1-13-2-16-1-1 6 10 24 21 37 2 2 2 6 0 8-3 2-6 1-8-1-5-5-29-33-23-48 3-9 14-8 27-6 19 3 45 6 64-13 12-14 23-19 33-19 10 0 20 5 30 11 7 4 15 8 24 11 3 1 5 5 4 7-1 3-5 5-8 4z m115 99l-149 46c-4 1-8 2-13 2-5 0-9 0-13-2l-148-41c-7-3-7-7 0-10l134-54c3-1 8-2 12-2 4 0 8 1 11 2l62 19c0-1 0-1 0-2 0-8 3-24 7-41l-9-85c0-3 2-6 5-6 0 0 0 0 0 0 3 0 6 2 6 5l3 27 3-40c0-3 3-5 6-5 0 0 0 0 0 0 3 0 6 3 5 6l-3 35c4-11 6-19 6-20 1-3 3-4 6-4 0 0 1 0 1 0 3 1 5 4 4 7 0 1-28 95-28 121 0 2-1 4-1 5l90 28c8 2 9 6 3 9z m-96-26c-6 13-21 19-30 20l-34 11c-3 1-6 0-7-3-1-3 0-6 3-7l35-11c0 0 1-1 1-1 1 0 15-2 21-13l-62-19c0 0 0 0 0 0-2 0-5-1-8-1-4 0-7 1-8 2l-118 47 131 36c0 1 1 1 1 1 2 1 5 1 9 1 4 0 7-1 8-1 1-1 1-1 2-1l128-39z m35-16c-3 1-6-1-7-4-1-3 1-6 4-7 2 0 7-5 12-16 6-12 8-21 9-25-10 1-19 2-27 2-3 0-6-2-6-5 0-3 3-6 6-6 9 0 18-1 28-3 0 0 0 0 1 0 3 0 8 2 8 8 2 13-14 52-28 56z m-101 240c-137 0-248-111-248-248 0-137 111-248 248-248 137 0 248 111 248 248 0 137-111 248-248 248z m0-485c-131 0-237 107-237 237 0 131 106 237 237 237 131 0 237-106 237-237 0-130-106-237-237-237z"/>
<glyph unicode="&#65;" d="M212 293l-34 0c-3 0-5-3-5-6l0-106c0-4 2-6 7-6l31 0c4 0 7 2 7 6l0 105c0 1 0 1-1 1 0 3-2 6-5 6z m-6-107l-22 0 0 95 22 0z m50 318c-137 0-248-111-248-248 0-137 111-248 248-248 137 0 248 111 248 248 0 137-111 248-248 248z m0-485c-131 0-237 107-237 237 0 131 106 237 237 237 131 0 237-106 237-237 0-130-106-237-237-237z m103 363l-206 0c-13 0-23-10-23-22l0-207c0-12 10-22 23-22l206 0c13 0 23 10 23 22l0 207c0 12-10 22-23 22z m11-229c0-6-5-11-11-11l-206 0c-6 0-11 5-11 11l0 207c0 6 5 11 11 11l206 0c6 0 11-5 11-11z m-175 193l-1 0c-13-1-24-12-24-25 0-6 3-13 7-18 5-4 11-7 18-7 1 0 1 0 1 0 14 1 24 12 24 25 0 14-11 25-25 25z m1-39l-1 0c-4 0-7 2-10 4-2 3-4 6-4 10 0 7 6 13 14 14l0 0c8 0 14-7 14-14 0-7-6-14-13-14z m141-35c-5 11-12 18-23 21-6 2-13 3-20 2-5 0-9-1-14-2-3-2-7-4-10-6 0 3-2 6-5 6l-33 0c-3 0-5-3-5-6l0-104 0 0c0-1 0-1 0-2 0-2 1-4 2-5 0 0 2-2 5-2l0 0c6 1 12 1 18 1l13 0c0 0 0 0 1 0 3 0 5 2 5 5l0 14c0 14 1 29 1 44 0 3 0 5 1 8 1 4 3 7 7 8 2 1 5 1 8 1 4-1 6-3 7-6 1-3 2-6 2-10 0-15 0-29 0-44l0-13c0-5 3-7 7-7l31 0c4 0 7 2 7 6l0 56c0 6 0 12-1 18-1 7-2 12-4 17z m-6-86l-23 0 0 9c0 15 0 29 0 44 0 5-1 10-2 14-3 7-9 12-16 13-5 0-10 0-14-2-7-2-11-7-14-14-1-4-2-8-2-12 0-15 0-30 0-44l0-8-8 0c-4 0-9 0-14 0l0 95 21 0 0-8c0-3 2-5 4-6 2 0 5 0 6 2l1 2c1 0 1 1 2 2 3 4 7 7 12 9 3 1 7 2 10 2 6 0 12 0 17-2 7-2 12-7 15-14 2-4 3-9 4-15 0-5 1-11 1-16z"/>
<glyph unicode="&#66;" d="M317 223l-125 0c-3 0-5-3-5-6 0-3 2-6 5-6l125 0c3 0 5 3 5 6 0 3-2 6-5 6z m-125-52c-3 0-5-2-5-5 0-3 2-6 5-6l125 0c3 0 5 3 5 6 0 3-2 5-5 5z m170 105c-3 0-6-3-6-6l0-140c0-5-4-10-9-10l-186 0c-5 0-9 5-9 10l0 238c0 5 4 10 9 10l175 0c3 0 6 2 6 5 0 3-3 6-6 6l-175 0c-11 0-21-9-21-21l0-238c0-11 10-21 21-21l186 0c11 0 20 10 20 21l0 140c0 3-2 6-5 6z m33 126c-3 2-6 1-8-1l-57-94-38 39c-3 2-6 2-8 0-2-2-3-6 0-8l43-44c1-2 3-2 4-2 1 0 1 0 1 0 2 0 3 1 4 3l61 100c1 2 1 6-2 7z m-78-128l-125 0c-3 0-5-3-5-6 0-3 2-5 5-5l125 0c3 0 5 2 5 5 0 3-2 6-5 6z m-61 230c-137 0-248-111-248-248 0-137 111-248 248-248 137 0 248 111 248 248 0 137-111 248-248 248z m0-485c-131 0-237 107-237 237 0 131 106 237 237 237 131 0 237-106 237-237 0-130-106-237-237-237z m6 306l-70 0c-3 0-5-2-5-5 0-4 2-6 5-6l70 0c3 0 6 2 6 6 0 3-3 5-6 5z"/>
<glyph unicode="&#67;" d="M288 341c0 17-14 31-31 31-17 0-31-14-31-31 0-17 14-31 31-31 17 0 31 14 31 31z m-51 0c0 11 9 20 20 20 11 0 20-9 20-20 0-11-9-20-20-20-11 0-20 9-20 20z m19-133c7 0 24 29 38 54 11 21 29 58 29 79 0 36-29 66-66 66-36 0-66-30-66-66 0-28 52-133 65-133z m1 188c30 0 55-25 55-55 0-29-43-103-56-120-12 18-54 91-54 120 0 30 25 55 55 55z m153-223l-75 21 75 24c3 1 4 3 4 6 0 2-1 4-4 5l-89 26c-3 1-6 0-7-3-1-3 0-6 3-7l73-21-134-44-133 43 73 21c3 1 5 4 4 7-1 3-4 5-7 4l-91-26c-3-1-4-3-4-5 0-3 1-5 4-6l75-24-75-21c-3-1-4-3-4-5 0-3 1-5 4-6l152-49c1 0 1 0 2 0 1 0 1 0 2 0l152 49c3 1 4 3 4 6 0 2-1 4-4 5z m-154-49l-133 43 74 21 57-19c1 0 1 0 2 0 1 0 1 0 2 0l57 19c1 0 1-1 1-1l73-20z m0 380c-137 0-248-111-248-248 0-137 111-248 248-248 137 0 248 111 248 248 0 137-111 248-248 248z m0-485c-131 0-237 107-237 237 0 131 106 237 237 237 131 0 237-106 237-237 0-130-106-237-237-237z"/>
<glyph unicode="&#68;" d="M365 262l-218 0c-3 0-5-3-5-6 0-3 2-5 5-5l218 0c3 0 5 2 5 5 0 3-2 6-5 6z m0-89l-218 0c-3 0-5-3-5-6 0-3 2-6 5-6l218 0c3 0 5 3 5 6 0 3-2 6-5 6z m0 178l-218 0c-3 0-5-2-5-5 0-4 2-6 5-6l218 0c3 0 5 2 5 6 0 3-2 5-5 5z m-109 153c-137 0-248-111-248-248 0-137 111-248 248-248 137 0 248 111 248 248 0 137-111 248-248 248z m0-485c-131 0-237 107-237 237 0 131 106 237 237 237 131 0 237-106 237-237 0-130-106-237-237-237z"/>
<glyph unicode="&#69;" d="M395 260l-282 0c-4 0-6-3-6-6 0-3 2-6 6-6l179 0 0 0 103 0c3 0 6 3 6 6 0 3-3 6-6 6z m-139 244c-137 0-248-111-248-248 0-137 111-248 248-248 137 0 248 111 248 248 0 137-111 248-248 248z m0-485c-131 0-237 107-237 237 0 131 106 237 237 237 131 0 237-106 237-237 0-130-106-237-237-237z"/>
<glyph unicode="&#70;" d="M321 400l-130 0c-11 0-19-8-19-19l0-256c0-11 8-19 19-19l130 0c11 0 19 8 19 19l0 256c0 11-8 19-19 19z m8-275c0-5-4-8-8-8l-130 0c-4 0-8 3-8 8l0 47 146 0z m0 58l-146 0 0 173 146 0z m0 184l-146 0 0 14c0 4 4 8 8 8l130 0c4 0 8-4 8-8z m-73 137c-137 0-248-111-248-248 0-137 111-248 248-248 137 0 248 111 248 248 0 137-111 248-248 248z m0-485c-131 0-237 107-237 237 0 131 106 237 237 237 131 0 237-106 237-237 0-130-106-237-237-237z m0 109c10 0 18 8 18 18 0 10-8 18-18 18-10 0-18-8-18-18 0-10 8-18 18-18z m0 25c4 0 7-3 7-7 0-4-3-6-7-6-4 0-7 2-7 6 0 4 3 7 7 7z"/>
<glyph unicode="&#71;" d="M256 504c-137 0-248-111-248-248 0-137 111-248 248-248 137 0 248 111 248 248 0 137-111 248-248 248z m0-485c-131 0-237 107-237 237 0 131 106 237 237 237 131 0 237-106 237-237 0-130-106-237-237-237z m120 278l-227 0c-7 0-12-5-12-12l0-161c0-7 5-12 12-12l227 0c7 0 12 5 12 12l0 161c0 7-5 12-12 12z m0-11c0 0 1-1 1-1l0-33-18 0c0 0-1 1-1 2l-16 32z m-47 0l17-34-43 0-17 34z m-56 0c0 0 0 0 1-1l17-33-42 0-18 34z m-54 0c0 0 0-1 0-1l17-33-41 0-17 34z m-71-1c0 0 1 1 1 1l17 0c0-1 0-2 1-3l16-31-35 0c0 0 0 33 0 33z m229-161c0 0-1-1-1-1l-227 0c0 0-1 1-1 1l0 117 229 0z m-232 180l222 48c3 0 6 2 7 5 2 3 3 6 2 10l-6 29c-2 6-8 11-15 9l-221-47c-4-1-6-3-8-6-2-3-3-6-2-9l6-30c2-5 7-9 13-9 1 0 1 0 2 0z m194 86c0 0 0 0 0 0l19 5c0 0 1-1 1-2l6-29c0 0 0 0 0-1 0 0 0 0-1 0l-32-7z m-52-11l40 9-7-35-40-8z m-52-11l40 9-7-35-39-9z m-53-13c0 1 0 1 0 2l42 8-7-34-41-9z m-41-39l-6 29c0 0 0 1 0 1 0 0 1 0 1 1l34 7-6-35-21-4c-1 0-2 0-2 1z"/>
<glyph unicode="&#72;" d="M221 405c-2 2-5 3-8 1-2-2-3-6-1-8l112-138-112-138c-2-2-1-6 1-8 1-1 2-1 4-1 1 0 3 1 4 2l115 141c1 2 1 5 0 7z m35 99c-137 0-248-111-248-248 0-137 111-248 248-248 137 0 248 111 248 248 0 137-111 248-248 248z m0-485c-131 0-237 107-237 237 0 131 106 237 237 237 131 0 237-106 237-237 0-130-106-237-237-237z"/>
<glyph unicode="&#73;" d="M256 504c-137 0-248-111-248-248 0-137 111-248 248-248 137 0 248 111 248 248 0 137-111 248-248 248z m0-485c-131 0-237 107-237 237 0 131 106 237 237 237 131 0 237-106 237-237 0-130-106-237-237-237z m61 328c-13 0-24-11-24-24 0-14 11-25 24-25 14 0 25 11 25 25 0 13-11 24-25 24z m0-38c-7 0-13 6-13 14 0 7 6 13 13 13 7 0 13-6 13-13 0-8-6-14-13-14z m57 79l-111 0 0 0c-1 0-3-1-4-2l-160-172c-1-1-2-3-2-4 0-1 1-3 2-4l118-110c2-1 3-2 4-2 2 0 3 1 4 2l161 172c1 1 2 3 1 4l-7 111c-1 3-3 5-6 5z m-153-280l-110 102 155 167 103 0 7-103z"/>
<glyph unicode="&#74;" d="M256 504c-137 0-248-111-248-248 0-137 111-248 248-248 137 0 248 111 248 248 0 137-111 248-248 248z m0-485c-131 0-237 107-237 237 0 131 106 237 237 237 131 0 237-106 237-237 0-130-106-237-237-237z m15 328l-48 0c-3 0-5-2-5-6l0-102c0-4 2-6 5-6l48 0c34 0 57 23 57 57l0 0c0 36-21 57-57 57z m46-57c0-28-18-46-46-46l-42 0 0 92 42 0c30 0 46-16 46-46z m-42 103l-93 0c-3 0-6-3-6-6l0-286c0-3 3-5 6-5l41 0c3 0 6 2 6 5l0 87 41 0c60 0 100 41 100 103l0 1c0 61-38 101-95 101z m84-102c0-56-35-92-89-92l-47 0c-3 0-5-3-5-6l0-86-30 0 0 275 87 0c51 0 84-35 84-90l0-1z"/>
<glyph unicode="&#75;" d="M256 504c-137 0-248-111-248-248 0-137 111-248 248-248 137 0 248 111 248 248 0 137-111 248-248 248z m0-485c-131 0-237 107-237 237 0 131 106 237 237 237 131 0 237-106 237-237 0-130-106-237-237-237z m109 312c-5 13-13 24-23 34-9 9-20 16-32 21-8 3-16 5-24 7-9 1-18 2-27 1-9 0-16-1-23-2-20-4-38-12-53-25-9-8-18-17-24-28-5-9-9-19-12-30-1-7-2-15-2-22 0-12 2-22 6-32 4-10 10-19 18-25 4-3 8-5 12-7 2 0 4-1 5-1 0 0 1 0 1 0 5 1 8 4 10 9 1 3 2 7 2 10 1 2 1 4 2 6 0 3-1 6-2 8-1 1-2 2-2 3-1 1-2 2-3 3-3 4-5 9-6 16-1 4-1 9 0 14 1 12 4 23 11 33 3 6 7 10 12 14 6 6 14 11 23 14 5 2 10 3 16 3 6 1 12 1 18 1 7-1 14-2 20-5 9-3 16-8 21-15 6-6 9-14 11-23 1-6 1-12 1-20-1-4-1-10-2-15-2-14-6-26-12-36-4-6-8-11-13-14-4-3-8-5-13-6-6-1-11 0-16 2-5 3-8 8-9 14 0 3 0 6 1 10l9 30c2 5 3 11 4 18 1 7 1 13-1 18-3 12-13 19-25 19-9 0-17-4-24-11-5-6-9-13-11-22-2-7-2-15-1-23 0-6 2-12 4-17l-20-85c-1-5-2-9-3-15 0-7 0-14 0-23 0 0 0-3 1-7 1-9 3-23 3-24 1-3 2-4 4-5 1 0 1 0 2 0 2 0 4 1 5 2 1 2 16 27 17 29 5 8 8 15 11 23 2 5 4 10 5 15l6 26c2-2 5-4 8-5 7-4 14-7 23-8 5-1 10 0 16 0 8 1 16 3 24 7 5 2 10 5 15 9 10 8 19 18 26 30 6 11 10 22 13 35 2 8 3 16 3 24 0 5 1 11 0 17-1 9-3 17-6 26z m-5-43c-1-7-2-14-3-22-3-11-7-22-12-32-6-11-14-19-23-26-4-3-8-6-13-8-6-3-13-5-20-6-6 0-10 0-14 0-7 1-13 3-19 6-4 3-8 6-10 10l-1 1c-1 2-3 2-5 2-3 0-4-3-5-5l-9-35c-1-5-3-10-4-14-3-7-6-14-11-21 0-1-4-8-9-15 0 2 0 5-1 8l-1 7c0 8 0 15 1 21 0 5 1 9 2 13l20 86c0 2 0 4 0 5-2 5-4 10-4 15-1 7-1 13 1 19 1 8 4 13 8 18 5 4 10 6 16 6 7 0 12-3 14-10 2-4 2-8 1-14-1-5-2-11-4-16l-9-30c-1-5-2-10-1-15 1-9 6-16 14-21 7-4 15-6 24-4 6 1 12 4 18 8 6 4 11 10 15 17 7 12 12 25 14 41 1 5 2 11 2 15 1 9 0 16-1 23-2 11-6 20-13 28-7 9-15 15-26 19-7 3-14 4-23 5-7 1-14 0-20 0-7-1-13-3-19-5-10-3-19-8-27-15-5-5-10-11-14-17-7-11-11-24-12-38-1-6-1-12 0-17 1-8 4-15 8-21 1-1 2-2 3-3 0-1 1-2 2-2-1-2-1-4-2-5 0-4-1-7-2-10 0 0-1 0-1 0-3 1-6 3-9 5-6 5-11 12-14 20-4 9-5 18-6 28 0 7 1 13 2 20 2 9 6 18 11 26 5 10 13 19 21 26 14 11 29 18 48 22 6 1 13 2 21 2 8 1 17 0 25-1 7-2 15-4 21-6 11-5 21-11 29-19 9-9 16-19 21-30 2-8 4-15 5-23 0-6 0-11 0-16z"/>
<glyph unicode="&#76;" d="M188 394c-2 2-6 4-9 4-2 0-3-1-5-1-5-2-8-7-8-12l0-257c0-6 3-10 8-12 2-1 3-1 5-1 3 0 7 1 9 4l213 128c5 5 5 13 0 18z m205-138l-211-128c0 0-1-1-2-1 0-1-1-1-1-1 0 0 0 0-1 0 0 0-1 1-1 2l0 257c0 0 1 1 1 1 1 0 1 0 1 0 0 0 1 0 1 0 1-1 2-1 2-2l211-127c0-1 0-1 0-1z m-137 248c-137 0-248-111-248-248 0-137 111-248 248-248 137 0 248 111 248 248 0 137-111 248-248 248z m0-485c-131 0-237 107-237 237 0 131 106 237 237 237 131 0 237-106 237-237 0-130-106-237-237-237z"/>
<glyph unicode="&#77;" d="M340 368c-6 10-31 14-52 16-2 0-5-1-6-4-3-12-14-20-26-20-12 0-23 8-26 20-1 3-4 4-6 4-21-2-46-6-52-16l-60-43c-2-2-3-5-1-8l30-41c2-2 5-3 8-1l27 17 0-158c0-4 3-6 6-6l148 0c3 0 6 2 6 6l0 158 27-17c3-2 6-1 8 1l30 41c2 3 1 6-1 8z m25-81l-32 20c-2 1-4 1-6 0-1-1-2-3-2-5l0-163-138 0 0 163c0 2-1 4-2 5-2 1-4 1-6 0l-32-20-23 32 55 41c1 0 1 1 2 2 1 2 12 8 39 10 6-14 20-23 36-23 16 0 30 9 36 23 26-2 38-8 39-10 1-1 1-2 2-2l55-41z m-109 215c-136 0-246-110-246-246 0-135 110-246 246-246 136 0 246 111 246 246 0 136-110 246-246 246z m0-481c-129 0-235 106-235 235 0 130 106 235 235 235 129 0 235-105 235-235 0-129-106-235-235-235z"/>
<glyph unicode="&#78;" d="M403 309l-99 14-45 91c-1 2-3 3-5 3-2 0-4-1-5-3l-45-91-100-14c-2-1-3-2-4-4-1-2 0-4 1-6l73-70-17-100c-1-2 0-4 2-5 1-1 4-2 6-1l89 47 89-47c1 0 2 0 3 0 0 0 0 0 0 0 3 0 6 2 6 5 0 1-1 2-1 2l-17 99 73 70c1 2 2 4 1 6-1 2-2 3-5 4z m-79-74c-1-2-2-3-1-5l15-91-81 43c-2 0-4 0-6 0l-82-43 16 91c0 2 0 3-1 5l-67 64 92 14c2 0 3 1 4 3l41 82 41-82c1-2 2-3 4-3l92-14z m-68 269c-137 0-248-111-248-248 0-137 111-248 248-248 137 0 248 111 248 248 0 137-111 248-248 248z m0-485c-131 0-237 107-237 237 0 131 106 237 237 237 131 0 237-106 237-237 0-130-106-237-237-237z"/>
<glyph unicode="&#79;" d="M352 357l-96-96-96 96c-2 2-6 2-8 0-2-2-2-6 0-8l96-96-96-96c-2-2-2-6 0-8 2-2 6-2 8 0l96 96 96-96c2-2 6-2 8 0 2 2 2 6 0 8l-96 96 96 96c2 2 2 6 0 8-2 2-6 2-8 0z m-271 75c-97-97-97-254 0-351 96-97 254-97 350 0 97 97 97 254 0 351-96 96-254 96-350 0z m342-343c-92-93-242-93-334 0-93 92-93 242 0 335 92 92 242 92 334 0 93-93 93-243 0-335z"/>
<glyph unicode="&#80;" d="M342 299c0 53-43 96-96 96-53 0-96-43-96-96 0-53 43-96 96-96 12 0 24 3 34 7l52-106c1-2 3-3 5-3 1 0 1 0 2 1 3 1 4 4 3 7l-52 105c31 16 52 48 52 85z m-96-84c-46 0-84 38-84 84 0 47 38 85 84 85 47 0 85-38 85-85 0-46-38-84-85-84z m10 289c-137 0-248-111-248-248 0-137 111-248 248-248 137 0 248 111 248 248 0 137-111 248-248 248z m0-485c-131 0-237 107-237 237 0 131 106 237 237 237 131 0 237-106 237-237 0-130-106-237-237-237z"/>
<glyph unicode="&#81;" d="M274 236c3 0 9 1 24 14l0-72c0-2 0-9 6-9 6 0 6 6 6 10l0 82c0 3 0 10-5 10-3 0-4-2-6-5-7-11-20-18-23-19-5-3-6-4-6-6 0-4 3-5 4-5z m-54-67c21 0 32 16 32 32 0 18-14 22-19 24 5 2 14 8 14 20 0 14-11 26-28 26-23 0-30-18-30-24 0-1 1-5 5-5 3 0 4 2 7 7 2 6 8 13 17 13 11 0 17-9 17-17 0-5-3-12-10-15-5-1-7-1-11-1-2 0-7-1-7-5 0-3 2-5 5-5 2 0 7 0 9 0 13 0 18-10 18-19 0-10-8-21-21-21-13 0-18 10-20 16-1 4-2 6-6 6-3 0-5-3-5-5 0-5 3-12 8-18 5-5 11-9 25-9z m157 212l-39 0 0 26c0 3-3 6-6 6-3 0-5-3-5-6l0-26-142 0 0 26c0 3-2 6-5 6-3 0-6-3-6-6l0-26-39 0c-9 0-16-7-16-16l0-231c0-8 7-15 16-15l242 0c9 0 16 7 16 15l0 231c0 9-7 16-16 16z m5-247c0-2-2-4-5-4l-242 0c-3 0-5 2-5 4l0 174 252 0z m0 185l-252 0 0 46c0 3 2 5 5 5l39 0 0-18c0-3 3-6 6-6 3 0 5 3 5 6l0 18 142 0 0-18c0-3 2-6 5-6 3 0 6 3 6 6l0 18 39 0c3 0 5-2 5-5z m-126 185c-137 0-248-111-248-248 0-137 111-248 248-248 137 0 248 111 248 248 0 137-111 248-248 248z m0-485c-131 0-237 107-237 237 0 131 106 237 237 237 131 0 237-106 237-237 0-130-106-237-237-237z"/>
<glyph unicode="&#82;" d="M252 331c17 0 31 14 31 31 0 17-14 31-31 31-17 0-31-14-31-31 0-17 14-31 31-31z m0 51c11 0 20-9 20-20 0-11-9-19-20-19-11 0-19 8-19 19 0 11 8 20 19 20z m4 122c-137 0-248-111-248-248 0-137 111-248 248-248 137 0 248 111 248 248 0 137-111 248-248 248z m0-485c-131 0-237 107-237 237 0 131 106 237 237 237 131 0 237-106 237-237 0-130-106-237-237-237z m-90 184c23-8 53-13 86-13 64 0 129 17 129 55 0 51-32 96-81 114-3 1-7 0-8-3-1-3 1-6 4-7 45-17 74-58 74-104 0-28-61-44-118-44-57 0-117 16-117 44 0 46 30 88 75 104 3 1 4 5 3 7-1 3-4 5-7 4-49-18-83-65-83-115 0-13 8-30 43-42z m212-7c0 0-30-32-126-32-94 0-127 29-128 29-2 2-6 2-8 0-2-2-2-6 1-8 1-1 35-32 135-32 102 0 133 34 135 35 2 3 2 6-1 8-2 2-6 2-8 0z"/>
<glyph unicode="&#83;" d="M365 293l-5 13c17 40 16 41 13 44l-23 22c-1 1-2 1-4 1-3 0-17-5-40-15l-13 5c-16 40-18 40-22 40l-32 0c-4 0-6 0-21-40l-13-5c-16 7-36 14-40 14-2 0-3 0-4-1l-23-22c-3-3-4-4 14-43l-5-13c-41-16-41-18-41-22l0-31c0-4 0-6 41-21l5-12c-17-40-16-41-13-44l23-22c1-1 2-2 4-2 3 0 17 5 39 16l14-6c16-40 18-40 22-40l32 0c4 0 6 0 21 40l13 6c16-7 36-15 40-15 1 0 3 1 4 2l23 22c3 3 4 4-14 43l5 13c41 15 41 17 41 21l0 31c0 5 0 6-41 21z m-6-64c-2 0-3-1-3-3l-8-17c0-2 0-3 0-5 7-13 14-28 16-34l-19-18c-5 1-22 8-36 14-1 1-3 1-4 0l-18-7c-1-1-3-2-3-3-5-14-12-30-14-36l-26 0c-3 6-10 22-16 36 0 1-1 2-3 3l-18 7c-1 1-3 1-4 0-14-6-30-13-36-15l-18 18c2 6 9 22 15 35 0 2 0 3 0 5l-8 17c0 1-1 3-3 3-14 5-30 11-36 14l0 25c6 3 22 10 36 15 2 1 3 2 3 3l8 18c0 1 0 3 0 4-7 13-14 29-16 35l18 18c6-2 23-8 37-15 1 0 3 0 4 0l18 8c1 0 3 1 3 3 5 14 12 30 14 35l26 0c3-5 10-21 16-35 0-2 1-3 3-3l17-7c2-1 4-1 5 0 14 6 30 13 36 15l18-18c-2-6-9-22-15-36 0-1 0-3 0-4l8-17c0-2 1-3 3-4 14-5 30-11 36-14l0-25 0 0c-6-3-22-9-36-15z m-103 275c-137 0-248-111-248-248 0-137 111-248 248-248 137 0 248 111 248 248 0 137-111 248-248 248z m0-485c-131 0-237 107-237 237 0 131 106 237 237 237 131 0 237-106 237-237 0-130-106-237-237-237z m0 298c-34 0-62-27-62-61 0-33 28-61 62-61 34 0 62 28 62 61 0 34-28 61-62 61z m0-110c-28 0-51 22-51 49 0 28 23 50 51 50 28 0 51-22 51-50 0-27-23-49-51-49z"/>
<glyph unicode="&#84;" d="M381 321l-7 0c-3 0-6-3-6-6 0-3 3-5 6-5l7 0c4 0 8-4 8-7l0-149c0-4-4-7-8-7l-250 0c-4 0-8 3-8 7l0 149c0 3 4 7 8 7l89 0c3 0 6 2 6 5 0 3-3 6-6 6l-89 0c-11 0-19-8-19-18l0-149c0-10 8-18 19-18l250 0c11 0 19 8 19 18l0 149c0 10-8 18-19 18z m-125 183c-137 0-248-111-248-248 0-137 111-248 248-248 137 0 248 111 248 248 0 137-111 248-248 248z m0-485c-131 0-237 107-237 237 0 131 106 237 237 237 131 0 237-106 237-237 0-130-106-237-237-237z m-41 317l36 0c-10-43-30-83-59-117-3-3-3-8-1-12 1-4 5-6 10-6l95 0c4 0 8 2 10 5 8 14 16 29 22 44 12 28 20 56 24 86l35 0c5 0 9 2 10 7 2 4 1 9-3 12l-85 77c-2 2-5 3-8 3-3 0-5-1-7-3l-86-77c-4-3-5-8-3-12 2-5 6-7 10-7z m86 88l86-77-44 0c-4-32-13-63-25-93-6-14-14-28-22-42l-95 0c33 38 55 85 63 135l-49 0z"/>
<glyph unicode="&#85;" d="M341 357l-43 0 0 18c0 23-19 42-42 42-23 0-42-19-42-42l0-18-43 0c-10 0-18-8-18-18l-9-206c0-11 8-19 18-19l188 0c10 0 18 8 18 19l-9 205c0 11-8 19-18 19z m-115 18c0 17 13 31 30 31 17 0 30-14 30-31l0-18-60 0z m124-250l-188 0c-4 0-7 4-7 7l9 206c0 4 3 8 7 8l43 0 0-20c0-3 3-6 6-6 3 0 6 3 6 6l0 20 60 0 0-20c0-3 3-6 6-6 3 0 6 3 6 6l0 20 43 0c4 0 7-4 7-8l9-205c0-4-3-8-7-8z m-94 379c-137 0-248-111-248-248 0-137 111-248 248-248 137 0 248 111 248 248 0 137-111 248-248 248z m0-485c-131 0-237 107-237 237 0 131 106 237 237 237 131 0 237-106 237-237 0-130-106-237-237-237z"/>
<glyph unicode="&#86;" d="M377 237l-115 55 0 38c0 8 6 14 14 14 8 0 14-6 14-14 0-3 2-5 6-5 3 0 5 2 5 5 0 14-11 26-25 26-14 0-26-12-26-26l0-38-115-55c-4-1-24-11-26-25-1-9 1-15 5-20 5-5 12-8 22-8l240 0c10 0 17 3 22 8 4 5 6 11 5 20-2 14-22 24-26 25z m12-37c-2-3-6-4-13-4l-240 0c-7 0-11 1-13 4-2 2-3 5-3 11 1 5 12 13 20 16l116 55 116-55c8-3 19-11 20-16 0-6-1-9-3-11z m-133 304c-137 0-248-111-248-248 0-137 111-248 248-248 137 0 248 111 248 248 0 137-111 248-248 248z m0-485c-131 0-237 107-237 237 0 131 106 237 237 237 131 0 237-106 237-237 0-130-106-237-237-237z"/>
<glyph unicode="&#87;" d="M323 326l-71-66c-2-1-2-4-1-7l35-58c1-1 3-2 5-2 1 0 2 0 2 0 3 2 4 5 2 8l-32 54 67 63c3 2 3 5 1 8-3 2-6 2-8 0z m-67 77c-81 0-147-66-147-147 0-81 66-147 147-147 81 0 147 66 147 147 0 81-66 147-147 147z m0-283c-75 0-136 61-136 136 0 75 61 136 136 136 75 0 136-61 136-136 0-75-61-136-136-136z m0 384c-137 0-248-111-248-248 0-137 111-248 248-248 137 0 248 111 248 248 0 137-111 248-248 248z m0-485c-131 0-237 107-237 237 0 131 106 237 237 237 131 0 237-106 237-237 0-130-106-237-237-237z"/>
<glyph unicode="&#88;" d="M256 504c-137 0-248-111-248-248 0-137 111-248 248-248 137 0 248 111 248 248 0 137-111 248-248 248z m0-485c-131 0-237 107-237 237 0 131 106 237 237 237 131 0 237-106 237-237 0-130-106-237-237-237z m95 325l-54 0 0 10c0 19-15 33-33 33l-15 0c-18 0-33-14-33-33l0-10-53 0c-18 0-33-15-33-33l0-122c0-18 15-33 33-33l188 0c18 0 33 15 33 33l0 122c0 18-15 33-33 33z m-102 32l15 0c12 0 22-9 22-22l0-10-59 0 0 10 0 0c0 13 10 22 22 22z m-61-209l-25 0c-12 0-22 10-22 22l0 122c0 12 10 22 22 22l25 0z m126 0l-115 0 0 166 115 0z m58 22c0-12-9-22-21-22l-25 0 0 166 25 0c12 0 21-10 21-22z"/>
<glyph unicode="&#89;" d="M381 335c0 2 1 3 1 4 1 2 1 3 1 5 0 6-5 11-11 11l0 0c0 0-1 0-1 0-1 0-3-1-4-1-1-1-3-1-4-2-6-3-11-5-18-7-11 9-24 14-38 14-19 0-37-9-48-23-8-10-13-22-13-35-35 5-58 23-76 41-2 3-4 5-7 6-1 1-3 1-4 1-3 0-5-1-7-2-9-8-11-20-12-30 0-11 2-20 6-27 0 0 0 0 0-1-4-2-6-6-6-10 1-18 8-33 19-43-1-3-2-6-1-9 6-15 15-26 28-33-11-4-24-7-38-7-2 0-3 0-4 1l-1 0c-5 0-9-4-11-9-1-5 1-10 6-12 25-15 52-22 80-22 7 0 15 0 22 1 72 10 124 72 126 149 1 1 1 1 2 2 7 6 14 13 19 22 3 4 2 9-1 13-1 2-3 3-5 3z m-26-35c0-74-49-134-116-143-7-1-14-1-21-1-29 0-54 8-75 20 2 0 3 0 5 0 26 0 51 8 66 22-24 2-38 14-45 33 2-1 5-1 8-1 5 0 9 1 13 2-4 3-10 3-14 5-14 8-23 22-24 43 5-3 12-5 20-6-7 9-22 22-20 42 0 8 1 17 7 22 0-1 0-1-1-1 23-23 53-46 100-49-7 36 20 60 49 60 12 0 25-5 35-15 12 2 21 6 30 11-4-12-12-19-21-26 0 0 0 0 1 0 7 0 18 4 26 7-6-10-15-17-23-25z m-99 204c-137 0-248-111-248-248 0-137 111-248 248-248 137 0 248 111 248 248 0 137-111 248-248 248z m0-485c-131 0-237 107-237 237 0 131 106 237 237 237 131 0 237-106 237-237 0-130-106-237-237-237z"/>
<glyph unicode="&#90;" d="M360 274c13 16 15 39 7 58-9 21-30 34-53 34-2 0-4 0-7 0-11 20-32 34-57 34-36 0-65-29-65-65 0-7 1-13 3-20l-93-134c-4-5-3-12 3-16l82-57c2-2 4-2 7-2 4 0 7 2 9 5l91 131c1 1 2 3 1 5 0 1-1 3-3 3-14 7-25 18-31 32-4 10-6 21-5 31 1 2 0 4-2 5l-29 21c-5 3-13 2-16-3l-5-8c-1 2-1 4-1 7 0 29 24 54 54 54 19 0 36-11 46-26-2-1-4-1-5-2-14-6-25-17-31-32-5-14-5-30 1-44 9-20 28-33 49-34-2-7 1-15 8-18l7-2-3-7c-2-8 1-16 8-18l7-3-2-7c-3-7 0-16 8-18l7-3-3-7c-3-7 1-16 8-18l24-9c2-1 3-1 5-1 6 0 11 3 13 9l8 20c1 2 1 3 0 4z m-154 47l6 8 26-18c-1-11 1-23 6-34 6-14 17-26 30-34l-87-126c0 0 0 0 0 0l-83 58z m181-168c-1-2-3-2-4-2l-24 9c-1 1-2 2-2 4l5 12c1 1 1 3 0 4 0 2-2 3-3 3l-12 5c-2 1-2 2-2 4l5 12c0 1 0 3 0 4-1 2-2 3-3 3l-13 5c-1 1-2 2-1 4l5 12c0 1 0 3-1 4 0 2-1 3-3 3l-12 5c-1 0-2 2-2 4 1 0 1 0 1 0l1 7c1 2 0 3-1 5-1 1-3 2-4 2 0 0 0 0-1 0-19-1-37 10-44 27-5 12-6 24-1 36 4 12 13 21 24 26 2 1 4 1 6 2 2-6 3-12 3-18 0-3 0-6-1-9 0-3 2-6 5-6 3-1 6 1 7 5 0 3 0 6 0 10 0 7-1 13-3 20 1 0 1 0 2 0 19 0 35-11 43-28 7-16 4-35-7-49-2-2-2-4-1-6l45-101z m-131 351c-137 0-248-111-248-248 0-137 111-248 248-248 137 0 248 111 248 248 0 137-111 248-248 248z m0-485c-131 0-237 107-237 237 0 131 106 237 237 237 131 0 237-106 237-237 0-130-106-237-237-237z"/>
<glyph unicode="&#48;" d="M341 404c0 0 0 0 0 0 0 0-1 0-1 0-1 0-3-1-4-2-2 0-3-1-4-2 0 0 0 0 0-1l-79-106c-2-2-2-5-2-8 1-2 1-3 2-5-7-1-13-5-17-12-4-6-5-14-3-21 0 0-1 0-2 0-1 0-2 0-3 0-3-1-5-3-7-6l-60-117c-2-6-1-12 4-15 2-1 4-1 6-1 3 0 7 1 9 4l79 106c2 2 2 6 2 9-1 1-1 3-3 5 8 1 14 5 18 12 4 5 5 12 4 18 0 1-1 2-1 2 1 0 1 0 2 0 1 0 2 0 3 1 3 0 5 2 7 5l60 117c1 2 1 4 1 6 0 6-5 11-11 11z m-170-285l60 117 19-11z m96 130c-3-4-7-7-12-7-2 0-4 1-6 2-6 4-8 12-4 19 3 4 8 7 12 7 3 0 5-1 6-2 3-2 5-5 6-8 1-4 0-7-2-11z m14 26l-19 12 79 106z m-5-155c-3 2-6 4-14 6-6 1-11 2-11 7 0 4 4 6 9 6 6 0 8-4 9-6 1-2 2-4 5-4 3 0 4 3 4 5 0 2-3 12-18 12-12 0-19-6-19-14 0-5 3-8 5-10 2-2 5-3 12-5 7-2 12-3 12-8 0-6-5-8-10-8-7 0-9 4-10 6-2 4-2 6-5 6-3 0-5-2-5-4 0-3 3-15 20-15 14 0 20 7 20 16 0 2 0 7-4 10z m-38 252c2 0 3 1 4 2 1 1 1 3 1 6l0 28 19-30c4-5 5-6 8-6 7 0 6 7 6 10l0 34c0 4 0 6-1 7-1 1-3 1-4 1-2 0-3 0-3-1-2-1-2-4-2-5l0 0 0-30-19 30c-1 2-3 4-3 4-1 2-2 2-4 2-3 0-4-1-4-1-3-2-3-3-3-9l0-34c0-3 1-5 2-6 1-1 2-2 3-2z m-75-94c0 3-1 5-4 5-1 0-3 0-3-1-2-1-2-3-3-6l-6-30-8 28c-1 4-1 5-3 7 0 1-3 2-4 2-3 0-5-1-5-2-2-1-2-3-3-7l-7-28-7 30c-1 4-2 7-6 7-2 0-4-2-4-5 0-1 0-4 0-4l9-34c1-6 2-9 7-9 5 0 6 3 7 8l9 31 8-31c1-5 2-8 7-8 5 0 6 3 7 9l9 34c0 0 0 3 0 4z m93 226c-137 0-248-111-248-248 0-137 111-248 248-248 137 0 248 111 248 248 0 137-111 248-248 248z m0-485c-131 0-237 107-237 237 0 131 106 237 237 237 131 0 237-106 237-237 0-130-106-237-237-237z m156 220c-1 1-2 0-5 0l-22 0 0 15 20 0c2 0 4 0 5 1 1 1 1 2 1 3 0 1-1 2-1 3-1 1-3 1-5 1l-20 0 0 12 21 0c3 0 5 0 6 1 1 1 1 2 1 3 0 2-1 3-1 3-1 1-3 1-6 1l-23 0c-4 0-5 0-7-1-1-2-1-3-1-7l0-34c0-4 0-6 1-7 2-2 3-2 7-2l24 0c3 0 4 0 5 1 1 1 2 2 2 4 0 1-1 2-2 3z"/>
<glyph unicode="&#49;" d="M256 345c4 0 7 3 7 7l0 39c0 4-3 7-7 7-4 0-7-3-7-7l0-39c0-4 3-7 7-7z m-54-9c2-2 4-4 6-4 1 0 2 1 3 1 4 2 5 6 3 10l-20 33c-1 3-6 5-9 3-3-2-4-6-2-9z m-32-122l-34-19c-3-2-4-6-2-9 1-3 3-4 5-4 1 0 3 0 4 1l33 20c4 1 5 6 3 9-2 3-6 4-9 2z m-3 42c0 4-3 7-7 7l-39 0c-3 0-6-3-6-7 0-3 3-6 6-6l39 0c4 0 7 3 7 6z m134 77c1 0 2-1 3-1 2 0 4 2 6 4l19 34c2 3 1 7-2 9-3 2-8 0-9-3l-20-33c-2-4-1-8 3-10z m38-36c1 0 2 1 3 1l34 20c3 2 4 6 2 9-1 3-5 4-9 2l-33-19c-4-2-5-6-3-9 1-2 4-4 6-4z m52-34l-39 0c-4 0-7-3-7-7 0-3 3-6 7-6l39 0c3 0 6 3 6 6 0 4-3 7-6 7z m-215 47l-33 19c-4 2-8 1-9-2-2-3-1-7 2-9l34-20c1 0 2-1 3-1 2 0 5 2 6 4 2 3 1 7-3 9z m180-101c0 2 0 4 0 6 0 18-13 33-30 35 0 2 0 4 0 5 0 39-32 70-70 70-39 0-70-31-70-70 0-39 33-70 72-69 2-12 13-22 26-22 6 0 12 3 16 6 5-6 13-9 21-9 10 0 19 5 23 14 1 0 2 0 3 0 10 0 19 8 19 18 0 7-4 13-10 16z m-94-4c-2-3-3-6-4-9-1 0-1 0-2 0-33 0-60 26-60 59 0 33 27 60 60 60 33 0 60-27 60-60 0-1 0-3 0-5-8-1-16-5-21-11-3 1-6 2-9 2-14 0-26-12-26-26 0-3 1-7 2-10z m81-20c-1 1-3 1-4 0-1 0-2-1-3-3-2-7-8-11-15-11-7 0-13 4-15 10-1 1-3 2-4 3-1 0-1 0-1 0-2 0-3-1-4-3-3-4-8-7-13-7-9 0-17 8-17 17 0 4 2 7 4 10 2 2 2 4 1 6-1 3-2 5-2 8 0 9 7 16 16 16 3 0 5-1 8-2 2-1 5-1 6 1 5 7 12 11 21 11 14 0 25-12 25-26 0-2 0-5-1-7 0-2 0-3 1-4 1-1 2-2 3-2 4-1 7-5 7-9 0-6-7-10-13-8z m-87 319c-137 0-248-111-248-248 0-137 111-248 248-248 137 0 248 111 248 248 0 137-111 248-248 248z m0-485c-131 0-237 107-237 237 0 131 106 237 237 237 131 0 237-106 237-237 0-130-106-237-237-237z m-1 148c-3 0-6-3-6-7l0-38c0-4 3-7 7-7 4 0 7 3 7 7l0 36c-3 3-6 6-8 9z m-44 12c-3 2-7 1-9-2l-19-34c-2-3-1-7 2-9 1-1 3-1 4-1 2 0 4 1 5 3l20 34c2 3 1 7-3 9z"/>
<glyph unicode="&#50;" d="M256 502c-136 0-246-110-246-246 0-135 110-246 246-246 136 0 246 111 246 246 0 136-110 246-246 246z m0-481c-129 0-235 106-235 235 0 130 106 235 235 235 130 0 235-105 235-235 0-129-105-235-235-235z m43 288c-4 0-5-4-6-8l-14-58-15 56c-1 6-2 9-8 9-6 0-7-4-8-9l-15-56-14 58c-1 5-2 8-6 8-3 0-5-3-5-5 0-2 1-4 1-5l16-63c2-6 3-9 7-9 5 0 6 3 8 9l16 59 16-59c2-6 3-9 8-9 4 0 5 3 7 9l16 63c0 1 1 3 1 5 0 2-2 5-5 5z m91 34c-13 9-33 3-43 0 0 12 1 21 1 24 0 16-71 18-92 18-21 0-92-2-92-18 0-2 0-11 1-24-10 3-30 9-43 0-7-4-11-12-11-23 0-23 27-51 47-72 6-6 12-12 15-17l1 0c3-5 10-13 8-16 0 0-3-4-19-4-3 0-5-2-5-5 0-2 2-4 5-4 14 0 23 2 26 8 15-37 36-57 62-59l0-18c-53 0-57-11-57-15 0-3 4-15 62-15 58 0 62 12 62 15 0 4-4 15-57 15l0 18c29 2 49 27 62 59 3-6 12-8 26-8 3 0 5 2 5 4 0 3-2 5-5 5-16 0-19 4-19 4-2 3 5 11 8 16l1 0c3 5 9 11 15 17 20 21 47 49 47 72 0 11-4 19-11 23z m-214 25c0 0 1 0 1 0 0 0 1 0 1 0 0 0 1 0 1 1 1 0 1 0 2 0 0 0 0 0 1 0 0 0 1 1 2 1 0 0 1 0 1 0 1 0 2 0 2 0 1 1 1 1 2 1 1 0 2 0 4 0 0 0 0 1 1 1 1 0 2 0 3 0 1 0 2 0 2 0 1 0 2 1 4 1 0 0 1 0 2 0 1 0 2 0 3 0 1 0 2 0 3 1 1 0 2 0 3 0 1 0 2 0 3 0 1 0 3 0 4 0 1 0 2 0 3 1 1 0 3 0 4 0 1 0 2 0 3 0 2 0 3 0 5 0 1 0 2 0 3 0 2 0 4 0 5 0 1 0 2 0 3 0 3 0 6 0 9 0 3 0 6 0 9 0 1 0 2 0 3 0 1 0 3 0 5 0 1 0 2 0 3 0 2 0 3 0 5 0 1 0 2 0 3 0 1 0 3 0 4 0 1-1 2-1 3-1 1 0 3 0 4 0 1 0 2 0 3 0 1 0 2 0 3 0 1-1 2-1 3-1 1 0 2 0 3 0 1 0 2 0 2 0 2 0 3-1 4-1 0 0 1 0 2 0 1 0 2 0 3 0 1 0 1-1 1-1 2 0 3 0 4 0 1 0 1 0 2 0 0-1 1-1 2-1 0 0 1 0 1 0 1 0 2-1 2-1 1 0 1 0 1 0 1 0 1 0 2 0 0-1 1-1 1-1 0 0 1 0 1 0 0 0 1 0 1 0 0 0 0-1 0-1-8-3-35-8-80-8-45 0-72 5-80 8 0 0 0 1 0 1z m-12-113c-18 19-44 45-44 65 0 8 2 13 7 16 10 6 30 0 39-3 1-21 4-48 9-75 2-7 4-14 5-21-3 5-9 11-16 18z m143-137c-7-2-24-6-51-6-27 0-44 4-51 6 6 3 22 6 46 6l0-3c0-3 2-5 5-5 3 0 5 2 5 5l0 3c24 0 40-3 46-6z m-51 42c-42 0-62 54-72 100-8 40-10 81-10 99 19-8 65-9 82-9 17 0 62 1 82 9-1-40-9-199-82-199z m92 95c-7-7-12-13-16-18 9 34 13 70 14 96 9 3 29 9 39 3 5-3 7-8 7-16 0-20-26-46-44-65z"/>
<glyph unicode="&#51;" d="M256 504c-137 0-248-111-248-248 0-137 111-248 248-248 137 0 248 111 248 248 0 137-111 248-248 248z m0-485c-131 0-237 107-237 237 0 131 106 237 237 237 131 0 237-106 237-237 0-130-106-237-237-237z m65 166c-20 10-42 16-65 16-23 0-45-6-65-16-3-1-4-5-3-8 2-2 5-3 8-2 18 10 39 15 60 15 21 0 42-5 60-15 1 0 2-1 3-1 2 0 4 1 5 3 1 3 0 7-3 8z m42 59c-33 18-70 28-107 28-38 0-74-10-107-28-2-2-3-5-2-8 2-3 5-4 8-2 31 18 65 27 101 27 36 0 70-9 101-27 1-1 2-1 3-1 2 0 4 1 5 3 1 3 0 6-2 8z m37 54c-43 26-93 40-144 40-51 0-101-14-144-40-3-2-4-5-2-8 1-3 5-4 7-2 42 25 90 39 139 39 49 0 97-14 139-39 0-1 1-1 2-1 2 0 4 1 5 3 2 3 1 6-2 8z"/>
<glyph unicode="&#52;" d="M256 499c-137 0-248-109-248-243 0-133 111-242 248-242 137 0 248 109 248 242 0 134-111 243-248 243z m0-474c-131 0-237 104-237 231 0 128 106 232 237 232 131 0 237-104 237-232 0-127-106-231-237-231z m54 266c1 0 2 0 3 1l56 32c3 2 4 5 2 8-1 3-5 3-7 2l-57-33c-2-1-3-5-2-7 1-2 3-3 5-3z m-36 71c-3 1-6 0-7-3l-58-145-58 146c-2 3-5 4-8 3-2-1-4-4-3-7l62-155c0 0 1-1 1-1l-10-26c0 0-10-25-44-21-3 0-6-2-6-5 0-3 2-6 5-6 3 0 6-1 9-1 35 0 47 29 47 29l73 185c1 3 0 6-3 7z m123-104l0 0-65-1c-3 0-5-2-5-6 0-3 2-5 5-5l0 0 65 1c3 0 6 2 6 5 0 3-3 6-6 6z m-28-79l-56 32c-3 2-6 1-8-2-1-2 0-6 2-7l57-33c0 0 1 0 2 0 2 0 4 1 5 2 2 3 1 6-2 8z"/>
<glyph unicode="&#53;" d="M255 370c0 7-5 12-12 13 0 0-1 0-1 0 0 0-1 0-1 0-1 0-2 0-2-1-5-1-9-2-14-4-66-24-101-97-77-164 18-51 67-85 121-85 15 0 29 3 43 8 5 1 9 3 13 5 6 3 9 9 8 14-1 6-6 10-12 11-43 4-81 34-96 75-15 41-4 87 26 118 3 3 4 6 4 10z m-42-133c17-47 59-78 107-83-4-2-8-3-12-5-13-5-26-7-39-7-47 0-92 30-109 77-21 59 10 126 70 147 4 2 8 3 12 4-33-34-46-85-29-133z m90 58c0-6-5-10-10-10-6 0-11 4-11 10 0 6 5 11 11 11 5 0 10-5 10-11z m93 27c0-4-3-8-8-8-4 0-7 4-7 8 0 4 3 8 7 8 5 0 8-4 8-8z m-32-83c0-6-5-11-10-11-6 0-11 5-11 11 0 5 5 10 11 10 5 0 10-5 10-10z m-10 120c0-6-5-10-11-10-5 0-10 4-10 10 0 6 5 11 10 11 6 0 11-5 11-11z"/>
<glyph unicode="&#54;" d="M449 245c-2 23-14 40-33 49-15 7-34 7-48 2-9 13-24 21-41 21-9 38-43 67-84 67-25 0-49-12-66-30-7 3-15 5-24 5-34 0-61-28-61-62 0-9 2-18 5-26-8-10-12-24-12-37 0-35 28-63 62-63 17 0 33 7 44 18 12-17 31-27 52-27 10 0 20 2 28 7 11-24 35-41 61-41 1 0 2 0 3 0 18 1 36 10 48 24 5-2 11-3 17-3 13 1 24 6 33 15 9 10 13 22 13 34 0 7-2 13-4 19 6 9 8 19 7 28z m-175-56c-2 0-4-2-5-4-8-5-17-7-26-7-19 0-36 11-43 28-1 3-4 5-7 5 0 0 0 0 0 0-3 0-5-1-7-3-9-13-23-21-39-21-26 0-47 21-47 47 0 11 5 22 12 31 3 3 3 6 1 9-3 7-6 15-6 23 0 25 21 46 46 46 8 0 16-2 23-6 3-2 8-1 10 2 14 18 34 29 57 29 39 0 71-32 71-71 0-7-1-14-3-20 0-2 0-5 1-6 1-2 3-4 5-4 12-3 21-14 21-27 0-14-12-27-27-27-4 0-8 1-12 3-2 1-5 1-7 0-2-1-3-2-4-5-3-8-8-16-14-22z m152 33c-2-2-2-6 0-9 2-4 4-10 4-15 0-9-3-17-8-23-6-6-14-10-23-10-5 0-10 1-15 3-4 2-8 1-10-2-9-13-24-21-40-22-22-1-42 13-49 34 6 6 12 13 15 21 4-1 7-1 11-1 23 0 43 19 43 42 0 18-11 33-26 40 1 5 2 11 2 17 0 1 0 3 0 4 12-1 23-8 28-19 1-2 3-4 5-4 2-1 4 0 6 1 8 5 26 7 41 0 10-4 22-14 24-35 1-10-5-18-8-22z"/>
<glyph unicode="&#55;" d="M243 277l12 0 0-12-12 0z m0-20l12 0 0-12-12 0z m0-39l12 0 0-12-12 0z m0 19l12 0 0-11-12 0z m82 40l12 0 0-12-12 0z m0 19l12 0 0-11-12 0z m20 40l12 0 0-12-12 0z m0-59l12 0 0-12-12 0z m0 19l12 0 0-11-12 0z m-20 40l12 0 0-12-12 0z m0-20l12 0 0-12-12 0z m20 0l12 0 0-12-12 0z m-183 0l12 0 0-12-12 0z m0-20l12 0 0-11-12 0z m20 0l12 0 0-11-12 0z m0-19l12 0 0-12-12 0z m226-83l0 0-1 1c-4 12-15 21-29 24l-1 0 0 1 0 1 0 127c0 8-6 14-14 14l-43 0c-8 0-14-6-14-14l0-95-1-1c-2-1-4-2-6-4l-1-1-1 1c-1 0-1 0-1 1l-2 0 0 59c0 7-6 14-14 14l-43 0c-7 0-14-7-14-14l0-47-2 1c-2 1-4 2-7 2l-1 1 0 62c0 8-6 14-14 14l-43 0c-8 0-14-6-14-14l0-103-1-1c-16-4-28-16-31-32l-1 0 0-1c-6-4-9-10-9-18 0-12 11-22 23-22l276 0c13 0 24 10 24 22 0 10-6 18-15 22z m-89 156l45 0 0-109-2 3c-2 2-3 3-5 4l0 9-12 0 0-2c-5 2-11 3-17 3-2 0-5 0-8 0l-1-1z m-83-41l46 0 0-116-46 0z m-81 20l46 0 0-63-2 0c-9-1-18-4-25-9l0 0-12 0 0-12 0 0c-1-2-3-5-4-7l-3 0z m245-166l-277 0c-5 0-10 4-10 9 0 4 2 7 6 9l3 1 0 4c2 14 15 25 30 25 3 0 5 0 7 0l8-2 0 9c0 19 16 34 35 34 8 0 15-2 21-6l0 0 0-53-20 0c-3 0-6-3-6-6 0-4 3-6 6-6l33 0c1 0 1-1 1-1l43 0c1 0 1 1 2 1l32 0c4 0 7 2 7 6 0 3-3 6-7 6l-20 0 0 40 5-4 4 5c6 7 16 11 25 11 9 0 17-3 23-9 7-6 10-14 10-23l0-8 7 1c1 0 2 0 3 0 12 0 22-8 25-19l1-4 4-1c5-1 9-5 9-10 0-5-5-9-10-9z m-238 114l12 0 0-12-12 0z m20 39l12 0 0-12-12 0z m81-79l12 0 0-11-12 0z m-20 59l12 0 0-11-12 0z m20-78l12 0 0-12-12 0z m0 39l12 0 0-12-12 0z m0 39l12 0 0-11-12 0z m0-19l12 0 0-12-12 0z"/>
<glyph unicode="&#56;" d="M367 426c-1 1-3 2-4 2-3 0-6-2-7-4l-33-50c-2-4-1-9 3-12 1-1 3-1 4-1 3 0 6 1 7 4l33 50c1 2 1 4 1 6-1 2-2 4-4 5z m-196-171c0-53 43-95 95-95 1 0 1 0 2 0 3-17 18-29 35-29 8 0 16 3 23 8 7-8 17-13 27-13 13 0 26 8 32 19 1 0 2 0 4 0 14 0 26 12 26 26 0 10-5 18-13 23 0 2 1 4 1 7 0 24-18 44-42 48 1 2 1 4 1 6 0 52-43 95-96 95-52 0-95-43-95-95z m215-54c0-3 0-7-1-10-1-2 0-4 1-6 1-2 3-3 5-4 4-1 8-5 8-10 0-5-5-10-10-10-2 0-3 1-5 1-1 1-2 1-3 1-2 0-3 0-4-1-2-1-4-2-4-5-3-8-11-14-20-14-8 0-15 5-18 12-2 3-4 5-7 5 0 0-1 0-1 0-3 0-5-1-7-3-4-6-10-9-17-9-11 0-20 9-20 20 0 5 2 10 5 13 3 3 3 7 1 10-1 3-2 6-2 10 0 11 9 20 20 20 3 0 6-1 9-3 2-1 3-1 4-1 3 0 5 1 7 3 6 9 16 14 26 14 18 0 33-15 33-33z m-120 133c44 0 79-36 79-79 0-2 0-4 0-6-10-2-20-7-27-14-4 1-8 2-11 2-20 0-37-16-37-36 0-5 1-9 3-13-3-4-4-8-5-12-1 0-1 0-2 0-43 0-78 35-78 79 0 43 35 79 78 79z m9 52l0 59c0 4-4 8-8 8-5 0-8-4-8-8l0-59c0-4 3-8 8-8 4 0 8 4 8 8z m184-121l-65 0c-4 0-8-4-8-9 0-4 4-8 8-8l65 0c5 0 8 4 8 8 0 5-3 9-8 9z m-392-9c0-5 3-8 8-8l65 0c5 0 8 3 8 8 0 4-3 8-8 8l-65 0c-5 0-8-4-8-8z m303 62c1-3 4-5 7-5 1 0 3 1 4 1l56 29c4 2 6 7 4 11-2 3-5 5-8 5-1 0-2 0-4-1l-56-29c-4-2-5-7-3-11z m-192 106c-2 2-4 4-7 4-2 0-3-1-5-2-3-2-5-7-2-11l32-51c2-2 4-3 7-3 2 0 3 0 5 1 4 2 5 7 2 11z m-14-230c-1 3-4 5-7 5-1 0-2-1-4-1l-56-29c-2-1-3-3-4-5-1-2 0-4 1-6 1-3 4-5 7-5 1 0 2 1 4 1l56 29c4 2 6 7 3 11z m95-68l0-59c0-4 4-8 8-8 5 0 9 4 9 8l0 59c0 4-4 8-9 8-4 0-8-4-8-8z m-92-40c1-1 3-2 4-2 3 0 6 2 7 4l33 50c2 4 1 9-3 12-1 1-3 1-4 1-3 0-6-1-7-4l-33-50c-2-4-1-9 3-11z m-63 271c-1 1-2 1-3 1-3 0-6-1-8-4-2-4 0-9 4-11l56-29c1-1 3-1 4-1 3 0 6 1 7 4 2 4 1 9-3 11z"/>
<glyph unicode="&#57;" d="M136 114c11 0 22 5 30 13 8-12 21-19 36-19 17 0 32 10 39 25 3 0 5-1 7-1 15 0 27 10 29 24 12-4 24-5 37-5 15 0 29 2 43 7 5 2 9 4 13 6 6 2 9 8 8 14-1 6-6 10-12 10-43 5-81 34-96 75-15 41-4 88 26 119 3 2 4 6 4 9 0 7-5 13-12 13 0 0-1 0-1 0 0 0-1 0-1 0-1 0-2 0-2 0-5-1-9-3-14-4-59-21-93-82-83-142-11-3-22-9-30-19-5 3-11 4-17 4-23 0-42-19-42-43 0-6 1-12 4-17-6-8-9-17-9-26 0-23 19-43 43-43z m139 274c4 1 8 2 12 3-33-34-46-85-29-132 17-48 60-79 107-84-4-1-8-3-12-5-13-4-26-6-39-6-13 0-25 2-37 6-3 8-9 15-17 19 1 4 1 7 1 11 0 33-26 60-59 60-1 0-1 0-2 0-9 54 22 108 75 128z m-162-203c-3 5-4 10-4 15 0 18 14 32 31 32 6 0 11-1 16-4 2-1 5-1 7 1 9 13 23 20 39 20 27 0 49-22 49-49 0-4-1-9-2-13-1-2-1-3 0-5 1-1 2-2 4-2 8-2 14-10 14-18 0-11-8-19-19-19-2 0-5 1-8 2-1 1-3 1-4 0-2-1-3-2-3-3-4-14-17-23-31-23-13 0-25 7-30 19-1 2-2 3-4 4 0 0-1 0-1 0-2 0-3-1-4-3-6-9-16-14-27-14-18 0-32 14-32 32 0 8 3 16 8 22 2 1 2 4 1 6z m235 132c0-6-5-11-10-11-6 0-11 5-11 11 0 5 5 10 11 10 5 0 10-5 10-10z m51 64c0-6-5-11-11-11-5 0-10 5-10 11 0 5 5 10 10 10 6 0 11-5 11-10z m42-38c0-4-3-7-8-7-4 0-7 3-7 7 0 5 3 8 7 8 5 0 8-3 8-8z m-32-83c0-6-5-10-10-10-6 0-11 4-11 10 0 6 5 10 11 10 5 0 10-4 10-10z"/>
<glyph unicode="&#33;" d="M239 108l0 45c0 4-4 8-8 8-5 0-8-4-8-8l0-45c0-5 3-8 8-8 4 0 8 3 8 8z m-37 27l0 45c0 4-3 8-8 8-4 0-8-4-8-8l0-45c0-5 4-8 8-8 5 0 8 3 8 8z m174 173c1 6 2 12 2 17 0 48-39 87-87 87-25 0-49-11-66-30-7 3-15 5-24 5-34 0-61-28-61-62 0-8 2-17 5-25-8-11-12-24-12-37 0-35 28-63 62-63 17 0 33 7 44 18 12-17 31-27 52-27 25 0 47 14 57 37 4-1 7-2 11-2 23 0 43 20 43 43 0 17-11 33-26 39z m-17-66c-4 0-8 1-12 3-2 1-5 1-7 0-2-1-3-3-4-5-6-20-24-34-45-34-19 0-36 12-43 29-1 3-4 5-7 5 0 0 0 0 0 0-3 0-5-1-7-4-9-13-23-20-39-20-26 0-47 21-47 47 0 11 5 22 12 31 3 2 3 6 1 9-4 7-6 15-6 22 0 26 21 46 46 46 8 0 16-2 23-5 3-2 8-1 10 2 14 18 34 28 57 28 39 0 71-31 71-71 0-6-1-13-3-20 0-2 0-4 1-6 1-2 3-3 5-4 12-2 21-13 21-26 0-15-12-27-27-27z m-84-112l0 46c0 4-3 7-8 7-4 0-8-3-8-7l0-46c0-4 4-8 8-8 5 0 8 4 8 8z m36-11l0 45c1 4-3 8-7 8-5 0-8-4-8-8l0-45c0-5 3-8 8-8 4 0 7 3 7 8z m37 16l0 45c0 4-4 8-8 8-4 0-8-4-8-8l0-45c0-5 4-8 8-8 4 0 8 3 8 8z"/>
<glyph unicode="&#34;" d="M231 99l15 36c1 4-1 8-5 10-4 1-8-1-10-4l-14-37c-1-3 1-7 5-9 4-2 8 0 9 4z m-74 78c-4 2-8 0-10-4l-14-36c-1-4 1-8 5-10 4-1 8 1 9 4l14 37c2 3 0 8-4 9z m31-24c4-2 8 0 10 3l14 37c1 4-1 8-5 9-4 2-8 0-9-3l-14-37c-2-4 0-8 4-9z m188 173c1 5 2 11 2 17 0 48-39 87-87 87-25 0-49-11-66-30-7 3-15 5-24 5-34 0-61-28-61-62 0-9 2-18 5-25-8-11-12-24-12-38 0-22 11-41 29-53l-5-12c-2-4 1-8 5-9 3-2 8 0 9 3l4 12c7-2 13-3 20-3 17 0 33 6 44 18 6-9 13-15 21-20l-14-36c-1-3 1-7 5-9 4-1 8 0 10 4l13 35c6-1 11-2 17-2 25 0 47 15 57 37 4-1 7-1 11-1 23 0 43 19 43 43 0 17-11 32-26 39z m-17-66c-4 0-8 1-12 2-2 1-5 1-7 0-2 0-3-2-4-5-6-19-24-33-45-33-19 0-36 11-43 29-1 2-4 4-7 4 0 0 0 0 0 0-3 0-5-1-7-3-9-13-23-21-39-21-26 0-47 21-47 47 0 12 5 23 12 31 3 3 3 7 1 9-4 7-6 15-6 23 0 25 21 46 46 46 8 0 16-2 23-6 3-2 8-1 10 2 13 19 34 29 57 29 39 0 71-32 71-71 0-7-1-14-3-20 0-2 0-4 1-6 1-2 3-4 5-4 12-3 21-14 21-26 0-15-12-27-27-27z m-186-131l-14-37c-2-4 0-8 4-9 4-2 8 0 10 3l14 37c1 4-1 8-5 9-4 2-8 0-9-3z m169 45l14 36c1 4-1 8-5 10-4 1-8-1-9-4l-14-37c-2-3 0-7 4-9 4-1 9 0 10 4z m-44 9c-4 2-8 0-10-4l-14-36c-1-4 1-8 5-10 4-1 8 1 9 4l14 37c2 3 0 8-4 9z m-5-97c4-1 9 0 10 4l14 37c1 3-1 7-5 9-4 1-8 0-9-4l-14-37c-2-3 0-7 4-9z"/>
<glyph unicode="&#35;" d="M213 141c0-6-5-10-11-10-5 0-10 4-10 10 0 6 5 10 10 10 6 0 11-4 11-10z m-26 39c0-6-5-11-11-11-6 0-10 5-10 11 0 5 4 10 10 10 6 0 11-5 11-10z m57 9c0-5-5-10-10-10-6 0-11 5-11 10 0 6 5 11 11 11 5 0 10-5 10-11z m-10-91c0-5-5-10-11-10-5 0-10 5-10 10 0 6 5 11 10 11 6 0 11-5 11-11z m34 43c0-6-5-10-11-10-5 0-10 4-10 10 0 6 5 10 10 10 6 0 11-4 11-10z m63 0c0-6-5-10-11-10-5 0-10 4-10 10 0 6 5 10 10 10 6 0 11-4 11-10z m21 48c0-5-5-10-11-10-6 0-10 5-10 10 0 6 4 11 10 11 6 0 11-5 11-11z m24 131c1 6 2 11 2 17 0 48-39 87-87 87-25 0-49-11-66-30-7 3-15 5-24 5-34 0-61-28-61-62 0-9 2-17 5-25-8-11-12-24-12-38 0-34 28-62 62-62 17 0 33 6 44 18 12-17 31-28 52-28 25 0 47 15 57 37 4 0 7-1 11-1 23 0 43 19 43 43 0 17-11 32-26 39z m-17-66c-4 0-8 1-12 3-2 1-5 1-7 0-2-1-3-3-4-5-6-20-24-34-45-34-19 0-36 11-43 29-1 2-4 4-7 5 0 0 0 0 0 0-3 0-5-2-7-4-9-13-23-21-39-21-26 0-47 21-47 47 0 12 5 23 12 32 3 2 3 6 1 9-4 6-6 14-6 22 0 26 21 46 46 46 8 0 16-2 23-6 3-2 8-1 10 3 13 18 34 28 57 28 39 0 71-32 71-71 0-7-1-13-3-20 0-2 0-4 1-6 1-2 3-3 5-4 12-3 21-13 21-26 0-15-12-27-27-27z m-62-156c0-5-4-10-10-10-6 0-11 5-11 10 0 6 5 11 11 11 6 0 10-5 10-11z m11 77c0-6-5-10-11-10-6 0-10 4-10 10 0 6 4 10 10 10 6 0 11-4 11-10z"/>
<glyph unicode="&#36;" d="M333 148c-1 2-4 3-7 3-1 0-3 0-4-1-4-2-5-7-3-11l33-51c1-2 4-4 7-4 1 0 3 1 4 2 4 2 5 7 3 11z m103 206c-1 3-4 5-7 5-1 0-3 0-4-1l-56-29c-4-2-6-7-4-11 2-3 4-5 8-5 1 0 2 1 3 1l57 29c4 2 5 7 3 11z m-73 72c-1 1-3 2-5 2-2 0-5-2-6-4l-33-50c-2-4-1-9 2-12 2-1 3-1 5-1 3 0 5 1 7 4l32 50c2 2 2 4 1 6 0 2-1 4-3 5z m-197-170c0-53 44-96 97-96 53 0 96 43 96 96 0 53-43 96-96 96-53 0-97-43-97-96z m97 80c44 0 79-36 79-80 0-44-35-80-79-80-44 0-80 36-80 80 0 44 36 80 80 80z m8 50l0 59c0 4-4 8-9 8-4 0-8-4-8-8l0-59c0-4 4-8 8-8 5 0 9 4 9 8z m154-231c1-1 3-1 4-1 3 0 6 1 7 4 2 4 1 9-3 11l-56 29c-2 1-3 1-4 1-3 0-6-1-7-4-1-2-2-4-1-6 1-3 2-4 4-5z m-170-29l0-59c0-4 3-8 8-8 4 0 8 4 8 8l0 59c0 4-4 8-8 8-5 0-8-4-8-8z m-155 231c-1 1-3 1-4 1-3 0-6-1-7-4-1-2-1-4-1-6 1-2 2-4 4-5l57-29c1-1 2-1 3-1 3 0 6 1 8 4 2 4 0 9-4 11z m62-271c2-1 3-2 5-2 3 0 5 2 7 4l32 50c3 4 2 9-2 12-2 1-3 1-5 1-3 0-5-1-7-4l-32-50c-3-4-1-9 2-11z m293 179l-65 0c-5 0-9-4-9-9 0-4 4-8 9-8l65 0c4 0 8 4 8 8 0 5-4 9-8 9z m-393-9c0-5 4-8 9-8l65 0c4 0 8 3 8 8 0 4-4 8-8 8l-65 0c-5 0-9-4-9-8z m98-62c-1 3-4 5-7 5-2 0-3-1-4-1l-56-29c-4-2-6-7-4-11 2-3 4-5 7-5 2 0 3 1 4 1l56 29c4 2 6 7 4 11z m13 230c-1 2-4 4-7 4-1 0-3-1-4-2-4-2-5-7-3-11l33-51c1-2 4-3 7-3 1 0 3 0 4 1 2 1 3 3 4 5 0 2 0 4-1 6z"/>
<glyph unicode="&#37;" d="M144 298c-4 1-8-1-9-4-1-4 1-8 4-10 2 0 29-9 61-11 3-1 7-1 11-1 37 0 63 13 74 38 11 25 6 41 0 50-8 14-25 20-38 20-13 0-26-8-32-20-6-11-5-24 4-36 9-13 24-14 33-8 9 6 12 16 7 26-2 4-6 5-10 3-3-2-5-6-3-10 1-1 3-4-1-7-3-2-10-2-14 4-6 8-7 15-3 22 3 6 12 11 19 11 7 0 20-3 26-13 6-8 5-20-1-36-24-53-127-18-128-18z m194 31c-10-1-23-7-28-19-5-9-3-20 4-30 8-12 21-12 29-7 9 5 11 15 6 23-2 4-6 5-10 3-3-2-4-6-2-10 1-1 0-3-1-4-2-1-7-2-10 3-4 6-5 11-3 16 3 6 10 10 16 10 5 1 15-1 21-8 7-10 4-23 0-33-6-18-26-26-58-23-25 2-49 10-50 10-3 1-8-1-9-4-1-4 1-8 5-10 1 0 25-9 53-11 4 0 8 0 12 0 40 0 55 17 61 33 9 24 3 38-3 46-8 11-23 16-33 15z m-101-156c-3-1-5-6-3-9 2-4 6-5 9-4 9 4 13 14 9 23-3 9-14 16-28 11-11-4-19-11-21-21-2-13 5-26 12-32 5-4 14-9 25-9 3 0 7 1 11 2 9 3 22 12 27 36 5 25-9 49-40 69-23 14-47 22-48 22-3 1-7-1-9-5-1-3 1-8 5-9 0 0 23-7 44-20 26-17 37-35 33-54-2-14-8-23-17-25-8-3-18 0-22 4-4 3-8 11-6 18 0 5 4 9 11 11 6 2 9-1 10-4 1-2 0-3-2-4z"/>
<glyph unicode="&#38;" d="M327 364c-21 3-35 5-46 5-39 0-56-13-57-86l-24 0c-3 0-5-2-5-5l0-43c0-3 2-5 5-5l24 0 0-112c0-2 2-4 4-4l51 0c2 0 5 2 5 4l0 112 33 0c2 0 4 1 4 4l6 43c0 2-1 3-2 4-1 1-2 2-3 2l-38 0c-1 1-1 3-1 4 0 12 0 21 4 24 4 4 14 4 34 0 1 0 3 0 4 1 1 1 1 2 2 4l4 43c1 3-1 5-4 5z"/>
<glyph unicode="&#39;" d="M302 385c-82 27-169-22-189-105-19-79 28-147 84-170 0 0 0 0 0 0 0 7 0 14 0 21 1 4 1 8 2 12 3 13 6 26 9 39 4 14 7 27 10 41 0 1 0 1 0 2-2 4-3 9-4 15-1 6-1 13 1 19 2 7 4 13 9 18 5 6 11 9 18 8 10 0 16-5 19-13 1-5 1-10 1-15-1-5-3-10-4-16-3-9-6-18-8-27-1-4-2-8-1-12 0-7 4-12 10-16 6-3 12-4 19-3 5 1 10 3 14 7 5 4 9 9 13 14 7 11 10 23 12 36 1 4 1 9 2 14 0 6 0 13-1 19-2 9-5 17-11 24-6 7-13 12-22 16-6 2-13 4-20 4-6 1-12 1-17 0-6-1-11-2-17-4-8-3-16-7-22-13-5-4-9-9-13-14-6-10-10-21-11-33 0-5 0-10 1-15 1-6 3-12 7-17 1-2 2-3 3-5 1-1 2-2 1-4 0-1 0-3-1-5 0-3-1-6-2-9-1-2-2-4-4-4-1 0-3 0-4 0-3 2-6 4-9 6-7 6-12 13-15 21-4 9-5 18-6 28 0 6 1 13 2 19 2 9 6 18 11 26 5 9 12 18 21 25 13 11 29 18 46 21 7 1 13 2 20 3 8 0 16-1 24-2 8-1 15-3 21-6 11-4 20-10 29-18 8-9 15-19 19-30 3-7 5-15 6-23 0-5 0-10 0-15-1-7-2-14-3-21-2-10-6-21-12-31-5-10-13-19-22-26-4-3-9-5-13-8-7-2-13-4-20-5-5-1-10-1-14 0-7 0-14 2-20 6-4 3-8 6-11 10 0 1 0 1-1 1 0 0 0 0 0 0-2-11-5-21-8-32-1-5-2-10-4-15-3-7-6-14-10-20-1-1-2-3-3-4 32-9 63-9 94 3 40 15 68 43 84 82 32 79-8 169-90 196z"/>
<glyph unicode="&#40;" d="M368 282l-84 0 0 84c0 15-12 28-28 28-16 0-28-13-28-28l0-84-84 0c-15 0-28-12-28-28 0-15 13-28 28-28l84 0 0-84c0-15 12-28 28-28 16 0 28 13 28 28l0 84 84 0c15 0 28 13 28 28 0 16-13 28-28 28z"/>
<glyph unicode="&#41;" d="M386 322l0 0c0 0-1 0-1 0 0 0-1 0-1 0-4-2-7-3-11-4 5 5 9 11 11 18 0 0 0 1 0 1 0 3-2 5-4 5l0 0c0 0 0 0-1 0 0 0-1 0-1 0-2-1-3-2-5-2-7-4-14-7-23-9-11 10-24 15-39 15-17 0-34-8-44-21-10-11-14-25-12-41-44 5-72 26-94 48 0 0 0 0 0 0 0 2-1 3-3 4 0 0-1 0-1 0-1 0-3 0-3-1-8-6-9-17-10-26-1-16 6-28 14-37-3 1-5 2-7 3-1 0-1 0-2 0-1 0-2 0-3 0-1-1-2-3-2-5 1-20 9-36 24-46 0 0-1 0-1 0-1 0-3 0-3-1-2-2-2-4-1-5 6-20 20-32 39-36-14-10-35-15-57-15l-1 0c-1 0-2 0-4 0l0 0c-2 0-4-2-4-4-1-2 0-4 2-5 25-15 52-22 81-22 7 0 14 0 22 1 72 10 125 74 125 152 2 2 3 3 5 5 7 6 14 12 19 21 0 1 0 1 0 2 0 3-2 5-4 5z"/>
<glyph unicode="&#42;" d="M353 307c5 3 8 7 10 13 1 5 0 10-3 15-3 6-10 10-17 10-3 0-7-1-10-3l-51-30c-5-2-9-7-10-12-1-5-1-10 2-15 4-6 10-10 18-10 3 0 7 1 10 3z m-79-84c-3-5-3-10-2-16 2-5 5-9 10-12l51-30c3-1 7-2 10-2 7 0 14 3 17 10 3 4 4 10 3 15-2 5-5 10-10 12l-51 30c-3 2-7 3-10 3-8 0-14-4-18-10z m-10 146c-2 1-5 1-7 1-9 0-16-5-19-13l-39-97-39 99c-4 7-11 12-19 12-3 0-5 0-8-1-5-2-9-6-11-11-2-5-2-10 0-15l55-138-6-17c-1-2-5-11-20-11-2 0-3 0-5 0l-1 0-1 0c-11 0-19-7-20-17-1-6 0-11 4-15 3-4 8-7 13-8 4 0 7 0 10 0 42 0 57 34 57 36l67 169c2 5 2 10 0 15-2 5-6 9-11 11z m107-95l-59 0c-6 0-11-2-15-6-3-4-5-9-5-15 0-11 9-19 20-19l0 0 59 0c6 0 11 2 15 6 3 4 5 9 5 14 0 11-9 20-20 20z"/>
<glyph unicode="&#43;" d="M345 198c0 4 0 8-1 11 0 3-2 4-4 4-3 0-4-1-5-4 0-3 0-7 0-11z m-58 12c-1 2-2 3-5 3-2-1-4-2-4-5 0-7 0-15 0-22 0-8 0-15 0-23 0-3 2-5 6-5 2 0 3 1 3 5 0 0 0 1 0 1 0 14 0 28 0 41 0 2 0 3 0 5z m61 73c-16 0-32 1-48 1-29 0-59 0-88 0-16 0-33-1-49-1-16-1-30-14-32-30-2-12-2-23-2-35 0-24 0-47 1-70 1-18 17-33 34-33 31-1 61-2 92-3 30 1 61 2 92 3 16 0 31 13 33 30 2 12 2 25 2 37 0 22-1 44-1 66-1 18-15 33-34 35z m-163-44l0-92c0-5 0-5-4-5-4 0-8 0-12 0-4 0-5 0-5 4 0 20 0 40 0 59l0 34c-5 0-9 0-14-1-3 0-4 1-4 4 0 5 0 9 0 13 0 2 1 4 4 4 16 0 33 0 50 0 3 0 4-1 3-4 0-4 0-9 0-13 1-3-1-4-3-4-5 1-10 1-15 1z m59-97c-4 0-8 0-11 0-4 0-5 0-5 4 0 0 0 1 0 1-4-2-8-5-13-6-7-2-13 2-15 10 0 3 0 5 0 8 0 22 0 44 0 66 0 4 0 4 4 4 4 0 7 0 11 0 3 0 4-1 4-4 0-19 0-39 0-58 0-1 0-1 0-2 0-2 1-4 1-5 2 0 4 1 5 2 3 1 3 3 3 6 0 19 0 38 0 57 0 4 1 4 5 4 3 0 7 0 10 0 4 0 5 0 5-4 0-23 0-47 0-70 0-3-1-6 0-9 0-3-1-4-4-4z m63 17c0-2 0-4-1-6-3-14-16-14-25-9-1 0-1 0-2 1-1-4-3-3-6-3-3 0-7 0-11 0-2 0-3 1-3 3 0 37 0 74 0 110 0 3 1 4 3 4 4 0 9 0 13 0 2 0 3-1 3-4 0-9 0-18 0-26l0-3c4 2 8 3 12 4 7 0 13-4 15-10 1-3 2-7 2-11 0-16 0-33 0-50z m28 4c0-3 2-5 4-5 3 0 5 1 5 4 1 3 1 6 1 10 0 2 1 4 3 4 5-1 9-1 13-1 2 0 4 0 3-2 0-6 0-12-2-18-2-8-8-13-16-15-9-1-17 0-24 6-4 5-6 11-7 17 0 15 0 29 0 44 1 16 15 27 31 24 10-2 17-10 18-21 1-8 0-17 0-25 1-3-1-3-3-3-7 0-15 0-23 0l-3 0c0-7 0-13 0-19z m-26 222l-15 0c0-1 0-2 0-3 0-22 0-44 0-66 0-3 0-5 1-8 1-5 6-8 11-7 6 1 10 3 13 7 1 1 2 1 4 3l0-9 15 0 0 83-15 0 0-4c0-18-1-36 0-55 0-4-2-7-6-9-1-1-4-2-6-1-1 1-1 3-2 5 0 1 0 2 0 3z m-88 30c-2 0-3-1-3-3-3-13-6-27-9-40-1-1-1-2-1-3-1 1-2 2-2 3-3 13-7 27-10 40 0 1-1 2-2 2-5 1-10 0-16 0 1-1 1-2 1-3 6-20 12-41 19-61 0-2 1-5 1-7 0-12 0-25 0-38 0-1 0-2 0-3l17 0 0 4c0 13 0 26 0 40 0 2 0 4 1 6 6 19 12 39 18 59 0 1 1 2 1 3-5 0-10 0-15 1z m15-95c0-5 1-8 4-12 5-7 12-9 20-8 12 0 20 8 20 19 0 17 0 33 0 49 0 2-1 5-2 7-4 9-13 13-23 12-12-2-19-9-19-21 0-7 0-15 0-22l0 0c0-8 0-16 0-24z m24 52c3-1 5-3 5-7 0-7 0-14 0-21 0-7 0-15 0-22 0-5-3-8-8-8-3 0-5 2-5 5 0 1-1 2-1 4 0 14 0 28 0 42 0 6 4 9 9 7z"/>
<glyph unicode="&#44;" d="M316 362l-137 0c-13 0-26-4-36-14-9-9-14-21-14-35l0-66c0-12 9-30 16-38 8-10 16-16 30-17l4-1 0-30c8 7 27 22 40 33l1 1 96 0c15 0 29 6 38 15 7 9 17 22 17 37l0 66c0 27-25 49-55 49z m-138-104c-11 0-21 9-21 21 0 12 10 21 21 21 12 0 21-9 21-21 0-12-9-21-21-21z m67 0c-12 0-21 9-21 21 0 12 9 21 21 21 12 0 21-9 21-21 0-12-9-21-21-21z m67 0c-12 0-22 9-22 21 0 12 10 21 22 21 11 0 21-9 21-21 0-12-10-21-21-21z m-134 33c-6 0-12-5-12-12 0-7 6-12 12-12 7 0 13 5 13 12 0 7-6 12-13 12z m73 183c-120 0-217-97-217-217 0-119 97-216 217-216 120 0 217 97 217 216 0 120-97 217-217 217z m128-227c0-18-10-33-19-43-10-11-27-18-44-18l-93 0c-28-23-38-31-42-34-1-2-3-4-6-4-1 0-3 0-4 1-1 2-1 4-1 5l0 29c-15 3-24 11-32 20-7 9-18 29-18 44l0 66c0 17 6 31 17 42 12 11 26 16 42 16l137 0c35 0 63-26 63-58l0-66z m-134 44c-7 0-12-5-12-12 0-7 5-12 12-12 7 0 12 5 12 12 0 7-5 12-12 12z m67 0c-7 0-13-5-13-12 0-7 6-12 13-12 6 0 12 5 12 12 0 7-6 12-12 12z"/>
<glyph unicode="&#45;" d="M256 473c-121 0-219-98-219-219 0-121 98-220 219-220 121 0 219 99 219 220 0 121-98 219-219 219z m123-292c0-7-5-12-11-12l-224 0c-6 0-11 5-11 12l0 109 103-89c5-5 13-8 20-8 8 0 15 3 20 8l103 89z m0 139l-118-104c-1-1-3-2-5-2-2 0-4 1-5 2l-118 104 0 12c0 7 5 12 11 12l224 0c6 0 11-5 11-12z"/>
<glyph unicode="&#46;" d="M256 475c-122 0-221-99-221-221 0-122 99-221 221-221 122 0 221 99 221 221 0 122-99 221-221 221z m23-186c0-2 0-3 0-5l38 0c1 0 3-1 4-2 1-1 1-2 1-3l-5-44c-1-2-3-4-5-4l-33 0 0-112c0-2-2-4-5-4l-50 0c-3 0-5 2-5 4l0 112-24 0c-3 0-5 2-5 5l0 43c0 3 2 5 5 5l24 0c1 73 19 86 57 86 11 0 25-2 47-5 2 0 4-2 4-5l-5-43c0-2-1-3-2-4-1-1-3-1-4-1-20 5-30 5-34 0-4-3-3-12-3-23z"/>
<glyph unicode="&#47;" d="M256 482c-126 0-229-102-229-228 0-127 103-229 229-229 126 0 229 102 229 229 0 126-103 228-229 228z m136-284c-16-39-44-67-84-82-31-12-62-12-94-4 1 2 2 3 3 5 4 6 7 13 10 20 2 5 3 10 4 15 3 10 6 21 8 31 0 1 0 1 0 1 1 0 1-1 1-1 3-4 7-8 11-10 6-4 13-6 19-7 5 0 10 0 15 1 7 0 13 2 20 5 4 2 9 5 13 8 9 7 17 16 22 26 6 10 10 20 12 31 1 7 2 14 3 21 0 5 0 10 0 15-1 8-3 16-6 23-4 11-11 21-20 30-8 7-17 14-28 18-7 3-14 5-21 6-8 1-16 2-24 1-7 0-13-1-20-2-17-3-33-10-46-21-9-8-16-16-21-25-5-9-9-17-11-26-1-7-2-13-2-20 1-9 2-18 6-27 3-8 8-16 15-21 3-2 6-4 9-6 1 0 3 0 4 0 2 0 3 2 4 4 1 3 2 6 2 9 1 2 1 3 1 5 1 1 0 3-1 4-1 1-2 3-3 5-4 5-6 11-7 17-1 5-1 10-1 15 1 12 5 22 11 32 4 6 8 10 13 15 6 6 14 10 22 13 6 2 11 3 17 4 5 0 11 0 17 0 7-1 14-2 20-5 9-3 16-8 22-15 6-7 9-15 11-24 1-6 1-13 1-19-1-5-1-10-2-15-2-12-5-24-12-35-4-6-8-11-13-15-4-3-9-5-14-6-7-1-13 0-19 3-6 4-10 9-11 16 0 4 1 8 2 12 2 9 5 18 8 27 1 5 3 11 4 16 0 5 0 10-1 15-3 8-9 13-19 13-7 0-13-3-18-8-5-5-7-11-9-18-2-6-2-13-1-19 1-6 2-11 4-16 0 0 0-1 0-1-3-14-6-27-10-41-3-13-6-26-9-39-1-4-1-8-2-12 0-7 0-14 0-21 0 0 0 0 0 0-56 23-103 91-84 170 20 83 107 132 189 105 82-27 122-117 90-196z"/>
<glyph unicode="&#58;" d="M205 338c0 0 0 0 0 0-1 0-1 0-1 0 0 0 0 0 0-1l0-168c0-1 0-1 0-1 0 0 0 0 1 0 0 0 0 0 0 0 1 0 1 1 2 1l138 84c0 0 0 0 0 0l-138 84c-1 0-1 1-2 1z m49 134c-119 0-215-96-215-215 0-118 96-214 215-214 118 0 214 96 214 214 0 119-96 215-214 215z m96-225l-139-84c-2-2-4-3-6-3-1 0-3 1-4 1-3 1-5 4-5 8l0 168c0 4 2 7 5 8 1 0 3 1 4 1 2 0 4-1 6-3l139-84c3-3 3-9 0-12z"/>
<glyph unicode="&#59;" d="M256 473c-121 0-219-98-219-219 0-121 98-220 219-220 121 0 219 99 219 220 0 121-98 219-219 219z m112-248l-84 0 0-83c0-16-12-28-28-28-16 0-28 12-28 28l0 83-84 0c-15 0-28 13-28 29 0 15 13 28 28 28l84 0 0 83c0 16 12 29 28 29 16 0 28-13 28-29l0-83 84 0c15 0 28-13 28-28 0-16-13-29-28-29z"/>
<glyph unicode="&#60;" d="M256 475c-122 0-221-99-221-221 0-122 99-221 221-221 122 0 221 99 221 221 0 122-99 221-221 221z m134-159c-5-9-12-15-19-21-1-2-3-3-4-4-1-79-54-142-126-152-8-2-15-2-22-2-28 0-55 7-81 22-2 1-3 3-2 5 0 2 2 4 4 4l1 0c1 0 2 0 4 0l0 0c22 0 43 5 58 15-20 4-33 16-40 36-1 2 0 3 1 5 1 1 2 1 3 1 1 0 1 0 2 0-15 10-23 26-25 46 0 2 1 4 3 5 0 0 1 0 2 0 1 0 2 0 2 0 2-1 5-2 7-3-7 9-15 21-14 37 1 9 3 20 10 26 1 1 2 1 3 1 0 0 1 0 2 0 1-1 2-2 3-4 0 0 0 0 0 0 21-22 50-43 94-48-2 16 2 30 11 41 11 14 27 21 45 21 14 0 28-5 38-15 9 2 16 5 24 9 1 0 3 1 4 2 1 0 1 0 2 0 0 0 0 0 0 0l0 0c3 0 5-2 5-4 0-1 0-2-1-2-2-7-6-13-10-18 3 1 7 2 10 4 1 0 1 0 2 0 0 0 0 0 0 0l0 0c3 0 5-2 5-4 0-1 0-2-1-3z"/>
<glyph unicode="&#61;" d="M256 473c-121 0-219-98-219-219 0-121 98-220 219-220 121 0 219 99 219 220 0 121-98 219-219 219z m40-162l51 30c3 2 7 3 10 3 8 0 14-4 18-11 3-4 3-10 2-15-1-5-5-9-9-12l-52-30c-3-2-6-3-10-3-7 0-14 4-17 10-3 5-4 11-2 16 1 5 4 9 9 12z m-73-139c-1-1-15-36-58-36-3 0-6 1-9 1-6 1-10 3-14 7-3 5-5 10-4 15 1 10 10 18 20 18l1 0 1 0c2 0 4 0 5 0 15 0 20 9 20 10l7 17-55 138c-2 5-2 11 0 16 2 5 6 8 11 10 2 1 5 2 7 2 9 0 16-5 19-13l39-98 39 97c3 8 11 13 19 13 3 0 5-1 7-2 5-2 9-5 11-10 3-5 3-11 1-16z m152-1c-4-6-10-10-18-10-3 0-7 1-10 3l-51 30c-5 2-8 7-9 12-2 5-1 11 2 15 3 6 10 10 17 10 4 0 7-1 10-2l52-30c4-3 8-7 9-12 1-6 1-11-2-16z m25 68c-4-4-9-6-14-6l-60-1 0 0c-11 0-20 9-20 20 0 5 2 11 6 14 4 4 9 6 14 6l59 1c12 0 21-9 21-20 0-5-2-10-6-14z"/>
<glyph unicode="&#97;" d="M144 67c0 0 183 189 183 189 0 0-183 190-183 190-9 9-9 18 0 25 8 9 17 9 24 0 0 0 201-202 201-202 8-9 8-17 0-25 0 0-201-202-201-202-7-9-16-9-24 0-9 7-9 16 0 25"/>
<glyph unicode="&#98;" d="M251 318c0-3 2-4 5-5 5 0 8 3 8 9 0 7 0 14 0 21 0 8 0 15 0 22 0 4-2 6-5 7-5 1-9-2-9-8 0-14 0-28 0-42 0-1 0-2 1-4z m86-137c8 0 15 0 23 0 2 0 4 1 3 3 0 9 0 17 0 26-1 11-8 18-18 20-16 3-30-7-31-24 0-14 0-29 0-43 1-7 3-12 7-17 7-7 15-8 24-6 8 1 14 6 16 14 2 6 2 12 2 18 1 3-1 3-3 3-4 0-8 0-13 0-2 0-3-1-3-4 0-3 0-6-1-10 0-2-2-4-5-4-2 1-4 2-4 6 0 6 0 12 0 18 0 0 3 0 3 0z m-3 28c0 2 2 3 5 3 2 0 4-1 4-3 1-4 1-7 1-11l-10 0c0 4 0 7 0 11z m-132 33c0 4 0 8 0 13 0 2-1 3-3 3-17 0-34 0-50 0-3 0-4-1-4-3 0-5 0-9 0-13 0-3 1-4 4-4 5 0 9 0 14 0l0-33c0-20 0-40 0-59 0-4 1-5 5-5 4 0 8 0 12 0 4 0 4 1 4 5l0 92c5 0 10 0 15 0 2 0 4 1 3 4z m102-23c-2 7-8 11-15 10-4 0-8-2-12-3l0 2c0 9 0 18 0 26 0 3-1 4-3 4-4 0-9 0-13 0-2 0-3-1-3-3 0-37 0-74 0-110 0-3 1-4 3-4 4 0 8 0 11 0 3 0 5 0 6 4 1-1 1-2 2-2 9-5 22-4 25 9 1 3 1 5 1 7 0 17 0 33 0 50 0 3-1 7-2 10z m-18-57c0-4-1-5-3-5-4 0-6 2-6 6 0 7 0 15 0 22 0 8 0 15 0 23 0 3 2 4 4 4 3 1 4 0 5-3 0-1 0-3 0-4 0-14 0-27 0-41 0-1 0-1 0-2z m-30 311c-121 0-219-98-219-219 0-121 98-220 219-220 121 0 219 99 219 220 0 121-98 219-219 219z m37-89l15 0 0-60c0-1 0-2 0-3 1-2 1-5 2-5 2-1 5 0 6 1 4 1 6 4 6 9-1 18 0 36 0 55l0 3 15 0 0-83-15 0 0 10c-2-2-3-3-4-4-3-3-8-6-13-7-5-1-10 2-11 8-1 2-1 5-1 7 0 22 0 44 0 66 0 1 0 2 0 3z m-39 2c10 2 19-3 23-11 1-3 2-5 2-8 0-16 0-32 0-48 0-11-8-19-20-20-8 0-15 2-20 9-3 3-4 7-4 11 0 8 0 16 0 25l0 0c0 7 0 14 0 22 0 12 7 19 19 20z m-61 28c1 0 2-2 2-3 3-13 7-26 10-39 0-1 0-2 2-3 0 1 0 2 1 3 3 13 6 26 9 39 0 2 1 3 3 3 5 0 10 0 15 0 0-2-1-3-1-4-6-20-12-39-18-59-1-2-1-4-1-6 0-13 0-27 0-40l0-4-17 0c0 1 0 3 0 4 0 12 0 25 0 38 0 2-1 4-1 6-7 21-13 41-19 62 0 1-1 1-1 3 6 0 11 0 16 0z m187-270c-2-16-17-29-33-30-31-1-62-1-92-2-31 1-61 1-92 2-17 1-33 16-34 33-1 24-1 47-1 70 0 12 0 24 2 36 2 15 16 28 32 29 16 1 33 1 49 2 29 0 59 0 88 0 16-1 32-1 48-2 19-1 33-17 34-35 0-22 1-43 1-65 0-13 0-25-2-38z m-133 11c0 23 0 46 0 69 0 4-1 5-5 5-3 0-7 0-10 0-4 0-5-1-5-5 0-19 0-38 0-57 0-3 0-5-3-6-1-1-3-1-5-2 0 2-1 4-1 5 0 1 0 2 0 3 0 19 0 38 0 58 0 3-1 4-4 4-4-1-7 0-11 0-4 0-4-1-4-5 0-22 0-44 0-66 0-2 0-5 0-7 2-8 8-12 15-10 5 1 9 3 13 5 0 0 0 0 0 0 0-4 1-5 5-5 3 0 7 0 11 0 3 0 4 1 4 4-1 3 0 7 0 10z"/>
<glyph unicode="&#99;" d="M256 504c-137 0-248-111-248-248 0-137 111-248 248-248 137 0 248 111 248 248 0 137-111 248-248 248z m0-485c-131 0-237 107-237 237 0 131 106 237 237 237 131 0 237-106 237-237 0-130-106-237-237-237z m153 300c-5 31-9 55-9 55 0 2-1 4-3 4-1 1-3 1-5 1l-81-33c0 0 0-1 0-1-3-1-4-3-4-6l2-6c0-2 1-3 3-4 1 0 3 0 4 0 0 0 9 3 16 3 3 0 5 0 6-1 0 0 0 0 0 0 1-1 1-1 1-3 3-7 6-22 10-46 1-4 0-6-1-8l-29-29c-8 53-21 128-21 129 0 2-1 3-3 4-1 1-3 1-4 1l-82-34c-3-1-4-4-3-6l1-6c1-2 2-3 3-4 1-1 3-1 5 0 0 0 8 3 15 3 3 0 5 0 6-1 0 0 0-1 0-1 1 0 1-1 2-2 2-7 5-22 9-46 1-5-1-8-1-8l-29-29c-8 53-20 128-20 129-1 1-2 3-3 4-2 0-3 1-5 0l-82-33c-2-1-4-4-3-7l2-6c0-1 1-3 2-4 2 0 3 0 5 0 2 1 10 3 16 3 2 0 5 0 5-1 0 0 1 0 1 0 3-4 9-31 30-161 1-1 4-19-16-36-3-2-3-5-1-8l6-7c1-2 3-2 4-2 1 0 3 0 3 1 3 1 69 45 62 93 0 1-1 1-1 1l33 33c3-21 7-45 12-74 0-1 3-19-17-36-2-2-2-6-1-8l7-8c2-2 5-2 7-1 3 2 67 44 61 93l40 42 33 32c0 1 13 15 12 34 0 0 0 1 0 1z m-20-27l-33-33-42-44c-1-1-1-3-1-4l0-1c0 0 0 0 0 0 0 0 0-1 0-1 5-33-33-65-49-77 18 19 14 39 14 40-6 34-10 62-14 84-1 2-2 4-4 4-2 1-4 0-6-1l-41-42c-2-1-2-3-2-4 0-2 0-3 1-4 4-33-33-66-50-78 18 19 15 39 14 40-26 159-29 162-33 166-3 3-7 5-11 5l55 23c3-22 14-89 21-133 0-2 2-3 4-4 2-1 4 0 5 1l37 37c0 0 6 7 4 17-4 26-7 41-10 48-1 4-2 5-4 7-2 3-6 5-11 5l55 23c4-22 15-89 22-133 0-3 2-4 4-5 2 0 3 0 5 1 0 0 0 0 0 1l37 37c0 0 0 0 1 1 1 2 4 8 3 16-4 24-8 40-10 47-1 4-2 6-4 7-3 3-6 5-11 5l55 23c2-10 5-28 8-49 1-14-9-25-9-25z"/>
<glyph unicode="&#100;" d="M368 67c9-9 9-18 0-25-8-9-17-9-24 0 0 0-201 202-201 202-8 8-8 16 0 25 0 0 201 202 201 202 7 9 16 9 24 0 9-7 9-16 0-25 0 0-183-190-183-190 0 0 183-189 183-189"/>
<glyph unicode="&#101;" d="M241 329c6 2 9 10 7 16l-31 75c-3 6-10 9-16 7l-19-8 40-98z m18-137c-24 5-42 21-52 46-12 28-10 53 4 75 1 1 2 2 2 3l-40 98c-10-13-18-28-23-44-16-44-13-93 9-146 21-53 54-90 98-112 15-7 31-12 46-15l-38 94c-2 0-4 0-6 1z m50 4c-3 6-10 9-16 6l-19-7 39-96 19 7c7 3 10 10 7 16z m-53 308c-137 0-248-111-248-248 0-137 111-248 248-248 137 0 248 111 248 248 0 137-111 248-248 248z m0-485c-131 0-237 107-237 237 0 131 106 237 237 237 131 0 237-106 237-237 0-130-106-237-237-237z"/>
<glyph unicode="&#62;" d="M257 387c-49 0-88-39-88-88 0-48 79-184 86-184 7 0 90 136 90 184 0 49-40 88-88 88z m0-124c-21 0-37 16-37 37 0 20 16 36 37 36 20 0 37-16 37-36 0-21-17-37-37-37z m-1 241c-137 0-248-111-248-248 0-137 111-248 248-248 137 0 248 111 248 248 0 137-111 248-248 248z m0-485c-131 0-237 107-237 237 0 131 106 237 237 237 131 0 237-106 237-237 0-130-106-237-237-237z"/>
<glyph unicode="&#63;" d="M257 343c-24 0-44-19-44-43 0-25 20-44 44-44 11 0 22 4 30 13 9 8 13 19 13 31 0 24-19 43-43 43z m21-65c-6-6-13-9-21-9-17 0-30 14-30 31 0 16 13 30 30 30 16 0 30-14 30-30 0-9-3-16-9-22z m-22 226c-137 0-248-111-248-248 0-137 111-248 248-248 137 0 248 111 248 248 0 137-111 248-248 248z m0-485c-131 0-237 107-237 237 0 131 106 237 237 237 131 0 237-106 237-237 0-130-106-237-237-237z m1 375c-52 0-95-43-95-95 0-29 26-83 41-113 10-19 21-38 30-53 16-25 19-25 22-25 4 0 7 0 23 25 9 15 20 34 30 53 16 30 43 84 43 113 0 26-10 49-27 67-18 18-42 28-67 28z m-2-270c-17 22-79 133-79 175 0 45 36 81 81 81 21 0 42-8 57-23 15-16 24-36 24-58 0-42-65-153-83-175z"/>
<glyph unicode="&#64;" d="M475 128l0-37c0-5-1-9-5-12-4-4-8-6-13-6l-402 0c-5 0-9 2-13 6-4 3-5 7-5 12l0 37c0 5 1 9 5 13 4 3 8 5 13 5l402 0c5 0 9-2 13-5 4-4 5-8 5-13z m0 146l0-36c0-5-1-10-5-13-4-4-8-6-13-6l-402 0c-5 0-9 2-13 6-4 3-5 8-5 13l0 36c0 5 1 10 5 13 4 4 8 6 13 6l402 0c5 0 9-2 13-6 4-3 5-8 5-13z m0 147l0-37c0-5-1-9-5-13-4-3-8-5-13-5l-402 0c-5 0-9 2-13 5-4 4-5 8-5 13l0 37c0 5 1 9 5 12 4 4 8 6 13 6l402 0c5 0 9-2 13-6 4-3 5-7 5-12z"/>
<glyph unicode="&#93;" d="M336 256c0-44-35-80-80-80-44 0-80 35-80 80 0 7 1 14 3 20l-23 0 0-110c0-5 4-10 10-10l179 0c6 0 10 5 10 10l0 110-22 0c2-6 3-13 3-20z m-80-50c28 0 50 22 50 50 0 28-22 50-50 50-28 0-50-22-50-50 0-28 22-50 50-50z m90 150l-30 0c-5 0-10-4-10-10l0-30c0-5 5-10 10-10l30 0c5 0 10 5 10 10l0 30c0 6-4 10-10 10z m-90 119c-122 0-221-99-221-221 0-122 99-221 221-221 122 0 221 99 221 221 0 122-99 221-221 221z m130-319c0-17-13-30-30-30l-200 0c-17 0-30 13-30 30l0 200c0 17 13 30 30 30l200 0c17 0 30-13 30-30z"/>
<glyph unicode="&#94;" d="M361 281c13 0 23 10 23 23 1 13-10 23-22 23-13 0-23-10-24-22 0-13 10-24 23-24z m1 37c8 0 13-6 13-13-1-8-6-13-13-13-8 0-13 5-13 13 0 7 5 12 13 13z m-96 11c14-1 27 9 30 24 2 13-7 27-21 30-1 1-3 1-4 1l-6 0c0 0-1 0-1 0-14-2-24-14-24-30 1-13 12-24 26-25z m2 46c10 0 18-9 18-18 0-10-9-18-18-18-10-1-18 8-18 18 0 9 8 17 18 18z m-12 129c-137 0-248-111-248-248 0-136 111-248 248-248 137 0 248 112 248 248 0 137-111 248-248 248z m0-484c-130 0-237 106-237 236 0 131 107 237 237 237 130 0 237-106 237-237 0-130-107-236-237-236z m135 244c-4 11-12 16-24 15-4 0-9 0-13 0-2 0-5 0-8 0-8-2-13-8-15-15-2-4-3-9-5-14-2-10-5-18-8-28-2-8 1-14 8-17 1-1 1-2 1-2 1-3 2-7 3-9 1-3 3-7 8-7l0-10c0-11 1-23 1-34 1-10 11-16 21-11 1 0 2 0 3 0 10-6 20 1 21 11 0 5 0 9 0 13 1 11 1 21 1 31 2 0 3 1 4 2 4 4 6 9 6 14 1 0 1 1 2 1 4 1 6 4 7 7 2 4 2 8 0 11-5 14-9 28-13 42z m2-50c-1 0-2 1-3 1 0 0-1 2-1 3-4 10-8 21-11 32 0 0 0 1-1 1-1 1-2 1-3 1 0-1 0-2 0-2 4-11 8-22 10-33 2-5 2-10 1-15 0-1 0-1 0-2-1-3-2-3-5-3l-4 0c0 0 0 0-1 0 0-5 0-10-1-15l-1-38c0-2-2-4-5-4-2 0-4 2-4 5-1 7-1 14-1 22 0 9-1 19-1 29l0 2-4 0c0-4 0-7 0-11 0-13-1-28-1-41 0-4-2-5-4-6-3-1-5 2-5 5-1 7-1 13-1 21 0 10-1 21-1 32l-5 0c-3 0-4 0-4 3-1 3-1 7-1 10 2 13 6 26 10 38 0 1 2 3 0 3-2 1-2 0-3-2-4-10-7-22-11-32 0-1-1-2-1-3-2-2-4-1-5 1 0 1 0 3 0 4 4 13 8 27 12 40 3 8 7 10 15 10 5 0 9 0 14 0 7 1 11-2 13-9 3-10 6-20 10-30 0-3 2-7 3-10 0-2 0-3 0-4 1-2 1-2 0-3z m-222 115c15-1 28 9 30 24 2 13-7 27-21 30-1 1-2 1-4 1l-5 0c-1 0-1 0-2 0-14-2-24-14-23-30 0-13 12-24 25-25z m3 46c9 0 17-9 17-18 0-10-8-18-17-18-10-1-18 8-18 18 0 9 7 17 18 18z m135-61c-4 6-9 10-16 11-4 0-9 0-12 0-9-1-18-1-28 0-14 3-25-4-29-19-2-5-3-11-3-17 0-4 0-8 0-12-1 0-1 1-1 1-3 10-6 19-9 29-4 14-14 20-28 18-7 0-12 0-19 0-6 1-11 0-16-3-7-4-10-9-13-17-3-10-6-21-9-31-3-9-6-17-8-25-2-9 2-18 12-19l0-2c0-5 1-10 4-14 2-3 5-7 10-7 0 1 0 0 0 0 0 0 0 0 0 0 1-14 1-28 2-41 0-8 0-16 0-24 1-8 8-13 16-13 4 0 8 2 11 5 0-1 0-1 1-1 5-5 10-5 17-3 5 3 8 8 8 14 1 19 2 36 2 55l0 9 5 0c1 0 1 0 2 1 2 2 4 5 6 8 1 4 2 9 3 14 1 0 2 0 3 0 4-7 9-10 17-9l0-1c0-17 0-33 1-49 0-9 0-17 0-26 0-8 4-13 11-16 7-2 13-1 19 4 0 0 1-1 0-3 6-4 12-5 19-1 6 3 10 8 10 15 0 4 0 8 0 12 1 18 1 34 2 52l0 12c1 0 1 0 1 0 10-1 17 6 17 17-1 18-2 35-2 53 0 9-2 16-6 23z m-94-73c-2 1-4 3-4 4-5 15-10 31-16 46 0 1 0 2-1 2-1 0-2 0-3 0 0-1 0-2 0-3 7-15 12-30 14-47 1-6 2-12 1-18-1-1-1-1-1-2-1-5-2-5-7-5l-6 0c0-5-1-9-1-13 0-19-1-39-1-59 0-4-1-6-4-7-3-1-6-1-7 2 0 1-1 2-1 4-1 18-2 35-2 53-1 6-1 13-1 19-2 0-3 0-7 2l0-9c-1-21-1-42-2-64 0-4-2-6-5-7-4 0-7 3-7 7 0 10 0 20-1 30 0 14-1 27-1 41l0 1-9 0c-1 0-3 1-3 3-1 3-2 7-2 10 1 12 4 24 8 36 2 8 4 15 7 23 1 1 1 2 0 3-2 0-3 0-3-2-6-15-11-31-16-46-1-1-1-3-2-4-2-2-6-1-6 2 0 1 0 4 0 5l16 53c1 2 1 4 3 7 3 6 8 9 15 9 7-1 15-1 23 0 9 1 14-4 17-12 3-11 7-23 10-34 2-7 5-14 6-21 1-2 1-5 1-7 2-2 0-3-2-2z m87-10c-3 0-6 3-6 6 0 13-1 27-2 39 0 4 0 8 0 11 0 1-1 2-2 2-1 0-2-1-2-2 0-11 0-23 0-35-1-25-1-50-1-75 0-10-1-19-1-29 0-4-1-7-4-9-5-3-12 1-12 7 0 12 0 24-1 36 0 15-1 30-1 46l0 2-4 0c0-6 0-10 0-15-1-18-2-36-2-55 0-4 0-8 0-12 0-5-3-9-7-10-5 0-9 2-9 8-1 4-1 8-1 12 0 20 0 39-1 57-1 17-1 32-1 49 0 8-1 15-1 23 0 1 0 2-1 2-2 0-3-1-3-2 0-15-1-31-2-47 0-1 0-3-1-5-1-3-3-4-5-4-2 0-4 2-5 5 0 0 0 1 0 2 1 15 1 31 2 46 0 6 0 11 1 17 1 4 2 8 6 11 3 4 8 5 12 5 12-2 23-2 35-1 10 1 15-3 18-13 2-5 2-10 2-16 1-16 2-33 2-49 2-4 0-7-3-7z"/>
<glyph unicode="&#102;" d="M255 200l-193 83 12 28 181-77 180 77 12-28z"/>
<glyph unicode="&#103;" d="M471 360l0-5c-3-3-6-5-9-8-1-3-5-5-8-7-2-1-3-2-3-4 0-4-1-8-1-11 0-2 5-7 6-7 1 0 2 1 3 2-1 0-2 1-3 1 0 1 0 1 1 1 1-1 2-1 2-3 1-3-4-2-4-5-1 1-1 1-1 1-2-1-4-3-6-4-2-1-3-2-5-2-6-2-11-5-12-12 4-2 2-13-4-18 1 4-2 2-4 3 2-4 7-6 5-11-1-4-2-9-4-13-3 3 1 8-2 12l0-3c-2 1-3 2-4 3-1 4-1 7-1 10 0 0-1 0-1 0-1-3-1-7 2-10 0-2 1-4 2-6 0-1 0-3 1-4 0-1 1-3 2-4 0-1 2-2 2-3 2-2 2-4 3-6 3-5 2-8-4-9 0 0 0 0 0 0 0-2-1-3-1-4 1 0 2 0 3 0 0 0 0 0 1-1-2-1-4-3-7-4-3-2-6-4-6-9-4-1-8-2-9-6 0-6-5-8-8-12-3-4-6-7-7-13-2-6 0-12 2-18 3-6 8-10 10-16 3-8 8-16 7-26 0-3-1-6-3-8-1-2-2-3-3-4 0 1 1 2 2 3 0 1 2 2 2 3 0 1 0 1 0 1-2-1-4-1-6-2 1 7-9 6-9 13-1 0-1 0-1 0-3-1-3 2-4 3-5 6-7 12-6 20 0 1-1 3-2 4-3 2-5 4-8 6-3 3-5 3-8 0-3-2-7-3-9-1-2 3-6 4-10 4-4 0-8-1-12-2-1 1-1 3-2 5-1-2-1-3-1-4-5-2-12 1-14-6 1 1 2 1 3 2 0 0 0 0 1-1-1-1-2-3-3-5 2-1 4-2 7-3-5-4-7 0-10 1-1-1-1-3-2-4-1 0-1 0-1 0l0 2c-1 0-2 0-2-1-3-2-6-1-7 2-1 2-6 4-8 3 1 0 2-1 3-1 0 0 0 0 0-1-5 1-10 2-15 2-3 0-8-1-10-3-7-6-15-10-23-15-3-2-4-4-4-8 0-5 0-10 0-15-4 1-9 2-13 4-4 3-7 6-7 12 0 1 0 2-1 3-3 4-7 7-8 13-2 6-6 10-12 12-5 1-7 0-9-4-1-2-2-3-3-5-3 2-5 3-8 4-4 2-6 5-6 9 0 5-1 8-6 10-1 1-2 2-2 3-3 6-9 8-16 8-5 1-5 1-6-4-2 0-4 1-6 1-12 1-24 4-35 12-4 3-9 6-14 9 0 0-1 1-2 3-5 0-11 1-17 2-1 1-3 2-3 3 2 7-5 10-8 15-2 2-4 3-5 4-3 2-6 4-9 5-1 1-2 2-1 3 1 5 0 8-2 11-1 2-2 4-3 6-2 3-3 6 0 8-1 3-3 6-3 9 0 5-1 9-3 12-2 5-3 9-1 14 1 2 0 5-2 7l0 1c1 2 2 4 3 5 2 4 4 9 3 14-1 2 0 6 2 9 5 8 8 17 11 26 1 3 2 6 3 9 0 2 1 5 1 8-1 4-1 8-1 13 3-2 6-3 8-5 2-1 5-2 7 1 0-2 0-3 0-4 2 3 2 7 0 10l2 0c7-2 14-3 20-6 58-25 110-21 166-21 3 0 5 0 5 4 2 0 2 0 3-3 0-1 1-3 2-3 3-1 5-3 8-1 1 0 2-1 3-1 3-1 6-3 9-4 1 0 2 0 3 0 5 2 8-1 12-1-7-3-12-7-16-15 3 1 6 2 9 4-1-2-1-3-1-4 1 0 2-1 3 0 4 2 8 5 12 7 2 2 4 4 7 4-2-2-3-4-4-6 2-1 5-1 6-2 2-3 3-3 5-2 2 1 4 1 6 2 2 1 4 2 7 3 1-7 5-2 7-3 0-2 1-4 1-5-7-2-14-3-21-5-2-4-4-8-6-12 0 0 1 0 1 0 1 2 3 4 5 7-2-6-3-12-4-17-1-7-1-14 3-20 3-3 4-3 7 0 3 4 3 12 0 17 0 1-1 2-1 3 1 3 1 7 2 10 1 3 2 5 3 8 1 0 1-1 2-1-1-1-1-3-1-5 1 1 1 1 1 2 1 2 1 5 2 7 0 1 0 1 1 2 2 2 13-2 13-6 0-2 1-4 0-6 0-2-1-4-2-5 0-1 0-3-1-4 1 0 1 0 2 0 0 1 1 2 2 3 2 3 4 3 5 0 2-4 3-8 4-12 0 0-1-1-1-1-2-3-4-6-6-10 4-1 7-3 9-2 8 3 15 8 21 14 3 3 5 5 2 8-1 1 0 1-1 2 3 1 5 1 8 2 3 1 7 1 10 2 4 2 4 4 2 8 0 0-1 2 0 2 2 3 3 6 5 8 1 1 3 3 4 3 7 2 14 3 21 5 1 0 2 1 2 1 1 2 3 3 4 4 1 1 1 2 1 3 2 3 2 5 1 8 0 5 2 10 5 16 0-2 1-3 1-3 1 0 1 0 2 0 4 4 7 3 8-3 1-3 2-6 3-9 0-1 1-2 1-2 3 0 3-2 3-3 2-1 3-1 4-1"/>
<glyph unicode="&#104;" d="M278 293c-10-12-17-19-25-31 0 0-1 0-1-1-4-5 0-12 0-12 0 0 5-11 15-6 13 6 26 14 39 21 2 1 49 29 58 33 11 6 17-5 31 2l4 2c7 3 52 30 58 34 7 4 3 4-1 2-3-2-46-24-52-27-6-3-8-1-4 2 6 3 47 26 54 30 7 4 3 3-1 2-3-2-55-26-58-27-2-1-4 2-1 3 3 1 53 27 57 29 3 1 6 4-1 1-7-2-51-21-58-23-4-2-4 1 2 4 6 3 49 23 53 25 4 2 6 4-1 2-7-3-56-21-63-25l-4-1c-14-7-9-19-20-24-10-4-60-25-62-26 0 0-1-1-3-1 1 0 1 1 1 1 1 2 37 59 42 67 8 10 20 5 29 19l4 5c4 6 27 44 30 50 6 10 27 51 19 57-4 3-3 2-5-1-3-4-81-117-85-122-7-9-50-63-51-64z m218-40c-1 18-4 31-5 40-1 4-2 8-3 10 0 2 0 4 0 4 0 0 0-2 0-4 1-2 2-6 2-10 2-9 4-22 4-40 0-4 0-9-1-13 0-5-1-10-1-15-1-10-3-21-6-32-6-23-17-48-34-71-16-24-39-46-67-64-28-17-61-29-96-32-18-2-36-2-54 1-9 1-18 3-27 6-9 2-17 5-26 9-2 1-4 2-7 3l-3 1-1 1-2 1c-4 2-8 4-12 6l-7 4-5 3c-4 3-8 6-12 8-15 12-28 24-40 39-12 15-21 30-29 47-7 17-13 35-16 52-2 9-3 18-3 27 0 9 0 18 0 27 1 9 2 17 4 26 1 4 2 8 3 12 1 4 2 9 4 13l2 6c1 2 1 4 2 6l1 2c0 1 1 2 1 3 1 3 2 4 3 7l1 3 2 2 2 5c2 4 4 8 7 11 8 14 18 27 29 38 21 22 46 38 71 48 25 11 49 15 71 16 10 1 20 0 30 0 9-1 18-3 25-4 15-4 24-6 31-9 2-1 3-2 5-3 2 0 3-1 4-1 2-1 4 0 5 1l19 37c1 2 0 4-2 4-1 1-3 1-4 2-2 1-3 2-6 2-2 1-5 2-8 4-3 1-6 1-10 3-2 0-4 1-5 1-2 0-4 1-6 1-2 1-4 1-6 2-3 0-5 1-7 1-10 1-20 3-32 3-11 1-23 1-36 0-26-3-55-9-84-23-29-13-58-33-82-60-12-14-23-29-33-46-2-4-4-8-6-12-1-3-3-5-3-7l-1-1 0-1-1-1 0-1-1-3c-1-2-2-4-3-6-1-2-2-5-3-7 0-2-1-5-2-7-1-3-1-5-2-7-1-5-3-10-4-15 0-5-1-9-2-14-2-10-3-20-3-30 0-10 0-20 1-30 1-11 2-21 4-31 4-20 12-39 21-58 9-18 21-35 34-51 14-15 29-29 46-41 5-2 9-6 13-8l7-4 6-3c4-3 9-5 14-7l1-1 0 0 1 0 1-1 4-1c2-1 4-2 7-3 9-3 19-7 28-8 10-3 20-4 29-5 20-2 39-2 58 1 38 5 72 19 101 38 29 19 52 43 68 69 8 12 14 25 19 37 3 7 5 13 7 19 2 6 3 12 5 18 2 11 4 23 5 33 1 6 1 11 1 15 0 4 0 9 0 13z m-354 109c12 14 26 24 40 32 13 7 25 12 36 15 11 3 19 5 26 5 5 1 8 1 8 1 0 0-3 0-9 0-6-1-15-2-25-5-11-2-24-7-38-14-14-7-29-18-42-31-14-14-27-32-36-52-9-20-14-43-15-68 0-24 4-50 15-73 10-23 25-45 45-62 20-17 43-30 68-37 24-7 50-8 74-4 24 3 46 12 65 24 20 11 35 26 47 41 11 16 20 32 25 46 5 15 8 28 9 39 2 12 1 21 1 26 0 6 0 10 0 10 0 0 0-3 0-10 0-5-1-14-2-26-2-11-5-24-11-38-6-14-14-29-26-44-12-15-27-28-46-39-18-12-40-19-63-23-24-3-48-2-72 5-23 7-45 19-64 35-19 17-34 37-44 60-10 22-15 46-14 69 0 24 5 46 13 66 10 21 22 38 35 52z"/>
<glyph unicode="&#105;" d="M249 281c0 13 8 24 18 29-5 2-11 3-18 3-30 0-55-25-55-55 0-31 25-55 55-55 31 0 55 24 55 55l0 0c-6-6-14-9-23-9-17 0-32 14-32 32z m0 124c-91 0-174-72-208-116-8-10-12-20-13-31 1-11 5-22 13-31 34-44 117-116 208-116 91 0 174 72 209 116 7 9 12 20 12 31 0 11-5 21-12 31-35 44-118 116-209 116z m0-239c-51 0-92 41-92 92 0 51 41 92 92 92 51 0 92-41 92-92 0-51-41-92-92-92z"/>
<glyph unicode="&#91;" d="M139 236c0 1 1 1 1 2 12 11 23 22 34 33 3 3 5 6 7 8 3 3 5 7 6 11 0 2 1 4 1 6 0 2-1 5-1 7 0 1 0 3 0 4-1 5-2 9-3 14-1 3-1 6-2 9-1 2-1 4-2 6-1 0-2-1-3-1-4-2-8-4-12-6-3-1-7-3-11-5-4-1-8-3-12-5-3-1-6-3-9-4-1 0-1 0-1-1 1-1 1-2 1-4 1 0 1 0 1-1 1 0 1 1 2 1 4 1 7 2 11 2 2 0 3-1 4-2 1-2 2-4 3-6 0-3 1-6 1-8 1-4 1-9 2-13 1-3 1-6 1-9-1-2-1-4-3-5-2-2-3-4-5-6-2-2-4-4-7-6-2-2-3-4-5-6-1-1-1-1-2-2-4 29-9 57-14 85-17-8-35-16-53-24 1-2 2-4 3-6 0 1 0 1 1 1 3 1 7 3 11 3 3 0 5-1 6-3 2-1 2-3 3-6 0-3 1-5 1-8 1-3 1-5 2-8 0-3 1-7 1-10 0 0 0-1 0-1-4-4-8-8-13-12-3-4-7-8-11-11 0-1-1-1-1-2-5 29-10 58-14 87-1 0-1 0-1-1-4-1-7-2-11-4-4-2-9-4-14-6-5-2-10-4-14-5-3-2-4-3-7-4-1 0-3-1-3-1l0-1c0-1-1-2 0-3 0-1-1-1 0-1 4 1 7 2 10 3 2 1 5 0 6-2 2-2 3-5 3-7 1-5 2-9 3-14 1-3 1-7 2-10 0-3 1-6 1-8 1-3 2-7 2-10 1-2 1-4 1-6 1-3 2-7 2-10 1-3 1-6 2-9 0-2 1-5 1-8 1-3 1-6 1-8 1-3 1-5 1-7 0-3 1-5 1-8 0-1 0-3 0-4-1-1-1-3-1-4-2-4-5-7-8-11-1-1-2-2-3-4 1-1 3-3 4-5 1 1 1 1 2 2 3 2 6 5 9 8 2 2 4 3 6 5 2 3 4 5 6 7 3 3 5 6 8 9 2 3 4 6 5 9 1 2 1 5 1 7 0 3 0 6 0 8 0 1 0 1 1 1 1 2 2 3 4 5 2 3 5 5 7 8 2 2 4 4 5 6 3 2 5 5 8 8 0 0 0 0 1 1 0 0 0 0 0 0 0-2 1-4 1-5 0-2 1-4 1-6 0-3 1-5 1-7 0-2 1-4 1-7 0-2 1-4 1-6 0-2 1-4 1-6 0-2 0-4 1-6 0-2 0-4 1-6 0-2 0-4 0-6 1-2 0-4-1-6-1-3-2-5-3-7-2-4-5-8-8-11 0-1 0-1 0-1 1-2 3-3 4-5 1 0 2 1 2 2 4 2 7 5 11 8 2 3 5 5 7 7 2 3 4 5 6 7 2 1 3 3 4 4 1 1 2 3 3 5 2 2 3 4 4 6 1 3 1 6 2 9 0 4 0 8 0 12 0 0 0 1 1 1z m162 11c0 0 0 1 0 1l1 0c0 1 0 2 1 4 1 6 3 12 5 18 1 4 3 7 7 10 1 1 2 1 4 1 2 0 5-3 5-5 1-2 1-5 0-7 0-3-1-5-1-8-1-1-1-3-2-4 0 0 1 0 1 0 4 0 8 0 12 0 1 0 1 0 1 0 1 4 2 7 3 11 1 4 2 7 2 11 1 1 1 3 0 4 0 2-2 4-4 6-3 3-7 4-11 3-5 0-9-2-13-5-4-2-7-4-11-7-1-1-3-2-4-3-3-2-4-5-5-8-2-8-4-15-6-23 0-1 0-1-1-1-6 0-11 0-16 0-1 0-1 0-1 0 0 0 0 1 0 1 0 1 0 2 0 3 1 3 2 6 2 9 1 2 1 5 1 7-1 3-2 5-4 7 0 0-1 0-2 0 0 0-1-1-1-1-3-1-7-3-10-5 0-1 0-2 1-3 0-2 1-4 0-7-1-3-2-7-3-10 0-1-1 0-1 0-3 1-5 2-8 2l-1 0c0-8 0-8-1-8l8 0c0 0 0-1 0-2-1-4-2-9-4-13-1-5-3-11-4-16-1-6-3-12-4-18 0-1 0-2 0-3 2-4 5-7 9-9 1-1 2-1 4 0 2 1 4 2 6 3 3 2 6 4 9 6 1 0 2 1 3 2-1 2-2 3-2 5-3-2-5-3-8-4-1-1-2-1-3 0-1 1-2 2-2 3 1 2 1 4 1 6 1 3 2 7 3 10 1 6 3 11 4 17 1 3 2 7 3 10 0 1 1 2 1 2 6 0 12 1 18 1l1 0c-5-24-11-40-17-59 1 0 1-1 1-1 4 0 9 0 14 0 0 0 0 0 0 0 1 2 1 4 2 5 1 4 2 9 3 13 1 3 2 7 4 10 1 6 3 11 4 17 2 4 3 9 4 13 3 0 7 0 10-1 1 0 3-1 3-3 0-1 0-3 0-4-1-4-2-8-3-12-1-3-2-7-3-10-1-4-2-9-3-13-1-1-1-2-1-3 1-2 2-4 3-5 1-3 3-6 6-8 2-1 4-1 6-1 1 1 2 2 4 2 3 2 6 5 9 7 1 1 1 1 0 2 0 1-1 2-2 3-1-1-3-1-4-2-2-1-3-1-5 1-1 1-1 2 0 3 1 3 1 6 2 8 2 7 4 15 6 22 2 6 4 15 5 21 1 1 1 3 1 3l-31 0c0 0 0 0-1-1z m-74-34c-3 1-6 3-10 5-1 1-2 1-4 2-1 1-2 2-2 3 0 1 1 3 1 4 0 3 2 6 4 8 1 3 5 3 7 1 2-1 2-2 3-4 1-2 2-4 3-5 4 2 7 4 11 6 0 1 0 1-1 2-2 3-4 7-7 9-1 1-3 2-5 2-2 0-5 0-7-1-5-1-9-2-13-4-2-1-4-3-6-5-1-2-2-4-3-7-1-4-2-8-2-12 1-1 1-2 1-3 1-1 2-2 3-3 4-2 8-4 11-6 2-1 4-2 4-4 0-1 0-3 0-4-1-2-2-4-3-6-2-2-4-2-6 0-3 2-4 5-5 8-1 2-1 3-2 5-1-1-2-1-2-2-4-2-7-4-11-6 0 0-1 0 0-1 0-1 0-1 1-2 1-4 3-8 7-10 4-4 9-4 14-3 5 1 8 2 12 5 2 1 4 3 5 4 2 2 4 3 5 5 1 3 2 6 2 9 1 2 0 4-1 6-1 1-2 3-4 4z m278 80c-1 0-2 0-3 0-3 0-6 0-8-1-5-1-9-3-13-5-1-1-3-1-4-3-2-1-3-4-4-7-1-4-2-8-3-12-1-4-3-7-4-11 0-3-1-6-2-9-3 1-5 2-8 3-2 1-4 1-6 1-5-1-9-3-13-5-2-1-4-3-6-4-2-2-3-4-4-6-1-3-3-6-4-9-1-4-2-8-3-13-1-4-2-8-3-12-1-1-1-2-2-3-1-1-1-1-2-2-2-1-4-3-6-3-2-1-4 0-4 2-1 1-1 2 0 3 1 4 2 7 3 11 1 6 3 12 5 18 1 6 3 12 5 18 1 6 3 12 5 18 1 5 3 10 4 15 1 3 3 5 6 7 2 2 5 3 8 4 1 0 3 0 5 1 0 1 0 3 0 4-3 0-5 0-8 0-2 0-5-1-8-1-4-1-8-2-12-5-2-1-4-3-5-6-1-2-1-4-2-7-2-5-3-10-5-15-1-3-2-7-3-10-2-6-3-11-5-17-1-5-3-10-4-15-2-6-3-12-5-17-1-3-2-6-1-9 0-1 0-3 1-4 1-3 4-5 6-6 3-1 5-1 7 0 1 0 3 1 4 2 4 2 8 4 12 6 1 1 2 1 3 2 1-1 2-3 3-4 2-2 4-4 7-6 2-1 4-1 6-1 4 1 7 3 10 4 2 1 4 2 6 3 1 0 2-1 3-2 2-2 4-3 6-4 3-1 6-2 8 0 5 3 9 6 14 8 1 1 2 2 3 2-1 2-2 4-3 6-2-1-4-3-6-4-2-1-4-2-6-2-2-1-3 0-4 2 0 2 0 4 0 7 1 3 2 6 3 10 1 4 2 9 3 14 2 6 4 13 6 19 1 7 3 13 5 19 2 5 4 9 5 14 1 4 3 6 6 8 3 2 5 3 8 4 1 1 2 1 2 1l0 1c0 0 1 0 1 1 0 0 0 1 0 2 0 0 0 1 0 0z m-46-67c-2-5-3-10-4-16-1-3-2-7-3-10-1-2-2-4-3-5-2-2-5-4-9-4-2 0-4 1-6 3-1 1-2 3-2 5 0 2 1 5 2 8 1 3 2 6 3 9 0 3 1 6 2 10 1 2 2 5 3 7 0 2 1 4 2 5 2 1 4 2 5 2 3 0 5 0 6-1 3-2 5-5 5-8 0-2-1-3-1-5z m-300-18c1 0 2 0 3 0 2 0 5 0 8 0 4 0 7 1 10 3 3 1 6 3 8 7 3 4 5 9 5 16 0 2-1 4-1 6-2 3-3 5-6 5-3 1-7 1-10 1-4-1-7-2-11-3-3-1-6-3-9-4-2-1-3-2-5-3-2-2-4-5-5-9-1-3-2-6-3-9-1-4-2-9-4-13-1-3-1-7-1-11 0-1 1-2 1-3 2-3 4-5 6-7 2-2 4-3 6-4 3-2 7-2 10 0 3 1 6 3 9 5 4 2 8 5 12 8 1 0 1 0 1 0-1 2-2 3-3 4 0 1-1 1-1 0-4-2-8-5-12-6-3-1-6-1-8 2-2 2-3 5-3 8 0 3 1 5 2 7 0 0 1 0 1 0z m1 11c0-1 1-2 1-2 1 7 1 5 1 7 0 1 1 4 2 5 0 2 1 4 2 5 1 2 3 4 6 4 3 0 5-1 5-5 1-2 0-5-1-7-1-3-2-5-3-8-1-2-3-3-5-3-1 0-3 0-4 0-1 0-2 1-3 2 0-1 0-1 0-1l-1 0z m226 20c0 2-1 4-2 5-2 2-4 3-7 3-3 0-7 0-10-1-4-2-7-3-11-5-2-1-4-2-6-3-2 0-3-1-5-3-2-2-3-4-4-7-1-3-2-6-3-9-1-3-2-5-2-8-1-3-2-7-3-11 0-2 0-3 0-5 0-3 2-5 4-7 1-1 3-3 5-4 2-2 5-4 8-5 2-1 5-2 7-1 1 1 2 2 3 2 5 3 10 6 15 9 1 1 3 2 4 3-1 1-2 3-3 5 0-1 0-1 0-1-1 0-1 0-1 0-4-2-8-5-12-6-3-1-5-1-7 0-2 1-3 3-5 5-1 2-1 3-1 5 0 1 0 3 0 4 1 2 2 5 3 7 0 0 0 0 1 0 3-1 7-2 10-2 3 0 5 0 8 1 4 1 7 3 10 7 1 2 2 4 3 6 1 2 2 5 2 8 0 3 0 6-1 8z m-14-10c-1-3-2-6-3-9-1-2-3-3-5-3-2-1-4-1-6 0-1 1-1 2-1 3 0 1 0 2 0 3 0 0 0 0-1 0 1 2 1 4 1 5 1 3 3 6 4 8 1 3 4 4 6 4 3 0 5-2 6-5 0-2-1-4-1-6z"/>
<glyph unicode="&#95;" d="M283 268c1 0 2 0 3 0l0 6c-2 0-3 0-4 0-7 0-10-3-10-8l0-3-5 0 0-5 5 0 0-23 8 0 0 23 5 0 0 5-5 0 0 2c0 3 1 3 3 3z m-48-29c-3 0-6 2-6 5l-8 0c0-8 7-10 14-10 6 0 13 2 13 10 0 5-5 7-9 8-5 1-9 1-9 4 0 3 2 3 4 3 3 0 5-1 5-4l8 0c-1 7-6 9-13 9-6 0-12-2-12-9 0-5 4-7 9-8 6-1 9-2 9-4 0-3-3-4-5-4z m18 33l0-9-5 0 0-5 5 0 0-17c0-6 4-7 9-7 1 0 3 0 4 1l0 6c0 0-1 0-2 0-3 0-3 0-3 3l0 14 5 0 0 5-5 0 0 9z m-47-8c-9 0-15-6-15-15 0-9 5-15 15-15 6 0 11 3 13 10l-7 0c0-2-3-4-6-4-5 0-7 2-7 7l21 0c0 9-5 17-14 17z m-7-12c0 2 1 6 6 6 4 0 6-2 7-6z m-21-8l0 0-5 19-8 0-4-19 0 0-6 19-8 0 9-28 8 0 5 19 0 0 5-19 8 0 10 28-9 0z m-49 7c0 31-25 56-55 56-31 0-56-25-56-56 0-31 25-56 56-56 30 0 55 25 55 56z m-58-33c0 0 6 5 5 11l-3 21c-3-4-7-7-11-11 1-3 1-6-1-8-3-6-14-15-14-15l-2 2c0 0 4 4 5 6 0 1 0 2 0 3 1 4-3 23-6 38-1 5-1 6-4 6-1 0-4-1-4-1l-1 2 21 9 6-36 10 10-1 11c-1 2-1 4-4 4-2 0-5-1-5-1l-1 2 22 10 5-35c0 0 8 8 8 8 2 2 1 5 0 11 0 3-1 6-3 7-2 0-6-1-6-1l0 2 19 9c0 0 3-13 3-13 1-6 0-7-2-10-1-2-5-6-5-6-4-4-13-13-13-13 0 0 0-6-1-9-3-7-15-16-15-16z m261 56l8 0 0-39-8 0z m60 0l8 0 0-39-8 0z m20-23c-5 0-10-2-10-8 0-6 5-9 10-9 4 0 7 1 10 3 0 0 0-1 0-2l8 0c0 1-1 3-1 6l0 15c0 7-6 8-12 8-7 0-13-2-14-9l8 0c0 3 2 4 5 4 3 0 6-1 6-4 0-3-5-3-10-4z m10-5c0-2-1-7-7-7-2 0-5 1-5 4 0 3 2 4 5 4 2 1 5 1 7 2z m11 28l0-39 8 0 0 3 0 0c2-3 5-4 9-4 6 0 12 5 12 15 0 11-6 15-12 15-3 0-7-1-9-4l0 0 0 14z m15-16c4 0 6-4 6-9 0-5-2-9-6-9-5 0-7 4-7 9 0 5 2 9 7 9z m33-6c-5 1-9 1-9 4 0 3 3 3 4 3 3 0 5-1 6-4l7 0c0 7-6 9-12 9-7 0-13-2-13-9 0-5 5-7 9-8 6-1 9-2 9-4 0-3-3-4-5-4-3 0-6 2-6 5l-8 0c1-8 7-10 14-10 6 0 13 2 13 10 0 5-5 7-9 8z m-166 12c-9 0-15-6-15-15 0-9 6-15 15-15 6 0 11 3 13 10l-7 0c0-2-3-4-6-4-5 0-7 2-7 7l21 0c0 9-5 17-14 17z m-7-12c0 2 1 6 6 6 4 0 6-2 7-6z m-19 22l8 0 0-6-8 0z m0-11l8 0 0-28-8 0z m83-28l0 39-8 0 0-14 0 0c-2 3-5 4-9 4-8 0-13-7-13-15 0-8 5-15 13-15 4 0 7 1 9 4l0 0 0-3z m-15 5c-5 0-7 5-7 9 0 5 2 9 7 9 5 0 7-4 7-9 0-5-1-9-7-9z"/>
<glyph unicode="&#96;" d="M399 302c0-3-1-5-3-7l-133-133c-2-2-5-3-7-3-2 0-5 1-7 3l-133 133c-2 2-3 4-3 7 0 2 1 4 3 6l15 15c1 1 4 2 6 2 3 0 5-1 7-2l112-113 112 113c2 1 4 2 7 2 2 0 5-1 6-2l15-15c2-2 3-4 3-6z"/>
<glyph unicode="&#123;" d="M232 304c2 0 4 3 4 5 0 3-2 5-4 5-3 0-5-2-5-5 0-2 2-5 5-5z m48 0c3 0 5 3 5 5 0 3-2 5-5 5-3 0-5-2-5-5 0-2 2-5 5-5z m-24 121c-94 0-170-77-170-171 0-93 76-170 170-170 94 0 170 77 170 170 0 94-76 171-170 171z m-52-127c3 13 13 24 25 30l-8 15c-1 1 0 2 1 3 1 1 2 0 2-1l9-15c7 3 14 5 23 5 8 0 16-2 23-5l8 15c1 1 2 2 3 1 1-1 1-2 1-3l-8-15c13-6 22-18 25-32 1-2 1-3 1-5l0-5-106 0c0 0-1 1-1 1 1 4 1 7 2 11z m-6-76c0-6-5-12-12-12-6 0-11 6-11 12l0 50c0 6 5 11 11 11 7 0 12-5 12-11z m111-18c0-7-5-12-12-12l-10 0 0-27c0-7-5-12-11-12-7 0-12 5-12 12l0 27-16 0 0-27c0-7-6-12-12-12-7 0-12 5-12 12l0 27-10 0c-6 0-11 5-11 12l0 77 106 0 0-77z m28 18c0-6-5-12-12-12-6 0-12 6-12 12l0 50c0 6 6 11 12 11 7 0 12-5 12-11z"/>
<glyph unicode="&#124;" d="M256 425c-94 0-170-76-170-170 0-94 76-170 170-170 94 0 170 76 170 170 0 94-76 170-170 170m-79-193l-30 0 8 38 29 0c18 0 23-9 23-17 0-10-7-21-30-21m10 57l-30 0 8 38 29 0c19 0 23-10 23-17 0-10-6-21-30-21m56-116l-30 0 8 38 29 0c19 0 23-9 23-17 0-10-7-21-30-21m11 59l-30 0 8 38 29 0c19 0 23-9 23-17 0-10-7-21-30-21m10 57l-29 0 8 38 28 0c19 0 23-10 23-17 0-10-6-21-30-21m60-93l-30 0 8 38 29 0c18 0 23-9 23-17 0-10-7-21-30-21m11 59l-30 0 8 38 29 0c19 0 23-9 23-17 0-10-7-21-30-21"/>
<glyph unicode="&#125;" d="M256 424c-94 0-170-76-170-170 0-94 76-170 170-170 94 0 170 76 170 170 0 94-76 170-170 170m10-85c7 8 19 14 29 14 1-11-3-22-10-30-7-8-18-14-29-13-2 10 4 22 10 29m56-150c-8-12-16-23-30-23-13-1-17 7-32 7-15 0-20-7-32-8-13 0-23 13-31 24-17 23-30 66-12 95 8 14 23 23 40 23 13 0 25-8 32-8 8 0 22 10 38 9 6-1 24-3 36-19-1-1-22-12-22-36 1-28 26-38 27-38-1 0-4-13-14-26"/>
<glyph unicode="&#126;" d="M426 134c0-7-3-14-8-19l-39-39c-5-5-12-8-20-8-7 0-14 3-19 8l-84 84-84-84c-5-5-12-8-19-8-8 0-15 3-20 8l-39 39c-5 5-8 12-8 19 0 8 3 14 8 20l84 84-84 84c-5 5-8 12-8 19 0 8 3 14 8 20l39 38c5 6 12 8 20 8 7 0 14-2 19-8l84-84 84 84c5 6 12 8 19 8 8 0 15-2 20-8l39-38c5-6 8-12 8-20 0-7-3-14-8-19l-84-84 84-84c5-6 8-12 8-20z"/>
<glyph unicode="&#92;" d="M169 299c0-48 79-185 86-185 7 0 90 137 90 185 0 49-40 88-88 88-49 0-88-39-88-88z m124 1c0-21-16-37-37-37-20 0-37 16-37 37 0 20 17 37 37 37 21 0 37-17 37-37z"/>
<glyph unicode="&#57344;" d="M128 73l256 0 0 73-256 0z m0 183l256 0 0 110-46 0c-7 0-14 2-19 8-5 5-8 12-8 19l0 46-183 0z m329-18c0 5-2 9-5 13-4 3-8 5-13 5-5 0-9-2-13-5-4-4-5-8-5-13 0-5 1-10 5-13 4-4 8-6 13-6 5 0 9 2 13 6 3 3 5 8 5 13z m37 0l0-119c0-3-1-5-3-7-2-1-4-2-6-2l-64 0 0-46c0-8-3-14-8-19-6-6-12-8-20-8l-274 0c-8 0-14 2-20 8-5 5-8 11-8 19l0 46-64 0c-2 0-4 1-6 2-2 2-3 4-3 7l0 119c0 15 6 28 16 38 11 11 24 17 39 17l18 0 0 155c0 8 3 14 8 19 6 6 12 8 20 8l192 0c7 0 16-1 25-5 9-4 16-9 22-14l43-43c5-6 10-13 14-22 4-9 6-18 6-25l0-73 18 0c15 0 28-6 39-17 10-10 16-23 16-38z"/>
<glyph unicode="&#57345;" d="M256 512c-141 0-256-115-256-256 0-141 115-256 256-256 141 0 256 115 256 256 0 141-115 256-256 256z m0-500c-135 0-244 109-244 244 0 135 109 244 244 244 135 0 244-109 244-244 0-135-109-244-244-244z m147 331c-2 3-5 4-8 2l-36-21 7 26c1 3-1 6-4 7-3 1-6-1-7-4l-10-37-25-14c-5 8-12 14-20 20l26 44c1 2 0 6-2 8-3 1-7 0-8-3l-26-43c-8 4-17 6-27 7l0 28 27 27c2 3 2 6 0 8-2 3-6 3-8 0l-19-18 0 41c0 3-2 6-5 6-4 0-6-3-6-6l0-41-19 18c-2 3-6 3-8 0-2-2-2-5 0-8l27-27 0-28c-10-1-19-3-27-7l-26 43c-1 3-5 4-8 3-2-2-3-6-2-8l26-44c-8-6-15-12-20-20l-25 14-10 37c-1 3-4 5-7 4-3-1-5-4-4-7l7-26-36 21c-3 2-6 1-8-2-1-3 0-6 2-8l36-21-25-6c-4-1-5-4-5-8 1-2 3-4 6-4 1 0 1 0 2 0l36 10 25-14c-4-8-6-18-7-27l-51 0c-3 0-6-3-6-6 0-3 3-6 6-6l51 0c1-9 3-19 7-27l-25-14-36 10c-4 1-7-1-8-4 0-3 1-7 5-7l25-7-36-21c-2-2-3-5-2-8 1-2 3-3 5-3 1 0 2 0 3 1l36 21-7-26c-1-3 1-6 4-7 1 0 1 0 2 0 2 0 5 2 5 4l10 37 25 14c5-8 12-14 20-20l-26-44c-1-2 0-6 2-8 1 0 2 0 3 0 2 0 4 1 5 3l26 44c8-4 17-7 27-8l0-28-27-27c-2-2-2-6 0-8 2-3 6-3 8 0l19 18 0-41c0-3 2-6 6-6 3 0 5 3 5 6l0 41 19-18c1-2 3-2 4-2 2 0 3 0 4 2 3 2 3 6 0 8l-27 27 0 28c10 1 19 4 27 8l26-44c1-2 3-3 5-3 1 0 2 0 3 0 2 2 3 6 2 8l-26 44c8 6 15 12 20 20l25-14 10-37c1-2 3-4 5-4 1 0 1 0 2 0 3 1 5 4 4 7l-7 26 36-21c1-1 2-1 3-1 2 0 4 1 5 3 1 3 1 6-2 8l-36 21 26 7c3 0 4 4 4 7-1 3-4 5-7 4l-37-10-25 14c4 9 7 18 7 27l51 0c3 0 6 3 6 6 0 3-3 6-6 6l-51 0c0 9-3 19-7 27l25 14 37-10c0 0 1 0 1 0 3 0 5 2 6 4 0 4-1 7-4 8l-26 6 36 21c3 2 3 5 2 8z m-140-20c20-2 37-12 47-27l-20-11c-6 8-16 14-27 15z m-11 0l0-23c-11-1-21-7-27-15l-20 11c11 15 27 25 47 27z m-53-91c-4 8-6 17-6 27 0 10 2 19 6 27l20-11c-2-5-3-10-3-16 0-5 1-11 3-15z m53-37c-20 2-36 12-47 27l20 11c6-8 16-13 27-15z m6 34c-17 0-30 14-30 30 0 17 13 30 30 30 16 0 29-13 29-30 0-16-13-30-29-30z m5-34l0 23c11 2 21 7 27 15l20-11c-10-15-27-25-47-27z m53 37l-20 12c2 4 3 10 3 15 0 6-1 11-3 16l20 11c4-8 6-17 6-27 0-10-2-19-6-27z"/>
<glyph unicode="&#57346;" d="M475 256l0-37c0-10-3-18-9-25-6-8-14-11-24-11l-201 0 84-84c7-7 10-16 10-26 0-10-3-19-10-26l-22-21c-7-7-15-11-26-11-9 0-18 4-26 11l-186 186c-7 7-10 16-10 26 0 10 3 18 10 26l186 185c8 8 16 11 26 11 10 0 19-3 26-11l22-21c7-7 10-16 10-26 0-10-3-18-10-26l-84-83 201 0c10 0 18-4 24-11 6-7 9-16 9-26z"/>
</font>
</defs>
</svg>
