<svg version="1.2" baseProfile="tiny" class="Layer_1" xmlns="http://www.w3.org/2000/svg" xmlns:xlink="http://www.w3.org/1999/xlink"
	 x="0px" y="0px" width="114.998px" height="114.998px" viewBox="0 0 114.998 114.998" xml:space="preserve">
<g class="Layer_2">
</g>
<g class="Layer_1_1_">
	<g>
		<path d="M57.498,8.763C30.294,8.763,8.24,30.817,8.24,58.022s22.054,49.259,49.258,49.259c27.206,0,49.26-22.054,49.26-49.259
			S84.704,8.763,57.498,8.763z M85.211,74.365c0,1.458-1.183,2.642-2.642,2.642H32.428c-1.461,0-2.642-1.184-2.642-2.642V49.844
			l23.23,19.922c1.201,1.201,2.799,1.863,4.498,1.863c1.7,0,3.296-0.661,4.497-1.863L85.21,49.875L85.211,74.365L85.211,74.365z
			 M85.211,43.224L58.684,66.44c-0.312,0.313-0.728,0.486-1.17,0.486c-0.443,0-0.858-0.173-1.172-0.485L29.787,43.193v-2.786
			c0-1.46,1.181-2.642,2.642-2.642H82.57c1.459,0,2.642,1.182,2.642,2.642L85.211,43.224L85.211,43.224z"/>
	</g>
</g>
</svg>
