<svg version="1.2" baseProfile="tiny" class="Layer_1" xmlns="http://www.w3.org/2000/svg" xmlns:xlink="http://www.w3.org/1999/xlink"
	 x="0px" y="0px" width="114.998px" height="114.998px" viewBox="0 0 114.998 114.998" xml:space="preserve">
<path d="M57.499,8.412c-27.399,0-49.61,22.211-49.61,49.61c0,27.398,22.211,49.609,49.609,49.609
	c27.4,0,49.609-22.211,49.609-49.609C107.108,30.623,84.899,8.412,57.499,8.412z M87.608,44.046
	c-1.133,1.899-2.695,3.327-4.205,4.704c-0.363,0.332-0.723,0.662-1.08,0.998c-0.113,17.574-11.916,31.895-28.211,34.14
	c-1.715,0.229-3.379,0.347-4.949,0.347c-6.311,0-12.412-1.667-18.145-4.958c-0.422-0.241-0.625-0.738-0.492-1.202
	c0.129-0.457,0.543-0.769,1.016-0.769h0.031c0.316,0.009,0.635,0.009,0.953,0.009h0.029c5.006,0,9.67-1.23,12.973-3.357
	c-4.408-1.025-7.41-3.751-8.941-8.125c-0.129-0.374-0.041-0.789,0.23-1.076c0.201-0.213,0.482-0.328,0.77-0.328
	c0.088,0,0.18,0.01,0.271,0.035c-3.309-2.182-5.174-5.763-5.416-10.429c-0.02-0.388,0.17-0.751,0.498-0.956
	c0.17-0.104,0.365-0.156,0.559-0.156c0.18,0,0.359,0.045,0.52,0.138c0.43,0.243,0.908,0.454,1.439,0.633
	c-1.641-1.993-3.25-4.683-3.014-8.356c0.117-2.008,0.471-4.484,2.143-5.83c0.195-0.154,0.426-0.232,0.666-0.232
	c0.119,0,0.246,0.021,0.365,0.066c0.348,0.127,0.6,0.43,0.672,0.793c0.01,0.053,0.016,0.107,0.02,0.16
	c4.877,4.805,11.199,9.642,21.084,10.586c-0.379-3.428,0.518-6.648,2.584-9.191c2.395-2.947,6.158-4.707,10.061-4.707
	c3.219,0,6.27,1.2,8.65,3.389c1.947-0.371,3.531-1.109,5.203-1.887c0.338-0.156,0.678-0.314,1.02-0.469
	c0.119-0.057,0.248-0.092,0.387-0.103c0.024-0.001,0.045-0.001,0.07-0.001h0.006c0.58,0,1.051,0.473,1.051,1.057
	c0,0.156-0.031,0.303-0.092,0.437c-0.549,1.436-1.324,2.72-2.379,3.915c0.748-0.226,1.543-0.506,2.357-0.834
	c0.102-0.041,0.205-0.068,0.318-0.079c0.031-0.005,0.067-0.005,0.102-0.005h0.01c0.58,0.005,1.047,0.475,1.047,1.057
	C87.788,43.674,87.721,43.877,87.608,44.046z"/>
</svg>
