<svg version="1.2" baseProfile="tiny" class="Layer_1" xmlns="http://www.w3.org/2000/svg" xmlns:xlink="http://www.w3.org/1999/xlink"
	 x="0px" y="0px" width="114.998px" height="114.998px" viewBox="0 0 114.998 114.998" xml:space="preserve">
<g>
	<path d="M79.309,45.98c1.05-0.607,1.803-1.585,2.113-2.757c0.312-1.171,0.15-2.39-0.458-3.43c-0.806-1.395-2.31-2.261-3.919-2.261
		c-0.788,0-1.573,0.21-2.267,0.609l-11.546,6.688c-1.052,0.609-1.803,1.588-2.104,2.745c-0.313,1.169-0.152,2.392,0.453,3.441
		c0.808,1.393,2.309,2.258,3.918,2.258c0.808,0,1.594-0.213,2.267-0.608L79.309,45.98z"/>
	<path d="M61.575,64.997c-0.597,1.041-0.761,2.256-0.453,3.431c0.31,1.164,1.058,2.141,2.107,2.749l11.559,6.692
		c0.69,0.395,1.468,0.603,2.256,0.603c1.607,0,3.107-0.863,3.915-2.252c0.61-1.047,0.774-2.271,0.462-3.44
		c-0.31-1.17-1.06-2.148-2.105-2.751l-11.551-6.688c-0.686-0.397-1.469-0.608-2.27-0.608C63.885,62.733,62.385,63.599,61.575,64.997
		z"/>
	<path d="M59.283,32.171c-0.528-0.211-1.086-0.316-1.659-0.316c-1.867,0-3.52,1.118-4.21,2.849L44.693,56.62l-8.868-22.165
		c-0.684-1.734-2.337-2.854-4.207-2.854c-0.568,0-1.128,0.107-1.673,0.321c-1.125,0.448-2.008,1.308-2.49,2.43
		c-0.472,1.111-0.482,2.339-0.033,3.454L39.834,68.84l-1.514,3.808c-0.099,0.244-1.072,2.371-4.407,2.371
		c-0.359,0-0.734-0.023-1.156-0.073l-0.25-0.023l-0.25-0.008c-2.293,0-4.226,1.717-4.491,3.987c-0.144,1.199,0.188,2.384,0.932,3.33
		c0.748,0.959,1.824,1.563,3.023,1.704c0.744,0.09,1.482,0.136,2.188,0.136c9.545,0,12.702-7.766,12.83-8.092l15.085-37.923
		c0.447-1.124,0.432-2.355-0.048-3.466C61.297,33.477,60.412,32.617,59.283,32.171z"/>
	<path d="M83.336,53.373l-13.335,0.124c-1.209,0.012-2.34,0.491-3.188,1.354c-0.85,0.865-1.311,2.006-1.298,3.213
		c0.019,2.473,2.05,4.486,4.525,4.486h0.026l13.354-0.126c1.216-0.013,2.352-0.495,3.19-1.354c0.845-0.858,1.306-1.998,1.295-3.209
		C87.885,55.387,85.844,53.373,83.336,53.373z"/>
</g>
</svg>
