<?xml version="1.0" encoding="utf-8"?>
<!-- Generator: Adobe Illustrator 17.0.0, SVG Export Plug-In . SVG Version: 6.00 Build 0)  -->
<svg version="1.2" baseProfile="tiny" id="Layer_1" xmlns="http://www.w3.org/2000/svg" xmlns:xlink="http://www.w3.org/1999/xlink"
	 x="0px" y="0px" width="114.998px" height="114.998px" viewBox="0 0 114.998 114.998" xml:space="preserve">
<path d="M73.516,33.185c-4.814-0.691-7.939-0.989-10.469-0.989c-8.617,0-12.566,2.808-12.809,19.255h-5.387
	c-0.598,0-1.082,0.49-1.082,1.095v9.78c0,0.604,0.484,1.094,1.082,1.094h5.371v24.985c0,0.603,0.482,1.094,1.082,1.094h11.301
	c0.598,0,1.082-0.491,1.082-1.094V63.419h7.439c0.545,0,1.014-0.412,1.074-0.963l1.16-9.779c0.035-0.316-0.061-0.623-0.268-0.859
	c-0.209-0.234-0.504-0.367-0.807-0.367H63.68c-0.01-0.35-0.01-0.691-0.018-1.016c-0.043-2.554-0.078-4.566,0.709-5.379
	c0.883-0.91,3.266-0.919,7.699,0c0.295,0.06,0.607,0,0.85-0.184c0.25-0.184,0.406-0.455,0.441-0.762l1.082-9.729
	C74.505,33.796,74.096,33.263,73.516,33.185z"/>
</svg>
