<svg version="1.1" class="Layer_1" xmlns="http://www.w3.org/2000/svg" xmlns:xlink="http://www.w3.org/1999/xlink" x="0px" y="0px"
	 width="114.998px" height="114.998px" viewBox="0 0 114.998 114.998" enable-background="new 0 0 114.998 114.998"
	 xml:space="preserve">
<path d="M67.799,28.594c-18.463-6.056-37.857,4.87-42.4,23.529c-4.328,17.774,6.293,32.963,18.803,38.131
	c0.004-0.017,0.01-0.034,0.008-0.05c-0.049-1.523-0.035-3.044,0.113-4.562c0.094-0.958,0.229-1.908,0.449-2.846
	c0.68-2.891,1.363-5.781,2.045-8.672c0.73-3.089,1.461-6.178,2.188-9.268c0.021-0.09,0.02-0.201-0.016-0.285
	c-0.457-1.093-0.742-2.229-0.889-3.403c-0.184-1.477-0.15-2.945,0.191-4.397c0.363-1.535,1.006-2.933,2.109-4.083
	c1.1-1.148,2.424-1.815,4.047-1.804c2.049,0.014,3.537,1.121,4.135,3.078c0.326,1.067,0.318,2.15,0.162,3.239
	c-0.176,1.232-0.496,2.429-0.848,3.62c-0.602,2.045-1.209,4.088-1.807,6.135c-0.246,0.839-0.393,1.691-0.273,2.57
	c0.217,1.617,1.041,2.838,2.436,3.663c1.283,0.759,2.676,0.903,4.125,0.653c1.195-0.206,2.262-0.709,3.229-1.432
	c1.184-0.887,2.113-2.004,2.877-3.26c1.498-2.457,2.324-5.152,2.76-7.975c0.164-1.058,0.252-2.129,0.328-3.198
	c0.105-1.464,0.074-2.924-0.205-4.373c-0.383-1.981-1.16-3.78-2.443-5.351c-1.312-1.604-2.969-2.731-4.889-3.481
	c-1.434-0.558-2.924-0.862-4.453-0.992c-1.33-0.11-2.658-0.096-3.982,0.06c-1.248,0.146-2.467,0.425-3.654,0.842
	c-1.893,0.666-3.598,1.653-5.105,2.977c-1.066,0.936-1.979,2.009-2.744,3.207c-1.428,2.234-2.227,4.681-2.449,7.317
	c-0.094,1.125-0.082,2.248,0.1,3.367c0.223,1.379,0.699,2.657,1.51,3.8c0.281,0.395,0.592,0.767,0.877,1.157
	c0.174,0.237,0.262,0.515,0.209,0.809c-0.068,0.389-0.156,0.775-0.252,1.159c-0.17,0.696-0.34,1.392-0.529,2.082
	c-0.133,0.49-0.42,0.865-0.961,0.907c-0.244,0.02-0.514-0.039-0.744-0.13c-0.787-0.306-1.508-0.735-2.174-1.256
	c-1.588-1.241-2.662-2.856-3.396-4.712c-0.789-1.99-1.109-4.073-1.16-6.203c-0.035-1.465,0.115-2.911,0.435-4.34
	c0.459-2.052,1.229-3.981,2.291-5.795c1.262-2.156,2.857-4.031,4.785-5.619c3.027-2.498,6.506-4.036,10.338-4.809
	c1.506-0.303,3.027-0.468,4.562-0.531c1.818-0.076,3.625,0.02,5.42,0.327c1.619,0.276,3.191,0.72,4.711,1.349
	c2.369,0.98,4.494,2.339,6.342,4.12c1.973,1.901,3.477,4.12,4.482,6.67c0.646,1.644,1.039,3.346,1.182,5.106
	c0.09,1.108,0.057,2.215-0.004,3.322c-0.09,1.597-0.297,3.178-0.635,4.741c-0.527,2.442-1.35,4.773-2.572,6.958
	c-1.293,2.309-2.943,4.309-5.072,5.898c-0.914,0.684-1.891,1.262-2.932,1.731c-1.443,0.651-2.953,1.071-4.527,1.259
	c-1.055,0.126-2.113,0.184-3.174,0.064c-1.547-0.175-2.99-0.65-4.324-1.451c-0.992-0.596-1.857-1.329-2.484-2.317
	c-0.047-0.075-0.096-0.147-0.16-0.247c-0.027,0.094-0.045,0.147-0.059,0.202c-0.6,2.353-1.197,4.708-1.797,7.062
	c-0.289,1.133-0.566,2.271-0.984,3.367c-0.6,1.58-1.359,3.081-2.223,4.531c-0.186,0.313-0.375,0.626-0.582,0.972
	c7.117,2.002,14.152,1.85,21.039-0.803c8.897-3.427,15.182-9.616,18.93-18.381C95.318,54.81,86.232,34.639,67.799,28.594z"/>
</svg>
