<svg version="1.2" baseProfile="tiny" class="Layer_1" xmlns="http://www.w3.org/2000/svg" xmlns:xlink="http://www.w3.org/1999/xlink"
	 x="0px" y="0px" width="114.998px" height="114.998px" viewBox="0 0 114.998 114.998" xml:space="preserve">
<path d="M86.661,42.64h-0.01c-0.035,0-0.07,0-0.102,0.005c-0.113,0.011-0.217,0.038-0.318,0.079
	c-0.814,0.328-1.609,0.608-2.357,0.834c1.055-1.195,1.83-2.479,2.379-3.915c0.061-0.134,0.092-0.28,0.092-0.437
	c0-0.584-0.471-1.057-1.051-1.057h-0.006c-0.025,0-0.047,0-0.07,0.001c-0.139,0.011-0.268,0.046-0.387,0.103
	c-0.342,0.154-0.682,0.312-1.02,0.469c-1.672,0.777-3.256,1.516-5.203,1.887c-2.381-2.188-5.432-3.389-8.65-3.389
	c-3.902,0-7.666,1.76-10.061,4.707c-2.066,2.543-2.963,5.764-2.584,9.191c-9.885-0.943-16.207-5.781-21.084-10.586
	c-0.004-0.054-0.01-0.107-0.02-0.16c-0.072-0.363-0.324-0.666-0.672-0.793c-0.119-0.045-0.246-0.066-0.365-0.066
	c-0.24,0-0.471,0.078-0.666,0.233c-1.672,1.346-2.025,3.822-2.143,5.83c-0.236,3.674,1.373,6.363,3.014,8.357
	c-0.531-0.179-1.01-0.39-1.439-0.633c-0.16-0.093-0.34-0.138-0.52-0.138c-0.193,0-0.389,0.053-0.559,0.156
	c-0.328,0.205-0.518,0.568-0.498,0.956c0.242,4.666,2.107,8.247,5.416,10.429c-0.092-0.025-0.184-0.035-0.272-0.035
	c-0.287,0-0.568,0.115-0.769,0.328c-0.272,0.287-0.359,0.702-0.231,1.076c1.531,4.374,4.533,7.1,8.941,8.125
	c-3.303,2.127-7.967,3.357-12.973,3.357h-0.029c-0.318,0-0.637,0-0.953-0.009H31.46c-0.473,0-0.887,0.312-1.016,0.769
	c-0.133,0.464,0.07,0.961,0.492,1.202c5.732,3.291,11.834,4.958,18.145,4.958c1.57,0,3.234-0.117,4.949-0.347
	c16.295-2.245,28.098-16.565,28.211-34.14c0.357-0.336,0.717-0.666,1.08-0.998c1.51-1.377,3.072-2.805,4.205-4.704
	c0.113-0.169,0.18-0.372,0.18-0.589C87.708,43.115,87.241,42.645,86.661,42.64z"/>
</svg>
