<?xml version="1.0" encoding="utf-8"?>
<!-- Generator: Adobe Illustrator 17.0.0, SVG Export Plug-In . SVG Version: 6.00 Build 0)  -->
<svg version="1.2" baseProfile="tiny" id="Layer_1" xmlns="http://www.w3.org/2000/svg" xmlns:xlink="http://www.w3.org/1999/xlink"
	 x="0px" y="0px" width="114.998px" height="114.998px" viewBox="0 0 114.998 114.998" xml:space="preserve">
<g>
	<path d="M82.506,19.204c-0.299-0.192-0.644-0.294-0.999-0.294c-0.632,0-1.213,0.317-1.555,0.849l-7.296,11.336
		c-0.551,0.856-0.303,2.002,0.554,2.553c0.298,0.192,0.644,0.294,0.999,0.294c0.632,0,1.214-0.317,1.554-0.848l7.296-11.337
		c0.267-0.414,0.357-0.909,0.252-1.391C83.207,19.884,82.921,19.471,82.506,19.204z"/>
	<path d="M38.472,57.742c0,11.786,9.59,21.375,21.376,21.375c0.093,0,0.185-0.001,0.276-0.002c0.849,3.721,4.178,6.393,8.023,6.393
		c1.813,0,3.578-0.601,5.008-1.699c1.56,1.79,3.798,2.809,6.193,2.809c2.951,0,5.746-1.654,7.188-4.234
		c0.247,0.032,0.496,0.048,0.746,0.048c3.263,0,5.917-2.655,5.917-5.918c0-2.105-1.102-4.033-2.891-5.089
		c0.067-0.497,0.102-1,0.102-1.499c0-5.385-3.944-10.018-9.225-10.904c0.025-0.424,0.038-0.853,0.038-1.28
		c0-11.787-9.589-21.376-21.375-21.376S38.472,45.956,38.472,57.742z M86.753,69.925c0,0.705-0.101,1.411-0.3,2.097
		c-0.141,0.48-0.076,1.004,0.178,1.436c0.252,0.432,0.677,0.745,1.166,0.858c1.028,0.237,1.745,1.141,1.745,2.197
		c0,1.246-1.013,2.259-2.258,2.259c-0.341,0-0.675-0.079-0.995-0.235c-0.248-0.12-0.524-0.183-0.799-0.183
		c-0.258,0-0.507,0.053-0.742,0.157c-0.493,0.218-0.863,0.641-1.015,1.16c-0.566,1.936-2.368,3.288-4.384,3.288
		c-1.846,0-3.499-1.101-4.213-2.805c-0.26-0.621-0.838-1.047-1.506-1.114c-0.061-0.007-0.121-0.009-0.182-0.009
		c-0.609,0-1.175,0.302-1.516,0.806c-0.849,1.26-2.264,2.011-3.783,2.011c-2.52,0-4.57-2.05-4.57-4.569
		c0-1.117,0.415-2.199,1.169-3.045c0.523-0.586,0.614-1.439,0.225-2.123c-0.375-0.659-0.574-1.414-0.574-2.186
		c0-2.464,2.005-4.468,4.47-4.468c0.759,0,1.511,0.196,2.177,0.567c0.271,0.152,0.58,0.232,0.89,0.232
		c0.577,0,1.127-0.277,1.471-0.74c1.409-1.9,3.575-2.989,5.942-2.989C83.432,62.527,86.753,65.846,86.753,69.925z M59.848,40.024
		c9.77,0,17.717,7.948,17.716,17.718c0,0.425-0.016,0.854-0.046,1.281c-2.31,0.391-4.457,1.515-6.093,3.19
		c-0.827-0.276-1.687-0.415-2.557-0.415c-4.482,0-8.129,3.646-8.129,8.127c0,0.985,0.175,1.947,0.52,2.862
		c-0.537,0.821-0.918,1.717-1.135,2.668c-0.09,0.002-0.182,0.002-0.276,0.002c-9.77,0-17.717-7.947-17.717-17.716
		C42.131,47.971,50.079,40.024,59.848,40.024z"/>
	<path d="M61.777,28.198V15.109c0-1.019-0.829-1.848-1.848-1.848c-1.019,0-1.848,0.829-1.848,1.848v13.089
		c0,1.019,0.829,1.848,1.848,1.848C60.948,30.046,61.777,29.217,61.777,28.198z"/>
	<path d="M103.129,55.59H88.535c-1.019,0-1.848,0.829-1.848,1.848c0,1.019,0.829,1.848,1.848,1.848h14.594
		c1.019,0,1.848-0.829,1.848-1.848C104.977,56.419,104.148,55.59,103.129,55.59z"/>
	<path d="M14.997,57.557c0,1.018,0.829,1.847,1.848,1.847h14.593c1.02,0,1.848-0.829,1.848-1.847c0-1.019-0.829-1.848-1.848-1.848
		H16.845C15.826,55.709,14.997,56.538,14.997,57.557z"/>
	<path d="M83.042,43.648c0.319,0.616,0.948,0.997,1.642,0.997c0.293,0,0.586-0.072,0.847-0.208l12.636-6.544
		c0.904-0.469,1.258-1.586,0.791-2.49c-0.319-0.616-0.948-0.998-1.641-0.998c-0.293,0-0.587,0.072-0.85,0.207l-12.635,6.544
		C82.929,41.625,82.573,42.743,83.042,43.648z"/>
	<path d="M39.918,19.816c-0.342-0.53-0.923-0.847-1.556-0.847c-0.354,0-0.699,0.101-0.999,0.294
		c-0.856,0.552-1.104,1.698-0.552,2.554l7.298,11.336c0.342,0.532,0.924,0.849,1.555,0.849c0.355,0,0.701-0.102,0.999-0.296
		c0.857-0.551,1.105-1.696,0.553-2.553L39.918,19.816z"/>
	<path d="M36.935,71.35c-0.319-0.616-0.948-0.999-1.642-0.999c-0.293,0-0.586,0.072-0.848,0.208l-12.64,6.545
		c-0.438,0.227-0.763,0.61-0.912,1.081c-0.15,0.47-0.107,0.971,0.12,1.409c0.319,0.616,0.949,0.999,1.643,0.999
		c0.294,0,0.587-0.072,0.847-0.208l12.64-6.545C37.048,73.371,37.403,72.254,36.935,71.35z"/>
	<path d="M58.199,86.797v13.091c0,1.019,0.829,1.848,1.848,1.848c1.018,0,1.847-0.829,1.848-1.847V86.797
		c0-1.019-0.829-1.848-1.848-1.848C59.028,84.949,58.199,85.778,58.199,86.797z"/>
	<path d="M37.465,95.792c0.301,0.191,0.645,0.293,0.999,0.293c0.632,0,1.214-0.316,1.556-0.848l7.295-11.336
		c0.551-0.856,0.303-2.002-0.554-2.553c-0.299-0.192-0.644-0.294-0.999-0.294c-0.632,0-1.213,0.317-1.555,0.848l-7.295,11.336
		C36.36,94.094,36.608,95.24,37.465,95.792z"/>
	<path d="M23.446,34.714c-0.262-0.136-0.556-0.208-0.849-0.208c-0.692,0-1.322,0.383-1.641,1c-0.468,0.904-0.114,2.02,0.791,2.489
		l12.636,6.544c0.261,0.135,0.555,0.207,0.849,0.207c0.694,0,1.323-0.382,1.641-0.998c0.468-0.903,0.113-2.021-0.791-2.49
		L23.446,34.714z"/>
</g>
</svg>
