<?xml version="1.0" encoding="utf-8"?>
<!-- Generator: Adobe Illustrator 17.0.0, SVG Export Plug-In . SVG Version: 6.00 Build 0)  -->
<svg version="1.2" baseProfile="tiny" id="Layer_1" xmlns="http://www.w3.org/2000/svg" xmlns:xlink="http://www.w3.org/1999/xlink"
	 x="0px" y="0px" width="114.998px" height="114.998px" viewBox="0 0 114.998 114.998" xml:space="preserve">
<g>
	<path d="M51.973,92.84l3.169-8.256c0.304-0.792-0.165-1.709-1.049-2.048c-0.883-0.339-1.845,0.029-2.15,0.821l-3.169,8.255
		c-0.304,0.792,0.166,1.709,1.049,2.048C50.707,93.999,51.67,93.631,51.973,92.84z"/>
	<path d="M35.213,75.241c-0.884-0.339-1.847,0.029-2.15,0.821l-3.169,8.255c-0.305,0.792,0.164,1.709,1.049,2.049
		c0.883,0.339,1.845-0.029,2.15-0.821l3.169-8.256C36.566,76.497,36.096,75.58,35.213,75.241z"/>
	<path d="M42.286,80.677c0.883,0.339,1.845-0.029,2.15-0.82l3.169-8.256c0.303-0.792-0.166-1.709-1.049-2.049
		c-0.884-0.339-1.847,0.029-2.15,0.822l-3.169,8.255C40.933,79.421,41.403,80.338,42.286,80.677z"/>
	<path d="M84.474,41.813c0.254-1.271,0.383-2.559,0.383-3.848c0-10.745-8.745-19.486-19.495-19.486
		c-5.647,0-11.048,2.489-14.725,6.724c-1.704-0.721-3.545-1.098-5.396-1.098c-7.643,0-13.861,6.218-13.861,13.86
		c0,1.98,0.422,3.932,1.23,5.711c-1.819,2.431-2.809,5.375-2.809,8.411c0,4.966,2.593,9.335,6.493,11.834l-1.069,2.82
		c-0.304,0.792,0.166,1.709,1.049,2.048c0.884,0.339,1.847-0.029,2.15-0.821l0.972-2.56c1.403,0.471,2.902,0.73,4.461,0.73
		c3.736,0,7.266-1.478,9.866-4.05c1.223,1.813,2.842,3.292,4.71,4.351l-3.106,8.088c-0.304,0.792,0.166,1.709,1.049,2.048
		c0.884,0.339,1.847-0.028,2.15-0.82l3.072-8.003c1.207,0.334,2.469,0.516,3.764,0.516c5.567,0,10.607-3.352,12.836-8.346
		c0.783,0.205,1.584,0.307,2.398,0.307c5.302,0,9.616-4.314,9.616-9.617C90.213,46.723,87.925,43.318,84.474,41.813z M80.597,56.698
		c-0.918,0-1.817-0.21-2.672-0.625c-0.468-0.229-1.013-0.239-1.487-0.028c-0.476,0.211-0.835,0.62-0.981,1.119
		c-1.302,4.459-5.453,7.573-10.095,7.573c-4.249,0-8.057-2.535-9.701-6.458c-0.251-0.598-0.809-1.011-1.454-1.075
		c-0.059-0.006-0.116-0.008-0.175-0.008c-0.583,0-1.133,0.289-1.464,0.778c-1.957,2.9-5.213,4.633-8.712,4.633
		c-5.803,0-10.523-4.719-10.523-10.519c0-2.576,0.956-5.065,2.689-7.011c0.505-0.566,0.592-1.391,0.217-2.05
		c-0.869-1.526-1.328-3.276-1.328-5.061c0-5.695,4.634-10.328,10.329-10.328c1.752,0,3.492,0.454,5.03,1.312
		c0.774,0.432,1.749,0.222,2.278-0.49c3.04-4.097,7.711-6.447,12.813-6.447c8.802,0,15.963,7.156,15.963,15.953
		c0,1.517-0.217,3.035-0.647,4.514c-0.136,0.466-0.074,0.968,0.172,1.387c0.245,0.419,0.652,0.718,1.126,0.827
		c2.77,0.64,4.705,3.075,4.705,5.92C86.681,53.968,83.951,56.698,80.597,56.698z"/>
	<path d="M38.775,86.088l-3.169,8.255c-0.304,0.792,0.166,1.709,1.049,2.049c0.884,0.339,1.847-0.029,2.15-0.821l3.169-8.255
		c0.304-0.793-0.166-1.709-1.049-2.048C40.042,84.929,39.08,85.296,38.775,86.088z"/>
	<path d="M76.792,75.976l3.169-8.256c0.304-0.791-0.165-1.708-1.049-2.048c-0.883-0.339-1.845,0.029-2.15,0.821l-3.169,8.255
		c-0.304,0.792,0.166,1.709,1.049,2.048C75.526,77.135,76.489,76.767,76.792,75.976z"/>
	<path d="M66.89,73.891c-0.883-0.34-1.845,0.028-2.15,0.82l-3.169,8.256c-0.304,0.791,0.166,1.709,1.049,2.048
		c0.884,0.339,1.847-0.029,2.15-0.82l3.169-8.256C68.244,75.147,67.775,74.229,66.89,73.891z"/>
	<path d="M65.897,95.655c0.883,0.34,1.845-0.028,2.15-0.82l3.169-8.256c0.304-0.792-0.166-1.709-1.049-2.048
		c-0.884-0.339-1.847,0.028-2.15,0.82l-3.169,8.256C64.543,94.399,65.012,95.316,65.897,95.655z"/>
</g>
</svg>
