<?xml version="1.0" encoding="utf-8"?>
<!-- Generator: Adobe Illustrator 17.0.0, SVG Export Plug-In . SVG Version: 6.00 Build 0)  -->
<svg version="1.2" baseProfile="tiny" id="Layer_1" xmlns="http://www.w3.org/2000/svg" xmlns:xlink="http://www.w3.org/1999/xlink"
	 x="0px" y="0px" width="114.998px" height="114.998px" viewBox="0 0 114.998 114.998" xml:space="preserve">
<g>
	<rect x="54.61" y="52.854" width="2.61" height="2.61"/>
	<rect x="54.61" y="57.27" width="2.61" height="2.61"/>
	<rect x="54.61" y="66.1" width="2.61" height="2.61"/>
	<rect x="54.61" y="61.685" width="2.61" height="2.61"/>
	<rect x="73.059" y="52.855" width="2.609" height="2.61"/>
	<rect x="73.059" y="48.44" width="2.609" height="2.61"/>
	<rect x="77.551" y="39.609" width="2.611" height="2.611"/>
	<rect x="77.551" y="52.855" width="2.611" height="2.61"/>
	<rect x="77.551" y="48.44" width="2.611" height="2.61"/>
	<rect x="73.059" y="39.609" width="2.609" height="2.611"/>
	<rect x="73.059" y="44.025" width="2.609" height="2.61"/>
	<rect x="77.551" y="44.025" width="2.611" height="2.61"/>
	<rect x="36.36" y="44.024" width="2.61" height="2.611"/>
	<rect x="36.36" y="48.44" width="2.61" height="2.61"/>
	<rect x="40.854" y="48.44" width="2.609" height="2.61"/>
	<rect x="40.854" y="52.855" width="2.609" height="2.61"/>
	<path d="M91.678,71.482l-0.141-0.055l-0.054-0.141c-1.066-2.797-3.499-4.814-6.506-5.395l-0.282-0.055l0.007-0.287l0.007-0.108
		V36.788c0-1.761-1.431-3.193-3.193-3.193h-9.611c-1.761,0-3.193,1.432-3.193,3.193v21.441l-0.175,0.097
		c-0.515,0.285-1.006,0.613-1.46,0.976l-0.194,0.154l-0.205-0.137c-0.097-0.064-0.197-0.123-0.297-0.183l-0.237-0.141V45.927
		c0-1.761-1.433-3.194-3.193-3.194h-9.612c-1.76,0-3.193,1.433-3.193,3.194v10.402L49.68,56.14
		c-0.487-0.198-0.995-0.362-1.507-0.489l-0.258-0.064v-14.04c0-1.761-1.431-3.193-3.193-3.193h-9.611
		c-1.761,0-3.193,1.432-3.193,3.193v23.249l-0.253,0.066c-3.555,0.937-6.261,3.681-7.06,7.162l-0.028,0.118l-0.097,0.074
		c-1.277,0.98-2.01,2.454-2.01,4.043c0,2.837,2.363,5.143,5.266,5.143h61.995c2.903,0,5.265-2.307,5.265-5.143
		C94.998,74.131,93.695,72.256,91.678,71.482z M71.566,36.449h10.29v24.363l-0.583-0.605c-0.348-0.36-0.723-0.682-1.111-0.985V57.27
		h-2.61v0.46c-1.212-0.475-2.516-0.732-3.867-0.732c-0.566,0-1.146,0.048-1.725,0.144l-0.394,0.064V36.449z M53,45.587h10.291
		v26.019H53V45.587z M34.774,41.208h10.288v14.121l-0.317,0.02c-2.127,0.133-4.116,0.858-5.774,2.033V57.27h-2.61v2.609h0.082
		c-0.39,0.539-0.736,1.115-1.023,1.729l-0.646-0.144V41.208z M89.733,78.397H27.738c-1.246,0-2.26-0.959-2.26-2.137
		c0-0.776,0.446-1.492,1.165-1.87l0.686-0.36l0.105-0.768c0.442-3.265,3.364-5.727,6.796-5.727c0.477,0,0.952,0.048,1.412,0.141
		l1.837,0.371l-0.041-2.015c0-4.251,3.598-7.709,8.02-7.709c1.618,0,3.186,0.473,4.537,1.367l0.152,0.101v11.816H45.6
		c-0.783,0-1.42,0.636-1.42,1.419c0,0.783,0.637,1.42,1.42,1.42l7.483,0.001c0.084,0.007,0.17,0.013,0.256,0.013h9.612
		c0.086,0,0.172-0.006,0.284-0.014h7.367c0.783,0,1.42-0.637,1.42-1.42c0-0.783-0.637-1.419-1.42-1.419h-4.458v-8.89l0.945,0.851
		l1.006-1.112c1.41-1.558,3.447-2.452,5.589-2.452c1.972,0,3.829,0.739,5.228,2.081c1.403,1.346,2.175,3.133,2.175,5.037
		l-0.024,1.763l1.643-0.132c0.176-0.014,0.352-0.026,0.531-0.026c2.709,0,5.029,1.768,5.643,4.299L89.118,74l0.99,0.156
		c1.092,0.173,1.885,1.057,1.885,2.103C91.992,77.438,90.978,78.397,89.733,78.397z"/>
	<rect x="36.36" y="52.855" width="2.61" height="2.61"/>
	<rect x="40.854" y="44.024" width="2.609" height="2.611"/>
	<rect x="59.103" y="61.685" width="2.609" height="2.61"/>
	<rect x="54.61" y="48.439" width="2.61" height="2.611"/>
	<rect x="59.103" y="66.1" width="2.609" height="2.61"/>
	<rect x="59.103" y="57.27" width="2.609" height="2.61"/>
	<rect x="59.103" y="48.439" width="2.609" height="2.611"/>
	<rect x="59.103" y="52.854" width="2.609" height="2.61"/>
</g>
</svg>
