<?xml version="1.0" encoding="utf-8"?>
<!-- Generator: Adobe Illustrator 17.0.0, SVG Export Plug-In . SVG Version: 6.00 Build 0)  -->
<svg version="1.2" baseProfile="tiny" id="Layer_1" xmlns="http://www.w3.org/2000/svg" xmlns:xlink="http://www.w3.org/1999/xlink"
	 x="0px" y="0px" width="114.998px" height="114.998px" viewBox="0 0 114.998 114.998" xml:space="preserve">
<g>
	<path d="M56.668,40.559c3.817,0,6.923-3.106,6.923-6.925c0-3.82-3.105-6.926-6.923-6.926s-6.927,3.106-6.927,6.926
		C49.742,37.453,52.851,40.559,56.668,40.559z M56.668,29.23c2.427,0,4.401,1.977,4.401,4.404s-1.975,4.404-4.401,4.404
		c-2.429,0-4.405-1.977-4.405-4.404S54.24,29.23,56.668,29.23z"/>
	<path d="M57.499,1.726C26.776,1.726,1.78,26.719,1.78,57.443c0,30.723,24.996,55.718,55.719,55.718s55.718-24.995,55.718-55.718
		C113.217,26.719,88.222,1.726,57.499,1.726z M57.499,110.64c-29.33,0-53.197-23.865-53.197-53.197
		c0-29.331,23.867-53.2,53.197-53.2c29.334,0,53.197,23.869,53.197,53.2C110.697,86.774,86.833,110.64,57.499,110.64z"/>
	<path d="M37.218,69.47c5.153,1.812,12.059,2.812,19.45,2.812c14.403,0,28.937-3.778,28.937-12.212
		c0-11.446-7.184-21.559-18.302-25.767c-0.653-0.244-1.381,0.083-1.626,0.734c-0.247,0.651,0.084,1.38,0.734,1.625
		c10.128,3.832,16.674,13.02,16.674,23.408c0,6.293-13.612,9.688-26.417,9.688c-12.808,0-26.421-3.396-26.421-9.688
		c0-10.345,6.809-19.79,16.937-23.505c0.654-0.241,0.99-0.966,0.75-1.617c-0.24-0.654-0.966-0.989-1.617-0.75
		C35.2,38.274,27.726,48.671,27.726,60.069C27.726,62.835,29.374,66.711,37.218,69.47z"/>
	<path d="M84.993,70.992c-0.066,0.071-6.851,7.189-28.503,7.189c-21.071,0-28.464-6.505-28.581-6.609
		c-0.504-0.473-1.299-0.445-1.775,0.06c-0.479,0.507-0.451,1.305,0.057,1.781c0.314,0.299,8.012,7.29,30.3,7.29
		c22.954,0,30.085-7.695,30.378-8.026c0.459-0.515,0.414-1.304-0.098-1.77C86.257,70.44,85.458,70.482,84.993,70.992z"/>
</g>
</svg>
