<?xml version="1.0" encoding="utf-8"?>
<!-- Generator: Adobe Illustrator 17.0.0, SVG Export Plug-In . SVG Version: 6.00 Build 0)  -->
<svg version="1.2" baseProfile="tiny" id="Layer_1" xmlns="http://www.w3.org/2000/svg" xmlns:xlink="http://www.w3.org/1999/xlink"
	 x="0px" y="0px" width="114.998px" height="114.998px" viewBox="0 0 114.998 114.998" xml:space="preserve">
<g>
	<path d="M62.227,74.567c-0.607-0.339-1.378-0.118-1.714,0.49c-3.841,6.918-7.083,11.834-8.45,13.489
		c-3.734-4.528-18.876-31.454-18.876-41.373c0-10.603,8.629-19.228,19.229-19.228c10.605,0,19.228,8.626,19.228,19.228
		c0,2.865-1.4,7.609-4.057,13.722c-0.275,0.64,0.016,1.382,0.654,1.66c0.637,0.275,1.381-0.017,1.66-0.654
		c2.829-6.52,4.262-11.475,4.262-14.728c0-11.992-9.754-21.749-21.748-21.749c-11.99,0-21.75,9.757-21.75,21.749
		c0,6.768,6.008,19.412,9.588,26.344c2.173,4.213,9.455,17.96,11.805,17.96c1.834,0,6.811-8.264,10.656-15.196
		C63.055,75.671,62.834,74.905,62.227,74.567z"/>
	<path d="M57.496,1.728c-30.723,0-55.715,24.992-55.715,55.715c0,30.722,24.992,55.716,55.715,55.716s55.72-24.994,55.72-55.716
		C113.216,26.72,88.219,1.728,57.496,1.728z M57.496,110.638c-29.329,0-53.195-23.864-53.195-53.195
		c0-29.33,23.866-53.197,53.195-53.197c29.333,0,53.199,23.867,53.199,53.197C110.696,86.774,86.829,110.638,57.496,110.638z"/>
	<path d="M86.71,39.566c-0.01-0.013-0.018-0.024-0.027-0.039c-0.18-0.237-0.432-0.395-0.704-0.461
		c-0.092-0.021-0.185-0.035-0.278-0.037c-0.179,0.011-0.458,0.055-0.669,0.179c-0.06,0.038-0.116,0.077-0.172,0.122
		c-0.076,0.067-0.148,0.144-0.207,0.224l-7.797,10.358c-0.42,0.555-0.309,1.345,0.25,1.764c0.551,0.418,1.342,0.308,1.763-0.25
		l5.549-7.368v23.215H54.051c-0.695,0-1.26,0.564-1.26,1.261c0,0.695,0.564,1.261,1.26,1.261h31.626
		c0.697,0,1.261-0.565,1.261-1.261V44.257l5.254,7.43c0.402,0.569,1.188,0.705,1.756,0.3c0.57-0.399,0.705-1.188,0.303-1.756
		L86.71,39.566z"/>
	<path d="M42.563,47.123c0,5.437,4.422,9.86,9.857,9.86c5.434,0,9.854-4.423,9.854-9.86c0-5.434-4.42-9.856-9.854-9.856
		C46.985,37.267,42.563,41.69,42.563,47.123z M59.754,47.123c0,4.048-3.289,7.34-7.334,7.34c-4.047,0-7.338-3.292-7.338-7.34
		c0-4.045,3.291-7.336,7.338-7.336C56.465,39.787,59.754,43.078,59.754,47.123z"/>
</g>
</svg>
