<?xml version="1.0" encoding="utf-8"?>
<!-- Generator: Adobe Illustrator 17.0.0, SVG Export Plug-In . SVG Version: 6.00 Build 0)  -->
<svg version="1.2" baseProfile="tiny" id="Layer_1" xmlns="http://www.w3.org/2000/svg" xmlns:xlink="http://www.w3.org/1999/xlink"
	 x="0px" y="0px" width="114.998px" height="114.998px" viewBox="0 0 114.998 114.998" xml:space="preserve">
<g>
	<path d="M61.597,62.052c0.562,0,1.871-0.344,5.303-3.213v16.219c0,0.437,0,1.871,1.341,1.871c1.373,0,1.373-1.341,1.373-2.09
		V56.281c0-0.593,0-2.059-1.216-2.059c-0.562,0-0.844,0.406-1.217,0.968c-1.622,2.558-4.461,4.054-5.24,4.397
		c-1.154,0.531-1.341,0.873-1.341,1.342C60.6,61.708,61.222,62.052,61.597,62.052z"/>
	<path d="M49.371,76.929c4.771,0,7.174-3.431,7.174-6.987c0-4.21-3.026-5.052-4.274-5.395c1.123-0.624,3.244-1.778,3.244-4.648
		c0-3.088-2.402-5.677-6.426-5.677c-5.146,0-6.676,4.056-6.676,5.24c0,0.343,0.219,1.153,1.154,1.153
		c0.78,0,0.874-0.311,1.467-1.652c0.562-1.278,1.808-2.714,3.93-2.714c2.559,0,3.775,1.997,3.775,3.65
		c0,1.279-0.718,2.713-2.245,3.337c-0.998,0.406-1.623,0.406-2.465,0.406c-0.343,0-1.497,0.062-1.497,1.153
		c0,0.501,0.343,1.062,1.185,1.062c0.25,0,1.529-0.157,1.811-0.157c2.962,0,4.241,2.339,4.241,4.305c0,2.37-1.777,4.804-4.804,4.804
		c-2.994,0-4.148-2.371-4.553-3.681c-0.219-0.718-0.469-1.278-1.248-1.278c-0.75,0-1.248,0.593-1.248,1.091
		c0,1.06,0.75,2.837,1.965,4.117C44.848,76.055,46.345,76.929,49.371,76.929z"/>
	<path d="M84.76,29.439h-8.857v-5.854c0-0.697-0.565-1.262-1.262-1.262c-0.695,0-1.261,0.565-1.261,1.262v5.854H41.617v-5.854
		c0-0.697-0.564-1.262-1.26-1.262c-0.697,0-1.262,0.565-1.262,1.262v5.854h-8.857c-1.955,0-3.545,1.59-3.545,3.545v51.849
		c0,1.956,1.59,3.545,3.545,3.545H84.76c1.954,0,3.545-1.59,3.545-3.545V32.984C88.304,31.029,86.714,29.439,84.76,29.439z
		 M85.782,84.833c0.001,0.564-0.458,1.024-1.022,1.024H30.238c-0.563,0-1.024-0.46-1.024-1.024V45.845h56.568V84.833z
		 M85.783,43.325H29.215V32.984c0-0.565,0.46-1.024,1.023-1.024h8.857v4.01c0,0.697,0.564,1.26,1.262,1.26
		c0.695,0,1.26-0.563,1.26-1.26v-4.01H73.38v4.01c0,0.697,0.565,1.26,1.261,1.26c0.696,0,1.262-0.563,1.262-1.26v-4.01h8.857
		c0.564,0,1.023,0.46,1.023,1.024V43.325z"/>
	<path d="M57.499,1.726c-30.724,0-55.717,24.994-55.717,55.718c0,30.722,24.993,55.717,55.717,55.717s55.717-24.995,55.717-55.717
		C113.216,26.72,88.223,1.726,57.499,1.726z M57.499,110.639c-29.333,0-53.196-23.863-53.196-53.195
		c0-29.333,23.863-53.197,53.196-53.197s53.196,23.864,53.196,53.197C110.695,86.776,86.832,110.639,57.499,110.639z"/>
</g>
</svg>
