<?xml version="1.0" encoding="utf-8"?>
<!-- Generator: Adobe Illustrator 17.0.0, SVG Export Plug-In . SVG Version: 6.00 Build 0)  -->
<svg version="1.2" baseProfile="tiny" id="Layer_1" xmlns="http://www.w3.org/2000/svg" xmlns:xlink="http://www.w3.org/1999/xlink"
	 x="0px" y="0px" width="114.998px" height="114.998px" viewBox="0 0 114.998 114.998" xml:space="preserve">
<g>
	<path d="M49.64,24.07c-0.439-0.54-1.231-0.627-1.774-0.186c-0.539,0.438-0.623,1.232-0.185,1.774L72.76,56.632L47.681,87.606
		c-0.438,0.542-0.354,1.335,0.185,1.773c0.234,0.188,0.516,0.28,0.793,0.28c0.367,0,0.732-0.157,0.981-0.466l25.722-31.769
		c0.375-0.461,0.375-1.124,0-1.586L49.64,24.07z"/>
	<path d="M57.498,1.725c-30.723,0-55.718,24.996-55.718,55.72c0,30.722,24.995,55.717,55.718,55.717
		c30.725,0,55.719-24.995,55.719-55.717C113.217,26.721,88.223,1.725,57.498,1.725z M57.498,110.641
		c-29.332,0-53.197-23.865-53.197-53.196c0-29.333,23.865-53.198,53.197-53.198c29.332,0,53.198,23.865,53.198,53.198
		C110.697,86.776,86.83,110.641,57.498,110.641z"/>
</g>
</svg>
