<?xml version="1.0" encoding="utf-8"?>
<!-- Generator: Adobe Illustrator 17.0.0, SVG Export Plug-In . SVG Version: 6.00 Build 0)  -->
<svg version="1.2" baseProfile="tiny" id="Layer_1" xmlns="http://www.w3.org/2000/svg" xmlns:xlink="http://www.w3.org/1999/xlink"
	 x="0px" y="0px" width="114.998px" height="114.998px" viewBox="0 0 114.998 114.998" xml:space="preserve">
<g>
	<path d="M57.499,1.726C26.776,1.726,1.78,26.721,1.78,57.443c0,30.723,24.996,55.718,55.719,55.718
		c30.724,0,55.719-24.995,55.719-55.718C113.218,26.721,88.222,1.726,57.499,1.726z M57.499,110.64
		C28.166,110.64,4.3,86.776,4.3,57.443c0-29.332,23.866-53.196,53.199-53.196c29.332,0,53.197,23.864,53.197,53.196
		C110.696,86.776,86.831,110.64,57.499,110.64z"/>
	<path d="M75.495,29.667c-1.092-0.107-2.149-0.161-3.145-0.161c-7.664,0-11.637,3.312-15.316,7.522
		c-3.676-4.211-7.649-7.522-15.318-7.522c-0.996,0-2.055,0.054-3.141,0.161c-7.084,0.693-15.158,7.011-16.145,19.339l0.002,3.91
		C23.468,66.197,34.55,80.07,56.311,95.334c0.215,0.151,0.469,0.23,0.723,0.23c0.254,0,0.508-0.079,0.723-0.23
		C79.518,80.072,90.6,66.198,91.641,52.819l-0.004-3.916C90.653,36.678,82.581,30.36,75.495,29.667z M57.034,92.759
		C36.407,78.159,25.911,65.06,24.952,52.82l-0.005-3.714c0.866-10.78,7.8-16.334,13.874-16.929c1.006-0.099,1.979-0.149,2.895-0.149
		c7.285,0,10.544,3.213,14.352,7.752c0.24,0.285,0.595,0.451,0.967,0.451c0.371,0,0.726-0.166,0.965-0.451
		c3.812-4.539,7.072-7.752,14.352-7.752c0.914,0,1.889,0.051,2.898,0.149c6.074,0.595,13.008,6.149,13.873,16.83l0.002,3.716
		C88.161,65.06,77.663,78.161,57.034,92.759z"/>
</g>
</svg>
