<?xml version="1.0" encoding="utf-8"?>
<!-- Generator: Adobe Illustrator 18.1.0, SVG Export Plug-In . SVG Version: 6.00 Build 0)  -->
<!DOCTYPE svg PUBLIC "-//W3C//DTD SVG 1.1//EN" "http://www.w3.org/Graphics/SVG/1.1/DTD/svg11.dtd">
<svg version="1.1" id="Layer_1" xmlns="http://www.w3.org/2000/svg" xmlns:xlink="http://www.w3.org/1999/xlink" x="0px" y="0px"
	 viewBox="-248 339 115 115" enable-background="new -248 339 115 115" xml:space="preserve">
<g>
	<path fill="#FFFFFF" d="M-183.3,377.4c0-3.8-3.1-7-7-7c-3.8,0-7,3.1-7,7c0,3.8,3.1,7,7,7C-186.4,384.4-183.3,381.3-183.3,377.4z
		 M-194.7,377.4c0-2.5,2-4.5,4.5-4.5c2.5,0,4.5,2,4.5,4.5c0,2.5-2,4.5-4.5,4.5C-192.7,381.9-194.7,379.9-194.7,377.4z"/>
	<path fill="#FFFFFF" d="M-190.5,407.3c1.6,0,5.5-6.6,8.4-12.1c2.5-4.6,6.7-13.1,6.7-17.7c0-8.2-6.7-14.9-14.9-14.9
		c-8.2,0-14.9,6.7-14.9,14.9C-205.1,383.6-193.5,407.3-190.5,407.3z M-190.3,365.1c6.8,0,12.4,5.5,12.4,12.4c0,6.4-9.7,23-12.6,26.8
		c-2.8-3.8-12.1-20.4-12.1-26.8C-202.6,370.7-197.1,365.1-190.3,365.1z"/>
	<path fill="#FFFFFF" d="M-155.9,415.1l-17-4.7l17-5.5c0.5-0.2,0.9-0.7,0.9-1.2c0-0.6-0.4-1-0.9-1.2l-20.1-5.9
		c-0.7-0.2-1.4,0.2-1.6,0.9c-0.2,0.7,0.2,1.4,0.9,1.6l16.2,4.8l-30,9.7l-29.9-9.7l16.5-4.7c0.7-0.2,1.1-0.9,0.9-1.6
		c-0.2-0.7-0.9-1.1-1.6-0.9l-20.5,5.8c-0.5,0.2-0.9,0.6-0.9,1.2c0,0.6,0.3,1,0.9,1.2l17,5.5l-17,4.7c-0.5,0.1-0.9,0.6-0.9,1.2
		c0,0.6,0.3,1.1,0.9,1.2l34.3,11.1c0.1,0,0.3,0.1,0.4,0.1c0.1,0,0.3,0,0.4-0.1l34.3-11.1c0.5-0.2,0.9-0.7,0.9-1.2
		C-155,415.8-155.3,415.3-155.9,415.1z M-190.5,426.1l-29.9-9.6l16.6-4.6l12.9,4.2c0.1,0,0.3,0.1,0.4,0.1c0.1,0,0.3,0,0.4-0.1
		l13-4.2c0.1,0,0.1,0.1,0.2,0.1l16.3,4.5L-190.5,426.1z"/>
	<path fill="#FFFFFF" d="M-190.5,340.7c-30.7,0-55.7,25-55.7,55.7c0,30.7,25,55.7,55.7,55.7s55.7-25,55.7-55.7
		C-134.8,365.7-159.8,340.7-190.5,340.7z M-190.5,449.6c-29.3,0-53.2-23.9-53.2-53.2c0-29.3,23.9-53.2,53.2-53.2
		c29.3,0,53.2,23.9,53.2,53.2C-137.3,425.8-161.2,449.6-190.5,449.6z"/>
</g>
</svg>
