<?xml version="1.0" encoding="utf-8"?>
<!-- Generator: Adobe Illustrator 17.0.0, SVG Export Plug-In . SVG Version: 6.00 Build 0)  -->
<svg version="1.2" baseProfile="tiny" id="Layer_1" xmlns="http://www.w3.org/2000/svg" xmlns:xlink="http://www.w3.org/1999/xlink"
	 x="0px" y="0px" width="114.998px" height="114.998px" viewBox="0 0 114.998 114.998" xml:space="preserve">
<g>
	<path d="M57.499,1.726c-30.723,0-55.717,24.994-55.717,55.717c0,30.722,24.994,55.717,55.717,55.717
		c30.723,0,55.717-24.995,55.717-55.717C113.216,26.72,88.221,1.726,57.499,1.726z M57.499,110.639
		c-29.332,0-53.196-23.862-53.196-53.196c0-29.332,23.864-53.197,53.196-53.197c29.334,0,53.196,23.865,53.196,53.197
		C110.695,86.777,86.833,110.639,57.499,110.639z"/>
	<path d="M72.159,73.459c-4.487-2.366-9.557-3.617-14.662-3.617c-5.103,0-10.173,1.25-14.661,3.613
		c-0.615,0.325-0.851,1.088-0.527,1.704c0.323,0.615,1.086,0.85,1.701,0.529c4.13-2.175,8.793-3.325,13.487-3.325
		c4.697,0,9.36,1.151,13.486,3.325c0.188,0.099,0.389,0.146,0.587,0.146c0.453,0,0.891-0.245,1.116-0.673
		C73.012,74.546,72.775,73.782,72.159,73.459z"/>
	<path d="M81.432,60.266c-7.235-4.226-15.511-6.459-23.935-6.459S40.794,56.04,33.56,60.266c-0.602,0.351-0.805,1.123-0.453,1.725
		c0.352,0.602,1.124,0.806,1.724,0.452c6.85-4,14.688-6.115,22.666-6.115c7.978,0,15.814,2.115,22.664,6.115
		c0.198,0.117,0.418,0.172,0.635,0.172c0.433,0,0.853-0.224,1.089-0.624C82.235,61.389,82.034,60.617,81.432,60.266z"/>
	<path d="M89.924,48.15c-9.742-5.951-20.954-9.097-32.427-9.097c-11.473,0-22.686,3.146-32.42,9.096
		c-0.594,0.363-0.781,1.138-0.419,1.733c0.363,0.593,1.139,0.78,1.733,0.418c9.339-5.709,20.095-8.726,31.105-8.726
		c11.009,0,21.767,3.018,31.112,8.727c0.206,0.126,0.432,0.185,0.657,0.185c0.423,0,0.839-0.215,1.078-0.604
		C90.706,49.289,90.519,48.512,89.924,48.15z"/>
</g>
</svg>
