<?xml version="1.0" encoding="utf-8"?>
<!-- Generator: Adobe Illustrator 17.0.0, SVG Export Plug-In . SVG Version: 6.00 Build 0)  -->
<svg version="1.2" baseProfile="tiny" id="Layer_1" xmlns="http://www.w3.org/2000/svg" xmlns:xlink="http://www.w3.org/1999/xlink"
	 x="0px" y="0px" width="114.998px" height="114.998px" viewBox="0 0 114.998 114.998" xml:space="preserve">
<g>
	<path d="M52.796,27.682c-0.694,0.03-1.234,0.618-1.203,1.313l0.82,18.667c-0.009,0.058-0.033,0.109-0.033,0.173
		c0,2.388-1.943,4.333-4.334,4.333h-2.058V28.941c0-0.697-0.563-1.261-1.261-1.261c-0.695,0-1.26,0.564-1.26,1.261v23.227h-2.103
		c-2.387,0-4.326-1.943-4.33-4.325l0.831-18.848c0.03-0.695-0.507-1.283-1.203-1.313c-0.698-0.033-1.284,0.507-1.314,1.205
		l-0.833,18.892c-0.002,0.009,0.004,0.019,0.004,0.028c0,0-0.006,0.017-0.006,0.028c0,3.779,3.072,6.854,6.852,6.854h2.103v36.549
		c0,0.696,0.565,1.261,1.26,1.261c0.697,0,1.261-0.564,1.261-1.261V54.689h2.058c3.623,0,6.566-2.835,6.807-6.396
		c0.064-0.16,0.096-0.333,0.089-0.514L54.11,28.887C54.079,28.189,53.486,27.651,52.796,27.682z"/>
	<path d="M75.085,26.48h-0.008c0,0-0.406-0.038-1.057-0.038c-2.168,0-7.391,0.447-9.05,4.572
		c-0.667,1.651-3.151,26.691-3.147,28.796c0.012,3.255,2.1,4.153,3.225,4.174h5.311v22.933c0,2.397,1.949,4.347,4.346,4.347h0.258
		c2.394,0,4.344-1.95,4.344-4.347V30.821C79.305,28.428,77.361,26.48,75.085,26.48z M74.962,88.743h-0.258
		c-1.006,0-1.824-0.82-1.824-1.826V62.725c0-0.697-0.564-1.261-1.262-1.261h-6.545c-0.006,0-0.725-0.083-0.729-1.662
		c-0.006-2.801,2.502-26.268,2.963-27.845c1.089-2.702,5.058-2.993,6.713-2.993c0.49,0,0.803,0.024,0.941,0.032
		c1.004,0,1.822,0.82,1.822,1.825v56.096h0.001C76.784,87.923,75.966,88.743,74.962,88.743z"/>
	<path d="M57.498,1.725c-30.723,0-55.718,24.996-55.718,55.72c0,30.722,24.995,55.717,55.718,55.717
		c30.724,0,55.72-24.995,55.72-55.717C113.218,26.721,88.221,1.725,57.498,1.725z M57.498,110.641
		c-29.332,0-53.196-23.865-53.196-53.196c0-29.333,23.864-53.198,53.196-53.198c29.335,0,53.198,23.865,53.198,53.198
		C110.696,86.776,86.833,110.641,57.498,110.641z"/>
</g>
</svg>
