<?xml version="1.0" encoding="utf-8"?>
<!-- Generator: Adobe Illustrator 17.0.0, SVG Export Plug-In . SVG Version: 6.00 Build 0)  -->
<svg version="1.2" baseProfile="tiny" id="Layer_1" xmlns="http://www.w3.org/2000/svg" xmlns:xlink="http://www.w3.org/1999/xlink"
	 x="0px" y="0px" width="114.998px" height="114.998px" viewBox="0 0 114.998 114.998" xml:space="preserve">
<g>
	<path d="M44.535,39.399H29.942c-0.696,0-1.26,0.565-1.26,1.261v38.153c0,0.697,0.565,1.26,1.26,1.26h14.593
		c0.696,0,1.261-0.564,1.261-1.26V40.66C45.796,39.963,45.231,39.399,44.535,39.399z M43.274,77.553h-12.07V41.921h12.07V77.553z"/>
	<path d="M64.794,48.405H50.202c-0.697,0-1.26,0.564-1.26,1.26v29.148c0,0.697,0.564,1.26,1.26,1.26h14.592
		c0.696,0,1.259-0.564,1.26-1.26V49.665C66.054,48.969,65.49,48.405,64.794,48.405z M63.532,77.553H51.463V50.925h12.069V77.553z"/>
	<path d="M85.054,28.755H70.461c-0.697,0-1.261,0.566-1.261,1.26v48.798c0,0.697,0.565,1.26,1.261,1.26h14.592
		c0.696,0,1.26-0.564,1.261-1.26V30.015C86.314,29.321,85.749,28.755,85.054,28.755z M83.792,77.553H71.721V31.276h12.071V77.553z"
		/>
	<path d="M57.499,1.726c-30.723,0-55.717,24.994-55.717,55.717c0,30.722,24.994,55.717,55.717,55.717
		c30.723,0,55.717-24.995,55.717-55.717C113.216,26.72,88.221,1.726,57.499,1.726z M57.499,110.639
		c-29.334,0-53.196-23.862-53.196-53.196c0-29.332,23.862-53.197,53.196-53.197c29.332,0,53.196,23.865,53.196,53.197
		C110.695,86.777,86.831,110.639,57.499,110.639z"/>
</g>
</svg>
