<?xml version="1.0" encoding="utf-8"?>
<!-- Generator: Adobe Illustrator 17.0.0, SVG Export Plug-In . SVG Version: 6.00 Build 0)  -->
<svg version="1.2" baseProfile="tiny" id="Layer_1" xmlns="http://www.w3.org/2000/svg" xmlns:xlink="http://www.w3.org/1999/xlink"
	 x="0px" y="0px" width="114.998px" height="114.998px" viewBox="0 0 114.998 114.998" xml:space="preserve">
<g>
	<path d="M70.638,33.501h12.255c1.372,0,2.486-1.16,2.486-2.583v-4.77c0-1.424-1.114-2.58-2.486-2.58H70.638
		c-1.372,0-2.488,1.156-2.488,2.58v4.77C68.15,32.341,69.266,33.501,70.638,33.501z M82.86,26.148l-0.025,4.831l-12.164-0.061
		l-0.032-4.83L82.86,26.148z"/>
	<path d="M67.608,46.601c-8.164,0-14.806,6.645-14.806,14.812c0,8.165,6.642,14.808,14.806,14.808
		c8.169,0,14.812-6.643,14.812-14.808C82.421,53.245,75.777,46.601,67.608,46.601z M67.608,73.699
		c-6.773,0-12.285-5.512-12.285-12.286c0-6.778,5.512-12.292,12.285-12.292c6.778,0,12.293,5.514,12.293,12.292
		C79.901,68.188,74.386,73.699,67.608,73.699z"/>
	<path d="M57.499,1.726c-30.723,0-55.718,24.993-55.718,55.717c0,30.723,24.995,55.718,55.718,55.718
		c30.723,0,55.718-24.995,55.718-55.718C113.217,26.719,88.221,1.726,57.499,1.726z M57.499,110.64
		c-29.332,0-53.197-23.865-53.197-53.197c0-29.33,23.865-53.199,53.197-53.199c29.332,0,53.197,23.869,53.197,53.199
		C110.696,86.775,86.831,110.64,57.499,110.64z"/>
	<path d="M84.719,35.52H29.456c-3.75,0-6.801,3.051-6.801,6.803v38.181c0,3.75,3.051,6.8,6.801,6.8H84.72
		c3.75,0,6.801-3.05,6.801-6.8V42.322C91.52,38.57,88.469,35.52,84.719,35.52z M88.999,80.503c0,2.359-1.918,4.279-4.279,4.279
		H29.456c-2.361,0-4.28-1.92-4.28-4.279V42.322c0-2.361,1.919-4.284,4.28-4.284H84.72c2.361,0,4.279,1.923,4.279,4.284V80.503z"/>
</g>
</svg>
