<?xml version="1.0" encoding="utf-8"?>
<!-- Generator: Adobe Illustrator 17.1.0, SVG Export Plug-In . SVG Version: 6.00 Build 0)  -->
<!DOCTYPE svg PUBLIC "-//W3C//DTD SVG 1.1//EN" "http://www.w3.org/Graphics/SVG/1.1/DTD/svg11.dtd">
<svg version="1.1" id="Layer_1" xmlns="http://www.w3.org/2000/svg" xmlns:xlink="http://www.w3.org/1999/xlink" x="0px" y="0px"
	 viewBox="0 0 115 115" enable-background="new 0 0 115 115" xml:space="preserve">
<g>
	<path d="M69.1,79.2l-0.8,3.2c-2.3,0.9-4.2,1.6-5.6,2.1c-1.4,0.5-3,0.7-4.9,0.7c-2.8,0-5-0.7-6.6-2.1c-1.6-1.4-2.4-3.1-2.4-5.3
		c0-0.8,0.1-1.7,0.2-2.5c0.1-0.9,0.3-1.8,0.6-2.9l2.9-10.4c0.3-1,0.5-1.9,0.7-2.8c0.2-0.9,0.3-1.7,0.3-2.4c0-1.3-0.3-2.2-0.8-2.8
		c-0.5-0.5-1.6-0.8-3.1-0.8c-0.8,0-1.5,0.1-2.3,0.4c-0.8,0.2-1.5,0.5-2,0.7l0.8-3.2c1.9-0.8,3.8-1.4,5.5-2c1.8-0.6,3.4-0.8,5-0.8
		c2.8,0,5,0.7,6.5,2c1.5,1.4,2.3,3.1,2.3,5.3c0,0.4-0.1,1.2-0.2,2.4c-0.1,1.1-0.3,2.2-0.6,3.1l-2.9,10.3c-0.2,0.8-0.5,1.8-0.6,2.8
		s-0.3,1.9-0.3,2.4c0,1.4,0.3,2.3,0.9,2.8c0.6,0.5,1.7,0.7,3.2,0.7c0.7,0,1.5-0.1,2.4-0.4S68.7,79.4,69.1,79.2z M69.9,35.9
		c0,1.8-0.7,3.3-2,4.6c-1.4,1.3-3,1.9-4.9,1.9c-1.9,0-3.6-0.6-4.9-1.9c-1.4-1.3-2.1-2.8-2.1-4.6c0-1.8,0.7-3.3,2.1-4.6
		c1.4-1.3,3-1.9,4.9-1.9c1.9,0,3.6,0.6,4.9,1.9C69.2,32.6,69.9,34.1,69.9,35.9z"/>
</g>
<g>
	<path d="M57.5,112.5c-30.3,0-55-24.7-55-55s24.7-55,55-55s55,24.7,55,55S87.8,112.5,57.5,112.5z M57.5,4.5c-29.2,0-53,23.8-53,53
		c0,29.2,23.8,53,53,53c29.2,0,53-23.8,53-53C110.5,28.3,86.7,4.5,57.5,4.5z"/>
</g>
</svg>
