<?xml version="1.0" encoding="utf-8"?>
<!-- Generator: Adobe Illustrator 17.0.2, SVG Export Plug-In . SVG Version: 6.00 Build 0)  -->
<!DOCTYPE svg PUBLIC "-//W3C//DTD SVG 1.1//EN" "http://www.w3.org/Graphics/SVG/1.1/DTD/svg11.dtd">
<svg version="1.1" id="Layer_1" xmlns="http://www.w3.org/2000/svg" xmlns:xlink="http://www.w3.org/1999/xlink" x="0px" y="0px"
	 width="114.998px" height="114.998px" viewBox="0 0 114.998 114.998" enable-background="new 0 0 114.998 114.998"
	 xml:space="preserve">
<g>
	<path d="M39.999,46.499c-3.309,0-6,2.691-6,6s2.691,6,6,6s6-2.691,6-6S43.308,46.499,39.999,46.499z M39.999,56.499
		c-2.206,0-4-1.794-4-4s1.794-4,4-4s4,1.794,4,4S42.205,56.499,39.999,56.499z"/>
	<path d="M73.405,46.499c-3.309,0-6,2.691-6,6s2.691,6,6,6s6-2.691,6-6S76.714,46.499,73.405,46.499z M73.405,56.499
		c-2.206,0-4-1.794-4-4s1.794-4,4-4s4,1.794,4,4S75.611,56.499,73.405,56.499z"/>
	<path d="M56.702,46.499c-3.309,0-6,2.691-6,6s2.691,6,6,6s6-2.691,6-6S60.011,46.499,56.702,46.499z M56.702,56.499
		c-2.206,0-4-1.794-4-4s1.794-4,4-4c2.206,0,4,1.794,4,4S58.908,56.499,56.702,56.499z"/>
	<path d="M57.499,2.965c-30.725,0-55.717,24.438-55.717,54.479c0,30.039,24.992,54.479,55.717,54.479
		c30.723,0,55.717-24.44,55.717-54.479C113.216,27.403,88.221,2.965,57.499,2.965z M57.499,109.457
		c-29.363,0-53.253-23.334-53.253-52.014c0-28.68,23.889-52.013,53.253-52.013c29.361,0,53.252,23.334,53.252,52.014
		S86.86,109.457,57.499,109.457z"/>
	<path d="M76.905,28.999H37.499c-7.168,0-13,5.832-13,13v21c0,7.168,5.832,13,13,13h0.5v10.914l10.914-10.914h27.992
		c7.168,0,13-5.832,13-13v-21C89.905,34.831,84.073,28.999,76.905,28.999z M87.905,62.999c0,6.065-4.935,11-11,11h-28.82
		l-8.086,8.086v-8.086h-2.5c-6.065,0-11-4.935-11-11v-21c0-6.065,4.935-11,11-11h39.406c6.065,0,11,4.935,11,11V62.999z"/>
</g>
</svg>
