<?xml version="1.0" encoding="utf-8"?>
<!-- Generator: Adobe Illustrator 17.0.0, SVG Export Plug-In . SVG Version: 6.00 Build 0)  -->
<svg version="1.2" baseProfile="tiny" id="Layer_1" xmlns="http://www.w3.org/2000/svg" xmlns:xlink="http://www.w3.org/1999/xlink"
	 x="0px" y="0px" width="114.998px" height="114.998px" viewBox="0 0 114.998 114.998" xml:space="preserve">
<g>
	<path d="M90.621,45.667l-22.423-3.26l-10.029-20.32c-0.212-0.43-0.65-0.701-1.13-0.701c-0.48,0-0.919,0.271-1.13,0.701
		l-10.031,20.32l-22.425,3.26c-0.475,0.069-0.868,0.402-1.018,0.857c-0.148,0.459-0.023,0.958,0.319,1.293l16.228,15.818
		l-3.831,22.333c-0.08,0.472,0.113,0.951,0.502,1.232c0.389,0.281,0.9,0.316,1.328,0.096l20.058-10.543l20.056,10.543
		c0.184,0.097,0.385,0.145,0.586,0.145c0.012,0.002,0.022,0,0.022,0c0.704,0,1.271-0.563,1.271-1.259
		c0-0.17-0.035-0.332-0.096-0.481l-3.785-22.065l16.225-15.818c0.345-0.335,0.469-0.834,0.32-1.293
		C91.489,46.069,91.094,45.736,90.621,45.667z M72.86,62.291c-0.298,0.291-0.434,0.706-0.363,1.116l3.51,20.469l-18.381-9.664
		c-0.367-0.192-0.808-0.192-1.174,0l-18.383,9.664l3.51-20.469c0.071-0.41-0.066-0.825-0.363-1.116L26.343,47.797l20.555-2.99
		c0.41-0.06,0.766-0.318,0.947-0.69l9.194-18.622l9.192,18.622c0.182,0.372,0.538,0.63,0.947,0.69l20.553,2.99L72.86,62.291z"/>
	<path d="M57.499,1.726C26.774,1.726,1.78,26.721,1.78,57.443c0,30.723,24.994,55.718,55.719,55.718
		c30.723,0,55.719-24.995,55.719-55.718C113.218,26.721,88.221,1.726,57.499,1.726z M57.499,110.64
		c-29.334,0-53.198-23.863-53.198-53.196c0-29.332,23.864-53.196,53.198-53.196c29.333,0,53.197,23.864,53.197,53.196
		S86.832,110.64,57.499,110.64z"/>
</g>
</svg>
