<?xml version="1.0" encoding="utf-8"?>
<!-- Generator: Adobe Illustrator 17.0.0, SVG Export Plug-In . SVG Version: 6.00 Build 0)  -->
<svg version="1.2" baseProfile="tiny" id="Layer_1" xmlns="http://www.w3.org/2000/svg" xmlns:xlink="http://www.w3.org/1999/xlink"
	 x="0px" y="0px" width="114.998px" height="114.998px" viewBox="0 0 114.998 114.998" xml:space="preserve">
<g>
	<path d="M85.656,42.913h-1.699c-0.697,0-1.26,0.564-1.26,1.26c0,0.697,0.564,1.261,1.26,1.261h1.699
		c0.895,0,1.622,0.727,1.622,1.621V80.42c0,0.894-0.726,1.622-1.622,1.622H29.342c-0.893,0-1.621-0.727-1.621-1.622V47.055
		c0-0.894,0.728-1.621,1.621-1.621h20.103c0.696,0,1.261-0.564,1.261-1.261s-0.565-1.26-1.261-1.26H29.342
		c-2.284,0-4.143,1.858-4.143,4.142V80.42c0,2.286,1.86,4.142,4.143,4.142h56.314c2.284,0,4.143-1.856,4.144-4.142V47.055
		C89.8,44.77,87.94,42.913,85.656,42.913z"/>
	<path d="M57.499,1.726c-30.724,0-55.718,24.994-55.718,55.717c0,30.723,24.994,55.718,55.718,55.718
		c30.722,0,55.717-24.995,55.717-55.718C113.216,26.72,88.221,1.726,57.499,1.726z M57.499,110.639
		c-29.332,0-53.196-23.863-53.196-53.196c0-29.333,23.864-53.196,53.196-53.196c29.334,0,53.196,23.863,53.196,53.196
		C110.696,86.776,86.833,110.639,57.499,110.639z"/>
	<path d="M48.387,39.636h7.887c-2.058,9.635-6.545,18.602-13.085,26.084c-0.649,0.745-0.806,1.801-0.397,2.703
		c0.41,0.899,1.308,1.478,2.297,1.478h21.482c0.891,0,1.713-0.468,2.168-1.234c1.871-3.148,3.541-6.454,4.967-9.826
		c2.61-6.171,4.437-12.618,5.439-19.204h7.749c1.044,0,1.979-0.643,2.354-1.616c0.373-0.977,0.109-2.08-0.668-2.779L69.326,17.897
		c-0.479-0.433-1.082-0.648-1.686-0.648s-1.207,0.216-1.687,0.648L46.699,35.241c-0.776,0.699-1.039,1.803-0.666,2.779
		C46.408,38.993,47.343,39.636,48.387,39.636z M67.64,19.77l19.254,17.345h-9.946c-0.883,7.135-2.746,14.078-5.563,20.742
		c-1.394,3.294-3.004,6.474-4.813,9.522H45.088c7.543-8.632,12.424-19.057,14.221-30.265H48.387L67.64,19.77z"/>
</g>
</svg>
