<?xml version="1.0" encoding="utf-8"?>
<!-- Generator: Adobe Illustrator 17.0.0, SVG Export Plug-In . SVG Version: 6.00 Build 0)  -->
<svg version="1.2" baseProfile="tiny" id="Layer_1" xmlns="http://www.w3.org/2000/svg" xmlns:xlink="http://www.w3.org/1999/xlink"
	 x="0px" y="0px" width="114.998px" height="114.998px" viewBox="0 0 114.998 114.998" xml:space="preserve">
<g>
	<path d="M57.499,2.193c-30.465,0-55.25,24.785-55.25,55.25c0,30.465,24.785,55.25,55.25,55.25c30.465,0,55.25-24.785,55.25-55.25
		C112.749,26.979,87.964,2.193,57.499,2.193z M57.499,110.193c-29.086,0-52.75-23.664-52.75-52.75
		c0-29.088,23.664-52.75,52.75-52.75c29.088,0,52.75,23.662,52.75,52.75C110.249,86.529,86.587,110.193,57.499,110.193z"/>
	<path d="M84.274,30.574H68.509c-1.382,0-2.5,1.119-2.5,2.5v5.828c0,1.381,1.118,2.5,2.5,2.5h0.558V75.51L66.9,77.678H47.946
		l-2.016-2.127V41.402h0.559c1.38,0,2.5-1.119,2.5-2.5v-5.828c0-1.381-1.12-2.5-2.5-2.5H30.724c-1.381,0-2.5,1.119-2.5,2.5v5.828
		c0,1.381,1.119,2.5,2.5,2.5h2.468V77.79c0,0.595,0.213,1.174,0.602,1.627l7.739,9.025c0.475,0.555,1.168,0.873,1.897,0.873h27.754
		c0.694,0,1.359-0.289,1.832-0.799l8.025-8.644c0.43-0.462,0.668-1.071,0.668-1.701V41.402h2.564c1.381,0,2.5-1.119,2.5-2.5v-5.828
		C86.774,31.693,85.655,30.574,84.274,30.574z M84.273,38.902H79.21v39.269l-8.025,8.643H43.43l-7.738-9.025V38.902h-4.968v-5.828
		h15.765v5.828H43.43v37.645l3.439,3.63h21.066l3.631-3.63V38.902h-3.058v-5.828h15.765V38.902z"/>
</g>
</svg>
