<?xml version="1.0" encoding="utf-8"?>
<!-- Generator: Adobe Illustrator 17.0.0, SVG Export Plug-In . SVG Version: 6.00 Build 0)  -->
<svg version="1.2" baseProfile="tiny" id="Layer_1" xmlns="http://www.w3.org/2000/svg" xmlns:xlink="http://www.w3.org/1999/xlink"
	 x="0px" y="0px" width="114.998px" height="114.998px" viewBox="0 0 114.998 114.998" xml:space="preserve">
<g>
	<path fill="#0F0F0F" d="M76.445,32.308c-1.52-2.176-7.141-3.134-11.699-3.556c-0.586-0.047-1.149,0.321-1.316,0.898
		c-0.758,2.627-3.197,4.462-5.931,4.462c-2.735,0-5.174-1.835-5.931-4.462c-0.167-0.576-0.721-0.948-1.316-0.898
		c-4.557,0.422-10.178,1.381-11.699,3.556l-13.292,9.727c-0.558,0.408-0.679,1.19-0.271,1.747l6.749,9.223
		c0.39,0.532,1.127,0.67,1.684,0.314l6.17-3.956v35.642c0,0.69,0.559,1.25,1.25,1.25h33.312c0.691,0,1.25-0.56,1.25-1.251V49.363
		l6.17,3.956c0.557,0.357,1.294,0.219,1.684-0.314l6.749-9.223c0.407-0.557,0.286-1.339-0.271-1.747L76.445,32.308z M81.935,50.58
		l-7.105-4.556c-0.385-0.246-0.873-0.264-1.275-0.044c-0.401,0.22-0.65,0.64-0.65,1.097v36.678H42.091V47.079
		c0-0.457-0.249-0.878-0.65-1.097c-0.4-0.22-0.889-0.203-1.274,0.044l-7.105,4.556l-5.316-7.266l12.481-9.134
		c0.143-0.105,0.294-0.299,0.381-0.454c0.291-0.515,2.852-1.733,8.912-2.389c1.348,3.151,4.493,5.274,7.979,5.274
		s6.63-2.123,7.978-5.274c6.06,0.656,8.621,1.874,8.91,2.386c0.089,0.181,0.221,0.337,0.383,0.456l12.481,9.133L81.935,50.58z"/>
	<path fill="#0F0F0F" d="M57.499,2.193c-30.465,0-55.25,24.785-55.25,55.25c0,30.465,24.785,55.25,55.25,55.25
		c30.465,0,55.25-24.785,55.25-55.25C112.749,26.978,87.964,2.193,57.499,2.193z M57.499,110.193
		c-29.086,0-52.75-23.663-52.75-52.75c0-29.086,23.664-52.75,52.75-52.75c29.087,0,52.75,23.664,52.75,52.75
		C110.249,86.53,86.586,110.193,57.499,110.193z"/>
</g>
</svg>
