<?xml version="1.0" encoding="utf-8"?>
<!-- Generator: Adobe Illustrator 17.0.0, SVG Export Plug-In . SVG Version: 6.00 Build 0)  -->
<svg version="1.2" baseProfile="tiny" id="Layer_1" xmlns="http://www.w3.org/2000/svg" xmlns:xlink="http://www.w3.org/1999/xlink"
	 x="0px" y="0px" width="114.998px" height="114.998px" viewBox="0 0 114.998 114.998" xml:space="preserve">
<g>
	<path d="M68.15,68.584c-2.193,0.822-4.042,1.815-5.673,2.691c-4.591,2.466-6.896,3.702-11.097-1.297
		c-0.023-0.028-0.047-0.055-0.073-0.08c-5.246-5.249-12.055-4.308-16.56-3.684c-1.254,0.173-2.944,0.405-3.477,0.24
		c-0.314-1.418,2.124-5.346,4.686-8.234c0.458-0.516,0.411-1.306-0.105-1.764c-0.517-0.458-1.306-0.411-1.764,0.104
		c-1.074,1.209-6.369,7.417-5.139,10.845c0.73,2.032,3.237,1.687,6.141,1.285c4.244-0.587,10.05-1.389,14.413,2.938
		c2.698,3.197,5.041,4.302,7.277,4.301c2.314,0,4.516-1.182,6.881-2.452c1.562-0.839,3.331-1.789,5.368-2.554
		c0.646-0.242,0.974-0.963,0.73-1.609C69.519,68.669,68.794,68.342,68.15,68.584z"/>
	<path d="M93.879,46.214L60.425,35.975c-0.8-0.361-1.896-0.544-2.999-0.544c-1.017,0-2.043,0.155-2.854,0.468l-33.244,9.308
		c-1.499,0.579-1.463,1.548,0.064,2.164l30.005,12.108c0.733,0.297,1.731,0.447,2.732,0.447c0.892,0,1.785-0.119,2.495-0.361
		l13.99-4.261c0.006,0.117,0.024,0.226,0.024,0.348c0,1.953,0.625,5.39,1.486,9.202l-2.06,19.168
		c-0.073,0.687,0.423,1.303,1.109,1.377c0.046,0.005,0.091,0.007,0.136,0.007c0.63,0,1.172-0.476,1.241-1.116l0.654-6.087
		l0.743,8.981c0.055,0.652,0.601,1.146,1.245,1.146c0.034,0,0.069-0.001,0.104-0.004c0.688-0.058,1.199-0.661,1.143-1.35
		l-0.661-7.985c0.736,2.611,1.273,4.42,1.347,4.668c0.162,0.542,0.659,0.893,1.197,0.893c0.119,0,0.239-0.017,0.358-0.052
		c0.661-0.197,1.038-0.894,0.841-1.556c-0.064-0.214-6.385-21.484-6.385-27.292c0-0.382-0.027-0.745-0.071-1.096l20.253-6.169
		C95.007,47.814,95.264,46.842,93.879,46.214z M72.365,52.156c-1.482-3.03-4.762-4.339-6.791-4.632l-7.696-2.448
		c-0.658-0.21-1.361,0.154-1.57,0.812c-0.209,0.658,0.155,1.361,0.812,1.57l7.799,2.48c0.071,0.022,0.146,0.039,0.22,0.048
		c0.173,0.022,3.335,0.472,4.782,2.913l-14.024,4.273c-0.025,0.007-0.051,0.017-0.076,0.024c-0.42,0.143-1.052,0.229-1.69,0.229
		c-0.842,0-1.479-0.138-1.797-0.266L25.941,46.513l29.306-8.207c0.077-0.021,0.153-0.045,0.228-0.075
		c0.486-0.188,1.215-0.3,1.951-0.3c0.927,0,1.625,0.168,1.969,0.323c0.098,0.042,0.197,0.08,0.299,0.112l28.903,8.845L72.365,52.156
		z"/>
	<path d="M80.247,55.673c-0.661-0.199-1.358,0.175-1.558,0.835c-0.2,0.661,0.174,1.358,0.835,1.558
		c0.397,0.12,1.49,1.232,2.733,3.709c1.298,2.584,1.834,4.734,1.875,5.695c-2.064-0.388-4.069-0.596-5.971-0.619
		c-0.71-0.002-1.257,0.545-1.266,1.234c-0.009,0.69,0.544,1.257,1.234,1.266c1.966,0.024,4.062,0.264,6.229,0.712
		c0.083,0.017,0.168,0.025,0.253,0.025c0.819,0,1.769-0.497,1.974-1.893C87.021,65.251,83.363,56.614,80.247,55.673z"/>
	<path d="M57.499,1.725c-30.726,0-55.719,24.997-55.719,55.72c0,30.722,24.993,55.717,55.719,55.717
		c30.723,0,55.719-24.995,55.719-55.717C113.218,26.722,88.221,1.725,57.499,1.725z M57.499,110.641
		c-29.332,0-53.197-23.865-53.197-53.197c0-29.333,23.865-53.198,53.197-53.198c29.332,0,53.197,23.865,53.197,53.198
		C110.696,86.776,86.831,110.641,57.499,110.641z"/>
</g>
</svg>
