<?xml version="1.0" encoding="utf-8"?>
<!-- Generator: Adobe Illustrator 17.0.0, SVG Export Plug-In . SVG Version: 6.00 Build 0)  -->
<svg version="1.2" baseProfile="tiny" id="Layer_1" xmlns="http://www.w3.org/2000/svg" xmlns:xlink="http://www.w3.org/1999/xlink"
	 x="0px" y="0px" width="114.998px" height="114.998px" viewBox="0 0 114.998 114.998" xml:space="preserve">
<g>
	<path d="M76.485,34.823h-9.617v-4.14c0-5.166-4.202-9.369-9.37-9.369c-5.167,0-9.369,4.203-9.369,9.369v4.14h-9.614
		c-2.312,0-4.193,1.88-4.191,4.135l-2.023,46.235c0,2.313,1.883,4.195,4.194,4.195h42.011c2.312,0,4.191-1.882,4.191-4.251
		L80.68,39.013C80.679,36.703,78.797,34.823,76.485,34.823z M50.651,30.684c0-3.776,3.071-6.847,6.847-6.847
		c3.778,0,6.85,3.07,6.85,6.847v4.14H50.651V30.684z M78.504,86.867H36.493c-0.921,0-1.671-0.752-1.673-1.619l2.021-46.234
		c0-0.921,0.75-1.669,1.672-1.669h9.614v4.49c0,0.696,0.563,1.261,1.262,1.261c0.695,0,1.261-0.564,1.261-1.261v-4.49h13.696v4.49
		c0,0.696,0.564,1.261,1.261,1.261c0.696,0,1.26-0.564,1.26-1.261v-4.49h9.617c0.922,0,1.672,0.748,1.674,1.724l2.018,46.125
		C80.176,86.115,79.425,86.867,78.504,86.867z"/>
	<path d="M57.5,1.728c-30.723,0-55.719,24.992-55.719,55.715c0,30.722,24.996,55.716,55.719,55.716
		c30.723,0,55.716-24.994,55.716-55.716C113.216,26.72,88.223,1.728,57.5,1.728z M57.5,110.638
		c-29.332,0-53.196-23.864-53.196-53.195c0-29.33,23.864-53.197,53.196-53.197c29.332,0,53.196,23.867,53.196,53.197
		C110.697,86.774,86.832,110.638,57.5,110.638z"/>
</g>
</svg>
