<?xml version="1.0" encoding="utf-8"?>
<!-- Generator: Adobe Illustrator 17.0.0, SVG Export Plug-In . SVG Version: 6.00 Build 0)  -->
<svg version="1.2" baseProfile="tiny" id="Layer_1" xmlns="http://www.w3.org/2000/svg" xmlns:xlink="http://www.w3.org/1999/xlink"
	 x="0px" y="0px" width="114.998px" height="114.998px" viewBox="0 0 114.998 114.998" xml:space="preserve">
<g>
	<path d="M78.395,44.421h-39.24c-2.33,0-4.227,1.896-4.227,4.226v25.771c0,2.33,1.896,4.226,4.227,4.226h39.24
		c2.33,0,4.225-1.896,4.225-4.226V48.647C82.62,46.316,80.725,44.421,78.395,44.421z M80.098,74.418
		c0,0.939-0.766,1.704-1.703,1.704h-39.24c-0.941,0-1.705-0.765-1.705-1.704V48.647c0-0.939,0.765-1.706,1.705-1.706h39.24
		c0.938,0,1.703,0.767,1.703,1.706V74.418z"/>
	<path d="M57.499,1.726C26.776,1.726,1.78,26.721,1.78,57.443c0,30.723,24.996,55.718,55.719,55.718
		c30.725,0,55.719-24.995,55.719-55.718C113.218,26.721,88.223,1.726,57.499,1.726z M57.499,110.64
		c-29.332,0-53.197-23.863-53.197-53.196c0-29.332,23.865-53.196,53.197-53.196c29.332,0,53.197,23.864,53.197,53.196
		S86.831,110.64,57.499,110.64z"/>
	<path d="M35.885,43.826l4.191-1.589c0.373-0.144,0.689-0.439,0.852-0.824l0.094-0.23l0.25-0.057
		c3.723-0.715,7.646-0.343,11.701,1.081c0.643,0.221,1.303-0.123,1.513-0.726c0.106-0.298,0.087-0.623-0.048-0.907
		c-0.135-0.278-0.383-0.498-0.678-0.604c-1.762-0.623-3.531-1.062-5.256-1.312l-1.375-0.21l1.213-0.688
		c1.035-0.583,1.791-1.14,2.25-1.656c1.232-1.398,1.848-3.197,1.732-5.052c-0.115-1.867-0.947-3.569-2.336-4.794
		c-1.502-1.331-3.531-1.951-5.521-1.695c-1.674,0.212-3.215,1.026-4.334,2.297c-1.053,1.187-2.086,3.792-3.08,7.726
		c-0.24,0.935-0.441,1.777-0.594,2.494l-0.047,0.258l-1.025,0.393l-0.201-0.164c-0.611-0.438-1.318-0.946-2.114-1.481
		c-3.339-2.287-5.837-3.541-7.415-3.732c-0.574-0.068-1.168-0.068-1.752,0.01c-3.166,0.401-5.646,2.9-6.029,6.065
		c-0.468,3.818,2.26,7.302,6.076,7.771c0.461,0.06,0.969,0.047,1.609-0.037c0.42-0.049,0.898-0.145,1.463-0.271l1.475-0.333
		l-1.014,1.12c-2.23,2.469-3.332,4.516-3.34,4.538c-0.152,0.285-0.193,0.599-0.096,0.909c0.096,0.304,0.297,0.554,0.574,0.696
		c0.211,0.114,0.447,0.164,0.709,0.135c0.381-0.058,0.717-0.277,0.887-0.612c0.117-0.208,2.854-5.127,8.203-8.478l0.201-0.126
		l0.207,0.088C35.176,43.949,35.55,43.949,35.885,43.826z M39.061,36.335c0.91-3.965,1.972-6.921,2.854-7.905
		c0.735-0.833,1.75-1.378,2.85-1.521c1.33-0.172,2.66,0.248,3.647,1.119c1.904,1.686,2.084,4.603,0.402,6.508
		c-1.072,1.206-4.995,2.831-8.029,3.854l-0.439,0.154l-0.305-0.813c-0.146-0.374-0.404-0.689-0.746-0.879l-0.307-0.174
		L39.061,36.335z M32.815,41.405c-1.141,0.487-5.045,2.085-7.561,2.409c-0.268,0.029-0.498,0.05-0.698,0.05
		c-0.124,0-0.229-0.013-0.325-0.02c-2.506-0.307-4.307-2.611-4.001-5.129c0.259-2.094,1.896-3.738,3.983-4.009
		c0.371-0.047,0.764-0.047,1.145,0c1.322,0.163,4.077,1.666,7.379,4.02l0.288,0.211l-0.117,0.335
		c-0.124,0.364-0.113,0.776,0.03,1.157l0.298,0.805L32.815,41.405z"/>
</g>
</svg>
