<?xml version="1.0" encoding="utf-8"?>
<!-- Generator: Adobe Illustrator 17.0.0, SVG Export Plug-In . SVG Version: 6.00 Build 0)  -->
<svg version="1.2" baseProfile="tiny" id="Layer_1" xmlns="http://www.w3.org/2000/svg" xmlns:xlink="http://www.w3.org/1999/xlink"
	 x="0px" y="0px" width="114.998px" height="114.998px" viewBox="0 0 114.998 114.998" xml:space="preserve">
<g>
	<path d="M57.499,37.444c0.83,0,1.506-0.674,1.506-1.51v-8.748c0-0.835-0.676-1.512-1.506-1.512c-0.835,0-1.506,0.677-1.506,1.512
		v8.748C55.993,36.771,56.664,37.444,57.499,37.444z"/>
	<path d="M45.438,39.573c0.282,0.483,0.787,0.754,1.309,0.754c0.254,0,0.52-0.065,0.753-0.201c0.724-0.416,0.973-1.338,0.549-2.061
		l-4.371-7.582c-0.418-0.721-1.343-0.968-2.062-0.551c-0.721,0.416-0.969,1.34-0.552,2.06L45.438,39.573z"/>
	<path d="M38.122,66.891l-7.584,4.374c-0.721,0.418-0.967,1.338-0.549,2.063c0.278,0.481,0.787,0.755,1.306,0.755
		c0.259,0,0.516-0.067,0.759-0.202l7.571-4.38c0.726-0.414,0.973-1.336,0.555-2.061C39.763,66.72,38.839,66.472,38.122,66.891z"/>
	<path d="M37.501,57.442c0-0.831-0.676-1.508-1.504-1.508H27.24c-0.831,0-1.51,0.677-1.51,1.508c0,0.834,0.677,1.51,1.51,1.51h8.757
		C36.825,58.952,37.501,58.276,37.501,57.442z"/>
	<path d="M67.497,40.126c0.238,0.136,0.498,0.201,0.751,0.201c0.523,0,1.029-0.27,1.312-0.754l4.377-7.581
		c0.413-0.72,0.164-1.643-0.556-2.059c-0.72-0.417-1.645-0.169-2.061,0.548l-4.376,7.584C66.526,38.784,66.77,39.708,67.497,40.126z
		"/>
	<path d="M76.125,48.2c0.255,0,0.514-0.062,0.753-0.203l7.582-4.377c0.719-0.416,0.968-1.337,0.548-2.062
		c-0.414-0.722-1.335-0.969-2.062-0.552l-7.577,4.379c-0.723,0.415-0.971,1.335-0.55,2.06C75.097,47.931,75.606,48.2,76.125,48.2z"
		/>
	<path d="M87.761,55.935h-8.758c-0.831,0-1.509,0.677-1.509,1.508c0,0.834,0.678,1.51,1.509,1.51h8.758
		c0.833,0,1.506-0.676,1.506-1.51C89.267,56.611,88.594,55.935,87.761,55.935z"/>
	<path d="M39.625,45.386l-7.571-4.38c-0.729-0.417-1.653-0.17-2.064,0.555c-0.418,0.723-0.173,1.643,0.549,2.059l7.584,4.377
		c0.233,0.14,0.494,0.203,0.75,0.203c0.52,0,1.028-0.27,1.308-0.753C40.598,46.725,40.352,45.801,39.625,45.386z"/>
	<path d="M79.931,67.958c0.064-0.416,0.099-0.834,0.099-1.252c0-4.033-3.007-7.376-6.894-7.915c0.027-0.389,0.043-0.778,0.043-1.168
		c0-8.646-7.035-15.68-15.68-15.68c-8.649,0-15.686,7.034-15.686,15.68c0,8.785,7.266,15.869,16.094,15.676
		c0.522,2.714,2.915,4.771,5.776,4.771c1.4,0,2.726-0.494,3.769-1.365c1.097,1.367,2.769,2.193,4.582,2.193
		c2.214,0,4.224-1.266,5.22-3.18c0.232,0.037,0.463,0.06,0.696,0.06c2.293,0,4.157-1.865,4.157-4.159
		C82.107,70.052,81.251,68.668,79.931,67.958z M58.834,68.871c-0.46,0.668-0.771,1.42-0.926,2.208
		c-0.136,0.002-0.271,0.004-0.409,0.004c-7.427,0-13.463-6.038-13.463-13.459s6.036-13.458,13.463-13.458
		c7.421,0,13.456,6.037,13.456,13.458c0,0.396-0.016,0.789-0.049,1.173c-1.797,0.26-3.466,1.127-4.709,2.453
		c-0.632-0.232-1.302-0.351-1.974-0.351c-3.201,0-5.809,2.605-5.809,5.808C58.414,67.451,58.558,68.189,58.834,68.871z
		 M77.093,73.353c-0.295-0.144-0.637-0.146-0.935-0.014c-0.297,0.133-0.522,0.391-0.615,0.703c-0.45,1.551-1.894,2.634-3.51,2.634
		c-1.478,0-2.801-0.884-3.375-2.247c-0.155-0.377-0.509-0.638-0.916-0.677c-0.034-0.003-0.07-0.007-0.106-0.007
		c-0.369,0-0.715,0.183-0.921,0.495c-0.679,1.005-1.812,1.608-3.032,1.608c-2.016,0-3.657-1.642-3.657-3.659
		c0-0.896,0.33-1.761,0.937-2.437c0.317-0.355,0.372-0.878,0.135-1.291c-0.3-0.526-0.459-1.135-0.459-1.755
		c0-1.978,1.608-3.586,3.586-3.586c0.615,0,1.2,0.154,1.743,0.458c0.486,0.272,1.103,0.141,1.435-0.309
		c1.099-1.481,2.785-2.333,4.632-2.333c3.183,0,5.772,2.589,5.772,5.77c0,0.549-0.078,1.097-0.234,1.636
		c-0.086,0.293-0.047,0.609,0.108,0.873c0.155,0.263,0.411,0.45,0.708,0.52c0.883,0.202,1.498,0.976,1.498,1.884
		C79.883,72.98,78.394,73.975,77.093,73.353z"/>
	<path d="M57.499,1.726C26.774,1.726,1.78,26.719,1.78,57.443c0,30.723,24.993,55.718,55.719,55.718
		c30.723,0,55.718-24.995,55.718-55.718C113.217,26.719,88.222,1.726,57.499,1.726z M57.499,110.64
		c-29.334,0-53.197-23.865-53.197-53.197c0-29.331,23.863-53.2,53.197-53.2s53.196,23.869,53.196,53.2
		C110.696,86.774,86.833,110.64,57.499,110.64z"/>
	<path d="M57.325,77.456c-0.754,0.092-1.332,0.724-1.332,1.496v8.751c0,0.832,0.671,1.508,1.506,1.508
		c0.83,0,1.506-0.676,1.506-1.508v-8.289C58.343,78.86,57.775,78.2,57.325,77.456z"/>
	<path d="M47.499,74.763c-0.727-0.419-1.646-0.171-2.061,0.552l-4.375,7.582c-0.418,0.717-0.169,1.642,0.552,2.06
		c0.238,0.134,0.5,0.201,0.756,0.201c0.517,0,1.026-0.27,1.307-0.754l4.371-7.58C48.472,76.1,48.223,75.18,47.499,74.763z"/>
</g>
</svg>
