<?xml version="1.0" encoding="utf-8"?>
<!-- Generator: Adobe Illustrator 17.0.0, SVG Export Plug-In . SVG Version: 6.00 Build 0)  -->
<svg version="1.2" baseProfile="tiny" id="Layer_1" xmlns="http://www.w3.org/2000/svg" xmlns:xlink="http://www.w3.org/1999/xlink"
	 x="0px" y="0px" width="114.998px" height="114.998px" viewBox="0 0 114.998 114.998" xml:space="preserve">
<g>
	<path d="M42.266,26.523c-0.555-0.554-1.293-0.848-2.046-0.848c-0.372,0-0.748,0.073-1.106,0.22
		c-1.082,0.447-1.785,1.503-1.785,2.671v57.752c0,1.171,0.703,2.225,1.785,2.672c0.359,0.149,0.732,0.22,1.106,0.22
		c0.75,0,1.489-0.293,2.046-0.849L90.003,59.49c1.13-1.131,1.13-2.965,0-4.095L42.266,26.523z M88.307,57.568L40.962,86.203
		c-0.174,0.105-0.336,0.231-0.479,0.376c-0.095,0.094-0.205,0.109-0.263,0.109c-0.054,0-0.099-0.009-0.144-0.028
		c-0.139-0.057-0.229-0.192-0.229-0.342V28.566c0-0.149,0.09-0.282,0.232-0.342c0.045-0.019,0.092-0.027,0.14-0.027
		c0.058,0,0.167,0.014,0.263,0.108c0.143,0.145,0.305,0.27,0.479,0.375l47.346,28.637C88.335,57.398,88.335,57.489,88.307,57.568z"
		/>
	<path d="M57.499,1.726C26.774,1.726,1.78,26.721,1.78,57.443c0,30.723,24.994,55.718,55.719,55.718
		c30.723,0,55.719-24.995,55.719-55.718C113.218,26.721,88.221,1.726,57.499,1.726z M57.499,110.64
		c-29.333,0-53.197-23.863-53.197-53.196c0-29.332,23.864-53.196,53.197-53.196c29.334,0,53.198,23.864,53.198,53.196
		S86.833,110.64,57.499,110.64z"/>
</g>
</svg>
