<?xml version="1.0" encoding="utf-8"?>
<!-- Generator: Adobe Illustrator 17.0.0, SVG Export Plug-In . SVG Version: 6.00 Build 0)  -->
<svg version="1.2" baseProfile="tiny" id="Layer_1" xmlns="http://www.w3.org/2000/svg" xmlns:xlink="http://www.w3.org/1999/xlink"
	 x="0px" y="0px" width="114.998px" height="114.998px" viewBox="0 0 114.998 114.998" xml:space="preserve">
<g>
	<path d="M88.803,56.698H58.297V26.192c0-0.696-0.564-1.261-1.262-1.261c-0.695,0-1.26,0.565-1.26,1.261v30.506H25.271
		c-0.697,0-1.26,0.565-1.26,1.261c0,0.696,0.562,1.26,1.26,1.26h30.504v30.508c0,0.695,0.564,1.26,1.26,1.26
		c0.697,0,1.262-0.564,1.262-1.26V59.22h30.507c0.696,0,1.261-0.564,1.261-1.26S89.5,56.698,88.803,56.698z"/>
	<path d="M57.498,1.726c-30.723,0-55.717,24.995-55.717,55.718s24.994,55.718,55.717,55.718c30.725,0,55.719-24.995,55.719-55.718
		S88.222,1.726,57.498,1.726z M57.498,110.64c-29.334,0-53.196-23.863-53.196-53.196c0-29.332,23.862-53.196,53.196-53.196
		s53.197,23.864,53.197,53.196S86.832,110.64,57.498,110.64z"/>
</g>
</svg>
