<?xml version="1.0" encoding="utf-8"?>
<!-- Generator: Adobe Illustrator 17.0.0, SVG Export Plug-In . SVG Version: 6.00 Build 0)  -->
<svg version="1.2" baseProfile="tiny" id="Layer_1" xmlns="http://www.w3.org/2000/svg" xmlns:xlink="http://www.w3.org/1999/xlink"
	 x="0px" y="0px" width="114.998px" height="114.998px" viewBox="0 0 114.998 114.998" xml:space="preserve">
<g>
	<path d="M80.961,53.536c2.771-3.725,3.359-8.749,1.473-13.019c-2.077-4.7-6.738-7.736-11.877-7.736
		c-0.506,0-1.006,0.036-1.502,0.093c-2.482-4.57-7.324-7.679-12.881-7.679c-8.078,0-14.647,6.57-14.647,14.648
		c0,1.471,0.229,2.916,0.657,4.308L21.281,74.324c-0.812,1.18-0.518,2.807,0.662,3.624l18.538,12.837
		c0.439,0.304,0.95,0.462,1.483,0.464c0.854,0,1.653-0.419,2.141-1.122l20.42-29.479c0.211-0.304,0.277-0.687,0.18-1.046
		c-0.096-0.357-0.347-0.655-0.682-0.814c-3.08-1.439-5.529-3.957-6.901-7.086c-0.974-2.224-1.362-4.662-1.118-7.057
		c0.047-0.456-0.158-0.903-0.537-1.164l-6.521-4.517c-1.137-0.793-2.834-0.483-3.623,0.655l-1.174,1.697
		c-0.061-0.489-0.102-0.979-0.102-1.476c0-6.685,5.441-12.128,12.127-12.128c4.34,0,8.145,2.299,10.289,5.737
		c-0.388,0.13-0.771,0.272-1.15,0.44c-3.17,1.4-5.607,3.954-6.858,7.188c-1.251,3.232-1.169,6.761,0.231,9.932
		c1.939,4.386,6.131,7.325,10.859,7.696c-0.469,1.562,0.34,3.26,1.889,3.865l1.568,0.603l-0.607,1.572
		c-0.627,1.628,0.188,3.464,1.812,4.095l1.568,0.607l-0.605,1.564c-0.631,1.625,0.18,3.465,1.812,4.1l1.564,0.604l-0.611,1.572
		c-0.62,1.629,0.193,3.464,1.826,4.096l5.357,2.016c0.367,0.143,0.752,0.216,1.143,0.216c1.299,0,2.486-0.815,2.955-2.025
		l1.775-4.589c0.119-0.312,0.111-0.661-0.025-0.966L80.961,53.536z M46.193,42.794l1.314-1.757l5.93,4.108
		c-0.142,2.58,0.328,5.185,1.375,7.57c1.417,3.234,3.813,5.914,6.828,7.672L42.031,88.694c-0.02,0.027-0.048,0.033-0.066,0.033
		L23.357,75.756L46.193,42.794z M86.863,80.683c-0.148,0.387-0.512,0.492-0.844,0.365l-5.357-2.014
		c-0.333-0.129-0.499-0.509-0.373-0.836l1.064-2.744c0.121-0.312,0.113-0.657-0.021-0.963c-0.135-0.307-0.387-0.546-0.699-0.668
		l-2.74-1.06c-0.334-0.13-0.502-0.505-0.373-0.838l1.062-2.743c0.121-0.31,0.113-0.659-0.023-0.966
		c-0.135-0.304-0.385-0.545-0.697-0.665l-2.744-1.06c-0.332-0.128-0.496-0.504-0.369-0.834l1.061-2.747
		c0.121-0.312,0.111-0.659-0.023-0.965c-0.136-0.306-0.388-0.547-0.697-0.665l-2.742-1.058c-0.332-0.131-0.498-0.505-0.367-0.839
		c0.021-0.055,0.039-0.115,0.053-0.177l0.33-1.456c0.086-0.382-0.014-0.786-0.266-1.088c-0.24-0.284-0.594-0.45-0.967-0.45
		c-0.019,0-0.039,0-0.061,0.002c-4.307,0.194-8.334-2.28-10.076-6.221c-1.129-2.556-1.195-5.398-0.188-8
		c1.01-2.608,2.972-4.665,5.529-5.795c0.405-0.18,0.822-0.323,1.242-0.45c0.462,1.283,0.727,2.658,0.727,4.097
		c0,0.632-0.051,1.26-0.146,1.87c-0.107,0.687,0.361,1.334,1.049,1.443c0.678,0.117,1.334-0.361,1.442-1.049
		c0.116-0.739,0.175-1.502,0.175-2.264c0-1.578-0.258-3.095-0.719-4.518c0.15-0.008,0.301-0.025,0.453-0.025
		c4.143,0,7.897,2.446,9.57,6.234c1.633,3.696,1.025,7.911-1.588,11c-0.314,0.368-0.389,0.884-0.191,1.326l10.104,22.723
		L86.863,80.683z"/>
	<path d="M57.498,1.726c-30.723,0-55.717,24.995-55.717,55.718s24.994,55.718,55.717,55.718c30.725,0,55.719-24.995,55.719-55.718
		S88.222,1.726,57.498,1.726z M57.498,110.64c-29.332,0-53.195-23.863-53.195-53.196c0-29.332,23.863-53.196,53.195-53.196
		c29.333,0,53.197,23.864,53.197,53.196S86.831,110.64,57.498,110.64z"/>
</g>
</svg>
