<?xml version="1.0" encoding="utf-8"?>
<!-- Generator: Adobe Illustrator 17.0.0, SVG Export Plug-In . SVG Version: 6.00 Build 0)  -->
<svg version="1.2" baseProfile="tiny" id="Layer_1" xmlns="http://www.w3.org/2000/svg" xmlns:xlink="http://www.w3.org/1999/xlink"
	 x="0px" y="0px" width="114.998px" height="114.998px" viewBox="0 0 114.998 114.998" xml:space="preserve">
<g>
	<path d="M84.625,61.71L58.76,49.499v-8.688c0-1.751,1.425-3.176,3.178-3.176c1.751,0,3.177,1.425,3.177,3.176
		c0,0.699,0.564,1.262,1.26,1.262c0.697,0,1.262-0.563,1.262-1.262c0-3.142-2.558-5.697-5.698-5.697
		c-3.142,0-5.698,2.556-5.698,5.697v8.688L30.405,61.694c-0.923,0.403-5.548,2.57-5.882,5.72c-0.203,1.92,0.168,3.372,1.129,4.44
		c1.024,1.136,2.666,1.712,4.884,1.712h53.923c2.218,0,3.864-0.577,4.89-1.716c0.961-1.067,1.328-2.519,1.125-4.438
		C90.136,64.264,85.514,62.098,84.625,61.71z M87.475,70.163c-0.527,0.586-1.543,0.883-3.017,0.883H30.536
		c-1.473,0-2.485-0.296-3.011-0.881c-0.455-0.505-0.616-1.317-0.495-2.485c0.132-1.255,2.694-2.935,4.417-3.687L57.5,51.691
		l26.082,12.313c1.69,0.737,4.25,2.414,4.386,3.673C88.091,68.846,87.928,69.657,87.475,70.163z"/>
	<path d="M57.499,1.726c-30.724,0-55.718,24.993-55.718,55.717c0,30.723,24.994,55.718,55.718,55.718
		c30.723,0,55.718-24.995,55.718-55.718C113.217,26.719,88.221,1.726,57.499,1.726z M57.499,110.64
		c-29.333,0-53.198-23.865-53.198-53.197c0-29.331,23.865-53.2,53.198-53.2c29.332,0,53.197,23.869,53.197,53.2
		C110.696,86.774,86.831,110.64,57.499,110.64z"/>
</g>
</svg>
