<?xml version="1.0" encoding="utf-8"?>
<!-- Generator: Adobe Illustrator 17.0.0, SVG Export Plug-In . SVG Version: 6.00 Build 0)  -->
<svg version="1.2" baseProfile="tiny" id="Layer_1" xmlns="http://www.w3.org/2000/svg" xmlns:xlink="http://www.w3.org/1999/xlink"
	 x="0px" y="0px" width="114.998px" height="114.998px" viewBox="0 0 114.998 114.998" xml:space="preserve">
<g>
	<path d="M67.151,25.523c-0.535-0.447-1.33-0.38-1.777,0.152L38.641,57.444c-0.394,0.47-0.394,1.153,0,1.622l26.732,31.769
		c0.25,0.294,0.606,0.448,0.965,0.448c0.287,0,0.574-0.099,0.812-0.296c0.533-0.448,0.601-1.243,0.152-1.775l-26.05-30.957
		l26.051-30.956C67.752,26.766,67.684,25.971,67.151,25.523z"/>
	<path d="M57.497,1.725c-30.722,0-55.717,24.996-55.717,55.72c0,30.722,24.995,55.717,55.717,55.717
		c30.724,0,55.72-24.995,55.72-55.717C113.217,26.721,88.221,1.725,57.497,1.725z M57.497,110.641
		c-29.333,0-53.196-23.865-53.196-53.196c0-29.333,23.863-53.198,53.196-53.198c29.335,0,53.2,23.865,53.2,53.198
		C110.698,86.776,86.832,110.641,57.497,110.641z"/>
</g>
</svg>
