<?xml version="1.0" encoding="utf-8"?>
<!-- Generator: Adobe Illustrator 17.0.0, SVG Export Plug-In . SVG Version: 6.00 Build 0)  -->
<svg version="1.2" baseProfile="tiny" id="Layer_1" xmlns="http://www.w3.org/2000/svg" xmlns:xlink="http://www.w3.org/1999/xlink"
	 x="0px" y="0px" width="114.998px" height="114.998px" viewBox="0 0 114.998 114.998" xml:space="preserve">
<g>
	<path d="M57.498,1.726C26.776,1.726,1.78,26.719,1.78,57.443c0,30.723,24.995,55.718,55.718,55.718
		c30.725,0,55.719-24.995,55.719-55.718C113.217,26.719,88.223,1.726,57.498,1.726z M57.498,110.64
		c-29.334,0-53.197-23.865-53.197-53.197c0-29.331,23.863-53.2,53.197-53.2c29.332,0,53.198,23.869,53.198,53.2
		C110.697,86.774,86.83,110.64,57.498,110.64z"/>
	<path d="M73.076,38.394c0.348,0.076,0.709-0.005,0.996-0.212c0.285-0.209,0.471-0.529,0.512-0.88l1.256-11.207
		c0.076-0.679-0.402-1.294-1.078-1.391c-5.602-0.797-9.248-1.137-12.191-1.137c-12.344,0-14.729,6.864-14.918,22.199h-6.262
		c-0.697,0-1.262,0.565-1.262,1.262v11.27c0,0.696,0.564,1.262,1.262,1.262h6.25v28.802c0,0.697,0.564,1.261,1.261,1.261h13.155
		c0.697,0,1.26-0.564,1.26-1.261V59.56h8.668c0.637,0,1.176-0.478,1.252-1.111l1.348-11.271c0.041-0.36-0.07-0.718-0.311-0.987
		c-0.24-0.269-0.582-0.424-0.941-0.424H63.309c-0.006-0.402-0.012-0.792-0.018-1.17c-0.051-2.946-0.091-5.27,0.83-6.208
		C65.151,37.344,67.922,37.338,73.076,38.394z M60.77,44.638c0.012,0.75,0.027,1.546,0.027,2.39c0,0.694,0.565,1.26,1.26,1.26h9.852
		l-1.043,8.75h-8.809c-0.695,0-1.26,0.563-1.26,1.26v28.804H50.162V58.298c0-0.696-0.565-1.26-1.261-1.26H42.65v-8.75h6.251
		c0.692,0,1.257-0.56,1.261-1.255c0.09-17.918,3.174-20.945,12.408-20.945c2.605,0,5.828,0.285,10.627,0.943l-0.966,8.632
		c-2.107-0.387-3.803-0.574-5.162-0.574c-2.209,0-3.719,0.484-4.744,1.532C60.663,38.311,60.708,40.967,60.77,44.638z"/>
</g>
</svg>
