<?xml version="1.0" encoding="utf-8"?>
<!-- Generator: Adobe Illustrator 17.0.0, SVG Export Plug-In . SVG Version: 6.00 Build 0)  -->
<svg version="1.2" baseProfile="tiny" id="Layer_1" xmlns="http://www.w3.org/2000/svg" xmlns:xlink="http://www.w3.org/1999/xlink"
	 x="0px" y="0px" width="114.998px" height="114.998px" viewBox="0 0 114.998 114.998" xml:space="preserve">
<g>
	<path d="M57.497,1.725c-30.725,0-55.718,24.996-55.718,55.72c0,30.722,24.993,55.717,55.718,55.717
		c30.723,0,55.721-24.995,55.721-55.717C113.218,26.721,88.22,1.725,57.497,1.725z M57.497,110.641
		C28.166,110.641,4.3,86.776,4.3,57.445c0-29.333,23.866-53.198,53.197-53.198c29.334,0,53.199,23.865,53.199,53.198
		C110.697,86.776,86.831,110.641,57.497,110.641z"/>
	<path d="M71.239,37.039c-3.024,0-5.489,2.463-5.489,5.49c0,3.027,2.465,5.488,5.489,5.488c3.028,0,5.489-2.461,5.489-5.488
		C76.728,39.502,74.267,37.039,71.239,37.039z M71.239,45.496c-1.635,0-2.968-1.332-2.968-2.967c0-1.637,1.333-2.97,2.968-2.97
		c1.639,0,2.968,1.333,2.968,2.97C74.206,44.164,72.877,45.496,71.239,45.496z"/>
	<path d="M83.987,27.88l-24.854-0.049H59.13c-0.352,0-0.684,0.146-0.924,0.401L22.134,66.929c-0.228,0.245-0.348,0.57-0.339,0.904
		c0.013,0.335,0.155,0.65,0.402,0.878l26.646,24.836c0.243,0.226,0.553,0.337,0.86,0.337c0.337,0,0.673-0.134,0.923-0.399
		l36.07-38.697c0.24-0.257,0.359-0.601,0.336-0.95L85.241,29.05C85.193,28.392,84.644,27.881,83.987,27.88z M49.642,90.844
		L24.838,67.725l34.838-37.369l23.134,0.045l1.669,23.068L49.642,90.844z"/>
</g>
</svg>
