<?xml version="1.0" encoding="utf-8"?>
<!-- Generator: Adobe Illustrator 17.0.0, SVG Export Plug-In . SVG Version: 6.00 Build 0)  -->
<svg version="1.2" baseProfile="tiny" id="Layer_1" xmlns="http://www.w3.org/2000/svg" xmlns:xlink="http://www.w3.org/1999/xlink"
	 x="0px" y="0px" width="114.998px" height="114.998px" viewBox="0 0 114.998 114.998" xml:space="preserve">
<g>
	<path d="M57.499,2.193c-30.465,0-55.25,24.785-55.25,55.25c0,30.465,24.785,55.25,55.25,55.25c30.465,0,55.25-24.785,55.25-55.25
		C112.749,26.979,87.964,2.193,57.499,2.193z M57.499,110.193c-29.086,0-52.75-23.663-52.75-52.75
		c0-29.087,23.664-52.75,52.75-52.75c29.088,0,52.75,23.663,52.75,52.75C110.249,86.53,86.587,110.193,57.499,110.193z"/>
	<path d="M67.169,45.667c-0.896,0-1.069,0.722-1.269,1.642l-3.181,13.05L59.313,47.78c-0.348-1.318-0.497-1.888-1.915-1.888
		c-1.217,0-1.416,0.72-1.715,1.888l-3.406,12.578l-3.181-13.05c-0.199-0.945-0.373-1.642-1.293-1.642
		c-0.696,0-1.118,0.596-1.118,1.045c0,0.348,0.174,0.993,0.198,1.117l3.704,14.22c0.323,1.243,0.521,2.015,1.616,2.015
		c1.118,0,1.317-0.771,1.665-1.964l3.63-13.373l3.629,13.373c0.349,1.218,0.547,1.964,1.666,1.964c1.094,0,1.292-0.796,1.615-2.015
		l3.704-14.22c0.025-0.148,0.199-0.769,0.199-1.117C68.312,46.263,67.914,45.667,67.169,45.667z"/>
	<path d="M87.632,37.853c-2.855-1.849-7.457-0.6-9.711,0.199c0.13-2.72,0.146-4.717,0.146-5.572c0-3.582-15.743-3.859-20.568-3.859
		s-20.568,0.277-20.568,3.859c0,0.504,0.01,2.572,0.16,5.576c-2.25-0.799-6.865-2.055-9.725-0.203
		c-1.59,1.031-2.396,2.791-2.396,5.233c0,5.281,6.039,11.544,10.449,16.12c1.467,1.519,2.732,2.834,3.498,3.816l0.149,0.19
		c0.752,0.965,2.15,2.76,1.814,3.448c-0.075,0.155-0.638,0.929-4.265,0.929c-0.569,0-1.03,0.461-1.03,1.03
		c0,0.568,0.461,1.029,1.03,1.029c3.211,0,5.1-0.572,5.92-1.779c3.327,8.312,7.993,12.724,13.935,13.18v4.053
		c-11.942,0.134-12.895,2.59-12.895,3.358c0,0.79,1.003,3.364,13.924,3.364c12.92,0,13.924-2.574,13.924-3.364
		c0-0.768-0.954-3.224-12.895-3.358v-4.034c6.65-0.518,11.039-6.035,13.935-13.197c0.82,1.205,2.709,1.777,5.919,1.777
		c0.568,0,1.028-0.461,1.028-1.029c0-0.569-0.46-1.03-1.028-1.03c-3.627,0-4.189-0.774-4.265-0.929
		c-0.335-0.687,1.062-2.481,1.813-3.446l0.149-0.192c0.766-0.982,2.032-2.298,3.498-3.818c4.411-4.574,10.45-10.837,10.45-16.118
		C90.028,40.644,89.221,38.884,87.632,37.853z M39.553,32.438c0.055-0.021,0.115-0.043,0.177-0.064
		c0.086-0.03,0.179-0.061,0.276-0.091c0.07-0.023,0.144-0.044,0.221-0.068c0.107-0.031,0.225-0.062,0.345-0.093
		c0.086-0.024,0.17-0.046,0.262-0.069c0.135-0.032,0.281-0.065,0.429-0.098c0.095-0.021,0.184-0.042,0.283-0.064
		c0.176-0.036,0.366-0.073,0.559-0.109c0.09-0.018,0.172-0.035,0.265-0.052c0.291-0.054,0.601-0.105,0.927-0.157
		c0.064-0.01,0.136-0.02,0.2-0.029c0.271-0.041,0.548-0.083,0.843-0.123c0.132-0.018,0.275-0.035,0.412-0.052
		c0.241-0.031,0.482-0.061,0.738-0.091c0.164-0.019,0.338-0.037,0.509-0.056c0.246-0.026,0.495-0.053,0.755-0.078
		c0.184-0.018,0.375-0.035,0.566-0.053c0.266-0.023,0.535-0.047,0.813-0.07c0.201-0.016,0.406-0.031,0.613-0.047
		c0.286-0.02,0.577-0.04,0.873-0.058c0.22-0.015,0.44-0.029,0.666-0.041c0.31-0.019,0.629-0.036,0.951-0.051
		c0.228-0.01,0.453-0.021,0.687-0.03c0.344-0.016,0.698-0.028,1.055-0.04c0.232-0.007,0.462-0.017,0.7-0.023
		c0.395-0.011,0.804-0.018,1.214-0.024c0.216-0.004,0.426-0.011,0.646-0.015c0.638-0.008,1.29-0.014,1.964-0.014
		c0.671,0.001,1.323,0.007,1.96,0.014c0.221,0.004,0.431,0.01,0.646,0.015c0.41,0.007,0.819,0.014,1.214,0.024
		c0.238,0.007,0.468,0.016,0.7,0.023c0.356,0.012,0.711,0.024,1.054,0.04c0.234,0.009,0.459,0.021,0.688,0.03
		c0.322,0.016,0.642,0.032,0.951,0.051c0.226,0.012,0.445,0.026,0.665,0.041c0.297,0.018,0.588,0.038,0.873,0.058
		c0.207,0.016,0.413,0.031,0.614,0.047c0.278,0.023,0.548,0.047,0.813,0.07c0.19,0.018,0.383,0.035,0.565,0.053
		c0.261,0.025,0.51,0.052,0.757,0.078c0.17,0.019,0.344,0.037,0.508,0.056c0.256,0.03,0.498,0.061,0.74,0.092
		c0.136,0.017,0.278,0.034,0.409,0.051c0.299,0.041,0.579,0.082,0.853,0.124c0.062,0.01,0.13,0.019,0.188,0.028
		c0.329,0.052,0.638,0.104,0.929,0.157c0.092,0.017,0.172,0.034,0.26,0.05c0.194,0.037,0.388,0.074,0.564,0.112
		c0.1,0.021,0.186,0.041,0.279,0.062c0.15,0.032,0.299,0.066,0.435,0.1c0.091,0.023,0.173,0.044,0.257,0.067
		c0.122,0.032,0.241,0.063,0.351,0.095c0.075,0.022,0.146,0.044,0.215,0.066c0.101,0.031,0.195,0.062,0.283,0.093
		c0.06,0.021,0.117,0.042,0.171,0.063c0.037,0.015,0.066,0.027,0.101,0.041c-1.862,0.759-7.855,1.799-18.045,1.799
		c-10.189,0-16.184-1.04-18.046-1.799C39.488,32.465,39.516,32.453,39.553,32.438z M36.901,57.775
		c-4.166-4.321-9.873-10.239-9.873-14.689c0-1.721,0.477-2.868,1.457-3.502c2.243-1.457,6.779-0.082,8.734,0.722
		c0.303,4.641,0.918,10.751,2.174,16.772c0.343,1.639,0.721,3.175,1.121,4.647C39.682,60.66,38.393,59.321,36.901,57.775z
		 M68.899,88.46c-1.428,0.563-5.324,1.305-11.4,1.305c-6.077,0-9.974-0.742-11.401-1.305c1.346-0.531,4.884-1.219,10.372-1.296
		v0.707c0,0.568,0.461,1.029,1.029,1.029s1.029-0.461,1.029-1.029v-0.707C64.015,87.24,67.553,87.929,68.899,88.46z M57.499,79.05
		c-9.436,0-13.957-12.177-16.089-22.393c-1.882-9.02-2.301-18.237-2.394-22.23c4.441,1.744,14.741,1.912,18.482,1.912
		c3.74,0,14.036-0.168,18.48-1.912C75.759,43.358,73.857,79.05,57.499,79.05z M78.096,57.774c-1.471,1.524-2.737,2.841-3.572,3.899
		c2.031-7.438,2.902-15.525,3.271-21.375c1.967-0.807,6.48-2.167,8.717-0.714c0.979,0.634,1.457,1.781,1.457,3.502
		C87.969,47.535,82.262,53.453,78.096,57.774z"/>
</g>
</svg>
