<?xml version="1.0" encoding="utf-8"?>
<!-- Generator: Adobe Illustrator 17.0.0, SVG Export Plug-In . SVG Version: 6.00 Build 0)  -->
<svg version="1.2" baseProfile="tiny" id="Layer_1" xmlns="http://www.w3.org/2000/svg" xmlns:xlink="http://www.w3.org/1999/xlink"
	 x="0px" y="0px" width="114.998px" height="114.998px" viewBox="0 0 114.998 114.998" xml:space="preserve">
<g>
	<path d="M85.506,39.646c0.125-0.272,0.242-0.548,0.352-0.832c0.137-0.311,0.213-0.654,0.213-1.016c0-1.388-1.117-2.515-2.504-2.521
		h-0.021c-0.058,0-0.113,0.002-0.169,0.005c-0.328,0.023-0.639,0.106-0.92,0.241c-0.324,0.146-0.643,0.296-0.965,0.445
		c-1.287,0.599-2.52,1.175-3.903,1.528c-2.458-2.014-5.488-3.11-8.673-3.11c-4.176,0-8.209,1.89-10.781,5.053
		c-1.85,2.272-2.832,5.039-2.883,8.006c-7.787-1.192-13.037-5.154-17.161-9.162c-0.249-0.723-0.813-1.298-1.542-1.557
		c-0.275-0.096-0.559-0.144-0.844-0.144c-0.564,0-1.119,0.189-1.572,0.551c-2.043,1.627-2.473,4.405-2.621,6.645
		c-0.156,2.427,0.43,4.46,1.295,6.149c-0.035,0.018-0.07,0.04-0.103,0.061c-0.782,0.485-1.24,1.358-1.191,2.277
		c0.209,4.042,1.656,7.411,4.145,9.778c-0.275,0.586-0.317,1.268-0.099,1.897c1.192,3.418,3.292,5.935,6.192,7.464
		c-2.5,0.959-5.475,1.49-8.613,1.49c-0.296,0-0.594-0.004-0.893-0.015h-0.078c-1.125,0-2.116,0.746-2.424,1.834
		c-0.316,1.113,0.166,2.297,1.17,2.872c5.695,3.273,11.775,4.932,18.072,4.932c1.631,0,3.291-0.113,4.934-0.337
		c16.105-2.217,27.826-16.185,28.228-33.42c0.182-0.166,0.361-0.33,0.543-0.497c1.539-1.406,3.131-2.861,4.331-4.905
		c0.548-0.931,0.44-2.106-0.263-2.923C86.42,40.042,85.983,39.774,85.506,39.646z M79.637,47.663
		c0.08,16.669-10.988,29.942-26.062,32.019c-1.57,0.216-3.1,0.315-4.59,0.315c-6.434,0-12.105-1.89-16.818-4.598
		c0.324,0.011,0.648,0.016,0.971,0.016c6.01,0,11.502-1.759,14.854-4.854c-5.377-0.455-8.545-3.124-10.051-7.45
		c0.518,0.153,1.143,0.217,1.783,0.217c1.045,0,2.131-0.17,2.869-0.397c-0.873-0.729-2.086-0.647-2.977-1.12
		c-3.277-1.741-5.342-5.01-5.586-9.677c1.267,0.717,2.84,1.129,4.656,1.301c-1.727-1.907-4.959-4.808-4.656-9.492
		c0.109-1.668,0.383-3.807,1.676-4.841c0.035,0.159-0.074,0.176-0.187,0.187c5.214,5.234,11.843,10.366,22.524,10.982
		c-1.658-7.949,4.459-13.363,10.873-13.363c2.791,0.002,5.639,1.025,7.926,3.312c2.641-0.403,4.607-1.474,6.704-2.42
		c-0.941,2.534-2.646,4.304-4.655,5.77c0.025,0,0.053,0.002,0.078,0.002c1.76,0,4.225-0.821,5.879-1.489
		C83.516,44.346,81.459,45.89,79.637,47.663z"/>
	<path d="M57.497,1.726C26.775,1.726,1.78,26.719,1.78,57.443c0,30.723,24.995,55.718,55.717,55.718
		c30.724,0,55.72-24.995,55.72-55.718C113.217,26.719,88.221,1.726,57.497,1.726z M57.497,110.64
		c-29.333,0-53.196-23.865-53.196-53.197c0-29.331,23.863-53.2,53.196-53.2c29.335,0,53.2,23.869,53.2,53.2
		C110.698,86.774,86.832,110.64,57.497,110.64z"/>
</g>
</svg>
