<?xml version="1.0" encoding="utf-8"?>
<!-- Generator: Adobe Illustrator 17.0.0, SVG Export Plug-In . SVG Version: 6.00 Build 0)  -->
<svg version="1.2" baseProfile="tiny" id="Layer_1" xmlns="http://www.w3.org/2000/svg" xmlns:xlink="http://www.w3.org/1999/xlink"
	 x="0px" y="0px" width="114.998px" height="114.998px" viewBox="0 0 114.998 114.998" xml:space="preserve">
<g>
	<path d="M57.499,1.726c-30.723,0-55.717,24.994-55.717,55.717c0,30.722,24.994,55.717,55.717,55.717
		c30.723,0,55.717-24.995,55.717-55.717C113.216,26.72,88.221,1.726,57.499,1.726z M57.499,110.639
		c-29.332,0-53.197-23.864-53.197-53.196c0-29.332,23.865-53.197,53.197-53.197c29.334,0,53.195,23.865,53.195,53.197
		C110.694,86.775,86.833,110.639,57.499,110.639z"/>
	<path d="M78.743,37.691H66.774v-2.314c0-4.088-3.326-7.413-7.412-7.413h-3.387c-4.086,0-7.414,3.324-7.414,7.413v2.314H36.592
		c-4.088,0-7.414,3.327-7.414,7.415v27.383c0,4.087,3.326,7.414,7.414,7.414h42.15c4.09,0,7.414-3.327,7.414-7.414V45.106
		C86.157,41.018,82.833,37.691,78.743,37.691z M55.976,30.484h3.387c2.695,0,4.891,2.194,4.891,4.893v2.314h-13.17v-2.314h-0.001
		C51.083,32.678,53.278,30.484,55.976,30.484z M42.199,77.381h-5.606c-2.698,0-4.893-2.195-4.893-4.892V45.106
		c0-2.697,2.195-4.893,4.893-4.893h5.606V77.381z M70.616,77.381H44.72V40.213h25.896V77.381z M83.635,72.489
		c0,2.697-2.193,4.893-4.893,4.893h-5.605V40.213h5.605c2.699,0,4.893,2.196,4.893,4.893V72.489z"/>
</g>
</svg>
