<?xml version="1.0" encoding="utf-8"?>
<!-- Generator: Adobe Illustrator 18.1.0, SVG Export Plug-In . SVG Version: 6.00 Build 0)  -->
<!DOCTYPE svg PUBLIC "-//W3C//DTD SVG 1.1//EN" "http://www.w3.org/Graphics/SVG/1.1/DTD/svg11.dtd">
<svg version="1.1" id="Layer_1" xmlns="http://www.w3.org/2000/svg" xmlns:xlink="http://www.w3.org/1999/xlink" x="0px" y="0px"
	 viewBox="-248 339 115 115" enable-background="new -248 339 115 115" xml:space="preserve">
<g>
	<path fill="#FFFFFF" d="M-195.2,366.7c-0.7,0-1.2,0.6-1.2,1.3l0.8,18.7c0,0.1,0,0.1,0,0.2c0,2.4-1.9,4.3-4.3,4.3h-2.1v-23.2
		c0-0.7-0.6-1.3-1.3-1.3c-0.7,0-1.3,0.6-1.3,1.3v23.2h-2.1c-2.4,0-4.3-1.9-4.3-4.3l0.8-18.8c0-0.7-0.5-1.3-1.2-1.3
		c-0.7,0-1.3,0.5-1.3,1.2l-0.8,18.9c0,0,0,0,0,0c0,0,0,0,0,0c0,3.8,3.1,6.9,6.9,6.9h2.1v36.5c0,0.7,0.6,1.3,1.3,1.3
		c0.7,0,1.3-0.6,1.3-1.3v-36.5h2.1c3.6,0,6.6-2.8,6.8-6.4c0.1-0.2,0.1-0.3,0.1-0.5l-0.8-18.9C-193.9,367.2-194.5,366.7-195.2,366.7z
		"/>
	<path fill="#FFFFFF" d="M-172.9,365.5L-172.9,365.5c0,0-0.4,0-1.1,0c-2.2,0-7.4,0.4-9,4.6c-0.7,1.7-3.2,26.7-3.1,28.8
		c0,3.3,2.1,4.2,3.2,4.2h5.3v22.9c0,2.4,1.9,4.3,4.3,4.3h0.3c2.4,0,4.3-2,4.3-4.3v-56.1C-168.7,367.4-170.6,365.5-172.9,365.5z
		 M-173,427.7h-0.3c-1,0-1.8-0.8-1.8-1.8v-24.2c0-0.7-0.6-1.3-1.3-1.3h-6.5c0,0-0.7-0.1-0.7-1.7c0-2.8,2.5-26.3,3-27.8
		c1.1-2.7,5.1-3,6.7-3c0.5,0,0.8,0,0.9,0c1,0,1.8,0.8,1.8,1.8v56.1h0C-171.2,426.9-172,427.7-173,427.7z"/>
	<path fill="#FFFFFF" d="M-190.5,340.7c-30.7,0-55.7,25-55.7,55.7c0,30.7,25,55.7,55.7,55.7c30.7,0,55.7-25,55.7-55.7
		C-134.8,365.7-159.8,340.7-190.5,340.7z M-190.5,449.6c-29.3,0-53.2-23.9-53.2-53.2c0-29.3,23.9-53.2,53.2-53.2
		c29.3,0,53.2,23.9,53.2,53.2C-137.3,425.8-161.2,449.6-190.5,449.6z"/>
</g>
</svg>
