<?xml version="1.0" encoding="utf-8"?>
<!-- Generator: Adobe Illustrator 18.1.0, SVG Export Plug-In . SVG Version: 6.00 Build 0)  -->
<!DOCTYPE svg PUBLIC "-//W3C//DTD SVG 1.1//EN" "http://www.w3.org/Graphics/SVG/1.1/DTD/svg11.dtd">
<svg version="1.1" id="Layer_1" xmlns="http://www.w3.org/2000/svg" xmlns:xlink="http://www.w3.org/1999/xlink" x="0px" y="0px"
	 viewBox="-248 339 115 115" enable-background="new -248 339 115 115" xml:space="preserve">
<g>
	<path fill="#FFFFFF" d="M-171.1,386.8c0-11.9-9.7-21.5-21.5-21.5c-11.9,0-21.6,9.7-21.6,21.5c0,11.9,9.7,21.5,21.6,21.5
		c2.7,0,5.2-0.5,7.6-1.4l11.5,23.7c0.2,0.4,0.7,0.7,1.1,0.7c0.2,0,0.4,0,0.6-0.1c0.6-0.3,0.9-1.1,0.6-1.7l-11.5-23.6
		C-175.9,402.3-171.1,395.1-171.1,386.8z M-192.7,405.8c-10.5,0-19-8.5-19-19c0-10.5,8.5-19,19-19c10.5,0,19,8.5,19,19
		C-173.6,397.3-182.2,405.8-192.7,405.8z"/>
	<path fill="#FFFFFF" d="M-190.5,340.7c-30.7,0-55.7,25-55.7,55.7c0,30.7,25,55.7,55.7,55.7c30.7,0,55.7-25,55.7-55.7
		C-134.8,365.7-159.8,340.7-190.5,340.7z M-190.5,449.6c-29.3,0-53.2-23.9-53.2-53.2c0-29.3,23.9-53.2,53.2-53.2
		c29.3,0,53.2,23.9,53.2,53.2C-137.3,425.8-161.2,449.6-190.5,449.6z"/>
</g>
</svg>
