<?xml version="1.0" standalone="no"?>
<!DOCTYPE svg PUBLIC "-//W3C//DTD SVG 1.1//EN" "http://www.w3.org/Graphics/SVG/1.1/DTD/svg11.dtd" >
<svg xmlns="http://www.w3.org/2000/svg">
<metadata></metadata>
<defs>
<font id="flama_condensed_semiboldSBd" horiz-adv-x="862" >
<font-face units-per-em="2048" ascent="1638" descent="-410" />
<missing-glyph horiz-adv-x="299" />
<glyph unicode="&#xfb01;" horiz-adv-x="968" d="M643 0v1090h242v-1090h-242zM643 1233v264h242v-264h-242zM160 0v895h-101v186h101v160q0 111 69 174.5t183 63.5q74 0 139 -15v-182q-33 8 -82 8q-30 0 -50 -22t-20 -60v-127h125v-186h-125v-895h-239z" />
<glyph unicode="&#xfb02;" horiz-adv-x="1032" d="M856 -16q-111 0 -163 54t-52 150v1272h242v-1196q0 -59 57 -59q24 0 51 6v-203q-61 -24 -135 -24zM160 0v895h-101v186h101v160q0 111 69 174.5t183 63.5q74 0 139 -15v-182q-33 8 -82 8q-30 0 -50 -22t-20 -60v-127h125v-186h-125v-895h-239z" />
<glyph horiz-adv-x="0" />
<glyph horiz-adv-x="682" />
<glyph unicode=" "  horiz-adv-x="299" />
<glyph unicode="&#x09;" horiz-adv-x="299" />
<glyph unicode="&#xa0;" horiz-adv-x="299" />
<glyph unicode="!" horiz-adv-x="428" d="M135 420l-39 502v540h238v-540l-37 -502h-162zM100 0v299h230v-299h-230z" />
<glyph unicode="&#x22;" horiz-adv-x="708" d="M117 930l-33 287v245h215v-245l-33 -287h-149zM442 930l-32 287v245h215v-245l-33 -287h-150z" />
<glyph unicode="#" horiz-adv-x="874" d="M152 -4l34 387h-143l14 149h144l45 426h-148l15 150h143l39 358h137l-35 -358h162l37 358h135l-35 -358h144l-13 -150h-143l-43 -426h145l-12 -149h-147l-37 -387h-139l36 387h-161l-37 -387h-137zM340 532h164l43 426h-164z" />
<glyph unicode="$" horiz-adv-x="823" d="M367 -72v129q-60 7 -112 30t-96.5 62.5t-72 102.5t-31.5 143l234 8q14 -159 135 -159q53 0 82 34.5t29 88.5q0 97 -127 221l-134 133q-96 94 -145 175.5t-49 176.5q0 127 75 215.5t212 106.5v127h161v-129q231 -42 244 -322l-209 -4q-14 156 -129 156q-55 0 -85 -34.5 t-30 -90.5q0 -34 21.5 -73t41.5 -61.5t64 -68.5l132 -133q92 -98 143 -185t51 -184q0 -119 -65.5 -206t-178.5 -115v-144h-161z" />
<glyph unicode="%" horiz-adv-x="1247" d="M301 721q-100 0 -166.5 58t-66.5 159v319q0 106 65 167t166 61q103 0 169.5 -59.5t66.5 -165.5v-322q0 -98 -67.5 -157.5t-166.5 -59.5zM301 858q37 0 54.5 22.5t17.5 53.5v338q0 31 -19 53.5t-55 22.5t-54 -22.5t-18 -53.5v-338q0 -33 18 -54.5t56 -21.5zM274 -2 l580 1468h129l-577 -1468h-132zM946 -23q-100 0 -166.5 58.5t-66.5 159.5v311q0 107 65.5 171t167.5 64t169 -60.5t67 -164.5v-319q0 -97 -69.5 -158.5t-166.5 -61.5zM946 115q37 0 54.5 22.5t17.5 52.5v340q0 30 -18.5 52t-53.5 22t-52 -22t-17 -52v-340q0 -75 69 -75z" />
<glyph unicode="&#x26;" horiz-adv-x="1058" d="M399 -27q-163 0 -248 111.5t-85 300.5q0 286 233 422q-56 98 -87.5 179t-31.5 161q0 144 84.5 241t245.5 97q147 0 230 -86.5t83 -233.5q0 -126 -59 -229t-170 -172q5 -12 80 -135t80 -135q25 90 41 200l192 -22q-34 -215 -119 -393q5 -12 81 -137t81 -142h-270l-70 119 q-121 -146 -291 -146zM451 188q80 0 145 95q-6 15 -100.5 173.5t-100.5 176.5q-88 -65 -88 -227q0 -89 36.5 -153.5t107.5 -64.5zM502 926q110 79 110 237q0 61 -26.5 100.5t-71.5 39.5q-50 0 -75 -39.5t-25 -94.5q0 -83 88 -243z" />
<glyph unicode="'" horiz-adv-x="387" d="M117 930l-33 287v245h215v-245l-33 -287h-149z" />
<glyph unicode="(" horiz-adv-x="473" d="M313 -352q-102 174 -162.5 429.5t-60.5 493.5q0 244 59 487t164 423l140 -13q-85 -276 -118.5 -453t-33.5 -446q0 -424 152 -909z" />
<glyph unicode=")" horiz-adv-x="473" d="M160 -352l-140 12q152 485 152 909q0 269 -33.5 446t-118.5 453l140 13q105 -180 164 -423t59 -487q0 -238 -60.5 -493.5t-162.5 -429.5z" />
<glyph unicode="*" horiz-adv-x="710" d="M221 862l-115 74l130 190l-197 115l70 115l178 -103v207h137v-209l178 105l70 -115l-199 -115l131 -190l-115 -74l-133 195z" />
<glyph unicode="+" horiz-adv-x="878" d="M356 281v286h-272v168h272v291h168l-2 -291h275v-168h-273v-286h-168z" />
<glyph unicode="," horiz-adv-x="387" d="M102 -248l64 262h-86v285h229v-270l-84 -277h-123z" />
<glyph unicode="-" horiz-adv-x="485" d="M49 518v191h387v-191h-387z" />
<glyph unicode="." horiz-adv-x="387" d="M80 0v299h229v-299h-229z" />
<glyph unicode="/" horiz-adv-x="520" d="M-12 -334l327 1802h160l-321 -1802h-166z" />
<glyph unicode="0" horiz-adv-x="882" d="M442 -20q-157 0 -257.5 83.5t-100.5 241.5v856q0 79 29.5 141.5t79.5 101.5t113.5 59t135.5 20q151 0 255 -83t104 -237v-858q0 -158 -101.5 -241.5t-257.5 -83.5zM442 188q56 0 84.5 32.5t28.5 78.5v868q0 45 -30.5 75t-82.5 30t-81 -30.5t-29 -74.5v-870q0 -45 29 -77 t81 -32z" />
<glyph unicode="1" horiz-adv-x="585" d="M193 0v1208l-109 -26l-33 186l244 94h141v-1462h-243z" />
<glyph unicode="2" horiz-adv-x="800" d="M78 0v160l248 424q163 291 163 497v41q-4 152 -100 152q-98 0 -98 -131v-90h-221v90q0 157 87 249.5t246 92.5q163 0 244.5 -98t81.5 -271q0 -171 -64.5 -335t-175.5 -349l-124 -211v-6h370v-215h-657z" />
<glyph unicode="3" horiz-adv-x="825" d="M408 -20q-181 0 -264 94.5t-83 251.5v84h230v-93q0 -62 26.5 -97.5t79.5 -35.5q56 0 84.5 50t28.5 178q0 217 -150 217h-100v223h105q69 0 101 48.5t32 170.5q0 201 -107 201q-96 0 -96 -135v-86h-227v82q0 166 89.5 258t254.5 92q152 0 238.5 -99t86.5 -280 q0 -133 -42 -226t-134 -124v-9q98 -33 147.5 -123.5t49.5 -215.5q0 -109 -29 -193t-79 -133.5t-111 -74.5t-131 -25z" />
<glyph unicode="4" horiz-adv-x="854" d="M467 0v340h-416v192l336 928h258l-371 -911h193v235l223 154v-389h105v-209h-105v-340h-223z" />
<glyph unicode="5" horiz-adv-x="843" d="M412 -23q-161 0 -248.5 84.5t-87.5 229.5v131h225v-111q0 -56 29.5 -89.5t83.5 -33.5q53 0 80.5 38t27.5 110v280q0 64 -28.5 100t-81.5 36q-63 0 -111 -78l-211 14l27 772h602v-215h-400q0 -4 -2 -74.5t-5.5 -164t-6.5 -134.5q84 68 199 68q116 0 189 -70t73 -217v-327 q0 -164 -99.5 -256.5t-254.5 -92.5z" />
<glyph unicode="6" d="M432 -20q-162 0 -257 90.5t-95 240.5v832q0 162 102 252t262 90q152 0 240 -83t88 -218v-119h-231v104q0 46 -26 76.5t-75 30.5q-55 0 -82.5 -33.5t-27.5 -83.5v-344q83 86 205 86q120 0 186.5 -67.5t66.5 -184.5v-350q0 -144 -98.5 -231.5t-257.5 -87.5zM438 184 q54 0 80.5 34t26.5 81v328q0 50 -28 75t-71 25q-50 0 -82 -34.5t-34 -86.5v-307q0 -48 28 -81.5t80 -33.5z" />
<glyph unicode="7" horiz-adv-x="788" d="M188 0q1 344 85.5 677.5t205.5 565.5h-420v217h678v-186q-146 -263 -222.5 -594t-78.5 -680h-248z" />
<glyph unicode="8" horiz-adv-x="849" d="M424 -20q-158 0 -256 78t-98 227v233q0 77 33.5 135.5t93.5 91.5q-53 28 -83 85t-30 120v224q0 145 96.5 228t245.5 83q148 0 244 -78.5t96 -224.5v-217q0 -156 -115 -220q59 -30 94 -86.5t35 -130.5v-241q0 -146 -99.5 -226.5t-256.5 -80.5zM426 178q54 0 82.5 29.5 t28.5 77.5v260q0 51 -32 81.5t-79 30.5q-48 0 -78.5 -29.5t-30.5 -76.5v-266q0 -47 29 -77t80 -30zM428 838q49 0 78 31t29 77v234q0 48 -30.5 75t-78.5 27q-46 0 -76.5 -27t-30.5 -71v-238q0 -47 31 -77.5t78 -30.5z" />
<glyph unicode="9" horiz-adv-x="858" d="M426 -20q-155 0 -246.5 83t-91.5 222v114h231v-98q0 -51 26.5 -81t74.5 -30q53 0 80.5 32.5t27.5 86.5v350q-74 -96 -198 -96q-120 0 -188 67.5t-68 184.5v348q0 146 97 233t257 87q162 0 257 -91t95 -241v-811q0 -164 -98 -262t-256 -98zM416 737q46 0 79 34t33 87v311 q0 46 -27.5 79.5t-78.5 33.5q-54 0 -80.5 -35t-26.5 -82v-325q0 -50 29 -76.5t72 -26.5z" />
<glyph unicode=":" horiz-adv-x="387" d="M80 0v299h229v-299h-229zM80 788v297h229v-297h-229z" />
<glyph unicode=";" horiz-adv-x="387" d="M102 -248l64 262h-86v285h229v-270l-84 -277h-123zM80 788v297h229v-297h-229z" />
<glyph unicode="&#x3c;" horiz-adv-x="868" d="M698 295l-606 295l2 129l606 293l74 -152l-444 -207q19 -8 223.5 -104t220.5 -105z" />
<glyph unicode="=" horiz-adv-x="868" d="M84 393v170h702v-170h-702zM84 719v170h702v-170h-702z" />
<glyph unicode="&#x3e;" horiz-adv-x="868" d="M170 297l-74 149l443 209q-18 9 -222.5 104.5t-222.5 102.5l76 150l606 -293v-129z" />
<glyph unicode="?" horiz-adv-x="770" d="M252 420v55q3 179 98 330q4 6 21 32.5t22.5 35.5t19.5 33.5t19.5 38t15 37.5t13 43.5t7 45t3.5 51.5q0 64 -24 107t-76 43q-47 0 -73 -35.5t-26 -97.5v-105h-209v105q0 157 87.5 249.5t236.5 92.5q154 0 239 -96.5t87 -266.5q0 -60 -11.5 -114.5t-35 -104t-42 -80.5 t-49.5 -76q-67 -105 -86 -155q-19 -52 -20 -99v-69h-217zM250 0v299h229v-299h-229z" />
<glyph unicode="@" horiz-adv-x="1449" d="M774 -156q-250 0 -416 111q-138 90 -213 250.5t-75 386.5q0 191 54.5 350t151 266t229.5 165.5t288 58.5q93 0 178 -23t160.5 -72.5t130.5 -121.5t87.5 -177t32.5 -231q0 -122 -34.5 -232.5t-91.5 -190.5t-131.5 -133t-155.5 -69h-195l17 117h-7q-42 -66 -100.5 -101.5 t-120.5 -35.5q-91 0 -142.5 52.5t-51.5 145.5q0 46 6 76q28 218 65 430q18 115 94.5 181.5t178.5 66.5q55 0 102.5 -24.5t69.5 -75.5h4l12 86h203l-115 -803q115 34 193 179t78 327q0 112 -25.5 202.5t-70 151.5t-106 101.5t-131 58.5t-147.5 18q-140 0 -252.5 -56.5 t-185 -156.5t-111 -234.5t-38.5 -293.5q0 -197 66 -340.5t192 -218.5q136 -84 321 -84q106 0 192.5 15.5t196.5 47.5l25 -88q-79 -37 -191 -59.5t-221 -22.5zM674 344q54 0 92 46t49 116l41 293q0 5 1 15t1 15q0 53 -26 83t-70 30q-50 0 -81 -36.5t-40 -98.5l-45 -332 q-4 -16 -4 -47q0 -84 82 -84z" />
<glyph unicode="A" horiz-adv-x="1024" d="M45 0l297 1462h352l285 -1462h-260l-68 354h-301l-65 -354h-240zM391 563h219l-104 606h-6z" />
<glyph unicode="B" horiz-adv-x="946" d="M96 0v1460h439q158 0 242.5 -92.5t84.5 -277.5q0 -143 -52 -229.5t-140 -110.5v-9q97 -25 148.5 -110.5t51.5 -220.5q0 -205 -87 -307.5t-238 -102.5h-449zM352 211h129q63 0 96 56t33 159q0 207 -143 207h-115v-422zM352 844h113q141 0 141 213q0 98 -33 146t-92 48 h-129v-407z" />
<glyph unicode="C" horiz-adv-x="929" d="M483 -20q-184 0 -293.5 93.5t-109.5 272.5v770q0 170 114 268.5t291 98.5q165 0 270 -91.5t105 -248.5v-162h-233v137q0 65 -38 103.5t-104 38.5q-72 0 -107.5 -40.5t-35.5 -109.5v-750q0 -74 37.5 -113.5t107.5 -39.5q64 0 102 37.5t38 99.5v137h233v-151 q0 -161 -105 -255.5t-272 -94.5z" />
<glyph unicode="D" horiz-adv-x="962" d="M96 0v1460h404q168 0 275.5 -87.5t107.5 -252.5v-760q0 -177 -107.5 -268.5t-279.5 -91.5h-400zM352 221h121q76 0 112 45.5t36 108.5v719q0 66 -38 105.5t-112 39.5h-119v-1018z" />
<glyph unicode="E" horiz-adv-x="835" d="M96 0v1460h670v-219h-414v-377h330v-221h-330v-422h416v-221h-672z" />
<glyph unicode="F" horiz-adv-x="819" d="M96 0v1460h670v-219h-414v-385h330v-223h-330v-633h-256z" />
<glyph unicode="G" horiz-adv-x="952" d="M487 -20q-183 0 -295 95.5t-112 274.5v766q0 169 113.5 268t289.5 99q167 0 278 -89.5t111 -244.5v-156h-237v135q0 62 -41.5 99t-106.5 37q-71 0 -108 -43t-37 -113v-752q0 -71 37.5 -112t107.5 -41q138 0 138 137v235h-160v197h409v-444q0 -163 -103.5 -255.5 t-283.5 -92.5z" />
<glyph unicode="H" horiz-adv-x="989" d="M96 0v1460h258v-602h283v602h256v-1460h-256v623h-283v-623h-258z" />
<glyph unicode="I" horiz-adv-x="450" d="M96 0v1460h258v-1460h-258z" />
<glyph unicode="J" horiz-adv-x="905" d="M436 -23q-182 0 -278.5 93t-96.5 272v199h246v-201q0 -139 125 -139t125 141v1118h258v-1104q0 -176 -99.5 -277.5t-279.5 -101.5z" />
<glyph unicode="K" horiz-adv-x="956" d="M96 0v1460h258v-663l301 663h256l-266 -567l270 -893h-276l-184 674l-101 -189v-485h-258z" />
<glyph unicode="L" horiz-adv-x="817" d="M96 0v1460h256v-1239h416v-221h-672z" />
<glyph unicode="M" horiz-adv-x="1189" d="M96 0v1460h326l176 -594h4l180 594h312v-1460h-230v1059h-4l-176 -619h-176l-180 617h-4v-1057h-228z" />
<glyph unicode="N" horiz-adv-x="1015" d="M96 0v1460h266l324 -844h6v844h230v-1460h-234l-358 936h-4v-936h-230z" />
<glyph unicode="O" horiz-adv-x="972" d="M485 -20q-188 0 -296.5 97t-108.5 288v733q0 183 113.5 284t293.5 101q116 0 205.5 -39.5t145 -126t55.5 -211.5v-735q0 -190 -114.5 -290.5t-293.5 -100.5zM487 207q69 0 106.5 42.5t37.5 110.5v752q0 67 -39 106t-107 39q-70 0 -106.5 -40.5t-36.5 -108.5v-748 q0 -68 37.5 -110.5t107.5 -42.5z" />
<glyph unicode="P" horiz-adv-x="929" d="M96 0v1460h412q177 0 264.5 -113.5t87.5 -326.5q0 -227 -89 -350t-273 -123h-144v-547h-258zM354 760h107q147 0 147 254q0 115 -34 173t-109 58h-111v-485z" />
<glyph unicode="Q" horiz-adv-x="972" d="M786 -176l-219 164q-33 -8 -80 -8q-188 0 -297.5 97t-109.5 288v733q0 183 113.5 284t293.5 101t294 -96t114 -281v-735q0 -162 -90 -252l143 -94zM489 207q70 0 108 43t38 110v752q0 67 -41 106t-109 39q-69 0 -106 -40.5t-37 -108.5v-748q0 -69 38 -111t109 -42z" />
<glyph unicode="R" horiz-adv-x="952" d="M96 0v1460h396q185 0 283.5 -106.5t98.5 -319.5q0 -300 -178 -383l195 -651h-268l-160 594h-109v-594h-258zM354 786h117q143 0 143 230q0 227 -145 227h-115v-457z" />
<glyph unicode="S" horiz-adv-x="872" d="M440 -20q-172 0 -272 107.5t-111 297.5l242 8q4 -42 12 -75t23.5 -64.5t43 -48.5t64.5 -17q63 0 92 45t29 109q0 58 -33.5 112t-101.5 121l-145 152q-101 98 -152 190.5t-51 202.5q0 156 96.5 260.5t272.5 104.5q70 0 128.5 -20t108 -64t79.5 -123t34 -188l-228 -9 q-10 95 -40 145t-95 50q-56 0 -86.5 -37.5t-30.5 -99.5q0 -28 11.5 -57t38.5 -62.5t44.5 -52t55.5 -56.5l135 -137q107 -105 159 -204t52 -216q0 -163 -101 -268.5t-274 -105.5z" />
<glyph unicode="T" horiz-adv-x="888" d="M315 0v1241h-276v219h811v-219h-275v-1241h-260z" />
<glyph unicode="U" horiz-adv-x="968" d="M477 -23q-184 0 -286.5 94t-102.5 281v1108h262v-1095q0 -79 39.5 -119.5t104.5 -40.5q67 0 103 42.5t36 114.5v1098h246v-1100q1 -180 -111 -281.5t-291 -101.5z" />
<glyph unicode="V" horiz-adv-x="874" d="M303 -8l-285 1468h258l168 -991h9l170 991h233l-281 -1468h-272z" />
<glyph unicode="W" horiz-adv-x="1314" d="M262 -8l-231 1468h256l121 -921h4l139 921h248l133 -917h4l119 917h229l-227 -1468h-242l-147 977h-9l-151 -977h-246z" />
<glyph unicode="X" horiz-adv-x="892" d="M18 0l285 735l-270 725h272l154 -438l155 438h244l-270 -704l284 -756h-268l-170 463l-168 -463h-248z" />
<glyph unicode="Y" horiz-adv-x="890" d="M317 0v586l-301 874h275l172 -567l166 567h245l-299 -874v-586h-258z" />
<glyph unicode="Z" horiz-adv-x="817" d="M61 0v170l416 1071h-407v219h694v-188l-408 -1051h400v-221h-695z" />
<glyph unicode="[" horiz-adv-x="477" d="M113 -344v1804h321v-135h-125v-1538h125v-131h-321z" />
<glyph unicode="\" horiz-adv-x="520" d="M369 -346l-340 1812h159l344 -1812h-163z" />
<glyph unicode="]" horiz-adv-x="477" d="M43 -344v133h123v1536h-123v135h322v-1804h-322z" />
<glyph unicode="^" horiz-adv-x="800" d="M125 371l190 772h168l172 -772h-168l-92 458l-100 -458h-170z" />
<glyph unicode="_" horiz-adv-x="802" d="M0 -274v163h803v-163h-803z" />
<glyph unicode="`" horiz-adv-x="493" d="M256 1200l-205 301h244l137 -301h-176z" />
<glyph unicode="a" horiz-adv-x="819" d="M299 -20q-105 0 -172.5 82.5t-67.5 246.5q0 165 106 259.5t263 97.5h64v165q0 41 -24.5 66t-72.5 25t-71 -25t-23 -66v-92h-219v97q0 126 91 202t239 76q147 0 233 -77.5t86 -213.5v-571q0 -52 5 -149t5 -103h-221q0 3 -1.5 18t-4 41.5t-4.5 51.5h-6q-28 -66 -88.5 -98.5 t-116.5 -32.5zM389 168q41 0 72 36.5t31 88.5v225h-58q-59 0 -96 -45.5t-37 -134.5q0 -170 88 -170z" />
<glyph unicode="b" horiz-adv-x="856" d="M506 -18q-58 0 -109 28.5t-78 77.5h-4l-4 -88h-217v1460h242v-456h4q35 57 88.5 84.5t110.5 27.5q121 0 180 -72t59 -180v-616q0 -119 -74.5 -192.5t-197.5 -73.5zM446 172q43 0 68 26.5t25 77.5v537q0 48 -25 76.5t-70 28.5q-46 0 -77 -39.5t-31 -106.5v-467 q0 -60 32 -96.5t78 -36.5z" />
<glyph unicode="c" horiz-adv-x="796" d="M412 -20q-150 0 -242 82.5t-92 234.5v489q0 154 96.5 241t241.5 87q144 0 229.5 -78t85.5 -200v-103h-215v86q0 43 -24 71t-72 28q-50 0 -75.5 -32.5t-25.5 -82.5v-512q0 -53 25 -86t76 -33t73.5 29.5t22.5 70.5v86h215v-98q0 -133 -85.5 -206.5t-233.5 -73.5z" />
<glyph unicode="d" horiz-adv-x="854" d="M319 -18q-122 0 -181.5 72t-59.5 186v618q0 109 68.5 182.5t185.5 73.5q121 0 188 -94h2v440h240v-1460h-223l-4 106h-7q-35 -61 -92.5 -92.5t-116.5 -31.5zM410 176q48 0 81 42.5t33 105.5v467q0 58 -34 96.5t-78 38.5q-43 0 -69 -28.5t-26 -84.5v-526q0 -50 24.5 -80.5 t68.5 -30.5z" />
<glyph unicode="e" horiz-adv-x="800" d="M424 -23q-158 0 -252 83t-94 241v473q0 158 96.5 249t243.5 91t230 -86t83 -231v-336h-414v-131q0 -76 40 -116t114 -40q81 0 203 43l45 -174q-135 -66 -295 -66zM317 633h199v176q0 49 -24 81t-74 32q-49 0 -75 -33.5t-26 -81.5v-174z" />
<glyph unicode="f" horiz-adv-x="583" d="M162 0v895h-101v186h101v160q0 111 69 174.5t183 63.5q74 0 139 -15v-182q-33 8 -82 8q-30 0 -50 -22t-20 -60v-127h125v-186h-125v-895h-239z" />
<glyph unicode="g" horiz-adv-x="854" d="M387 -348q-159 0 -285 55l60 187q116 -46 211 -46q149 0 149 146v172h-4q-32 -62 -88 -96.5t-113 -34.5q-119 0 -179 70.5t-60 181.5v555q0 120 72 195t186 75q56 0 111 -28.5t83 -79.5h2l3 92h227v-1086q0 -176 -98 -267t-277 -91zM412 227q44 0 76 37.5t32 97.5v429 q0 58 -34.5 95.5t-77.5 37.5q-41 0 -66 -30.5t-25 -84.5v-475q0 -47 24 -77t71 -30z" />
<glyph unicode="h" d="M94 0v1460h242v-473h2q77 127 221 127q94 0 155.5 -60t61.5 -159v-895h-239v801q0 50 -22.5 80t-70.5 30t-78 -44t-30 -105v-762h-242z" />
<glyph unicode="i" horiz-adv-x="428" d="M94 0v1090h242v-1090h-242zM94 1233v264h242v-264h-242z" />
<glyph unicode="j" horiz-adv-x="434" d="M98 -346q-42 0 -104 10v189q9 -3 41 -3q39 0 54 20t15 64v1156h240v-1186q0 -119 -66 -184.5t-180 -65.5zM102 1233v264h242v-264h-242z" />
<glyph unicode="k" horiz-adv-x="823" d="M94 0v1460h242v-823l219 453h240l-195 -373l195 -717h-254l-125 516l-80 -145v-371h-242z" />
<glyph unicode="l" horiz-adv-x="477" d="M305 -16q-111 0 -163 54t-52 150v1272h242v-1196q0 -59 57 -59q24 0 51 6v-203q-62 -24 -135 -24z" />
<glyph unicode="m" horiz-adv-x="1306" d="M94 0v1090h236v-103h2q77 127 227 127q72 0 126 -34t77 -97h2q91 131 240 131q93 0 155 -60t62 -159v-895h-240v801q0 110 -94 110q-47 0 -78 -41t-31 -100v-770h-241v803q0 48 -22.5 78t-70.5 30t-78 -43t-30 -104v-764h-242z" />
<glyph unicode="n" d="M94 0v1090h236v-101h2q78 125 227 125q94 0 155.5 -60t61.5 -159v-895h-239v801q0 50 -22.5 80t-70.5 30t-78 -43t-30 -104v-764h-242z" />
<glyph unicode="o" horiz-adv-x="839" d="M420 -20q-155 0 -248.5 81.5t-93.5 239.5v487q0 153 98.5 239.5t243.5 86.5q147 0 245.5 -82t98.5 -235v-494q0 -158 -97 -240.5t-247 -82.5zM422 172q100 0 100 117v512q0 50 -26.5 83.5t-75.5 33.5q-51 0 -76 -34t-25 -85v-512q0 -49 26 -82t77 -33z" />
<glyph unicode="p" horiz-adv-x="856" d="M94 -330v1420h236v-103h4q32 58 92.5 91.5t118.5 33.5q118 0 175.5 -72.5t57.5 -187.5v-614q0 -111 -68.5 -184.5t-187.5 -73.5q-53 0 -103 24t-81 70h-2v-404h-242zM444 172q43 0 69 27.5t26 79.5v534q0 48 -25 76.5t-70 28.5q-47 0 -77.5 -37.5t-30.5 -104.5v-477 q0 -58 31 -92.5t77 -34.5z" />
<glyph unicode="q" horiz-adv-x="856" d="M522 -330v418h-4q-78 -111 -199 -111t-181 71.5t-60 182.5v617q0 116 73 190t195 74q58 0 111 -27t84 -81h2l2 90h217v-1424h-240zM414 176q44 0 76 39t32 98v480q0 59 -33.5 97t-78.5 38q-42 0 -67.5 -31t-25.5 -86v-522q0 -52 26 -82.5t71 -30.5z" />
<glyph unicode="r" horiz-adv-x="626" d="M94 0v1090h238v-123h2q59 135 186 135q45 0 72 -8v-228q-44 8 -96 8q-68 0 -114 -33.5t-46 -103.5v-737h-242z" />
<glyph unicode="s" horiz-adv-x="735" d="M371 -20q-62 0 -115.5 17.5t-97.5 53.5t-71.5 97t-33.5 141l223 6q10 -133 101 -133q38 0 59 23.5t21 68.5q0 43 -31 85t-94 97l-88 82q-80 70 -123 142t-43 161q0 55 17.5 105t52.5 93t96 68t141 25q130 0 209 -74.5t88 -232.5l-207 -6q-6 69 -28.5 102t-65.5 33 q-42 0 -63 -24t-21 -62q0 -33 25 -67.5t79 -82.5l105 -98q91 -86 134.5 -162t43.5 -164q0 -124 -79 -209t-234 -85z" />
<glyph unicode="t" horiz-adv-x="595" d="M381 -14q-101 0 -164 50.5t-63 153.5v703h-101v188h101v248h239v-248h156v-188h-156v-631q0 -34 14.5 -50.5t47.5 -16.5q50 0 88 10v-193q-71 -26 -162 -26z" />
<glyph unicode="u" d="M303 -23q-93 0 -154 60.5t-61 161.5v891h238v-803q0 -107 94 -107q48 0 79 44t31 104v762h238v-1090h-233v109h-3q-38 -63 -97.5 -97.5t-131.5 -34.5z" />
<glyph unicode="v" horiz-adv-x="768" d="M260 -4l-244 1094h256l123 -715h4l131 715h220l-240 -1094h-250z" />
<glyph unicode="w" horiz-adv-x="1150" d="M244 -2l-209 1092h250l88 -629h8l102 629h224l100 -629h6l94 629h221l-210 -1092h-211l-119 678h-6l-121 -678h-217z" />
<glyph unicode="x" horiz-adv-x="765" d="M14 2l238 553l-223 535h252l120 -314l117 314h217l-221 -523l238 -565h-252l-131 340l-136 -340h-219z" />
<glyph unicode="y" horiz-adv-x="770" d="M211 -350q-73 0 -139 16l24 191q72 -13 86 -13q67 0 86 68l23 98l-273 1080h250l140 -687h6l118 687h220l-263 -1160q-35 -143 -103 -211.5t-175 -68.5z" />
<glyph unicode="z" horiz-adv-x="702" d="M55 0v168l324 723h-316v199h586v-177l-317 -712h317v-201h-594z" />
<glyph unicode="{" horiz-adv-x="489" d="M299 -344q-172 0 -172 182v582q0 62 -14.5 88.5t-57.5 30.5v141q44 10 58 30.5t14 67.5v492q0 97 46 143.5t128 46.5h150v-137h-86q-39 0 -39 -45v-469q0 -80 -19.5 -124.5t-75.5 -66.5v-10q60 -25 77.5 -63.5t17.5 -126.5v-582q0 -47 39 -47h86v-133h-152z" />
<glyph unicode="|" horiz-adv-x="518" d="M182 -215v1683h156v-1683h-156z" />
<glyph unicode="}" horiz-adv-x="489" d="M37 -344v133h86q39 0 39 47v582q0 88 17 126.5t75 63.5v10q-54 22 -73 66t-19 125v471q0 45 -39 45h-86v137h151q80 0 125 -47t45 -143v-494q0 -47 14.5 -67.5t59.5 -30.5v-141q-43 -4 -58.5 -30.5t-15.5 -88.5v-582q0 -182 -170 -182h-151z" />
<glyph unicode="~" horiz-adv-x="837" d="M182 512l-112 20q14 104 57 169t123 65q45 0 171.5 -27.5t166.5 -27.5q29 0 43.5 18.5t27.5 61.5l109 -23q-28 -236 -174 -236q-44 0 -174.5 30t-163.5 30q-31 0 -47 -18.5t-27 -61.5z" />
<glyph unicode="&#xa1;" horiz-adv-x="428" d="M295 731l39 -502v-540h-238v540l37 502h162zM330 1151v-299h-230v299h230z" />
<glyph unicode="&#xa2;" horiz-adv-x="794" d="M309 -117v156q-112 22 -176.5 99.5t-64.5 203.5v471q0 124 66.5 203.5t174.5 105.5v156h201v-156q103 -23 160 -94t57 -172v-113h-215v103q0 45 -24.5 72.5t-75.5 27.5q-53 0 -79 -33t-26 -86v-489q0 -55 26 -90t79 -35q52 0 76 31t24 75v107h215v-121q0 -105 -57 -173.5 t-160 -90.5v-158h-201z" />
<glyph unicode="&#xa3;" horiz-adv-x="929" d="M72 0v207h102v436h-88v170h88v330q0 167 102 253.5t254 86.5q143 0 229.5 -79.5t86.5 -219.5v-131h-215v127q0 50 -27.5 76t-75.5 26q-45 0 -74.5 -29t-29.5 -84v-356h264v-170h-264v-436h444l-37 -207h-759z" />
<glyph unicode="&#xa4;" horiz-adv-x="788" d="M164 391l-76 76l82 82q-53 71 -53 162q0 79 45 149l-84 84l74 74l81 -80q72 53 160 53q82 0 152 -45l82 82l75 -76l-81 -80q55 -78 55 -163q0 -79 -47 -152l82 -82l-74 -74l-82 80q-70 -51 -160 -51q-82 0 -149 45zM395 528q81 0 125.5 52t44.5 131q0 77 -47.5 129.5 t-122.5 52.5q-82 0 -126 -51.5t-44 -132.5q0 -74 46.5 -127.5t123.5 -53.5z" />
<glyph unicode="&#xa5;" horiz-adv-x="880" d="M311 0v483h-231v164h205l-273 813h271l172 -563l163 563h250l-270 -813h203v-164h-232v-483h-258z" />
<glyph unicode="&#xa6;" horiz-adv-x="598" d="M193 -94v737h172v-737h-172zM193 788v678h172v-678h-172z" />
<glyph unicode="&#xa7;" horiz-adv-x="815" d="M399 -88q-47 0 -89.5 8t-86 28.5t-74.5 52.5t-51 84.5t-20 119.5v74h196v-52q0 -70 35 -111.5t105 -41.5q62 0 90 42.5t28 98.5q0 104 -118 158q-80 33 -109 43q-225 87 -225 286q0 123 119 230q-60 45 -87.5 101.5t-27.5 140.5q0 134 86 217.5t240 83.5q141 0 226 -74 t85 -215v-72h-189v62q0 59 -31 97t-91 38q-58 0 -89.5 -35.5t-31.5 -91.5q0 -53 32.5 -91.5t77.5 -58.5l119 -49q45 -20 78.5 -41t70 -53.5t56.5 -78.5t20 -101q0 -143 -118 -240q126 -91 123 -240q0 -144 -96.5 -231.5t-252.5 -87.5zM463 565q78 40 78 117q0 73 -95 115 q-80 35 -96 39q-71 -49 -71 -125q0 -42 31 -70.5t69 -42.5z" />
<glyph unicode="&#xa8;" horiz-adv-x="655" d="M82 1210v281h190v-281h-190zM385 1210v281h190v-281h-190z" />
<glyph unicode="&#xa9;" horiz-adv-x="1480" d="M745 145q-140 0 -227.5 74.5t-87.5 212.5v553q0 138 88 216.5t227 78.5q135 0 218.5 -73t83.5 -195v-168h-197v155q0 41 -25 70t-75 29q-54 0 -79.5 -33t-25.5 -84v-537q0 -116 103 -116q53 0 77.5 28t24.5 68v160h197v-166q0 -127 -83.5 -200t-218.5 -73zM739 -90 q-161 0 -289 63t-208 173.5t-122 255t-42 313.5q0 164 45.5 308.5t128.5 253.5t209 172.5t278 63.5q158 0 285.5 -64t209 -174t124.5 -253.5t43 -306.5q0 -166 -43.5 -311t-125 -255.5t-208.5 -174.5t-285 -64zM741 29q228 0 373.5 187.5t145.5 498.5q0 315 -144 502.5 t-377 187.5t-375.5 -187t-142.5 -503q0 -317 145 -501.5t375 -184.5z" />
<glyph unicode="&#xaa;" horiz-adv-x="561" d="M203 799q-65 0 -106.5 48.5t-41.5 145.5t66.5 152t163.5 55h34v92q0 22 -13.5 36.5t-39.5 14.5q-27 0 -40 -15t-13 -36v-53h-143v55q0 76 56.5 122t149.5 46q94 0 147.5 -45.5t53.5 -128.5v-332q0 -89 8 -145h-147q-3 5 -8 63q-20 -39 -56 -57t-71 -18zM264 918 q22 0 38.5 18t16.5 45v125h-32q-34 0 -54 -24t-20 -72q0 -49 12 -70.5t39 -21.5zM88 602v133h389v-133h-389z" />
<glyph unicode="&#xab;" horiz-adv-x="808" d="M276 242l-235 319l233 322l127 -76l-116 -246l121 -248zM621 248l-234 313l234 313l127 -75l-117 -238l121 -239z" />
<glyph unicode="&#xac;" horiz-adv-x="958" d="M702 330v235h-634v164h806v-399h-172z" />
<glyph unicode="&#xad;" horiz-adv-x="485" d="M49 518v191h387v-191h-387z" />
<glyph unicode="&#xae;" horiz-adv-x="866" d="M434 631q-114 0 -201 61t-130.5 161t-43.5 222t47 223.5t134 161.5t196 60q168 0 272.5 -127.5t104.5 -317.5q0 -187 -104.5 -315.5t-274.5 -128.5zM434 713q119 0 202 99.5t83 262.5t-82.5 264t-202.5 101q-118 0 -198 -100.5t-80 -264.5t81.5 -263t196.5 -99zM287 823 v520h170q70 0 109.5 -42t39.5 -115q0 -51 -20 -90.5t-58 -57.5l93 -215h-115l-78 197h-35v-197h-106zM393 1102h45q30 0 46 20.5t16 55.5q0 34 -16 55.5t-46 21.5h-45v-153z" />
<glyph unicode="&#xaf;" horiz-adv-x="684" d="M111 1225v172h460v-172h-460z" />
<glyph unicode="&#xb0;" horiz-adv-x="507" d="M254 1118q-82 0 -135 53.5t-53 128.5q0 74 54.5 128.5t133.5 54.5q80 0 134 -54t54 -129t-55.5 -128.5t-132.5 -53.5zM254 1210q35 0 59.5 26t24.5 64q0 37 -23.5 63t-60.5 26t-60.5 -25.5t-23.5 -63.5t24.5 -64t59.5 -26z" />
<glyph unicode="&#xb1;" horiz-adv-x="878" d="M356 385v252h-272v170h272v262h168v-262h273v-170h-273v-252h-168zM88 96v168h700v-168h-700z" />
<glyph unicode="&#xb2;" horiz-adv-x="561" d="M70 778v111l170 235q96 150 96 240v10q0 78 -55 78q-30 0 -45 -21.5t-15 -54.5v-47h-164v55q0 100 61 157.5t165 57.5q109 0 168 -60t59 -167q0 -47 -11.5 -92.5t-38 -94t-45.5 -77.5t-57 -82l-69 -102h223v-146h-442z" />
<glyph unicode="&#xb3;" horiz-adv-x="571" d="M283 756q-116 0 -174 58.5t-58 158.5v47h166v-51q0 -34 17.5 -53t46.5 -19q59 0 59 109q0 58 -22.5 83t-51.5 25h-65v133h59q76 0 76 109q0 96 -60 96q-57 0 -57 -76v-39h-164v45q0 101 59.5 159t168.5 58q103 0 163 -58.5t60 -162.5q0 -67 -26.5 -118t-78.5 -72v-4 q58 -18 88.5 -70.5t30.5 -118.5q0 -124 -65.5 -181.5t-171.5 -57.5z" />
<glyph unicode="&#xb4;" horiz-adv-x="507" d="M82 1200l137 301h244l-205 -301h-176z" />
<glyph unicode="&#xb5;" horiz-adv-x="886" d="M82 -367v1457h242v-797q0 -111 98 -111q46 0 80.5 38t34.5 106v764h243v-746q0 -52 15 -77t53 -34l-2 -239q-184 14 -219 145q-53 -162 -193 -162q-62 0 -115 32.5t-69 92.5l-10 -4l75 -444z" />
<glyph unicode="&#xb6;" horiz-adv-x="897" d="M334 -133v602q-72 16 -125 59.5t-83 108.5t-44 141.5t-14 167.5q0 150 38 263.5t123.5 183t210.5 69.5h398v-135h-88v-1460h-150v1460h-115v-1460h-151z" />
<glyph unicode="&#xb7;" horiz-adv-x="387" d="M80 575v299h229v-299h-229z" />
<glyph unicode="&#xb8;" horiz-adv-x="561" d="M250 -393q-94 0 -166 22v113q90 -23 156 -23q69 0 69 45q0 42 -76 46l-73 6l49 211h100l-30 -129q36 0 67 -5.5t62 -18t49 -39t18 -64.5q0 -74 -65.5 -119t-159.5 -45z" />
<glyph unicode="&#xb9;" horiz-adv-x="434" d="M147 778v654l-73 -19l-23 127l166 57h98v-819h-168z" />
<glyph unicode="&#xba;" horiz-adv-x="563" d="M281 801q-99 0 -158.5 48t-59.5 142v281q0 91 62 141.5t156 50.5q93 0 155 -48t62 -140v-285q0 -92 -61 -141t-156 -49zM279 922q59 0 59 61v295q0 61 -59 61q-56 0 -56 -61v-295q0 -61 56 -61zM90 602v131h387v-131h-387z" />
<glyph unicode="&#xbb;" horiz-adv-x="808" d="M172 250l-127 76l115 237l-119 240l129 71l233 -309zM516 242l-127 75l117 246l-121 246l129 74l238 -318z" />
<glyph unicode="&#xbc;" horiz-adv-x="1294" d="M205 647v653l-74 -18l-22 127l165 57h99v-819h-168zM969 0v180h-271v127l228 510h178l-240 -500h105v117l166 123v-240h65v-137h-65v-180h-166zM242 -2l620 1468h123l-620 -1468h-123z" />
<glyph unicode="&#xbd;" horiz-adv-x="1294" d="M203 647v653l-74 -18l-23 127l166 57h99v-819h-168zM756 0v111l170 235q96 150 96 240v10q0 78 -55 78q-30 0 -45 -21.5t-15 -54.5v-47h-164v55q0 100 61 157.5t165 57.5q109 0 168 -60t59 -167q0 -47 -11.5 -92.5t-38 -94t-45.5 -77.5t-57 -82l-69 -103h223v-145h-442z M225 -2l621 1468h123l-621 -1468h-123z" />
<glyph unicode="&#xbe;" horiz-adv-x="1294" d="M995 0v180h-270v127l227 510h178l-239 -500h104v117l166 123v-240h66v-137h-66v-180h-166zM289 625q-116 0 -174 58.5t-58 158.5v47h166v-51q0 -34 17.5 -53t46.5 -19q59 0 59 108q0 58 -22.5 83.5t-51.5 25.5h-65v133h59q76 0 76 109q0 96 -59 96q-58 0 -58 -76v-39 h-164v45q0 101 59.5 159t168.5 58q103 0 163 -58.5t60 -162.5q0 -68 -26 -118.5t-78 -71.5v-4q57 -18 87.5 -70t30.5 -119q0 -124 -65.5 -181.5t-171.5 -57.5zM297 -2l621 1468h122l-620 -1468h-123z" />
<glyph unicode="&#xbf;" horiz-adv-x="774" d="M526 731v-55q-3 -179 -98 -330q-4 -6 -21 -32.5t-22.5 -35.5t-19.5 -33.5t-19.5 -38t-15 -37.5t-13 -43.5t-7 -45t-3.5 -51.5q0 -64 24.5 -107t76.5 -43q47 0 72.5 35.5t25.5 97.5v105h209v-105q0 -157 -87.5 -249.5t-236.5 -92.5q-154 0 -238.5 96.5t-86.5 266.5 q0 78 23.5 153.5t48 118.5t65.5 103q67 105 86 155q19 52 20 99v69h217zM528 1151v-299h-229v299h229z" />
<glyph unicode="&#xc0;" horiz-adv-x="1024" d="M45 0l297 1462h352l285 -1462h-260l-68 354h-301l-65 -354h-240zM391 563h219l-104 606h-6zM428 1561l-205 301h244l137 -301h-176z" />
<glyph unicode="&#xc1;" horiz-adv-x="1024" d="M45 0l297 1462h352l285 -1462h-260l-68 354h-301l-65 -354h-240zM391 563h219l-104 606h-6zM424 1561l137 301h244l-205 -301h-176z" />
<glyph unicode="&#xc2;" horiz-adv-x="1024" d="M45 0l297 1462h352l285 -1462h-260l-68 354h-301l-65 -354h-240zM391 563h219l-104 606h-6zM250 1561l180 309h176l178 -309h-188l-82 159l-82 -159h-182z" />
<glyph unicode="&#xc3;" horiz-adv-x="1024" d="M45 0l297 1462h352l285 -1462h-260l-68 354h-301l-65 -354h-240zM391 563h219l-104 606h-6zM324 1567l-125 28q16 100 63.5 163t122.5 63q43 0 124 -30t120 -30q29 0 45.5 17.5t30.5 58.5l114 -29q-13 -96 -61 -160.5t-125 -64.5q-41 0 -124.5 29.5t-113.5 29.5 q-31 0 -46 -15.5t-25 -59.5z" />
<glyph unicode="&#xc4;" horiz-adv-x="1024" d="M45 0l297 1462h352l285 -1462h-260l-68 354h-301l-65 -354h-240zM391 563h219l-104 606h-6zM264 1571v280h191v-280h-191zM567 1571v280h191v-280h-191z" />
<glyph unicode="&#xc5;" horiz-adv-x="1024" d="M45 0l297 1462h352l285 -1462h-260l-68 354h-301l-65 -354h-240zM391 563h219l-104 606h-6zM520 1530q-83 0 -135.5 52t-52.5 132q0 82 54 136.5t136 54.5q85 0 137 -50.5t52 -132.5q0 -81 -55.5 -136.5t-135.5 -55.5zM522 1624q39 0 63.5 26t24.5 68q0 43 -23 70t-65 27 q-39 0 -62.5 -27.5t-23.5 -69.5t24.5 -68t61.5 -26z" />
<glyph unicode="&#xc6;" horiz-adv-x="1392" d="M33 0l473 1460h817v-219h-412v-379h328v-221h-328v-420h414v-221h-672v383h-258l-106 -383h-256zM465 580h188v618h-8z" />
<glyph unicode="&#xc7;" horiz-adv-x="929" d="M483 -393q-94 0 -166 22v113q90 -23 156 -23q70 0 70 45q0 42 -76 46l-74 6l39 166q-162 12 -257 105.5t-95 258.5v770q0 170 114 268.5t291 98.5q165 0 270 -91.5t105 -248.5v-162h-233v137q0 65 -38 103.5t-104 38.5q-72 0 -107.5 -40.5t-35.5 -109.5v-750 q0 -74 37.5 -113.5t107.5 -39.5q64 0 102 37.5t38 99.5v137h233v-151q0 -149 -90 -241.5t-238 -106.5l-20 -84q36 0 67 -5.5t62 -18t49.5 -39t18.5 -64.5q0 -74 -66 -119t-160 -45z" />
<glyph unicode="&#xc8;" horiz-adv-x="835" d="M96 0v1460h670v-219h-414v-377h330v-221h-330v-422h416v-221h-672zM379 1561l-205 301h244l137 -301h-176z" />
<glyph unicode="&#xc9;" horiz-adv-x="835" d="M332 1561l137 301h244l-205 -301h-176zM96 0v1460h670v-219h-414v-377h330v-221h-330v-422h416v-221h-672z" />
<glyph unicode="&#xca;" horiz-adv-x="835" d="M152 1561l180 309h176l178 -309h-188l-82 159l-82 -159h-182zM96 0v1460h670v-219h-414v-377h330v-221h-330v-422h416v-221h-672z" />
<glyph unicode="&#xcb;" horiz-adv-x="835" d="M201 1571v280h190v-280h-190zM504 1571v280h190v-280h-190zM96 0v1460h670v-219h-414v-377h330v-221h-330v-422h416v-221h-672z" />
<glyph unicode="&#xcc;" horiz-adv-x="450" d="M96 0v1460h258v-1460h-258zM135 1561l-205 301h244l137 -301h-176z" />
<glyph unicode="&#xcd;" horiz-adv-x="450" d="M96 0v1460h258v-1460h-258zM131 1561l137 301h244l-205 -301h-176z" />
<glyph unicode="&#xce;" horiz-adv-x="450" d="M96 0v1460h258v-1460h-258zM-41 1561l180 309h176l179 -309h-189l-82 159l-82 -159h-182z" />
<glyph unicode="&#xcf;" horiz-adv-x="450" d="M96 0v1460h258v-1460h-258zM-20 1571v280h190v-280h-190zM283 1571v280h190v-280h-190z" />
<glyph unicode="&#xd0;" horiz-adv-x="993" d="M43 678v164h84v618h403q168 0 275.5 -87.5t107.5 -252.5v-760q0 -177 -107.5 -268.5t-279.5 -91.5h-399v678h-84zM383 221h121q75 0 111 45.5t36 108.5v719q0 66 -37.5 105.5t-111.5 39.5h-119v-397h192v-164h-192v-457z" />
<glyph unicode="&#xd1;" horiz-adv-x="1015" d="M96 0v1460h266l324 -844h6v844h230v-1460h-234l-358 936h-4v-936h-230zM342 1567l-125 28q16 100 63.5 163t122.5 63q43 0 124 -30t120 -30q29 0 45.5 17.5t30.5 58.5l115 -29q-13 -95 -61.5 -160t-125.5 -65q-41 0 -124 29.5t-113 29.5q-31 0 -46.5 -15.5t-25.5 -59.5z " />
<glyph unicode="&#xd2;" horiz-adv-x="972" d="M485 -20q-188 0 -296.5 97t-108.5 288v733q0 183 113.5 284t293.5 101q116 0 205.5 -39.5t145 -126t55.5 -211.5v-735q0 -190 -114.5 -290.5t-293.5 -100.5zM487 207q69 0 106.5 42.5t37.5 110.5v752q0 67 -39 106t-107 39q-70 0 -106.5 -40.5t-36.5 -108.5v-748 q0 -68 37.5 -110.5t107.5 -42.5zM408 1561l-205 301h243l138 -301h-176z" />
<glyph unicode="&#xd3;" horiz-adv-x="972" d="M399 1561l138 301h243l-205 -301h-176zM485 -20q-188 0 -296.5 97t-108.5 288v733q0 183 113.5 284t293.5 101q116 0 205.5 -39.5t145 -126t55.5 -211.5v-735q0 -190 -114.5 -290.5t-293.5 -100.5zM487 207q69 0 106.5 42.5t37.5 110.5v752q0 67 -39 106t-107 39 q-70 0 -106.5 -40.5t-36.5 -108.5v-748q0 -68 37.5 -110.5t107.5 -42.5z" />
<glyph unicode="&#xd4;" horiz-adv-x="972" d="M215 1561l180 309h176l179 -309h-189l-82 159l-82 -159h-182zM485 -20q-188 0 -296.5 97t-108.5 288v733q0 183 113.5 284t293.5 101q116 0 205.5 -39.5t145 -126t55.5 -211.5v-735q0 -190 -114.5 -290.5t-293.5 -100.5zM487 207q69 0 106.5 42.5t37.5 110.5v752 q0 67 -39 106t-107 39q-70 0 -106.5 -40.5t-36.5 -108.5v-748q0 -68 37.5 -110.5t107.5 -42.5z" />
<glyph unicode="&#xd5;" horiz-adv-x="972" d="M485 -20q-188 0 -296.5 97t-108.5 288v733q0 183 113.5 284t293.5 101q116 0 205.5 -39.5t145 -126t55.5 -211.5v-735q0 -190 -114.5 -290.5t-293.5 -100.5zM487 207q69 0 106.5 42.5t37.5 110.5v752q0 67 -39 106t-107 39q-70 0 -106.5 -40.5t-36.5 -108.5v-748 q0 -68 37.5 -110.5t107.5 -42.5zM293 1567l-125 28q16 100 63.5 163t122.5 63q42 0 123 -30t121 -30q29 0 45.5 17.5t30.5 58.5l114 -29q-13 -96 -61 -160.5t-125 -64.5q-41 0 -124 29.5t-113 29.5q-31 0 -46.5 -15.5t-25.5 -59.5z" />
<glyph unicode="&#xd6;" horiz-adv-x="972" d="M238 1571v280h190v-280h-190zM541 1571v280h190v-280h-190zM485 -20q-188 0 -296.5 97t-108.5 288v733q0 183 113.5 284t293.5 101q116 0 205.5 -39.5t145 -126t55.5 -211.5v-735q0 -190 -114.5 -290.5t-293.5 -100.5zM487 207q69 0 106.5 42.5t37.5 110.5v752 q0 67 -39 106t-107 39q-70 0 -106.5 -40.5t-36.5 -108.5v-748q0 -68 37.5 -110.5t107.5 -42.5z" />
<glyph unicode="&#xd7;" horiz-adv-x="878" d="M207 297l-119 119l236 239l-238 238l119 119l237 -236q31 33 234 236l119 -121l-234 -234q25 -27 122 -125.5t112 -113.5l-119 -119l-234 236q-87 -83 -235 -238z" />
<glyph unicode="&#xd8;" horiz-adv-x="972" d="M252 -100l-107 30l50 140q-115 98 -115 295v733q0 183 113.5 284t293.5 101q112 0 199 -37l41 115l107 -31l-52 -146q111 -103 111 -278v-735q0 -190 -114.5 -290.5t-293.5 -100.5q-115 0 -194 32zM342 1108v-627l258 725q-39 51 -115 51q-70 0 -106.5 -40.5 t-36.5 -108.5zM487 207q69 0 106.5 42.5t37.5 110.5v601l-254 -709q39 -45 110 -45z" />
<glyph unicode="&#xd9;" horiz-adv-x="968" d="M477 -23q-184 0 -286.5 94t-102.5 281v1108h262v-1095q0 -79 39.5 -119.5t104.5 -40.5q67 0 103 42.5t36 114.5v1098h246v-1100q1 -180 -111 -281.5t-291 -101.5zM422 1561l-205 301h244l137 -301h-176z" />
<glyph unicode="&#xda;" horiz-adv-x="968" d="M403 1561l138 301h243l-204 -301h-177zM477 -23q-184 0 -286.5 94t-102.5 281v1108h262v-1095q0 -79 39.5 -119.5t104.5 -40.5q67 0 103 42.5t36 114.5v1098h246v-1100q1 -180 -111 -281.5t-291 -101.5z" />
<glyph unicode="&#xdb;" horiz-adv-x="968" d="M223 1561l180 309h177l178 -309h-189l-82 159l-81 -159h-183zM477 -23q-184 0 -286.5 94t-102.5 281v1108h262v-1095q0 -79 39.5 -119.5t104.5 -40.5q67 0 103 42.5t36 114.5v1098h246v-1100q1 -180 -111 -281.5t-291 -101.5z" />
<glyph unicode="&#xdc;" horiz-adv-x="968" d="M246 1571v280h190v-280h-190zM549 1571v280h190v-280h-190zM477 -23q-184 0 -286.5 94t-102.5 281v1108h262v-1095q0 -79 39.5 -119.5t104.5 -40.5q67 0 103 42.5t36 114.5v1098h246v-1100q1 -180 -111 -281.5t-291 -101.5z" />
<glyph unicode="&#xdd;" horiz-adv-x="890" d="M317 0v586l-301 874h275l172 -567l166 567h245l-299 -874v-586h-258zM373 1561l137 301h244l-205 -301h-176z" />
<glyph unicode="&#xde;" horiz-adv-x="921" d="M88 0v1460h260v-270h160q352 0 352 -428q0 -219 -90 -341t-274 -122h-148v-299h-260zM348 504h111q147 0 147 252q0 113 -33 169t-108 56h-117v-477z" />
<glyph unicode="&#xdf;" horiz-adv-x="958" d="M627 -12q-103 0 -174 22l24 193q53 -17 92 -17q38 0 62.5 25t32.5 57.5t8 73.5q0 98 -51 178.5t-132 120.5v188h23q49 52 80 131.5t31 149.5q0 73 -30.5 121.5t-86.5 48.5q-57 0 -86 -43.5t-29 -112.5v-1124h-239v895h-99v186h99v39q0 161 94 259t280 98q166 0 254 -94 t88 -238q0 -110 -39.5 -214t-117.5 -165v-4q94 -82 147 -196t53 -228q0 -150 -73 -250t-211 -100z" />
<glyph unicode="&#xe0;" horiz-adv-x="819" d="M299 -20q-105 0 -172.5 82.5t-67.5 246.5q0 165 106 259.5t263 97.5h64v165q0 41 -24.5 66t-72.5 25t-71 -25t-23 -66v-92h-219v97q0 126 91 202t239 76q147 0 233 -77.5t86 -213.5v-571q0 -52 5 -149t5 -103h-221q0 3 -1.5 18t-4 41.5t-4.5 51.5h-6q-28 -66 -88.5 -98.5 t-116.5 -32.5zM389 168q41 0 72 36.5t31 88.5v225h-58q-59 0 -96 -45.5t-37 -134.5q0 -170 88 -170zM336 1200l-205 301h244l137 -301h-176z" />
<glyph unicode="&#xe1;" horiz-adv-x="819" d="M299 -20q-105 0 -172.5 82.5t-67.5 246.5q0 165 106 259.5t263 97.5h64v165q0 41 -24.5 66t-72.5 25t-71 -25t-23 -66v-92h-219v97q0 126 91 202t239 76q147 0 233 -77.5t86 -213.5v-571q0 -52 5 -149t5 -103h-221q0 3 -1.5 18t-4 41.5t-4.5 51.5h-6q-28 -66 -88.5 -98.5 t-116.5 -32.5zM389 168q41 0 72 36.5t31 88.5v225h-58q-59 0 -96 -45.5t-37 -134.5q0 -170 88 -170zM301 1200l137 301h244l-205 -301h-176z" />
<glyph unicode="&#xe2;" horiz-adv-x="819" d="M299 -20q-105 0 -172.5 82.5t-67.5 246.5q0 165 106 259.5t263 97.5h64v165q0 41 -24.5 66t-72.5 25t-71 -25t-23 -66v-92h-219v97q0 126 91 202t239 76q147 0 233 -77.5t86 -213.5v-571q0 -52 5 -149t5 -103h-221q0 3 -1.5 18t-4 41.5t-4.5 51.5h-6q-28 -66 -88.5 -98.5 t-116.5 -32.5zM389 168q41 0 72 36.5t31 88.5v225h-58q-59 0 -96 -45.5t-37 -134.5q0 -170 88 -170zM135 1200l180 309h177l178 -309h-189l-82 160l-82 -160h-182z" />
<glyph unicode="&#xe3;" horiz-adv-x="819" d="M299 -20q-105 0 -172.5 82.5t-67.5 246.5q0 165 106 259.5t263 97.5h64v165q0 41 -24.5 66t-72.5 25t-71 -25t-23 -66v-92h-219v97q0 126 91 202t239 76q147 0 233 -77.5t86 -213.5v-571q0 -52 5 -149t5 -103h-221q0 3 -1.5 18t-4 41.5t-4.5 51.5h-6q-28 -66 -88.5 -98.5 t-116.5 -32.5zM389 168q41 0 72 36.5t31 88.5v225h-58q-59 0 -96 -45.5t-37 -134.5q0 -170 88 -170zM221 1206l-125 29q16 99 64 162t123 63q43 0 123 -29.5t120 -29.5q29 0 45.5 17.5t30.5 58.5l115 -29q-13 -95 -61.5 -160t-125.5 -65q-41 0 -124 29.5t-113 29.5 q-31 0 -46.5 -16t-25.5 -60z" />
<glyph unicode="&#xe4;" horiz-adv-x="819" d="M299 -20q-105 0 -172.5 82.5t-67.5 246.5q0 165 106 259.5t263 97.5h64v165q0 41 -24.5 66t-72.5 25t-71 -25t-23 -66v-92h-219v97q0 126 91 202t239 76q147 0 233 -77.5t86 -213.5v-571q0 -52 5 -149t5 -103h-221q0 3 -1.5 18t-4 41.5t-4.5 51.5h-6q-28 -66 -88.5 -98.5 t-116.5 -32.5zM389 168q41 0 72 36.5t31 88.5v225h-58q-59 0 -96 -45.5t-37 -134.5q0 -170 88 -170zM160 1210v281h190v-281h-190zM463 1210v281h190v-281h-190z" />
<glyph unicode="&#xe5;" horiz-adv-x="819" d="M299 -20q-105 0 -172.5 82.5t-67.5 246.5q0 165 106 259.5t263 97.5h64v165q0 41 -24.5 66t-72.5 25t-71 -25t-23 -66v-92h-219v97q0 126 91 202t239 76q147 0 233 -77.5t86 -213.5v-571q0 -52 5 -149t5 -103h-221q0 3 -1.5 18t-4 41.5t-4.5 51.5h-6q-28 -66 -88.5 -98.5 t-116.5 -32.5zM389 168q41 0 72 36.5t31 88.5v225h-58q-59 0 -96 -45.5t-37 -134.5q0 -170 88 -170zM408 1182q-83 0 -136 52t-53 132q0 82 54.5 136t136.5 54q85 0 136.5 -50t51.5 -132q0 -81 -55 -136.5t-135 -55.5zM410 1276q39 0 63.5 26t24.5 68q0 43 -23 69.5 t-65 26.5q-39 0 -62.5 -27t-23.5 -69t24.5 -68t61.5 -26z" />
<glyph unicode="&#xe6;" horiz-adv-x="1216" d="M299 -23q-105 0 -172.5 83.5t-67.5 248.5t106 260t263 97h64v165q0 41 -24.5 66t-72.5 25t-71 -25t-23 -66v-92h-219v97q0 126 91 202t239 76q138 0 211 -70q90 70 213 70q145 0 228 -84t83 -229v-340h-412v-131q0 -75 38.5 -115.5t111.5 -40.5q91 0 205 43l45 -174 q-129 -66 -293 -66q-206 0 -293 136q-24 -41 -58.5 -70t-71 -42.5t-65 -18.5t-55.5 -5zM393 168q41 0 70 33t29 84v233h-58q-59 0 -96 -45.5t-37 -134.5q0 -87 25 -128.5t67 -41.5zM735 633h197v176q0 50 -24 81.5t-74 31.5q-49 0 -74 -33t-25 -80v-176z" />
<glyph unicode="&#xe7;" horiz-adv-x="796" d="M414 -393q-94 0 -166 22v113q90 -23 155 -23q70 0 70 45q0 42 -76 46l-73 6l38 166q-130 14 -207 95t-77 220v489q0 154 96.5 241t241.5 87q144 0 229.5 -78t85.5 -200v-103h-215v86q0 43 -24 71t-72 28q-50 0 -75.5 -32.5t-25.5 -82.5v-512q0 -53 25 -86t76 -33 t73.5 29.5t22.5 70.5v86h215v-98q0 -121 -71.5 -192.5t-196.5 -83.5l-21 -86q36 0 67 -5.5t62 -18t49.5 -39t18.5 -64.5q0 -74 -65.5 -119t-159.5 -45z" />
<glyph unicode="&#xe8;" horiz-adv-x="800" d="M424 -23q-158 0 -252 83t-94 241v473q0 158 96.5 249t243.5 91t230 -86t83 -231v-336h-414v-131q0 -76 40 -116t114 -40q81 0 203 43l45 -174q-135 -66 -295 -66zM317 633h199v176q0 49 -24 81t-74 32q-49 0 -75 -33.5t-26 -81.5v-174zM354 1200l-204 301h243l137 -301 h-176z" />
<glyph unicode="&#xe9;" horiz-adv-x="800" d="M319 1200l138 301h243l-204 -301h-177zM424 -23q-158 0 -252 83t-94 241v473q0 158 96.5 249t243.5 91t230 -86t83 -231v-336h-414v-131q0 -76 40 -116t114 -40q81 0 203 43l45 -174q-135 -66 -295 -66zM317 633h199v176q0 49 -24 81t-74 32q-49 0 -75 -33.5t-26 -81.5 v-174z" />
<glyph unicode="&#xea;" horiz-adv-x="800" d="M162 1200l180 309h176l178 -309h-188l-82 160l-82 -160h-182zM424 -23q-158 0 -252 83t-94 241v473q0 158 96.5 249t243.5 91t230 -86t83 -231v-336h-414v-131q0 -76 40 -116t114 -40q81 0 203 43l45 -174q-135 -66 -295 -66zM317 633h199v176q0 49 -24 81t-74 32 q-49 0 -75 -33.5t-26 -81.5v-174z" />
<glyph unicode="&#xeb;" horiz-adv-x="800" d="M170 1210v281h190v-281h-190zM473 1210v281h191v-281h-191zM424 -23q-158 0 -252 83t-94 241v473q0 158 96.5 249t243.5 91t230 -86t83 -231v-336h-414v-131q0 -76 40 -116t114 -40q81 0 203 43l45 -174q-135 -66 -295 -66zM317 633h199v176q0 49 -24 81t-74 32 q-49 0 -75 -33.5t-26 -81.5v-174z" />
<glyph unicode="&#xec;" horiz-adv-x="428" d="M94 0v1090h240v-1090h-240zM125 1200l-205 301h244l137 -301h-176z" />
<glyph unicode="&#xed;" horiz-adv-x="428" d="M123 1200l137 301h244l-205 -301h-176zM94 0v1090h240v-1090h-240z" />
<glyph unicode="&#xee;" horiz-adv-x="428" d="M-51 1200l180 309h176l178 -309h-188l-82 160l-82 -160h-182zM94 0v1090h240v-1090h-240z" />
<glyph unicode="&#xef;" horiz-adv-x="428" d="M-29 1210v281h191v-281h-191zM274 1210v281h191v-281h-191zM94 0v1090h240v-1090h-240z" />
<glyph unicode="&#xf0;" horiz-adv-x="833" d="M137 1169l-59 131l147 31l-67 115l243 51l66 -117l145 31l62 -129l-133 -29l178 -311q45 -74 45 -164v-477q0 -158 -96.5 -239.5t-247.5 -81.5q-155 0 -248.5 80t-93.5 239v471q0 134 71 217.5t195 95.5q24 0 31 -4l-74 125zM422 172q100 0 100 115v493q0 52 -25.5 83.5 t-74.5 31.5q-50 0 -76.5 -33t-26.5 -82v-497q0 -48 26 -79.5t77 -31.5z" />
<glyph unicode="&#xf1;" d="M94 0v1090h236v-101h2q78 125 227 125q94 0 155.5 -60t61.5 -159v-895h-239v801q0 50 -22.5 80t-70.5 30t-78 -43t-30 -104v-764h-242zM276 1206l-124 29q16 99 63.5 162t122.5 63q42 0 123 -29.5t121 -29.5q29 0 44.5 17.5t30.5 58.5l115 -29q-13 -96 -61 -160.5 t-125 -64.5q-41 0 -124.5 29.5t-113.5 29.5q-31 0 -46.5 -16t-25.5 -60z" />
<glyph unicode="&#xf2;" horiz-adv-x="839" d="M420 -20q-155 0 -248.5 81.5t-93.5 239.5v487q0 153 98.5 239.5t243.5 86.5q147 0 245.5 -82t98.5 -235v-494q0 -158 -97 -240.5t-247 -82.5zM422 172q100 0 100 117v512q0 50 -26.5 83.5t-75.5 33.5q-51 0 -76 -34t-25 -85v-512q0 -49 26 -82t77 -33zM340 1200l-205 301 h244l137 -301h-176z" />
<glyph unicode="&#xf3;" horiz-adv-x="839" d="M322 1200l137 301h243l-204 -301h-176zM420 -20q-155 0 -248.5 81.5t-93.5 239.5v487q0 153 98.5 239.5t243.5 86.5q147 0 245.5 -82t98.5 -235v-494q0 -158 -97 -240.5t-247 -82.5zM422 172q100 0 100 117v512q0 50 -26.5 83.5t-75.5 33.5q-51 0 -76 -34t-25 -85v-512 q0 -49 26 -82t77 -33z" />
<glyph unicode="&#xf4;" horiz-adv-x="839" d="M160 1200l180 309h176l178 -309h-188l-82 160l-82 -160h-182zM420 -20q-155 0 -248.5 81.5t-93.5 239.5v487q0 153 98.5 239.5t243.5 86.5q147 0 245.5 -82t98.5 -235v-494q0 -158 -97 -240.5t-247 -82.5zM422 172q100 0 100 117v512q0 50 -26.5 83.5t-75.5 33.5 q-51 0 -76 -34t-25 -85v-512q0 -49 26 -82t77 -33z" />
<glyph unicode="&#xf5;" horiz-adv-x="839" d="M420 -20q-155 0 -248.5 81.5t-93.5 239.5v487q0 153 98.5 239.5t243.5 86.5q147 0 245.5 -82t98.5 -235v-494q0 -158 -97 -240.5t-247 -82.5zM422 172q100 0 100 117v512q0 50 -26.5 83.5t-75.5 33.5q-51 0 -76 -34t-25 -85v-512q0 -49 26 -82t77 -33zM236 1206l-125 29 q16 99 63.5 162t122.5 63q43 0 124 -29.5t120 -29.5q29 0 44.5 17.5t30.5 58.5l115 -29q-13 -96 -61 -160.5t-125 -64.5q-41 0 -124.5 29.5t-113.5 29.5q-31 0 -46 -16t-25 -60z" />
<glyph unicode="&#xf6;" horiz-adv-x="839" d="M176 1210v281h191v-281h-191zM479 1210v281h191v-281h-191zM420 -20q-155 0 -248.5 81.5t-93.5 239.5v487q0 153 98.5 239.5t243.5 86.5q147 0 245.5 -82t98.5 -235v-494q0 -158 -97 -240.5t-247 -82.5zM422 172q100 0 100 117v512q0 50 -26.5 83.5t-75.5 33.5 q-51 0 -76 -34t-25 -85v-512q0 -49 26 -82t77 -33z" />
<glyph unicode="&#xf7;" horiz-adv-x="878" d="M344 227v236h193v-236h-193zM98 569v168h684v-168h-684zM344 836v235h193v-235h-193z" />
<glyph unicode="&#xf8;" horiz-adv-x="839" d="M238 -104l-93 30l43 119q-110 83 -110 256v487q0 153 98.5 239.5t243.5 86.5q78 0 149 -27l39 109l92 -31l-45 -125q109 -88 109 -243v-494q0 -158 -97 -240.5t-247 -82.5q-72 0 -144 20zM319 799v-396l175 482q-29 33 -74 33q-51 0 -76 -34t-25 -85zM422 172 q100 0 100 117v387l-174 -477q27 -27 74 -27z" />
<glyph unicode="&#xf9;" d="M303 -23q-93 0 -154 60.5t-61 161.5v891h238v-803q0 -107 94 -107q48 0 79 44t31 104v762h238v-1090h-233v109h-3q-38 -63 -97.5 -97.5t-131.5 -34.5zM342 1200l-205 301h244l137 -301h-176z" />
<glyph unicode="&#xfa;" d="M338 1200l137 301h244l-205 -301h-176zM303 -23q-93 0 -154 60.5t-61 161.5v891h238v-803q0 -107 94 -107q48 0 79 44t31 104v762h238v-1090h-233v109h-3q-38 -63 -97.5 -97.5t-131.5 -34.5z" />
<glyph unicode="&#xfb;" d="M168 1200l180 309h176l178 -309h-188l-82 160l-82 -160h-182zM303 -23q-93 0 -154 60.5t-61 161.5v891h238v-803q0 -107 94 -107q48 0 79 44t31 104v762h238v-1090h-233v109h-3q-38 -63 -97.5 -97.5t-131.5 -34.5z" />
<glyph unicode="&#xfc;" d="M184 1210v281h191v-281h-191zM487 1210v281h191v-281h-191zM303 -23q-93 0 -154 60.5t-61 161.5v891h238v-803q0 -107 94 -107q48 0 79 44t31 104v762h238v-1090h-233v109h-3q-38 -63 -97.5 -97.5t-131.5 -34.5z" />
<glyph unicode="&#xfd;" horiz-adv-x="770" d="M211 -350q-73 0 -139 16l24 191q72 -13 86 -13q67 0 86 68l23 98l-273 1080h250l140 -687h6l118 687h220l-263 -1160q-35 -143 -103 -211.5t-175 -68.5zM313 1200l138 301h243l-205 -301h-176z" />
<glyph unicode="&#xfe;" horiz-adv-x="839" d="M86 -330v1790h240v-473h4q34 58 94 91.5t119 33.5q117 0 172 -71.5t55 -188.5v-616q0 -111 -69 -183.5t-187 -72.5q-53 0 -103 24t-81 70h-2v-404h-242zM432 170q44 0 71 28.5t27 80.5v534q0 48 -25 77.5t-69 29.5q-48 0 -78 -35t-30 -101v-491q0 -57 30 -90t74 -33z" />
<glyph unicode="&#xff;" horiz-adv-x="770" d="M211 -350q-73 0 -139 16l24 191q72 -13 86 -13q67 0 86 68l23 98l-273 1080h250l140 -687h6l118 687h220l-263 -1160q-35 -143 -103 -211.5t-175 -68.5zM156 1210v281h190v-281h-190zM459 1210v281h190v-281h-190z" />
<glyph unicode="&#x152;" horiz-adv-x="1376" d="M446 -16q-366 0 -366 385v725q0 188 98.5 287.5t274.5 99.5q52 0 102 -18t80 -48v45h672v-219h-414v-379h330v-221h-330v-420h416v-221h-674v55q-29 -31 -82 -51t-107 -20zM489 209q69 0 107.5 44t38.5 112v745q0 67 -41 105t-109 38q-69 0 -106 -40.5t-37 -106.5v-741 q0 -69 38 -112.5t109 -43.5z" />
<glyph unicode="&#x153;" horiz-adv-x="1247" d="M420 -23q-154 0 -248 82.5t-94 241.5v487q0 153 98.5 239.5t243.5 86.5q138 0 227 -74q90 74 219 74q148 0 230 -86t82 -231v-336h-412v-131q0 -76 39 -116t113 -40q75 0 202 43l47 -174q-132 -66 -293 -66q-144 0 -231 72q-87 -72 -223 -72zM422 172q100 0 100 117v512 q0 50 -26.5 83.5t-75.5 33.5q-51 0 -76 -34t-25 -85v-512q0 -49 26 -82t77 -33zM766 633h199v176q0 50 -25 81.5t-76 31.5q-48 0 -73 -33t-25 -80v-176z" />
<glyph unicode="&#x178;" horiz-adv-x="890" d="M317 0v586l-301 874h275l172 -567l166 567h245l-299 -874v-586h-258zM211 1571v280h190v-280h-190zM514 1571v280h191v-280h-191z" />
<glyph unicode="&#x2c6;" horiz-adv-x="626" d="M47 1200l180 309h176l179 -309h-189l-82 160l-82 -160h-182z" />
<glyph unicode="&#x2dc;" horiz-adv-x="722" d="M182 1206l-125 29q16 99 64 162t123 63q42 0 123 -29.5t120 -29.5q29 0 45.5 17.5t30.5 58.5l115 -29q-13 -96 -61 -160.5t-125 -64.5q-41 0 -124.5 29.5t-113.5 29.5q-31 0 -46.5 -16t-25.5 -60z" />
<glyph unicode="&#x2000;" horiz-adv-x="952" />
<glyph unicode="&#x2001;" horiz-adv-x="1905" />
<glyph unicode="&#x2002;" horiz-adv-x="952" />
<glyph unicode="&#x2003;" horiz-adv-x="1905" />
<glyph unicode="&#x2004;" horiz-adv-x="635" />
<glyph unicode="&#x2005;" horiz-adv-x="476" />
<glyph unicode="&#x2006;" horiz-adv-x="317" />
<glyph unicode="&#x2007;" horiz-adv-x="317" />
<glyph unicode="&#x2008;" horiz-adv-x="238" />
<glyph unicode="&#x2009;" horiz-adv-x="381" />
<glyph unicode="&#x200a;" horiz-adv-x="105" />
<glyph unicode="&#x2010;" horiz-adv-x="485" d="M49 518v191h387v-191h-387z" />
<glyph unicode="&#x2011;" horiz-adv-x="485" d="M49 518v191h387v-191h-387z" />
<glyph unicode="&#x2012;" horiz-adv-x="485" d="M49 518v191h387v-191h-387z" />
<glyph unicode="&#x2013;" horiz-adv-x="751" d="M0 545v160h752v-160h-752z" />
<glyph unicode="&#x2014;" horiz-adv-x="1290" d="M0 545v160h1290v-160h-1290z" />
<glyph unicode="&#x2018;" horiz-adv-x="385" d="M78 930v270l88 262h117l-56 -250h78v-282h-227z" />
<glyph unicode="&#x2019;" horiz-adv-x="385" d="M104 928l52 250h-76v282h227v-268l-88 -264h-115z" />
<glyph unicode="&#x201a;" horiz-adv-x="385" d="M109 -207l45 221l-76 29l10 256l219 -27l-4 -272l-90 -236z" />
<glyph unicode="&#x201c;" horiz-adv-x="720" d="M78 930v270l88 262h117l-56 -250h78v-282h-227zM414 930v270l88 262h116l-53 -250h78v-282h-229z" />
<glyph unicode="&#x201d;" horiz-adv-x="720" d="M104 928l52 250h-78v282h229v-268l-88 -264h-115zM440 928l54 250h-78v282h229v-268l-90 -264h-115z" />
<glyph unicode="&#x201e;" horiz-adv-x="720" d="M104 -236l52 250h-78v285h229v-270l-88 -265h-115zM440 -236l54 250h-78v285h229v-270l-90 -265h-115z" />
<glyph unicode="&#x2022;" horiz-adv-x="770" d="M387 451q-115 0 -195.5 81t-80.5 195q0 116 80.5 196.5t195.5 80.5q113 0 192.5 -81t79.5 -196q0 -114 -79 -195t-193 -81z" />
<glyph unicode="&#x2026;" horiz-adv-x="1116" d="M80 0v299h227v-299h-227zM444 0v299h230v-299h-230zM809 0v299h229v-299h-229z" />
<glyph unicode="&#x202f;" horiz-adv-x="381" />
<glyph unicode="&#x2039;" horiz-adv-x="464" d="M283 242l-238 319l236 322l127 -76l-119 -246l123 -248z" />
<glyph unicode="&#x203a;" horiz-adv-x="466" d="M178 242l-129 75l117 246l-121 246l131 74l238 -318z" />
<glyph unicode="&#x205f;" horiz-adv-x="476" />
<glyph unicode="&#x20ac;" horiz-adv-x="983" d="M551 -23q-176 0 -284.5 93t-108.5 262v188h-103v148h103v133h-103v143h103v182q0 159 112.5 259t282.5 100q165 0 269 -90t104 -246v-119h-234v105q0 64 -37.5 100.5t-103.5 36.5q-64 0 -97.5 -40t-33.5 -102v-186h268v-143h-268v-133h268v-148h-268v-180 q0 -68 37 -107.5t102 -39.5q64 0 98.5 38t34.5 101v92h234v-98q0 -162 -104 -255.5t-271 -93.5z" />
<glyph unicode="&#x2122;" horiz-adv-x="1044" d="M487 834v632h168l74 -266l70 266h164v-632h-121v411l-68 -246h-96l-70 246v-411h-121zM176 834v518h-125v114h383v-114h-125v-518h-133z" />
<glyph unicode="&#x25fc;" horiz-adv-x="1085" d="M0 1085h1085v-1085h-1085v1085z" />
</font>
</defs>
</svg>
