<?xml version="1.0" standalone="no"?>
<!DOCTYPE svg PUBLIC "-//W3C//DTD SVG 1.1//EN" "http://www.w3.org/Graphics/SVG/1.1/DTD/svg11.dtd" >
<svg xmlns="http://www.w3.org/2000/svg">
<metadata></metadata>
<defs>
<font id="flama_condensedbold" horiz-adv-x="993" >
<font-face units-per-em="2048" ascent="1638" descent="-410" />
<missing-glyph horiz-adv-x="303" />
<glyph unicode="&#xfb01;" horiz-adv-x="1007" d="M659 0v1096h269v-1096h-269zM659 1225v278h269v-278h-269zM156 0v879h-99v208h99v144q0 117 72.5 182.5t193.5 65.5q85 0 149 -17v-200q-33 8 -82 8q-30 0 -48.5 -21t-18.5 -57v-105h121v-208h-121v-879h-266z" />
<glyph unicode="&#xfb02;" horiz-adv-x="1069" d="M887 -16q-118 0 -174 58t-56 159v1259h269v-1175q0 -56 55 -56q16 0 51 7v-228q-64 -24 -145 -24zM156 0v879h-99v208h99v144q0 117 72.5 182.5t193.5 65.5q85 0 149 -17v-200q-33 8 -82 8q-30 0 -48.5 -21t-18.5 -57v-105h121v-208h-121v-879h-266z" />
<glyph horiz-adv-x="0" />
<glyph horiz-adv-x="682" />
<glyph unicode=" "  horiz-adv-x="303" />
<glyph unicode="&#x09;" horiz-adv-x="303" />
<glyph unicode="&#xa0;" horiz-adv-x="303" />
<glyph unicode="!" horiz-adv-x="444" d="M135 428l-45 496v538h264v-538l-41 -496h-178zM96 0v317h254v-317h-254z" />
<glyph unicode="&#x22;" horiz-adv-x="743" d="M119 901l-37 303v258h237v-258l-36 -303h-164zM461 901l-35 303v258h238v-258l-35 -303h-168z" />
<glyph unicode="#" horiz-adv-x="886" d="M154 -4l32 381h-145l16 166h144l45 407h-150l15 164h145l37 352h149l-34 -352h153l35 352h147l-32 -352h143l-14 -164h-146l-39 -407h146l-13 -166h-149l-37 -381h-149l34 381h-149l-37 -381h-147zM352 543h154l41 407h-156z" />
<glyph unicode="$" horiz-adv-x="849" d="M377 -72v129q-61 8 -115 31t-100.5 63t-75.5 105t-33 147l260 9q15 -146 123 -146q45 0 70.5 30t25.5 77q0 89 -129 211l-122 118q-100 95 -151.5 179t-51.5 184q0 130 78 221t221 111v125h174v-129q237 -45 250 -332l-234 -2q-15 145 -116 145q-53 0 -80 -32t-27 -80 q0 -32 21.5 -69t43 -59.5t62.5 -62.5l125 -125q97 -101 151 -189t54 -186q0 -118 -67 -207.5t-183 -119.5v-146h-174z" />
<glyph unicode="%" horiz-adv-x="1280" d="M307 711q-103 0 -173.5 60t-70.5 163v321q0 107 68.5 168.5t173.5 61.5q106 0 175 -61.5t69 -168.5v-323q0 -98 -71 -159.5t-171 -61.5zM307 862q33 0 48.5 20t15.5 48v340q0 27 -17 46t-49 19q-33 0 -48 -18.5t-15 -46.5v-342q0 -66 65 -66zM283 -2l585 1468h138 l-582 -1468h-141zM975 -25q-104 0 -174 60t-70 164v313q0 108 68.5 174t173.5 66t174.5 -62t69.5 -168v-321q0 -97 -72 -161.5t-170 -64.5zM973 127q63 0 63 68v342q0 26 -16 45.5t-47 19.5t-47.5 -19.5t-16.5 -45.5v-342q0 -68 64 -68z" />
<glyph unicode="&#x26;" horiz-adv-x="1083" d="M401 -27q-165 0 -252.5 111.5t-87.5 304.5q0 138 60.5 244.5t173.5 175.5q-35 64 -56 107t-40 106.5t-19 118.5q0 95 36 171t115 124.5t189 48.5q153 0 239.5 -87.5t86.5 -240.5q0 -123 -58 -225t-165 -170q5 -15 71.5 -122.5t71.5 -119.5q20 74 37 185l211 -23 q-14 -106 -48.5 -215t-70.5 -182q7 -16 82.5 -141.5t81.5 -143.5h-301l-66 111q-120 -138 -291 -138zM459 213q75 0 129 78q-8 20 -93.5 163.5t-93.5 163.5q-73 -62 -73 -206q0 -82 32.5 -140.5t98.5 -58.5zM520 942q94 72 94 215q0 56 -23.5 90.5t-62.5 34.5 q-46 0 -68 -34.5t-22 -82.5q0 -78 82 -223z" />
<glyph unicode="'" horiz-adv-x="405" d="M119 901l-37 303v258h237v-258l-36 -303h-164z" />
<glyph unicode="(" horiz-adv-x="495" d="M322 -352q-106 171 -169 427t-63 496q0 247 62 490.5t170 419.5l153 -13q-84 -268 -117.5 -447.5t-33.5 -451.5q0 -427 151 -909z" />
<glyph unicode=")" horiz-adv-x="495" d="M174 -352l-154 12q152 485 152 909q0 269 -33.5 446t-118.5 453l154 13q108 -176 170 -419.5t62 -490.5q0 -239 -63.5 -495.5t-168.5 -427.5z" />
<glyph unicode="*" horiz-adv-x="731" d="M229 842l-123 80l132 194l-199 115l74 125l178 -103v207h149v-207l178 103l76 -125l-200 -115l133 -194l-125 -80l-135 196z" />
<glyph unicode="+" horiz-adv-x="892" d="M356 268v291h-278v184h278v293h183v-293h276v-184h-276v-291h-183z" />
<glyph unicode="," horiz-adv-x="401" d="M102 -258l68 274h-96v301h254v-284l-90 -291h-136z" />
<glyph unicode="-" horiz-adv-x="493" d="M49 510v209h395v-209h-395z" />
<glyph unicode="." horiz-adv-x="401" d="M74 0v317h254v-317h-254z" />
<glyph unicode="/" horiz-adv-x="530" d="M-12 -332l321 1802h174l-315 -1802h-180z" />
<glyph unicode="0" horiz-adv-x="905" d="M453 -23q-78 0 -145 21t-118.5 61.5t-80.5 105.5t-29 148v838q0 160 107.5 246t265.5 86q101 0 183.5 -35t135.5 -112t53 -185v-838q0 -162 -106 -249t-266 -87zM453 211q50 0 75 27.5t25 68.5v850q0 39 -27.5 64.5t-72.5 25.5q-44 0 -71.5 -25.5t-27.5 -62.5v-854 q0 -39 26 -66.5t73 -27.5z" />
<glyph unicode="1" horiz-adv-x="604" d="M190 0v1182l-106 -23l-37 207l258 98h156v-1464h-271z" />
<glyph unicode="2" horiz-adv-x="825" d="M76 0v176l262 442q154 266 154 457v43q0 57 -22 95t-69 38q-88 0 -88 -123v-90h-243v97q0 160 91 255t257 95q169 0 255.5 -100.5t86.5 -272.5q0 -86 -20 -175t-58.5 -177.5t-76 -158t-89.5 -155.5l-121 -200v-6h367v-240h-686z" />
<glyph unicode="3" horiz-adv-x="849" d="M420 -23q-96 0 -167 27.5t-112 76.5t-60.5 111t-19.5 138v92h252v-98q0 -56 25 -87.5t72 -31.5q49 0 74.5 45.5t25.5 163.5q0 115 -39 156.5t-100 41.5h-103v248h107q65 0 95 43t30 160q0 184 -94 184q-89 0 -89 -121v-90h-251v86q0 170 93.5 265.5t268.5 95.5 q156 0 247 -97.5t91 -285.5q0 -289 -178 -350v-9q100 -33 149 -119.5t49 -211.5q0 -112 -31 -197.5t-83.5 -135.5t-116 -75t-135.5 -25z" />
<glyph unicode="4" horiz-adv-x="874" d="M469 0v328h-422v213l334 919h287l-371 -901h172v215l250 168v-383h100v-231h-100v-328h-250z" />
<glyph unicode="5" horiz-adv-x="866" d="M422 -23q-167 0 -258.5 84.5t-91.5 233.5v141h250v-121q0 -48 25.5 -77t76.5 -29q47 0 71.5 33t24.5 94v282q0 55 -25.5 86t-74.5 31q-57 0 -101 -71l-235 16l27 780h630v-237h-405q0 -2 -2.5 -73.5t-6 -158t-5.5 -114.5q83 65 200 65q119 0 195 -69.5t76 -217.5v-329 q0 -166 -105 -257.5t-266 -91.5z" />
<glyph unicode="6" horiz-adv-x="884" d="M446 -23q-169 0 -269.5 93.5t-100.5 248.5v814q0 166 107 259t274 93q159 0 251.5 -86.5t92.5 -227.5v-116h-260v102q0 42 -23 69t-65 27q-50 0 -74.5 -29t-24.5 -75v-330q82 82 203 82q124 0 192 -68.5t68 -187.5v-338q0 -147 -103 -238.5t-268 -91.5zM451 207 q49 0 71.5 29.5t22.5 72.5v314q0 43 -25 65.5t-63 22.5q-43 0 -72.5 -30t-30.5 -77v-295q0 -45 25 -73.5t72 -28.5z" />
<glyph unicode="7" horiz-adv-x="815" d="M186 0q1 330 86.5 658.5t206.5 560.5h-422v241h707v-207q-146 -269 -223.5 -590t-77.5 -663h-277z" />
<glyph unicode="8" horiz-adv-x="874" d="M436 -20q-166 0 -268 78.5t-102 232.5v223q0 76 33 135t91 94q-53 28 -81.5 84.5t-28.5 118.5v217q0 150 100 236t258 86q155 0 255 -81.5t100 -232.5v-210q0 -152 -111 -220q58 -30 92.5 -86.5t34.5 -130.5v-231q0 -149 -105 -231t-268 -82zM438 199q48 0 73.5 25.5 t25.5 68.5v252q0 46 -28 73t-71 27t-70.5 -25.5t-27.5 -66.5v-260q0 -42 26.5 -68t71.5 -26zM438 846q45 0 72 27t27 69v225q0 44 -28 68.5t-71 24.5q-42 0 -69 -23.5t-27 -62.5v-234q0 -43 26.5 -68.5t69.5 -25.5z" />
<glyph unicode="9" horiz-adv-x="880" d="M438 -23q-161 0 -257.5 86.5t-96.5 231.5v113h258v-97q0 -45 23 -71.5t65 -26.5q48 0 73 28.5t25 75.5v336q-77 -92 -198 -92q-124 0 -192 68.5t-68 187.5v338q0 149 100.5 238.5t267.5 89.5q168 0 268.5 -93.5t100.5 -246.5v-793q0 -168 -102 -270.5t-267 -102.5z M428 752q40 0 70 30t30 78v299q0 42 -25.5 71.5t-70.5 29.5q-49 0 -72.5 -30.5t-23.5 -72.5v-313q0 -45 27 -68.5t65 -23.5z" />
<glyph unicode=":" horiz-adv-x="401" d="M74 0v317h254v-317h-254zM74 778v318h254v-318h-254z" />
<glyph unicode=";" horiz-adv-x="401" d="M102 -258l68 274h-96v301h254v-284l-90 -291h-136zM74 778v318h254v-318h-254z" />
<glyph unicode="&#x3c;" horiz-adv-x="880" d="M713 283l-627 301v141l627 301l80 -166l-447 -207q15 -6 226.5 -104t220.5 -103z" />
<glyph unicode="=" horiz-adv-x="880" d="M78 377v186h725v-186h-725zM78 719v184h725v-184h-725z" />
<glyph unicode="&#x3e;" horiz-adv-x="880" d="M170 285l-82 164l447 206q-8 5 -225 104.5t-222 102.5l82 164l625 -301v-139z" />
<glyph unicode="?" horiz-adv-x="790" d="M250 428v49q0 179 96 328q3 4 24 37t26 42t21.5 38t22 45.5t14.5 44t12 54.5t3 56q0 56 -21.5 90.5t-68.5 34.5q-43 0 -65.5 -30t-22.5 -84v-109h-232v109q0 159 91.5 253.5t246.5 94.5q160 0 250 -96.5t92 -268.5q0 -60 -11.5 -114.5t-35.5 -104t-42.5 -80.5t-49.5 -76 q-69 -105 -88 -157q-20 -51 -20 -97v-59h-242zM246 0v317h254v-317h-254z" />
<glyph unicode="@" horiz-adv-x="1466" d="M786 -154q-262 0 -426 113q-140 90 -216 252t-76 391q0 193 56 352.5t154 266.5t232.5 165t290.5 58q94 0 180.5 -22.5t163.5 -72t133.5 -121.5t89.5 -177t33 -232q0 -237 -121.5 -414t-288.5 -215h-215l15 115h-7q-41 -64 -99 -99.5t-120 -35.5q-92 0 -146 54t-54 151 q0 52 6 82q1 6 26.5 178.5t36.5 232.5q18 117 95.5 183.5t181.5 66.5q53 0 102 -23.5t72 -72.5h4l10 82h225l-110 -789q108 39 182 181.5t74 318.5q0 139 -39 243.5t-107.5 164.5t-152.5 89t-183 29q-113 0 -208.5 -36.5t-165.5 -102.5t-118.5 -158t-72.5 -204t-24 -238 q0 -197 66.5 -340.5t193.5 -218.5q136 -84 323 -84q111 0 199 16.5t207 51.5l29 -95q-80 -39 -198 -62.5t-233 -23.5zM688 373q51 0 84.5 41.5t42.5 105.5l39 277q0 4 1 14.5t1 15.5q0 49 -24 76t-64 27q-45 0 -73.5 -34.5t-37.5 -92.5l-41 -303q-4 -20 -4 -47q0 -80 76 -80 z" />
<glyph unicode="A" horiz-adv-x="1056" d="M41 0l297 1462h393l285 -1462h-293l-59 328h-297l-60 -328h-266zM414 561h202l-96 576h-6z" />
<glyph unicode="B" horiz-adv-x="970" d="M88 0v1460h467q161 0 249.5 -92t88.5 -281q0 -144 -52.5 -228.5t-140.5 -110.5v-9q95 -27 148 -110.5t53 -216.5q0 -204 -90 -308t-244 -104h-479zM375 236h119q116 0 116 194q0 188 -127 188h-108v-382zM375 854h104q127 0 127 197q0 178 -112 178h-119v-375z" />
<glyph unicode="C" horiz-adv-x="948" d="M494 -23q-189 0 -304.5 97.5t-115.5 283.5v748q0 176 119.5 276.5t302.5 100.5q170 0 280.5 -94.5t110.5 -258.5v-161h-262v137q0 58 -35 92.5t-94 34.5q-64 0 -96.5 -35.5t-32.5 -97.5v-729q0 -66 34 -103t97 -37q57 0 92 35t35 92v134h262v-150q0 -168 -110.5 -266.5 t-282.5 -98.5z" />
<glyph unicode="D" horiz-adv-x="983" d="M88 0v1460h422q176 0 287.5 -90.5t111.5 -261.5v-737q0 -123 -54 -208t-142.5 -124t-204.5 -39h-420zM375 248h108q68 0 100.5 40t32.5 99v694q0 60 -34.5 96.5t-102.5 36.5h-104v-966z" />
<glyph unicode="E" horiz-adv-x="856" d="M88 0v1460h703v-243h-416v-345h330v-245h-330v-379h418v-248h-705z" />
<glyph unicode="F" horiz-adv-x="839" d="M88 0v1460h700v-243h-413v-353h330v-248h-330v-616h-287z" />
<glyph unicode="G" horiz-adv-x="974" d="M498 -23q-123 0 -217.5 42.5t-150.5 130.5t-56 212v744q0 176 118.5 276.5t301.5 100.5q172 0 288.5 -92t116.5 -254v-154h-264v131q0 57 -38.5 90t-98.5 33q-63 0 -97 -37t-34 -100v-731q0 -66 34 -104t97 -38q123 0 123 125v203h-150v219h430v-436 q0 -170 -108.5 -265.5t-294.5 -95.5z" />
<glyph unicode="H" horiz-adv-x="1005" d="M88 0v1460h289v-592h254v592h289v-1460h-289v606h-254v-606h-289z" />
<glyph unicode="I" horiz-adv-x="464" d="M88 0v1460h289v-1460h-289z" />
<glyph unicode="J" horiz-adv-x="925" d="M449 -23q-192 0 -293 95.5t-101 283.5v187h275v-193q0 -125 112 -125q113 0 113 129v1106h289v-1089q0 -185 -104 -289.5t-291 -104.5z" />
<glyph unicode="K" horiz-adv-x="980" d="M88 0v1460h289v-645l280 645h285l-260 -571l264 -889h-307l-170 649l-92 -174v-475h-289z" />
<glyph unicode="L" horiz-adv-x="839" d="M88 0v1460h287v-1212h418v-248h-705z" />
<glyph unicode="M" horiz-adv-x="1222" d="M88 0v1460h369l157 -581h7l163 581h353v-1460h-256v1026h-4l-164 -623h-199l-168 621h-4v-1024h-254z" />
<glyph unicode="N" horiz-adv-x="1040" d="M88 0v1460h295l307 -780h6v780h256v-1460h-260l-342 874h-6v-874h-256z" />
<glyph unicode="O" d="M496 -23q-194 0 -308 101t-114 299v708q0 189 118 293.5t306 104.5q122 0 215 -41t150 -131t57 -221v-709q0 -196 -119 -300t-305 -104zM498 231q63 0 97 39t34 101v727q0 62 -36 97.5t-97 35.5q-63 0 -96 -36t-33 -99v-723q0 -64 34 -103t97 -39z" />
<glyph unicode="P" horiz-adv-x="952" d="M88 0v1460h442q179 0 269 -114t90 -332q0 -231 -91 -356.5t-278 -125.5h-143v-532h-289zM377 768h100q129 0 129 240q0 109 -30 161t-97 52h-102v-453z" />
<glyph unicode="Q" d="M795 -182l-224 168q-52 -9 -73 -9q-195 0 -309.5 101t-114.5 299v708q0 189 118.5 293.5t305.5 104.5q122 0 215.5 -41t151 -131.5t57.5 -220.5v-709q0 -156 -84 -250l137 -90zM500 231q63 0 97 39t34 101v727q0 62 -36 97.5t-97 35.5q-63 0 -97 -36t-34 -99v-723 q0 -64 34.5 -103t98.5 -39z" />
<glyph unicode="R" horiz-adv-x="974" d="M88 0v1460h420q189 0 292 -107t103 -325q0 -293 -170 -385l189 -643h-299l-150 580h-96v-580h-289zM377 795h106q64 0 97.5 50.5t33.5 164.5q0 211 -133 211h-104v-426z" />
<glyph unicode="S" horiz-adv-x="897" d="M453 -23q-181 0 -285 112.5t-115 309.5l271 9q4 -40 10 -69.5t19.5 -60.5t39.5 -48t62 -17q57 0 81.5 39t24.5 96q0 56 -32 103.5t-103 115.5l-139 138q-105 99 -158 194t-53 209q0 104 41.5 188t131 136.5t214.5 52.5q72 0 132.5 -20.5t112.5 -66t83.5 -129t35.5 -198.5 l-254 -8q-9 91 -35.5 140.5t-88.5 49.5q-52 0 -78.5 -34.5t-26.5 -88.5q0 -28 11.5 -55.5t39 -59.5t44.5 -49t55 -53l129 -127q112 -107 166.5 -206.5t54.5 -217.5q0 -166 -106 -275.5t-285 -109.5z" />
<glyph unicode="T" horiz-adv-x="915" d="M313 0v1217h-276v243h842v-243h-275v-1217h-291z" />
<glyph unicode="U" horiz-adv-x="987" d="M485 -23q-192 0 -297.5 97t-105.5 291v1095h291v-1085q0 -70 36 -108t95 -38q61 0 94 39.5t31 106.5v1085h276v-1087q0 -186 -117.5 -291t-302.5 -105z" />
<glyph unicode="V" horiz-adv-x="894" d="M297 -6l-285 1466h287l158 -942h8l158 942h260l-281 -1466h-305z" />
<glyph unicode="W" horiz-adv-x="1355" d="M262 -6l-239 1466h284l117 -872h6l129 872h277l122 -868h5l116 868h254l-235 -1466h-269l-141 930h-8l-145 -930h-273z" />
<glyph unicode="X" horiz-adv-x="921" d="M12 0l289 733l-274 727h303l145 -407l146 407h272l-272 -704l286 -756h-299l-159 432l-160 -432h-277z" />
<glyph unicode="Y" horiz-adv-x="923" d="M317 0v575l-305 885h307l162 -547l156 547h276l-305 -887v-573h-291z" />
<glyph unicode="Z" horiz-adv-x="847" d="M59 0v188l418 1029h-409v243h729v-213l-408 -999h397v-248h-727z" />
<glyph unicode="[" horiz-adv-x="491" d="M113 -344v1804h336v-145h-117v-1516h117v-143h-336z" />
<glyph unicode="\" horiz-adv-x="530" d="M367 -346l-338 1812h174l342 -1812h-178z" />
<glyph unicode="]" horiz-adv-x="491" d="M45 -344v143h117v1516h-117v145h334v-1804h-334z" />
<glyph unicode="^" horiz-adv-x="827" d="M119 354l200 813h185l182 -813h-186l-92 465l-103 -465h-186z" />
<glyph unicode="_" horiz-adv-x="811" d="M0 -287v178h811v-178h-811z" />
<glyph unicode="`" horiz-adv-x="507" d="M260 1202l-209 307h266l138 -307h-195z" />
<glyph unicode="a" horiz-adv-x="841" d="M299 -20q-106 0 -175 83t-69 248q0 114 54 196.5t139.5 122t189.5 40.5h58v153q0 38 -23 61t-67 23t-65.5 -23.5t-21.5 -60.5v-88h-241v94q0 131 95.5 211t250.5 80q157 0 247.5 -81t90.5 -226v-563q0 -55 5 -152t5 -98h-246q0 2 -1.5 15.5t-4 40t-4.5 55.5h-6 q-31 -67 -92.5 -99t-118.5 -32zM403 188q36 0 64.5 31.5t28.5 77.5v213h-52q-53 0 -85.5 -42.5t-32.5 -123.5q0 -156 77 -156z" />
<glyph unicode="b" horiz-adv-x="876" d="M522 -18q-55 0 -105 27.5t-81 74.5h-4l-4 -84h-242v1460h268v-446h4q36 54 90 81t109 27q65 0 114 -21t77.5 -58t42.5 -82.5t14 -98.5v-606q0 -120 -78 -197t-205 -77zM455 190q38 0 61 25.5t23 71.5v520q0 44 -23 70t-63 26q-42 0 -70.5 -32.5t-28.5 -92.5v-473 q0 -53 30 -84t71 -31z" />
<glyph unicode="c" horiz-adv-x="817" d="M422 -23q-155 0 -252.5 85t-97.5 241v481q0 156 102 246t252 90t240 -81t90 -210v-98h-238v82q0 40 -21.5 64t-64.5 24q-44 0 -67 -27.5t-23 -72.5v-502q0 -48 22.5 -77t67.5 -29q44 0 65 26t21 64v84h238v-97q0 -139 -90.5 -216t-243.5 -77z" />
<glyph unicode="d" horiz-adv-x="876" d="M324 -20q-127 0 -189.5 75t-62.5 193v612q0 109 70 184.5t190 75.5q119 0 190 -88h2v428h267v-1460h-250l-4 102h-7q-35 -58 -92 -90t-114 -32zM424 197q42 0 72 35.5t30 91.5v473q0 51 -30.5 83.5t-69.5 32.5q-38 0 -62 -26.5t-24 -77.5v-510q0 -46 23 -74t61 -28z" />
<glyph unicode="e" horiz-adv-x="823" d="M432 -23q-162 0 -261 85.5t-99 244.5v465q0 162 101.5 255t254.5 93q154 0 241 -88t87 -237v-344h-416v-113q0 -70 39 -106.5t108 -36.5q82 0 209 43l47 -193q-142 -68 -311 -68zM340 641h178v166q0 44 -22 72t-66 28q-43 0 -66.5 -28.5t-23.5 -71.5v-166z" />
<glyph unicode="f" horiz-adv-x="604" d="M158 0v879h-99v208h99v144q0 117 72.5 182.5t193.5 65.5q85 0 149 -17v-200q-33 8 -81 8q-30 0 -49 -21t-19 -57v-105h121v-208h-121v-879h-266z" />
<glyph unicode="g" horiz-adv-x="874" d="M399 -348q-160 0 -297 55l66 209q113 -45 215 -45q74 0 107.5 33t33.5 100v164h-4q-34 -61 -89.5 -95t-113.5 -34q-121 0 -183 71.5t-62 184.5v547q0 121 73.5 198.5t192.5 77.5q57 0 110.5 -27.5t83.5 -76.5h5v88h254v-1079q0 -182 -102 -276.5t-290 -94.5zM426 250 q40 0 68 32.5t28 86.5v426q0 52 -30.5 83t-69.5 31q-36 0 -59 -27t-23 -77v-457q0 -44 22 -71t64 -27z" />
<glyph unicode="h" horiz-adv-x="882" d="M86 0v1460h268v-463h2q80 123 226 123q95 0 158 -62t63 -165v-893h-266v793q0 102 -86 102q-42 0 -69.5 -38.5t-27.5 -94.5v-762h-268z" />
<glyph unicode="i" horiz-adv-x="438" d="M86 0v1096h268v-1096h-268zM86 1225v278h268v-278h-268z" />
<glyph unicode="j" horiz-adv-x="446" d="M104 -346q-51 0 -110 12v207h39q38 0 51.5 18.5t13.5 59.5v1145h267v-1180q0 -124 -71 -193t-190 -69zM96 1225v278h269v-278h-269z" />
<glyph unicode="k" horiz-adv-x="851" d="M86 0v1460h268v-805l207 441h266l-190 -373l190 -723h-282l-117 500l-74 -135v-365h-268z" />
<glyph unicode="l" horiz-adv-x="491" d="M311 -16q-118 0 -173.5 58t-55.5 159v1259h268v-1175q0 -56 56 -56q16 0 51 7v-228q-65 -24 -146 -24z" />
<glyph unicode="m" horiz-adv-x="1335" d="M86 0v1096h264v-101h2q78 125 230 125q71 0 126 -33t78 -96h5q95 129 243 129q94 0 157.5 -62t63.5 -165v-893h-266v793q0 102 -86 102q-42 0 -69 -36t-29 -91v-768h-268v793q0 102 -86 102q-42 0 -69.5 -38t-27.5 -93v-764h-268z" />
<glyph unicode="n" horiz-adv-x="882" d="M86 0v1096h264v-97h2q80 121 230 121q95 0 158 -62t63 -165v-893h-266v793q0 102 -86 102q-42 0 -69.5 -38t-27.5 -93v-764h-268z" />
<glyph unicode="o" horiz-adv-x="862" d="M432 -23q-160 0 -260 84.5t-100 247.5v475q0 107 50.5 184.5t130.5 114.5t179 37q98 0 177.5 -34t130.5 -110t51 -183v-482q0 -162 -101.5 -248t-257.5 -86zM432 193q90 0 90 102v504q0 44 -24.5 73t-67.5 29q-44 0 -66 -29t-22 -75v-504q0 -44 23 -72t67 -28z" />
<glyph unicode="p" horiz-adv-x="876" d="M86 -330v1426h264v-101h4q35 56 94 89.5t117 33.5q123 0 181.5 -74t58.5 -196v-606q0 -113 -70 -189t-194 -76q-51 0 -101 25t-82 68h-4v-400h-268zM453 190q38 0 62 25.5t24 73.5v518q0 44 -23 70t-63 26q-44 0 -71.5 -31.5t-27.5 -91.5v-479q0 -52 29 -81.5t70 -29.5z " />
<glyph unicode="q" horiz-adv-x="876" d="M524 -330v416h-4q-82 -109 -198 -109q-126 0 -188 74t-62 189v606q0 120 75 196t203 76q57 0 110 -26t85 -76h2l2 84h244v-1430h-269zM428 197q40 0 68 33t28 87v480q0 53 -29.5 84.5t-68.5 31.5t-62.5 -28t-23.5 -78v-508q0 -46 24 -74t64 -28z" />
<glyph unicode="r" horiz-adv-x="649" d="M86 0v1096h264v-125h2q62 137 187 137q50 0 77 -8v-252q-58 10 -104 10q-67 0 -112.5 -31.5t-45.5 -99.5v-727h-268z" />
<glyph unicode="s" horiz-adv-x="757" d="M381 -20q-64 0 -118.5 17t-101.5 53.5t-76.5 100t-35.5 148.5l248 6q7 -125 90 -125q33 0 51.5 21.5t18.5 60.5t-30 78.5t-95 91.5l-84 72q-84 69 -129 142.5t-45 166.5q0 57 18 109.5t54.5 98t100.5 72.5t148 27q137 0 220 -77t92 -244l-228 -6q-6 67 -26.5 99t-61.5 32 q-39 0 -57.5 -22t-18.5 -56q0 -31 25.5 -61.5t81.5 -79.5l102 -91q95 -83 141 -159t46 -170q0 -60 -19.5 -113.5t-58 -97t-103.5 -69t-149 -25.5z" />
<glyph unicode="t" horiz-adv-x="614" d="M391 -16q-108 0 -176 55t-68 166v672h-96v210h96v248h269v-248h153v-210h-153v-594q0 -66 61 -66q50 0 88 10v-215q-82 -28 -174 -28z" />
<glyph unicode="u" horiz-adv-x="882" d="M303 -25q-96 0 -159.5 63t-63.5 167v891h266v-793q0 -100 88 -100q42 0 69 38t27 93v762h267v-1096h-262v106h-3q-83 -131 -229 -131z" />
<glyph unicode="v" horiz-adv-x="794" d="M260 -4l-248 1100h285l113 -684h6l123 684h243l-243 -1100h-279z" />
<glyph unicode="w" horiz-adv-x="1185" d="M248 -2l-217 1098h280l80 -590h8l95 590h245l90 -590h7l88 590h245l-217 -1098h-233l-113 639h-6l-111 -639h-241z" />
<glyph unicode="x" horiz-adv-x="792" d="M10 2l240 555l-225 539h278l115 -291l108 291h242l-225 -525l239 -569h-280l-123 317l-127 -317h-242z" />
<glyph unicode="y" horiz-adv-x="796" d="M225 -348q-81 0 -147 16l24 211q56 -12 91 -12q63 0 79 59l21 82l-281 1088h279l133 -660h6l111 660h243l-266 -1159q-37 -146 -108.5 -215.5t-184.5 -69.5z" />
<glyph unicode="z" horiz-adv-x="765" d="M55 0v188l320 686h-314v222h617v-197l-316 -674h314v-225h-621z" />
<glyph unicode="{" horiz-adv-x="503" d="M313 -344q-186 0 -186 194v560q0 66 -14.5 92.5t-57.5 32.5v151q44 10 58 30.5t14 69.5v471q0 105 49.5 154t136.5 49h150v-149h-76q-41 0 -41 -43v-445q0 -88 -19.5 -135t-76.5 -70v-10q63 -26 79.5 -65t16.5 -135v-560q0 -47 41 -47h76v-145h-150z" />
<glyph unicode="|" horiz-adv-x="530" d="M180 -215v1685h172v-1685h-172z" />
<glyph unicode="}" horiz-adv-x="503" d="M39 -344v145h78q39 0 39 47v560q0 94 17 133.5t79 66.5v10q-57 23 -76.5 70t-19.5 135v445q0 45 -39 45h-78v149h151q183 0 183 -202v-474q0 -49 14 -69.5t59 -30.5v-151q-43 -6 -58 -32.5t-15 -92.5v-560q0 -104 -47.5 -149t-135.5 -45h-151z" />
<glyph unicode="~" horiz-adv-x="843" d="M184 502l-123 22q15 112 61 182t130 70q47 0 173 -27.5t167 -27.5q29 0 45 19t29 61l116 -25q-33 -252 -184 -252q-45 0 -175.5 30t-164.5 30q-30 0 -46.5 -18.5t-27.5 -63.5z" />
<glyph unicode="&#xa1;" horiz-adv-x="444" d="M309 725l45 -496v-538h-264v538l41 496h178zM348 1153v-317h-254v317h254z" />
<glyph unicode="&#xa2;" horiz-adv-x="817" d="M309 -117v154q-113 24 -179.5 103.5t-66.5 205.5v463q0 126 67.5 207t178.5 110v154h223v-154q104 -25 164 -98t60 -176v-113h-240v101q0 42 -23.5 67t-68.5 25q-47 0 -70.5 -29.5t-23.5 -77.5v-483q0 -50 23.5 -81.5t70.5 -31.5q46 0 69 28t23 69v104h240v-119 q0 -109 -59 -178.5t-165 -93.5v-156h-223z" />
<glyph unicode="&#xa3;" horiz-adv-x="958" d="M70 0v231h102v400h-86v188h86v311q0 89 30 158t82 111.5t117.5 64t141.5 21.5q149 0 239 -83t90 -231v-131h-237v127q0 44 -24.5 69.5t-67.5 25.5q-40 0 -66 -28t-26 -73v-342h264v-188h-264v-400h448l-41 -231h-788z" />
<glyph unicode="&#xa4;" horiz-adv-x="821" d="M172 379l-80 80l86 84q-53 74 -53 168q0 79 43 151l-88 90l80 78l84 -86q74 55 168 55q80 0 153 -45l86 88l80 -79l-86 -86q55 -74 55 -168q0 -83 -47 -156l88 -84l-77 -80l-86 84q-73 -51 -166 -51q-89 0 -154 45zM412 524q83 0 127.5 53.5t44.5 133.5q0 78 -46.5 132 t-125.5 54q-83 0 -127.5 -53.5t-44.5 -134.5q0 -75 47 -130t125 -55z" />
<glyph unicode="&#xa5;" horiz-adv-x="917" d="M313 0v465h-233v180h203l-275 815h303l162 -542l156 542h280l-274 -815h203v-180h-234v-465h-291z" />
<glyph unicode="&#xa6;" horiz-adv-x="618" d="M193 -94v739h188v-739h-188zM193 791v673h188v-673h-188z" />
<glyph unicode="&#xa7;" horiz-adv-x="831" d="M406 -90q-48 0 -91 7.5t-87.5 28.5t-76.5 53t-52.5 86t-20.5 124v76h219v-52q0 -145 125 -145q30 0 51.5 12.5t32.5 33t15.5 41.5t4.5 44q0 98 -110 148q-87 37 -107 43q-231 88 -231 290q0 117 115 228q-58 46 -84.5 100.5t-26.5 140.5q0 137 88.5 222.5t247.5 85.5 q145 0 233 -75t88 -220v-74h-209v61q0 55 -28 91t-82 36t-82.5 -33.5t-28.5 -84.5q0 -49 32 -86t75 -54l116 -47q45 -19 80 -39.5t72 -53.5t57.5 -79.5t20.5 -103.5q0 -136 -113 -240q56 -45 87 -100t30 -137q0 -149 -99 -238.5t-261 -89.5zM471 580q68 36 68 102 q0 65 -86 104q-77 31 -95 35q-61 -42 -61 -110q0 -36 30 -62.5t64 -38.5z" />
<glyph unicode="&#xa8;" horiz-adv-x="673" d="M74 1208v291h209v-291h-209zM391 1208v291h209v-291h-209z" />
<glyph unicode="&#xa9;" horiz-adv-x="1497" d="M756 139q-144 0 -236 75.5t-92 215.5v555q0 138 93 217.5t235 79.5q138 0 224.5 -73.5t86.5 -200.5v-168h-217v153q0 38 -22.5 64t-67.5 26q-48 0 -71 -28t-23 -74v-539q0 -104 92 -104q48 0 70 25.5t22 64.5v158h217v-166q0 -130 -87 -205.5t-224 -75.5zM750 -98 q-132 0 -243 41.5t-189.5 115.5t-133.5 176t-81.5 223t-26.5 257q0 131 29 251.5t87 221t138 175t188 116t232 41.5q160 0 289 -64.5t211.5 -175.5t126.5 -256t44 -309q0 -167 -44.5 -313.5t-127.5 -258.5t-212 -176.5t-287 -64.5zM750 29q226 0 372 188t146 498 q0 313 -144 499.5t-374 186.5q-234 0 -376.5 -186t-142.5 -500q0 -157 39.5 -287t108.5 -217t164.5 -134.5t206.5 -47.5z" />
<glyph unicode="&#xaa;" horiz-adv-x="569" d="M203 797q-66 0 -109 48.5t-43 145.5q0 99 69 154t169 55h33v86q0 20 -13 33.5t-39 13.5q-47 0 -47 -47v-51h-157v53q0 81 59.5 128.5t157.5 47.5q99 0 155 -48t56 -134v-328q0 -105 8 -145h-162q-3 9 -8 61q-20 -37 -57 -55t-72 -18zM270 924q21 0 36.5 16t15.5 41v121 h-29q-31 0 -50.5 -24.5t-19.5 -67.5q0 -46 11 -66t36 -20zM88 592v141h404v-141h-404z" />
<glyph unicode="&#xab;" horiz-adv-x="841" d="M287 231l-248 328l248 332l137 -82l-115 -250l119 -250zM649 240l-243 319l243 322l137 -82l-114 -240l119 -240z" />
<glyph unicode="&#xac;" horiz-adv-x="991" d="M715 319v240h-645v182h833v-422h-188z" />
<glyph unicode="&#xad;" horiz-adv-x="493" d="M49 510v209h395v-209h-395z" />
<glyph unicode="&#xae;" horiz-adv-x="882" d="M442 627q-117 0 -206 61.5t-134 162t-45 222.5t48.5 224t137 162.5t199.5 60.5q173 0 280 -128.5t107 -318.5q0 -121 -47 -222.5t-136 -162.5t-204 -61zM442 715q119 0 203 98t84 260q0 163 -83 263t-204 100q-119 0 -200.5 -99.5t-81.5 -263.5q0 -163 82.5 -260.5 t199.5 -97.5zM287 829v508h180q70 0 112 -42t42 -113q0 -48 -21 -88t-59 -58l92 -207h-123l-76 187h-33v-187h-114zM401 1102h45q29 0 44.5 19.5t15.5 52.5q0 32 -16 51.5t-44 19.5h-45v-143z" />
<glyph unicode="&#xaf;" horiz-adv-x="698" d="M109 1225v188h481v-188h-481z" />
<glyph unicode="&#xb0;" horiz-adv-x="516" d="M258 1112q-84 0 -138 54.5t-54 131.5q0 76 55.5 130.5t136.5 54.5q83 0 138 -54t55 -129q0 -77 -57 -132.5t-136 -55.5zM258 1212q35 0 58.5 24.5t23.5 61.5q0 35 -23 60.5t-59 25.5q-35 0 -57.5 -24.5t-22.5 -61.5t23 -61.5t57 -24.5z" />
<glyph unicode="&#xb1;" horiz-adv-x="892" d="M356 377v252h-278v184h278v260h185v-260h274v-184h-274v-252h-185zM84 72v184h723v-184h-723z" />
<glyph unicode="&#xb2;" horiz-adv-x="579" d="M68 778v123l180 240q92 141 92 219v10q0 70 -51 70q-53 0 -53 -72v-47h-183v57q0 103 64 162t174 59q117 0 179 -61t62 -170q0 -46 -12 -90t-39.5 -92t-46 -74.5t-57.5 -79.5l-66 -94h221v-160h-464z" />
<glyph unicode="&#xb3;" horiz-adv-x="587" d="M291 754q-121 0 -181.5 59.5t-60.5 163.5v49h182v-53q0 -30 15 -46t41 -16q28 0 41.5 22.5t13.5 74.5q0 54 -21.5 77t-48.5 23h-65v143h59q72 0 72 99q0 45 -15 67.5t-40 22.5q-27 0 -39.5 -20t-12.5 -50v-39h-178v45q0 103 61.5 163t176.5 60q108 0 170.5 -58t62.5 -165 q0 -68 -26.5 -118.5t-79.5 -71.5v-4q59 -18 90 -69t31 -118q0 -125 -68.5 -183t-179.5 -58z" />
<glyph unicode="&#xb4;" horiz-adv-x="524" d="M76 1202l137 307h266l-209 -307h-194z" />
<glyph unicode="&#xb5;" horiz-adv-x="913" d="M76 -367v1463h268v-787q0 -106 90 -106q41 0 72 35t31 96v762h270v-727q0 -52 16.5 -77t53.5 -34l-3 -264q-195 10 -235 145q-51 -162 -188 -162q-64 0 -119.5 33.5t-71.5 95.5l-10 -4l84 -448z" />
<glyph unicode="&#xb6;" horiz-adv-x="903" d="M330 -135v594q-267 59 -267 483q0 112 23 205t68 164.5t119.5 111t170.5 39.5h404v-147h-86v-1450h-164v1450h-104v-1450h-164z" />
<glyph unicode="&#xb7;" horiz-adv-x="401" d="M74 575v316h254v-316h-254z" />
<glyph unicode="&#xb8;" horiz-adv-x="573" d="M256 -397q-95 0 -174 20v121q102 -25 162 -25q67 0 67 43q0 39 -71 43l-78 7l49 217h108l-30 -129q36 0 68 -5t64.5 -18t51.5 -40t19 -66q0 -78 -68.5 -123t-167.5 -45z" />
<glyph unicode="&#xb9;" horiz-adv-x="442" d="M143 778v639l-73 -16l-25 137l176 59h107v-819h-185z" />
<glyph unicode="&#xba;" horiz-adv-x="575" d="M287 799q-102 0 -165 48.5t-63 145.5v277q0 93 65.5 145.5t162.5 52.5q95 0 160 -50t65 -144v-281q0 -95 -63.5 -144.5t-161.5 -49.5zM285 930q53 0 53 55v291q0 25 -13.5 40t-39.5 15q-49 0 -49 -55v-291q0 -55 49 -55zM88 592v141h404v-141h-404z" />
<glyph unicode="&#xbb;" horiz-adv-x="841" d="M182 242l-139 82l113 239l-117 240l141 78l246 -318zM545 231l-139 82l116 250l-121 248l142 80l248 -328z" />
<glyph unicode="&#xbc;" horiz-adv-x="1331" d="M205 647v639l-74 -16l-25 137l177 59h106v-819h-184zM989 0v172h-276v139l229 506h197l-244 -493h94v106l182 133v-239h66v-152h-66v-172h-182zM248 -2l633 1468h131l-631 -1468h-133z" />
<glyph unicode="&#xbd;" horiz-adv-x="1331" d="M201 647v639l-74 -16l-25 137l177 59h106v-819h-184zM772 0v123l180 239q92 141 92 220v10q0 70 -51 70q-53 0 -53 -72v-47h-182v57q0 104 64 162.5t173 58.5q117 0 179.5 -61t62.5 -170q0 -46 -12 -89.5t-40.5 -92.5t-46 -74.5t-57.5 -79.5l-65 -94h221v-160h-465z M229 -2l633 1468h131l-631 -1468h-133z" />
<glyph unicode="&#xbe;" horiz-adv-x="1331" d="M1020 0v172h-277v139l230 506h196l-243 -493h94v106l182 133v-239h66v-152h-66v-172h-182zM299 623q-121 0 -181.5 59.5t-60.5 163.5v49h183v-53q0 -30 15 -46t40 -16q28 0 41.5 22.5t13.5 74.5q0 54 -21 77t-48 23h-66v143h59q72 0 72 99q0 45 -15 67.5t-40 22.5 q-51 0 -51 -70v-39h-179v45q0 103 61.5 163t176.5 60q108 0 170.5 -58t62.5 -165q0 -68 -26.5 -118.5t-79.5 -71.5v-4q59 -18 90 -69t31 -118q0 -125 -68.5 -183t-179.5 -58zM305 -2l633 1468h131l-631 -1468h-133z" />
<glyph unicode="&#xbf;" horiz-adv-x="794" d="M551 725v-49q0 -179 -96 -328q-3 -4 -24 -37t-26 -42t-21.5 -38t-22 -45.5t-14.5 -44t-12 -54.5t-3 -56q0 -56 21.5 -90.5t68.5 -34.5q43 0 65.5 30t22.5 84v109h231v-109q0 -159 -91.5 -253.5t-246.5 -94.5q-160 0 -250 96.5t-92 268.5q0 60 11.5 114t36 104t43 80.5 t49.5 76.5q69 105 88 157q20 51 20 97v59h242zM555 1153v-317h-254v317h254z" />
<glyph unicode="&#xc0;" horiz-adv-x="1056" d="M41 0l297 1462h393l285 -1462h-293l-59 328h-297l-60 -328h-266zM414 561h202l-96 576h-6zM436 1554l-209 308h267l137 -308h-195z" />
<glyph unicode="&#xc1;" horiz-adv-x="1056" d="M41 0l297 1462h393l285 -1462h-293l-59 328h-297l-60 -328h-266zM414 561h202l-96 576h-6zM430 1554l137 308h267l-209 -308h-195z" />
<glyph unicode="&#xc2;" horiz-adv-x="1056" d="M41 0l297 1462h393l285 -1462h-293l-59 328h-297l-60 -328h-266zM414 561h202l-96 576h-6zM250 1554l188 316h193l188 -316h-209l-80 154l-81 -154h-199z" />
<glyph unicode="&#xc3;" horiz-adv-x="1056" d="M41 0l297 1462h393l285 -1462h-293l-59 328h-297l-60 -328h-266zM414 561h202l-96 576h-6zM336 1559l-135 32q16 105 65.5 172.5t128.5 67.5q45 0 128.5 -31t123.5 -31q29 0 45.5 18t30.5 60l125 -32q-15 -101 -65.5 -170.5t-131.5 -69.5q-41 0 -126 29.5t-117 29.5 q-30 0 -45 -15t-27 -60z" />
<glyph unicode="&#xc4;" horiz-adv-x="1056" d="M41 0l297 1462h393l285 -1462h-293l-59 328h-297l-60 -328h-266zM414 561h202l-96 576h-6zM264 1561v290h209v-290h-209zM582 1561v290h209v-290h-209z" />
<glyph unicode="&#xc5;" horiz-adv-x="1056" d="M41 0l297 1462h393l285 -1462h-293l-59 328h-297l-60 -328h-266zM414 561h202l-96 576h-6zM539 1528q-86 0 -141.5 53.5t-55.5 136.5q0 84 56.5 140.5t140.5 56.5q88 0 142 -51.5t54 -137.5q0 -84 -57 -141t-139 -57zM539 1628q39 0 63.5 26t24.5 68q0 43 -23 70t-65 27 q-38 0 -61 -27.5t-23 -69.5q0 -41 23.5 -67.5t60.5 -26.5z" />
<glyph unicode="&#xc6;" horiz-adv-x="1439" d="M31 0l479 1460h864v-243h-413v-347h329v-245h-329v-377h415v-248h-704v358h-256l-99 -358h-286zM494 578h178v585h-8z" />
<glyph unicode="&#xc7;" horiz-adv-x="948" d="M496 -397q-95 0 -174 20v121q102 -25 161 -25q68 0 68 43q0 39 -72 43l-78 7l37 168q-167 14 -265.5 110t-98.5 268v748q0 176 119.5 276.5t302.5 100.5q170 0 280.5 -94.5t110.5 -258.5v-161h-262v137q0 58 -35 92.5t-94 34.5q-64 0 -96.5 -35.5t-32.5 -97.5v-729 q0 -66 34 -103t97 -37q57 0 92 35t35 92v134h262v-150q0 -155 -94 -250.5t-246 -109.5l-19 -82q36 0 68 -5t64.5 -18t51.5 -40t19 -66q0 -78 -68 -123t-167 -45z" />
<glyph unicode="&#xc8;" horiz-adv-x="856" d="M88 0v1460h703v-243h-416v-345h330v-245h-330v-379h418v-248h-705zM379 1554l-209 308h266l137 -308h-194z" />
<glyph unicode="&#xc9;" horiz-adv-x="856" d="M328 1554l137 308h266l-209 -308h-194zM88 0v1460h703v-243h-416v-345h330v-245h-330v-379h418v-248h-705z" />
<glyph unicode="&#xca;" horiz-adv-x="856" d="M147 1554l189 316h192l189 -316h-209l-80 154l-82 -154h-199zM88 0v1460h703v-243h-416v-345h330v-245h-330v-379h418v-248h-705z" />
<glyph unicode="&#xcb;" horiz-adv-x="856" d="M193 1561v290h208v-290h-208zM510 1561v290h209v-290h-209zM88 0v1460h703v-243h-416v-345h330v-245h-330v-379h418v-248h-705z" />
<glyph unicode="&#xcc;" horiz-adv-x="464" d="M88 0v1460h289v-1460h-289zM131 1554l-209 308h266l138 -308h-195z" />
<glyph unicode="&#xcd;" horiz-adv-x="464" d="M88 0v1460h289v-1460h-289zM129 1554l137 308h266l-208 -308h-195z" />
<glyph unicode="&#xce;" horiz-adv-x="464" d="M88 0v1460h289v-1460h-289zM-51 1554l188 316h193l188 -316h-209l-80 154l-82 -154h-198z" />
<glyph unicode="&#xcf;" horiz-adv-x="464" d="M88 0v1460h289v-1460h-289zM-31 1561v290h209v-290h-209zM287 1561v290h209v-290h-209z" />
<glyph unicode="&#xd0;" horiz-adv-x="1017" d="M43 670v178h80v612h422q176 0 287.5 -90.5t111.5 -261.5v-737q0 -123 -54 -208t-142.5 -124t-204.5 -39h-420v670h-80zM410 248h108q68 0 100.5 40t32.5 99v694q0 60 -34.5 96.5t-102.5 36.5h-104v-366h176v-178h-176v-422z" />
<glyph unicode="&#xd1;" horiz-adv-x="1040" d="M88 0v1460h295l307 -780h6v780h256v-1460h-260l-342 874h-6v-874h-256zM356 1559l-135 32q16 104 66 172t129 68q45 0 128.5 -31t123.5 -31q29 0 45 17.5t30 60.5l125 -32q-15 -102 -65 -171t-131 -69q-40 0 -126 29.5t-118 29.5q-30 0 -45 -15t-27 -60z" />
<glyph unicode="&#xd2;" d="M496 -23q-194 0 -308 101t-114 299v708q0 189 118 293.5t306 104.5q122 0 215 -41t150 -131t57 -221v-709q0 -196 -119 -300t-305 -104zM498 231q63 0 97 39t34 101v727q0 62 -36 97.5t-97 35.5q-63 0 -96 -36t-33 -99v-723q0 -64 34 -103t97 -39zM412 1554l-209 308h266 l137 -308h-194z" />
<glyph unicode="&#xd3;" d="M397 1554l138 308h266l-209 -308h-195zM496 -23q-194 0 -308 101t-114 299v708q0 189 118 293.5t306 104.5q122 0 215 -41t150 -131t57 -221v-709q0 -196 -119 -300t-305 -104zM498 231q63 0 97 39t34 101v727q0 62 -36 97.5t-97 35.5q-63 0 -96 -36t-33 -99v-723 q0 -64 34 -103t97 -39z" />
<glyph unicode="&#xd4;" d="M209 1554l188 316h193l188 -316h-209l-80 154l-81 -154h-199zM496 -23q-194 0 -308 101t-114 299v708q0 189 118 293.5t306 104.5q122 0 215 -41t150 -131t57 -221v-709q0 -196 -119 -300t-305 -104zM498 231q63 0 97 39t34 101v727q0 62 -36 97.5t-97 35.5 q-63 0 -96 -36t-33 -99v-723q0 -64 34 -103t97 -39z" />
<glyph unicode="&#xd5;" d="M496 -23q-194 0 -308 101t-114 299v708q0 189 118 293.5t306 104.5q122 0 215 -41t150 -131t57 -221v-709q0 -196 -119 -300t-305 -104zM498 231q63 0 97 39t34 101v727q0 62 -36 97.5t-97 35.5q-63 0 -96 -36t-33 -99v-723q0 -64 34 -103t97 -39zM299 1559l-135 32 q16 105 65.5 172.5t128.5 67.5q45 0 128.5 -31t123.5 -31q29 0 45.5 18t30.5 60l125 -32q-15 -101 -65.5 -170.5t-131.5 -69.5q-40 0 -126 29.5t-117 29.5q-30 0 -45 -15t-27 -60z" />
<glyph unicode="&#xd6;" d="M229 1561v290h209v-290h-209zM547 1561v290h209v-290h-209zM496 -23q-194 0 -308 101t-114 299v708q0 189 118 293.5t306 104.5q122 0 215 -41t150 -131t57 -221v-709q0 -196 -119 -300t-305 -104zM498 231q63 0 97 39t34 101v727q0 62 -36 97.5t-97 35.5q-63 0 -96 -36 t-33 -99v-723q0 -64 34 -103t97 -39z" />
<glyph unicode="&#xd7;" horiz-adv-x="892" d="M213 283l-131 131l237 241q-23 23 -120 120.5t-121 119.5l131 131l240 -238q182 183 235 238l131 -133l-235 -236q26 -28 123.5 -127.5t111.5 -113.5l-131 -131l-235 237z" />
<glyph unicode="&#xd8;" d="M260 -102l-113 32l50 140q-123 104 -123 307v708q0 189 118 293.5t306 104.5q111 0 198 -37l43 117l111 -33l-53 -144q123 -107 123 -296v-709q0 -196 -119 -300t-305 -104q-101 0 -195 33zM367 1096v-561l235 649q-38 47 -106 47q-63 0 -96 -36t-33 -99zM498 231 q63 0 97 39t34 101v547l-234 -644q37 -43 103 -43z" />
<glyph unicode="&#xd9;" horiz-adv-x="987" d="M485 -23q-192 0 -297.5 97t-105.5 291v1095h291v-1085q0 -70 36 -108t95 -38q61 0 94 39.5t31 106.5v1085h276v-1087q0 -186 -117.5 -291t-302.5 -105zM424 1554l-209 308h266l137 -308h-194z" />
<glyph unicode="&#xda;" horiz-adv-x="987" d="M403 1554l138 308h266l-209 -308h-195zM485 -23q-192 0 -297.5 97t-105.5 291v1095h291v-1085q0 -70 36 -108t95 -38q61 0 94 39.5t31 106.5v1085h276v-1087q0 -186 -117.5 -291t-302.5 -105z" />
<glyph unicode="&#xdb;" horiz-adv-x="987" d="M217 1554l189 316h192l188 -316h-208l-80 154l-82 -154h-199zM485 -23q-192 0 -297.5 97t-105.5 291v1095h291v-1085q0 -70 36 -108t95 -38q61 0 94 39.5t31 106.5v1085h276v-1087q0 -186 -117.5 -291t-302.5 -105z" />
<glyph unicode="&#xdc;" horiz-adv-x="987" d="M240 1561v290h209v-290h-209zM557 1561v290h209v-290h-209zM485 -23q-192 0 -297.5 97t-105.5 291v1095h291v-1085q0 -70 36 -108t95 -38q61 0 94 39.5t31 106.5v1085h276v-1087q0 -186 -117.5 -291t-302.5 -105z" />
<glyph unicode="&#xdd;" horiz-adv-x="923" d="M317 0v575l-305 885h307l162 -547l156 547h276l-305 -887v-573h-291zM381 1554l137 308h266l-209 -308h-194z" />
<glyph unicode="&#xde;" horiz-adv-x="950" d="M82 0v1460h291v-264h159q359 0 359 -430q0 -225 -91 -348t-278 -123h-149v-295h-291zM373 522h104q131 0 131 234q0 108 -30 158.5t-97 50.5h-108v-443z" />
<glyph unicode="&#xdf;" d="M653 -14q-101 0 -178 22l25 213q62 -12 88 -12q50 0 71 41t21 98q0 90 -46.5 166.5t-125.5 114.5v211h22q45 51 73 124t28 138q0 68 -28.5 113t-80.5 45t-79 -39t-27 -103v-1118h-266v881h-97v206h97v29q0 161 99.5 261t295.5 100q118 0 201 -47t121 -121.5t38 -169.5 q0 -107 -38.5 -209t-112.5 -160v-6q92 -85 144 -199t52 -225q0 -153 -77 -253.5t-220 -100.5z" />
<glyph unicode="&#xe0;" horiz-adv-x="841" d="M299 -20q-106 0 -175 83t-69 248q0 114 54 196.5t139.5 122t189.5 40.5h58v153q0 38 -23 61t-67 23t-65.5 -23.5t-21.5 -60.5v-88h-241v94q0 131 95.5 211t250.5 80q157 0 247.5 -81t90.5 -226v-563q0 -55 5 -152t5 -98h-246q0 2 -1.5 15.5t-4 40t-4.5 55.5h-6 q-31 -67 -92.5 -99t-118.5 -32zM403 188q36 0 64.5 31.5t28.5 77.5v213h-52q-53 0 -85.5 -42.5t-32.5 -123.5q0 -156 77 -156zM340 1202l-209 307h266l138 -307h-195z" />
<glyph unicode="&#xe1;" horiz-adv-x="841" d="M299 -20q-106 0 -175 83t-69 248q0 114 54 196.5t139.5 122t189.5 40.5h58v153q0 38 -23 61t-67 23t-65.5 -23.5t-21.5 -60.5v-88h-241v94q0 131 95.5 211t250.5 80q157 0 247.5 -81t90.5 -226v-563q0 -55 5 -152t5 -98h-246q0 2 -1.5 15.5t-4 40t-4.5 55.5h-6 q-31 -67 -92.5 -99t-118.5 -32zM403 188q36 0 64.5 31.5t28.5 77.5v213h-52q-53 0 -85.5 -42.5t-32.5 -123.5q0 -156 77 -156zM305 1202l137 307h267l-209 -307h-195z" />
<glyph unicode="&#xe2;" horiz-adv-x="841" d="M299 -20q-106 0 -175 83t-69 248q0 114 54 196.5t139.5 122t189.5 40.5h58v153q0 38 -23 61t-67 23t-65.5 -23.5t-21.5 -60.5v-88h-241v94q0 131 95.5 211t250.5 80q157 0 247.5 -81t90.5 -226v-563q0 -55 5 -152t5 -98h-246q0 2 -1.5 15.5t-4 40t-4.5 55.5h-6 q-31 -67 -92.5 -99t-118.5 -32zM403 188q36 0 64.5 31.5t28.5 77.5v213h-52q-53 0 -85.5 -42.5t-32.5 -123.5q0 -156 77 -156zM131 1202l188 316h193l188 -316h-208l-80 154l-82 -154h-199z" />
<glyph unicode="&#xe3;" horiz-adv-x="841" d="M299 -20q-106 0 -175 83t-69 248q0 114 54 196.5t139.5 122t189.5 40.5h58v153q0 38 -23 61t-67 23t-65.5 -23.5t-21.5 -60.5v-88h-241v94q0 131 95.5 211t250.5 80q157 0 247.5 -81t90.5 -226v-563q0 -55 5 -152t5 -98h-246q0 2 -1.5 15.5t-4 40t-4.5 55.5h-6 q-31 -67 -92.5 -99t-118.5 -32zM403 188q36 0 64.5 31.5t28.5 77.5v213h-52q-53 0 -85.5 -42.5t-32.5 -123.5q0 -156 77 -156zM229 1206l-135 33q16 104 66 172t129 68q45 0 128.5 -31t123.5 -31q29 0 45 17.5t30 60.5l125 -33q-15 -102 -65 -170.5t-131 -68.5 q-41 0 -127 29.5t-117 29.5q-30 0 -45 -15.5t-27 -60.5z" />
<glyph unicode="&#xe4;" horiz-adv-x="841" d="M299 -20q-106 0 -175 83t-69 248q0 114 54 196.5t139.5 122t189.5 40.5h58v153q0 38 -23 61t-67 23t-65.5 -23.5t-21.5 -60.5v-88h-241v94q0 131 95.5 211t250.5 80q157 0 247.5 -81t90.5 -226v-563q0 -55 5 -152t5 -98h-246q0 2 -1.5 15.5t-4 40t-4.5 55.5h-6 q-31 -67 -92.5 -99t-118.5 -32zM403 188q36 0 64.5 31.5t28.5 77.5v213h-52q-53 0 -85.5 -42.5t-32.5 -123.5q0 -156 77 -156zM154 1208v291h208v-291h-208zM471 1208v291h209v-291h-209z" />
<glyph unicode="&#xe5;" horiz-adv-x="841" d="M299 -20q-106 0 -175 83t-69 248q0 114 54 196.5t139.5 122t189.5 40.5h58v153q0 38 -23 61t-67 23t-65.5 -23.5t-21.5 -60.5v-88h-241v94q0 131 95.5 211t250.5 80q157 0 247.5 -81t90.5 -226v-563q0 -55 5 -152t5 -98h-246q0 2 -1.5 15.5t-4 40t-4.5 55.5h-6 q-31 -67 -92.5 -99t-118.5 -32zM403 188q36 0 64.5 31.5t28.5 77.5v213h-52q-53 0 -85.5 -42.5t-32.5 -123.5q0 -156 77 -156zM424 1184q-86 0 -141.5 53.5t-55.5 136.5q0 84 56.5 140.5t140.5 56.5q88 0 142.5 -51.5t54.5 -137.5q0 -84 -57.5 -141t-139.5 -57zM424 1284 q39 0 63.5 26t24.5 68q0 43 -23 70t-65 27q-38 0 -61 -27.5t-23 -69.5q0 -41 23.5 -67.5t60.5 -26.5z" />
<glyph unicode="&#xe6;" horiz-adv-x="1245" d="M299 -25q-106 0 -175 85t-69 251q0 169 111 264t272 95h58v153q0 38 -23 61t-67 23t-65.5 -23.5t-21.5 -60.5v-88h-241v94q0 131 95.5 211t250.5 80q137 0 217 -65q87 65 213 65q151 0 238.5 -85.5t87.5 -235.5v-348h-414v-113q0 -70 37.5 -106.5t105.5 -36.5 q93 0 211 43l49 -193q-139 -68 -309 -68q-210 0 -303 136q-25 -43 -60.5 -72.5t-73.5 -42.5t-67.5 -18t-56.5 -5zM406 188q37 0 63.5 28.5t26.5 74.5v219h-52q-53 0 -85.5 -42.5t-32.5 -123.5q0 -156 80 -156zM766 641h176v166q0 45 -22.5 72.5t-65.5 27.5q-42 0 -65 -29 t-23 -71v-166z" />
<glyph unicode="&#xe7;" horiz-adv-x="817" d="M422 -397q-95 0 -174 20v121q102 -25 162 -25q67 0 67 43q0 39 -71 43l-78 7l37 170q-133 14 -213 96.5t-80 224.5v481q0 156 102 246t252 90t240 -81t90 -210v-98h-238v82q0 40 -21.5 64t-64.5 24q-44 0 -67 -27.5t-23 -72.5v-502q0 -48 22.5 -77t67.5 -29q44 0 65 26 t21 64v84h238v-97q0 -127 -75.5 -201.5t-207.5 -86.5l-18 -82q36 0 67.5 -5t64 -18t51.5 -40t19 -66q0 -78 -68 -123t-167 -45z" />
<glyph unicode="&#xe8;" horiz-adv-x="823" d="M432 -23q-162 0 -261 85.5t-99 244.5v465q0 162 101.5 255t254.5 93q154 0 241 -88t87 -237v-344h-416v-113q0 -70 39 -106.5t108 -36.5q82 0 209 43l47 -193q-142 -68 -311 -68zM340 641h178v166q0 44 -22 72t-66 28q-43 0 -66.5 -28.5t-23.5 -71.5v-166zM356 1202 l-209 307h267l137 -307h-195z" />
<glyph unicode="&#xe9;" horiz-adv-x="823" d="M322 1202l137 307h266l-209 -307h-194zM432 -23q-162 0 -261 85.5t-99 244.5v465q0 162 101.5 255t254.5 93q154 0 241 -88t87 -237v-344h-416v-113q0 -70 39 -106.5t108 -36.5q82 0 209 43l47 -193q-142 -68 -311 -68zM340 641h178v166q0 44 -22 72t-66 28 q-43 0 -66.5 -28.5t-23.5 -71.5v-166z" />
<glyph unicode="&#xea;" horiz-adv-x="823" d="M156 1202l188 316h193l188 -316h-209l-80 154l-82 -154h-198zM432 -23q-162 0 -261 85.5t-99 244.5v465q0 162 101.5 255t254.5 93q154 0 241 -88t87 -237v-344h-416v-113q0 -70 39 -106.5t108 -36.5q82 0 209 43l47 -193q-142 -68 -311 -68zM340 641h178v166 q0 44 -22 72t-66 28q-43 0 -66.5 -28.5t-23.5 -71.5v-166z" />
<glyph unicode="&#xeb;" horiz-adv-x="823" d="M162 1208v291h209v-291h-209zM479 1208v291h209v-291h-209zM432 -23q-162 0 -261 85.5t-99 244.5v465q0 162 101.5 255t254.5 93q154 0 241 -88t87 -237v-344h-416v-113q0 -70 39 -106.5t108 -36.5q82 0 209 43l47 -193q-142 -68 -311 -68zM340 641h178v166q0 44 -22 72 t-66 28q-43 0 -66.5 -28.5t-23.5 -71.5v-166z" />
<glyph unicode="&#xec;" horiz-adv-x="438" d="M86 0v1096h266v-1096h-266zM121 1202l-209 307h266l137 -307h-194z" />
<glyph unicode="&#xed;" horiz-adv-x="438" d="M119 1202l137 307h266l-209 -307h-194zM86 0v1096h266v-1096h-266z" />
<glyph unicode="&#xee;" horiz-adv-x="438" d="M-63 1202l188 316h192l189 -316h-209l-80 154l-82 -154h-198zM86 0v1096h266v-1096h-266z" />
<glyph unicode="&#xef;" horiz-adv-x="438" d="M-41 1208v291h209v-291h-209zM276 1208v291h209v-291h-209zM86 0v1096h266v-1096h-266z" />
<glyph unicode="&#xf0;" horiz-adv-x="858" d="M139 1161l-67 146l143 28l-65 113l272 55l63 -112l144 28l69 -143l-133 -27l180 -315q46 -75 46 -164v-461q0 -109 -49.5 -186t-128.5 -111.5t-181 -34.5q-161 0 -260.5 83.5t-99.5 246.5v455q0 137 71 222.5t197 100.5q22 0 25 -2l-66 111zM432 193q90 0 90 100v481 q0 46 -23.5 74.5t-66.5 28.5q-44 0 -67 -29.5t-23 -73.5v-483q0 -43 23 -70.5t67 -27.5z" />
<glyph unicode="&#xf1;" horiz-adv-x="882" d="M86 0v1096h264v-97h2q80 121 230 121q95 0 158 -62t63 -165v-893h-266v793q0 102 -86 102q-42 0 -69.5 -38t-27.5 -93v-764h-268zM287 1206l-135 33q16 105 65.5 172.5t128.5 67.5q45 0 128.5 -31t123.5 -31q29 0 45.5 18t30.5 60l125 -33q-15 -101 -65.5 -170 t-131.5 -69q-40 0 -126 29.5t-118 29.5q-30 0 -44.5 -15.5t-26.5 -60.5z" />
<glyph unicode="&#xf2;" horiz-adv-x="862" d="M432 -23q-160 0 -260 84.5t-100 247.5v475q0 107 50.5 184.5t130.5 114.5t179 37q98 0 177.5 -34t130.5 -110t51 -183v-482q0 -162 -101.5 -248t-257.5 -86zM432 193q90 0 90 102v504q0 44 -24.5 73t-67.5 29q-44 0 -66 -29t-22 -75v-504q0 -44 23 -72t67 -28zM342 1202 l-209 307h266l138 -307h-195z" />
<glyph unicode="&#xf3;" horiz-adv-x="862" d="M322 1202l137 307h266l-209 -307h-194zM432 -23q-160 0 -260 84.5t-100 247.5v475q0 107 50.5 184.5t130.5 114.5t179 37q98 0 177.5 -34t130.5 -110t51 -183v-482q0 -162 -101.5 -248t-257.5 -86zM432 193q90 0 90 102v504q0 44 -24.5 73t-67.5 29q-44 0 -66 -29 t-22 -75v-504q0 -44 23 -72t67 -28z" />
<glyph unicode="&#xf4;" horiz-adv-x="862" d="M156 1202l188 316h193l188 -316h-209l-80 154l-82 -154h-198zM432 -23q-160 0 -260 84.5t-100 247.5v475q0 107 50.5 184.5t130.5 114.5t179 37q98 0 177.5 -34t130.5 -110t51 -183v-482q0 -162 -101.5 -248t-257.5 -86zM432 193q90 0 90 102v504q0 44 -24.5 73t-67.5 29 q-44 0 -66 -29t-22 -75v-504q0 -44 23 -72t67 -28z" />
<glyph unicode="&#xf5;" horiz-adv-x="862" d="M432 -23q-160 0 -260 84.5t-100 247.5v475q0 107 50.5 184.5t130.5 114.5t179 37q98 0 177.5 -34t130.5 -110t51 -183v-482q0 -162 -101.5 -248t-257.5 -86zM432 193q90 0 90 102v504q0 44 -24.5 73t-67.5 29q-44 0 -66 -29t-22 -75v-504q0 -44 23 -72t67 -28zM244 1206 l-135 33q16 105 65.5 172.5t128.5 67.5q45 0 128.5 -31t123.5 -31q29 0 45.5 18t30.5 60l125 -33q-15 -101 -65.5 -170t-131.5 -69q-41 0 -127 29.5t-117 29.5q-30 0 -44.5 -15.5t-26.5 -60.5z" />
<glyph unicode="&#xf6;" horiz-adv-x="862" d="M168 1208v291h209v-291h-209zM485 1208v291h209v-291h-209zM432 -23q-160 0 -260 84.5t-100 247.5v475q0 107 50.5 184.5t130.5 114.5t179 37q98 0 177.5 -34t130.5 -110t51 -183v-482q0 -162 -101.5 -248t-257.5 -86zM432 193q90 0 90 102v504q0 44 -24.5 73t-67.5 29 q-44 0 -66 -29t-22 -75v-504q0 -44 23 -72t67 -28z" />
<glyph unicode="&#xf7;" horiz-adv-x="892" d="M342 213v248h211v-248h-211zM94 561v184h705v-184h-705zM342 840v245h211v-245h-211z" />
<glyph unicode="&#xf8;" horiz-adv-x="862" d="M246 -111l-96 35l43 119q-121 88 -121 266v475q0 107 50.5 184.5t130.5 114.5t179 37q77 0 148 -22l41 110l96 -30l-47 -129q121 -89 121 -256v-482q0 -162 -101.5 -248t-257.5 -86q-73 0 -147 23zM342 797v-348l156 423q-29 29 -68 29q-44 0 -66 -29t-22 -75zM432 193 q90 0 90 102v350l-155 -426q23 -26 65 -26z" />
<glyph unicode="&#xf9;" horiz-adv-x="882" d="M303 -25q-96 0 -159.5 63t-63.5 167v891h266v-793q0 -100 88 -100q42 0 69 38t27 93v762h267v-1096h-262v106h-3q-83 -131 -229 -131zM342 1202l-209 307h266l138 -307h-195z" />
<glyph unicode="&#xfa;" horiz-adv-x="882" d="M340 1202l137 307h266l-208 -307h-195zM303 -25q-96 0 -159.5 63t-63.5 167v891h266v-793q0 -100 88 -100q42 0 69 38t27 93v762h267v-1096h-262v106h-3q-83 -131 -229 -131z" />
<glyph unicode="&#xfb;" horiz-adv-x="882" d="M160 1202l188 316h193l188 -316h-209l-80 154l-82 -154h-198zM303 -25q-96 0 -159.5 63t-63.5 167v891h266v-793q0 -100 88 -100q42 0 69 38t27 93v762h267v-1096h-262v106h-3q-83 -131 -229 -131z" />
<glyph unicode="&#xfc;" horiz-adv-x="882" d="M176 1208v291h209v-291h-209zM494 1208v291h208v-291h-208zM303 -25q-96 0 -159.5 63t-63.5 167v891h266v-793q0 -100 88 -100q42 0 69 38t27 93v762h267v-1096h-262v106h-3q-83 -131 -229 -131z" />
<glyph unicode="&#xfd;" horiz-adv-x="796" d="M225 -348q-81 0 -147 16l24 211q56 -12 91 -12q63 0 79 59l21 82l-281 1088h279l133 -660h6l111 660h243l-266 -1159q-37 -146 -108.5 -215.5t-184.5 -69.5zM315 1202l138 307h266l-209 -307h-195z" />
<glyph unicode="&#xfe;" horiz-adv-x="866" d="M82 -330v1790h266v-465h4q35 56 95 89.5t120 33.5q121 0 177.5 -73.5t56.5 -196.5v-608q0 -111 -70.5 -187t-193.5 -76q-52 0 -102 24.5t-83 68.5h-2v-400h-268zM444 190q39 0 63.5 25.5t24.5 73.5v518q0 44 -24 71t-62 27q-43 0 -69.5 -30t-26.5 -91v-487 q0 -51 27.5 -79t66.5 -28z" />
<glyph unicode="&#xff;" horiz-adv-x="796" d="M225 -348q-81 0 -147 16l24 211q56 -12 91 -12q63 0 79 59l21 82l-281 1088h279l133 -660h6l111 660h243l-266 -1159q-37 -146 -108.5 -215.5t-184.5 -69.5zM154 1208v291h208v-291h-208zM471 1208v291h209v-291h-209z" />
<glyph unicode="&#x152;" horiz-adv-x="1400" d="M453 -16q-189 0 -284 97.5t-95 299.5v700q0 193 101 295.5t284 102.5q46 0 95 -15.5t77 -40.5v37h704v-243h-415v-347h331v-245h-331v-377h417v-248h-706v45q-28 -26 -79 -43.5t-99 -17.5zM500 236q62 0 96.5 39.5t34.5 101.5v719q0 61 -36 96t-97 35q-63 0 -97 -36 t-34 -99v-715q0 -62 34.5 -101.5t98.5 -39.5z" />
<glyph unicode="&#x153;" horiz-adv-x="1273" d="M432 -23q-160 0 -260 84.5t-100 247.5v475q0 107 50.5 184.5t130.5 114.5t179 37q138 0 230 -69q90 69 221 69q155 0 240 -87.5t85 -237.5v-344h-413v-113q0 -71 38 -107t107 -36q78 0 209 43l49 -193q-75 -36 -145.5 -52t-163.5 -16q-143 0 -232 66q-89 -66 -225 -66z M432 193q90 0 90 102v504q0 44 -24.5 73t-67.5 29q-44 0 -66 -29t-22 -75v-504q0 -44 23 -72t67 -28zM795 641h178v166q0 45 -23 72.5t-67 27.5q-43 0 -65.5 -28.5t-22.5 -71.5v-166z" />
<glyph unicode="&#x178;" horiz-adv-x="923" d="M317 0v575l-305 885h307l162 -547l156 547h276l-305 -887v-573h-291zM213 1561v290h209v-290h-209zM530 1561v290h209v-290h-209z" />
<glyph unicode="&#x2c6;" horiz-adv-x="641" d="M37 1202l188 316h193l188 -316h-209l-80 154l-81 -154h-199z" />
<glyph unicode="&#x2dc;" horiz-adv-x="741" d="M188 1206l-135 33q16 104 66 172t129 68q45 0 128.5 -31t123.5 -31q29 0 45 17.5t30 60.5l125 -33q-15 -102 -65 -170.5t-131 -68.5q-40 0 -126 29.5t-118 29.5q-30 0 -45 -15.5t-27 -60.5z" />
<glyph unicode="&#x2000;" horiz-adv-x="957" />
<glyph unicode="&#x2001;" horiz-adv-x="1915" />
<glyph unicode="&#x2002;" horiz-adv-x="957" />
<glyph unicode="&#x2003;" horiz-adv-x="1915" />
<glyph unicode="&#x2004;" horiz-adv-x="638" />
<glyph unicode="&#x2005;" horiz-adv-x="478" />
<glyph unicode="&#x2006;" horiz-adv-x="319" />
<glyph unicode="&#x2007;" horiz-adv-x="319" />
<glyph unicode="&#x2008;" horiz-adv-x="239" />
<glyph unicode="&#x2009;" horiz-adv-x="383" />
<glyph unicode="&#x200a;" horiz-adv-x="106" />
<glyph unicode="&#x2010;" horiz-adv-x="493" d="M49 510v209h395v-209h-395z" />
<glyph unicode="&#x2011;" horiz-adv-x="493" d="M49 510v209h395v-209h-395z" />
<glyph unicode="&#x2012;" horiz-adv-x="493" d="M49 510v209h395v-209h-395z" />
<glyph unicode="&#x2013;" horiz-adv-x="755" d="M0 539v176h756v-176h-756z" />
<glyph unicode="&#x2014;" horiz-adv-x="1302" d="M0 539v176h1303v-176h-1303z" />
<glyph unicode="&#x2018;" horiz-adv-x="399" d="M74 901v285l96 276h129l-59 -262h86v-299h-252z" />
<glyph unicode="&#x2019;" horiz-adv-x="401" d="M104 899l56 262h-86v299h254v-284l-97 -277h-127z" />
<glyph unicode="&#x201a;" horiz-adv-x="399" d="M106 -227l52 243l-84 19l6 282l248 -18l-4 -287l-97 -258z" />
<glyph unicode="&#x201c;" horiz-adv-x="757" d="M74 901v285l96 276h129l-59 -262h86v-299h-252zM430 901v285l96 276h127l-57 -262h88v-299h-254z" />
<glyph unicode="&#x201d;" horiz-adv-x="757" d="M104 899l56 262h-86v299h254v-284l-97 -277h-127zM459 899l59 262h-88v299h254v-284l-98 -277h-127z" />
<glyph unicode="&#x201e;" horiz-adv-x="757" d="M104 -246l56 262h-86v301h254v-284l-97 -279h-127zM459 -246l59 262h-88v301h254v-284l-98 -279h-127z" />
<glyph unicode="&#x2022;" horiz-adv-x="782" d="M393 444q-119 0 -203 84t-84 203t84 202t203 83q117 0 200 -83t83 -202t-82.5 -203t-200.5 -84z" />
<glyph unicode="&#x2026;" horiz-adv-x="1159" d="M74 0v317h254v-317h-254zM453 0v317h254v-317h-254zM831 0v317h254v-317h-254z" />
<glyph unicode="&#x202f;" horiz-adv-x="383" />
<glyph unicode="&#x2039;" horiz-adv-x="481" d="M291 231l-248 328l246 332l139 -82l-117 -250l121 -250z" />
<glyph unicode="&#x203a;" horiz-adv-x="481" d="M186 231l-139 82l115 250l-119 248l143 80l248 -328z" />
<glyph unicode="&#x205f;" horiz-adv-x="478" />
<glyph unicode="&#x20ac;" horiz-adv-x="1005" d="M563 -23q-183 0 -295 95.5t-112 271.5v168h-103v160h103v123h-103v157h103v164q0 165 117.5 267t291.5 102q170 0 278.5 -92t108.5 -256v-103h-262v88q0 60 -34 93.5t-93 33.5q-56 0 -86.5 -36t-30.5 -91v-170h261v-157h-261v-123h261v-160h-261v-164q0 -62 33.5 -97.5 t91.5 -35.5q57 0 88 34.5t31 92.5v78h262v-84q0 -168 -108.5 -263.5t-280.5 -95.5z" />
<glyph unicode="&#x2122;" horiz-adv-x="1073" d="M498 840v626h184l68 -260l63 260h180v-626h-133v391l-63 -242h-103l-65 242v-391h-131zM176 840v501h-123v125h393v-125h-122v-501h-148z" />
<glyph unicode="&#x25fc;" horiz-adv-x="1095" d="M0 1096h1096v-1096h-1096v1096z" />
</font>
</defs>
</svg>
